<svg xmlns="http://www.w3.org/2000/svg" viewBox="0 0 200 135.23">
  <path d="M128 79.51L138.68 70a11.88 11.88 0 0 0 10.65 6.1c5.19 0 7.83-2.18 7.83-6.46q0-7.1-9-7.1h-7.74v-8.1L152.33 43h-20.12V30.17h37.88v11l-12.38 11.49c8.74 2.45 14.11 8.46 14.11 17.11a18.93 18.93 0 0 1-6 14.48c-4.1 3.73-9.74 5.64-17.12 5.64-9.48 0-16.94-4.1-20.7-10.38zm-6 25.95h-14.69V64.31l-7.83 7.55-8.65-9.65 16-15.11H122zM0 0v105.22h51c9.56 0 17.39-2.73 23.67-8.28S85.07 84 85.07 67.62c0-16.54-4.1-23.82-10.38-29.38S60.58 30 51 30H29.81v55.42h15.48V44.07h5.46c5.6 0 10.19 1.79 13.22 4.87 2.54 2.57 5 6.27 5 18.68C69 79.81 66.52 83.69 64 86.28c-3 3.09-7.57 4.88-13.17 4.88H15V15h170v105.24H45.29v-9.31H29.81v24.31H200V0z" />
</svg>
