<?xml version="1.0" encoding="UTF-8"?>
<svg width="1440px" height="798px" viewBox="0 0 1440 798" version="1.1" xmlns="http://www.w3.org/2000/svg" xmlns:xlink="http://www.w3.org/1999/xlink">
    <!-- Generator: Sketch 48.2 (47327) - http://www.bohemiancoding.com/sketch -->
    <title>Background</title>
    <desc>Created with Sketch.</desc>
    <defs></defs>
    <g id="bee-v3/01-hero" stroke="none" stroke-width="1" fill="none" fill-rule="evenodd" opacity="0.100000001">
        <g id="Background" stroke="#000">
            <polyline id="Stroke-1" points="477.7232 50.4081319 485.5922 33.4993209 477.6482 16.7073635 457.2632 16.7073635 449.6192 33.4993209 457.3432 50.1953985"></polyline>
            <polyline id="Stroke-3" points="449.6192 33.6957747 429.4122 33.2902829 421.4402 50.9361702 429.2942 66.7723254"></polyline>
            <polyline id="Stroke-5" points="401.331 51.6641579 393.111 34.6854345 372.726 34.6854345 365.082 50.7303282 373.319 67.0498776"></polyline>
            <polyline id="Stroke-7" points="345.2964 50.7301284 337.3524 34.6852348 316.9674 34.6852348 309.3234 50.7301284 317.0464 67.2134726"></polyline>
            <polyline id="Stroke-9" points="196.5516 282.374947 175.2466 282.374947 167.8726 298.770401 176.2196 314.916168"></polyline>
            <polyline id="Stroke-11" points="196.5516 251.413745 175.2466 251.413745 167.6016 267.924056 175.5226 283.941983"></polyline>
            <polyline id="Stroke-13" points="196.5516 218.455047 175.2466 218.455047 167.6016 234.399067 175.5226 251.068178"></polyline>
            <polyline id="Stroke-15" points="197.5516 150.540153 176.3716 150.540153 167.6016 167.473933 175.7236 184.236927"></polyline>
            <polyline id="Stroke-17" points="167.5516 198.480078 148.1926 198.480078 140.5476 215.044321 147.7586 231.428789"></polyline>
            <polyline id="Stroke-19" points="167.602 167.115882 147.958 167.185794 140.548 182.668392 148.192 198.188943"></polyline>
            <polyline id="Stroke-21" points="139.5516 280.37745 120.3126 280.37745 112.6686 297.298246 120.3926 314.334897 140.5476 314.334897 148.1926 299.35367 167.5516 299.35367"></polyline>
            <polyline id="Stroke-23" points="140.548 182.668592 119.916 182.573711 112.669 198.221103 119.916 214.998079"></polyline>
            <polyline id="Stroke-25" points="139.5516 151.538902 120.3126 151.538902 112.6686 167.349089 119.8196 183.111337"></polyline>
            <polyline id="Stroke-27" points="113.5516 231.438776 92.4336 231.438776 84.7896 248.007014 92.8796 264.389485"></polyline>
            <polyline id="Stroke-29" points="113.5516 167.518877 92.4336 167.518877 85.7416 183.978251 93.9636 199.964218"></polyline>
            <polyline id="Stroke-31" points="86.5516 280.37745 64.2546 280.37745 56.6106 297.298246 64.3336 314.334897 84.7896 314.334897 92.4336 297.356173 113.5516 297.356173"></polyline>
            <polyline id="Stroke-33" points="84.7892 247.69151 64.2542 247.678526 56.6102 264.368611 64.2542 280.586288"></polyline>
            <polyline id="Stroke-35" points="86.5516 183.498852 64.2546 183.498852 56.6106 199.312036 65.2896 216.072033"></polyline>
            <polyline id="Stroke-37" points="56.6101 264.369011 36.7321 263.916577 28.3631 281.421641 37.1041 298.293499"></polyline>
            <polyline id="Stroke-39" points="57.5516 231.438776 36.0756 231.438776 28.4306 248.007014 36.7006 264.389485"></polyline>
            <polyline id="Stroke-41" points="56.6101 199.346093 35.5451 199.349089 28.4311 214.898604 36.0751 231.599675"></polyline>
            <polyline id="Stroke-43" points="28.5516 281.376198 8.1956 281.376198 0.5516 297.297247 8.2756 314.334897 28.4306 314.334897 37.1036 297.878519 56.7046 297.504987"></polyline>
            <polyline id="Stroke-45" points="167.5516 0.72788786 148.4916 0.72788786 140.8476 17.2681607 147.9086 33.6646138"></polyline>
            <path d="M167.8722,0.228513642 L176.6342,17.3870118" id="Stroke-47"></path>
            <path d="M112.7437,0.228513642 L120.6287,17.3870118" id="Stroke-49"></path>
            <polyline id="Stroke-51" points="113.5516 0.72788786 92.4336 0.72788786 85.1556 17.0943785"></polyline>
            <polyline id="Stroke-53" points="36.3751 0.228513642 28.7311 17.0184736 36.8821 33.2900831"></polyline>
            <polyline id="Stroke-55" points="450.5516 0.72788786 428.7846 0.72788786 421.1406 17.2681607 429.5546 33.6646138"></polyline>
            <polyline id="Stroke-57" points="421.1403 17.2346028 400.6053 17.0997717 393.1113 34.6517767"></polyline>
            <polyline id="Stroke-59" points="393.111 0.718998999 372.726 0.661071589 365.082 17.2343031 372.726 34.6524758"></polyline>
            <path d="M392.8866,0.228513642 L400.6056,17.100371" id="Stroke-61"></path>
            <polyline id="Stroke-63" points="365.0818 17.0182738 344.8468 17.1001712 337.3528 35.0966193"></polyline>
            <polyline id="Stroke-65" points="316.9674 34.9002653 308.8734 16.7080626 288.4884 16.7080626 280.8444 33.2872866"></polyline>
            <path d="M316.6676,0.228513642 L308.8736,16.6569267" id="Stroke-67"></path>
            <path d="M281.5045,0.228513642 L288.4885,17.100371" id="Stroke-69"></path>
            <polyline id="Stroke-71" points="282.5516 0.72788786 260.6086 0.72788786 252.9646 17.2681607 261.4676 33.6646138"></polyline>
            <path d="M450.2653,0.228513642 L457.2633,17.100371" id="Stroke-73"></path>
            <polyline id="Stroke-75" points="28.5516 16.7078628 8.1956 16.7078628 0.5516 33.4998203 8.2606 49.770431"></polyline>
            <path d="M0.5516,0.90316821 L8.1666,17.3865124" id="Stroke-77"></path>
            <polyline id="Stroke-79" points="450.5516 498.104609 429.0846 498.104609 420.1686 515.812419 428.0696 530.952446"></polyline>
            <polyline id="Stroke-81" points="450.5516 433.18596 429.0846 433.18596 421.4396 448.45982 429.7046 465.48948"></polyline>
            <polyline id="Stroke-83" points="450.5516 397.231017 429.0846 397.231017 421.4396 413.999004 429.2756 432.303067"></polyline>
            <polyline id="Stroke-85" points="450.5516 367.268564 429.0846 367.268564 421.4396 382.534434 429.2276 397.546621"></polyline>
            <polyline id="Stroke-87" points="420.5516 516.082081 400.9056 516.082081 393.2606 531.116241 399.2316 544.980867"></polyline>
            <polyline id="Stroke-89" points="421.0442 481.484636 400.9052 481.533574 393.2612 497.357745 400.9052 515.52398"></polyline>
            <polyline id="Stroke-91" points="421.44 447.37488 400.846 447.088239 393.261 463.489686 400.905 481.533075"></polyline>
            <polyline id="Stroke-93" points="421.44 414.019778 400.905 414.144622 393.261 430.69688 400.846 447.088339"></polyline>
            <polyline id="Stroke-95" points="421.44 382.351962 401.055 382.651587 393.261 397.49199 400.905 414.145121"></polyline>
            <polyline id="Stroke-97" points="393.2609 530.83719 372.7259 530.520587 365.0819 546.576467 372.3339 562.215869"></polyline>
            <polyline id="Stroke-99" points="393.2609 497.358244 372.7259 497.52903 365.0819 513.597894 372.3339 530.230051"></polyline>
            <polyline id="Stroke-101" points="393.2609 463.489985 372.7259 463.634804 365.0819 480.167087 372.7259 497.378519"></polyline>
            <polyline id="Stroke-103" points="365.5516 514.084584 345.2526 514.084584 337.2026 531.11724 345.1146 547.287975"></polyline>
            <polyline id="Stroke-105" points="365.0818 480.167486 344.8468 480.507061 337.2028 496.844588 345.2528 513.342913"></polyline>
            <polyline id="Stroke-107" points="365.0818 382.138829 345.2968 382.351563 337.2028 397.49159 345.0918 413.7632"></polyline>
            <polyline id="Stroke-109" points="401.0551 382.533934 393.1111 367.268064 372.7261 367.268064 365.0821 382.533934 372.8051 399.017278"></polyline>
            <polyline id="Stroke-111" points="337.2024 496.844987 317.6394 497.378319 309.3234 513.597993 317.9544 530.230151"></polyline>
            <polyline id="Stroke-113" points="336.5516 466.144659 316.9676 466.144659 309.3226 481.422514 317.8306 497.833948"></polyline>
            <polyline id="Stroke-115" points="309.5516 482.124634 288.7886 482.124634 281.1436 497.654173 289.0566 514.555993"></polyline>
            <polyline id="Stroke-117" points="309.5516 449.165935 288.7886 449.165935 281.1436 464.69148 289.0566 481.595297"></polyline>
            <polyline id="Stroke-119" points="309.5516 414.20974 288.7886 414.20974 281.1436 431.229412 289.0566 447.886539"></polyline>
            <polyline id="Stroke-121" points="281.1439 464.379271 260.6089 464.538072 252.9649 481.118295 261.2759 497.995146"></polyline>
            <polyline id="Stroke-123" points="252.9648 414.019778 232.7298 414.144622 225.0858 430.69688 233.5028 447.088339"></polyline>
            <polyline id="Stroke-125" points="288.9381 413.998605 280.9941 397.230617 260.6091 397.230617 252.9651 413.998605 260.8431 431.027266"></polyline>
            <polyline id="Stroke-127" points="345.2964 382.533934 337.3524 367.268064 316.9674 367.268064 309.3234 382.533934 317.0464 399.017278"></polyline>
            <polyline id="Stroke-129" points="309.5516 382.24979 288.9386 382.24979 281.3476 397.544624"></polyline>
            <polyline id="Stroke-131" points="288.9381 382.533934 280.9941 367.268064 260.6091 367.268064 252.9651 382.533934 260.6091 397.455236"></polyline>
            <polyline id="Stroke-133" points="252.9648 382.351962 231.9688 382.089291 225.0858 398.397855 232.7298 414.145121"></polyline>
            <polyline id="Stroke-135" points="225.5516 398.229765 204.1286 398.229765 196.9066 413.751315 205.7006 429.911064"></polyline>
            <polyline id="Stroke-137" points="197.5516 414.20974 176.3716 414.20974 168.7276 431.229412 176.8486 447.886539"></polyline>
            <polyline id="Stroke-139" points="140.548 414.019778 120.313 414.144622 112.669 430.69688 119.916 447.088339"></polyline>
            <polyline id="Stroke-141" points="168.7271 397.342277 148.1921 397.273364 140.5481 414.019379 148.4821 430.502723"></polyline>
            <polyline id="Stroke-143" points="113.5516 531.063307 92.4336 531.063307 84.7896 546.848526 92.6256 562.919387"></polyline>
            <polyline id="Stroke-145" points="113.5516 498.104609 92.4336 498.104609 84.7896 513.885833 92.8796 530.66181"></polyline>
            <polyline id="Stroke-147" points="84.7892 513.522488 64.8852 513.342713 56.6102 530.199589 63.7712 546.868701"></polyline>
            <polyline id="Stroke-149" points="86.5516 482.124634 64.2546 482.124634 56.6106 497.654173 65.2896 514.555993"></polyline>
            <polyline id="Stroke-151" points="56.6101 530.199989 36.0751 529.996244 28.4311 546.314795 35.6501 563.532219"></polyline>
            <polyline id="Stroke-153" points="56.6101 496.844987 36.7321 496.568334 28.4311 513.522089 36.0751 529.996444"></polyline>
            <polyline id="Stroke-155" points="57.5516 466.144659 36.0756 466.144659 28.4306 481.422514 36.9236 497.022964"></polyline>
            <polyline id="Stroke-157" points="64.4043 448.459421 56.4603 433.185561 36.0753 433.185561 28.4313 448.459421 36.0753 465.857619"></polyline>
            <polyline id="Stroke-159" points="86.5516 415.208489 64.9146 415.208489 56.8646 432.080346"></polyline>
            <polyline id="Stroke-161" points="56.5516 397.231017 36.0756 397.231017 28.4306 413.999004 36.2666 432.303067"></polyline>
            <polyline id="Stroke-163" points="226.5516 367.268564 204.5506 367.268564 196.9066 382.534434 204.2166 398.671212"></polyline>
            <polyline id="Stroke-165" points="196.9062 382.351962 175.6102 382.089291 168.7272 397.342177 176.3712 414.145121"></polyline>
            <polyline id="Stroke-167" points="167.5516 367.268564 148.4916 367.268564 140.8476 382.534434 148.0316 397.546621"></polyline>
            <polyline id="Stroke-169" points="167.5516 333.311117 148.4916 333.311117 140.8476 349.071367 148.3316 367.860822"></polyline>
            <polyline id="Stroke-171" points="140.8477 382.351962 120.6287 381.676808 112.9687 397.342177 120.3127 414.145121"></polyline>
            <polyline id="Stroke-173" points="140.8477 348.434565 120.6917 348.240808 112.9687 365.111667 120.6287 381.676908"></polyline>
            <polyline id="Stroke-175" points="113.5516 365.271067 92.5836 365.271067 84.7896 381.570641 92.7676 397.560604"></polyline>
            <polyline id="Stroke-177" points="84.7892 381.262627 64.3342 381.595211 56.6102 397.342477 64.9152 415.55066"></polyline>
            <polyline id="Stroke-179" points="56.6101 365.112066 37.1701 365.251891 28.7311 382.352462 36.0751 397.273763"></polyline>
            <polyline id="Stroke-181" points="92.5835 364.846499 84.6395 349.290992 64.2545 349.290992 56.6105 365.303926 64.3335 381.78727"></polyline>
            <polyline id="Stroke-183" points="120.6127 315.165056 112.9687 331.757264 120.6917 348.240608"></polyline>
            <path d="M148.4921,332.036614 L140.5481,315.164757" id="Stroke-185"></path>
            <polyline id="Stroke-187" points="113.5516 331.31362 92.4336 331.31362 84.8306 349.309069"></polyline>
            <polyline id="Stroke-189" points="64.2545 315.165056 56.6105 331.757264 64.2545 348.907772"></polyline>
            <path d="M92.4336,331.573195 L84.6396,315.164757" id="Stroke-191"></path>
            <polyline id="Stroke-193" points="56.6101 331.757064 36.3751 332.036714 28.7311 348.434166 37.1701 365.252091"></polyline>
            <polyline id="Stroke-195" points="420.5516 349.291092 400.6056 349.291092 392.8806 367.28754"></polyline>
            <polyline id="Stroke-197" points="392.5516 333.311117 372.7256 333.311117 365.0816 349.071367 372.5586 367.860822"></polyline>
            <polyline id="Stroke-199" points="365.0818 348.434565 345.2968 348.403604 337.3528 366.90442"></polyline>
            <polyline id="Stroke-201" points="316.9674 367.09598 308.8734 349.291292 288.4884 349.291292 280.9944 367.19186"></polyline>
            <polyline id="Stroke-203" points="339.5516 333.311117 316.6676 333.311117 309.7706 350.182974"></polyline>
            <polyline id="Stroke-205" points="281.2649 430.877054 260.8429 431.048839 253.0319 446.881997 260.5389 464.617772"></polyline>
            <polyline id="Stroke-207" points="450.5516 466.144659 429.5206 466.144659 421.0446 481.788056 429.2756 497.984759"></polyline>
            <polyline id="Stroke-209" points="954.5516 167.518877 933.7966 167.518877 926.1526 183.226193 934.0606 199.792434"></polyline>
            <polyline id="Stroke-211" points="962.6171 149.680431 954.1811 133.56163 933.7971 133.56163 926.1681 150.589292 933.7971 167.584994"></polyline>
            <polyline id="Stroke-213" points="897.5516 166.520128 877.4386 166.520128 869.7936 183.227192 877.3816 200.040123"></polyline>
            <polyline id="Stroke-215" points="821.6738 69.6504188 813.8858 52.6627066 793.5008 52.6627066 785.8558 68.1063537 793.0578 85.6463737"></polyline>
            <polyline id="Stroke-217" points="702.5516 316.332393 681.0836 316.332393 674.2896 332.07966"></polyline>
            <path d="M674.0981,332.323954 L652.9041,332.036314" id="Stroke-219"></path>
            <polyline id="Stroke-221" points="674.5516 233.436273 652.9046 233.436273 645.2606 248.026989 653.6146 264.835925"></polyline>
            <polyline id="Stroke-223" points="646.5516 279.378701 624.7006 279.378701 616.7756 297.834574 625.0416 315.421535"></polyline>
            <polyline id="Stroke-225" points="645.2603 247.837227 624.7253 247.678426 617.0813 264.514328 624.7013 280.296551"></polyline>
            <polyline id="Stroke-227" points="616.5516 297.356173 596.8456 297.356173 589.2016 315.775092 596.9256 333.311117 617.0806 333.311117 624.8506 315.333645 646.5516 315.333645"></polyline>
            <polyline id="Stroke-229" points="617.5516 264.397475 597.8456 264.397475 589.2016 281.115525 596.7336 297.179395"></polyline>
            <polyline id="Stroke-231" points="616.5516 233.436273 596.8456 233.436273 589.2016 249.15158 597.7336 264.834927"></polyline>
            <polyline id="Stroke-233" points="589.2017 281.192229 568.9667 281.421941 561.3227 297.307035 569.2577 313.468782"></polyline>
            <polyline id="Stroke-235" points="589.2017 248.962018 568.8477 248.683367 561.3227 264.514528 568.9667 281.421342"></polyline>
            <path d="M540.5982,232.64896 L560.9782,232.810757" id="Stroke-237"></path>
            <polyline id="Stroke-239" points="560.9786 232.810757 568.8476 216.086715 560.9036 199.478527 540.5186 199.478527 532.8746 216.086715 540.5986 232.689909"></polyline>
            <polyline id="Stroke-241" points="560.9037 199.313334 568.8477 184.12237 560.9037 168.517925 540.5187 168.517925 532.8747 184.12237 540.5187 199.488115"></polyline>
            <polyline id="Stroke-243" points="673.5516 135.558927 652.2216 135.558927 644.5776 151.305194 652.7736 168.099149"></polyline>
            <polyline id="Stroke-245" points="674.5516 99.603983 653.3466 99.603983 644.5776 117.968969 652.4206 135.498003"></polyline>
            <polyline id="Stroke-247" points="646.5516 183.498852 624.3986 183.498852 616.7756 199.087317 625.5026 215.516729"></polyline>
            <polyline id="Stroke-249" points="644.5777 151.126618 623.5597 150.947842 616.3987 167.277379 624.6017 183.814656"></polyline>
            <polyline id="Stroke-251" points="644.5777 117.771617 624.2237 117.577859 616.3987 135.448465 623.5597 150.948042"></polyline>
            <polyline id="Stroke-253" points="616.7759 199.144446 595.8639 199.313234 588.2199 216.296951 596.5429 233.277672"></polyline>
            <polyline id="Stroke-255" points="616.3986 167.241724 595.8636 166.695409 588.2196 183.35653 595.8636 199.313534"></polyline>
            <polyline id="Stroke-257" points="616.3986 135.448865 595.8636 135.201175 588.2196 151.126219 595.8636 166.694709"></polyline>
            <path d="M588.2194,183.35683 L568.8474,183.773308" id="Stroke-259"></path>
            <polyline id="Stroke-261" points="588.2194 151.126618 567.9844 150.947842 560.9034 168.616701"></polyline>
            <polyline id="Stroke-263" points="701.6185 17.1639912 680.7565 17.1000713 673.4395 33.8091327 681.8375 50.0897309"></polyline>
            <polyline id="Stroke-265" points="674.1685 66.9022626 652.9045 66.5896543 645.2605 83.3386656 653.3475 99.6342451"></polyline>
            <polyline id="Stroke-267" points="673.4394 33.8095322 652.9844 33.6477349 645.2604 50.5185935 652.9044 66.5904533"></polyline>
            <polyline id="Stroke-269" points="645.2603 17.1639912 625.0253 17.1000713 617.3813 33.8410926 624.8513 50.1376708"></polyline>
            <polyline id="Stroke-271" points="680.7563 17.3497584 673.2893 0.727588235 652.9043 0.727588235 645.2603 17.4136783 652.9843 33.8970225"></polyline>
            <polyline id="Stroke-273" points="569.1166 50.3764716 561.1726 33.6863865 540.7876 33.6863865 533.1436 50.3764716 540.8666 66.8598158"></polyline>
            <polyline id="Stroke-275" points="625.0252 17.3497584 617.5312 0.727588235 597.1462 0.727588235 589.5012 17.4136783 597.2252 33.8970225"></polyline>
            <polyline id="Stroke-277" points="589.5516 16.7078628 568.9666 16.7078628 561.0616 33.5797202"></polyline>
            <polyline id="Stroke-279" points="568.9667 17.3497584 561.1727 0.727588235 540.7877 0.727588235 533.1437 17.4136783 540.8667 33.8970225"></polyline>
            <polyline id="Stroke-281" points="533.1432 17.1639912 512.9082 17.1000713 505.2642 33.8410926 513.1012 50.1376708"></polyline>
            <polyline id="Stroke-283" points="925.8525 17.1639912 905.3175 17.1000713 897.6735 33.8410926 905.6315 50.1376708"></polyline>
            <polyline id="Stroke-285" points="897.6734 33.841592 877.1384 33.9714293 869.1914 50.3389186"></polyline>
            <polyline id="Stroke-287" points="869.4943 17.1639912 849.2593 17.1000713 841.6153 33.8410926 849.4753 50.1376708"></polyline>
            <polyline id="Stroke-289" points="905.4676 17.4136783 897.5236 0.727588235 877.1386 0.727588235 869.4946 17.4136783 877.2176 33.8970225"></polyline>
            <polyline id="Stroke-291" points="841.6149 33.841592 821.3799 33.9714293 813.8859 52.6470263"></polyline>
            <polyline id="Stroke-293" points="793.5005 52.6643046 785.4065 33.6860869 765.0215 33.6860869 757.3775 50.2153735"></polyline>
            <polyline id="Stroke-295" points="849.7089 17.4136783 841.7649 0.727588235 821.3799 0.727588235 813.7359 17.4136783 821.3799 34.2216158"></polyline>
            <polyline id="Stroke-297" points="813.7355 17.1639912 793.2005 17.1000713 785.4065 33.9719287"></polyline>
            <polyline id="Stroke-299" points="793.3506 17.4136783 785.4066 0.727588235 765.0216 0.727588235 757.3776 17.4136783 765.0216 34.2216158"></polyline>
            <polyline id="Stroke-301" points="709.2629 0.228513642 701.6189 17.1642909 709.1599 33.647635"></polyline>
            <polyline id="Stroke-303" points="933.4969 0.228513642 925.8529 17.1642909 934.0589 33.9712295"></polyline>
            <polyline id="Stroke-305" points="512.9082 17.3497584 505.1142 0.727588235 484.7292 0.727588235 477.6482 17.474602"></polyline>
            <polyline id="Stroke-307" points="926.5516 150.540153 906.0546 150.540153 897.5776 166.8617 905.7036 183.937302"></polyline>
            <polyline id="Stroke-309" points="962.3809 548.463403 954.1819 532.061956 933.7969 532.061956 926.1519 547.493618 933.7969 565.33526"></polyline>
            <polyline id="Stroke-311" points="962.3809 515.812019 954.1819 498.104209 933.7969 498.104209 926.1519 514.031251 933.7969 531.484379"></polyline>
            <polyline id="Stroke-313" points="962.3809 415.387564 954.1819 399.228813 933.7969 399.228813 926.1519 414.143124 933.8759 430.889139"></polyline>
            <polyline id="Stroke-315" points="926.5516 415.208489 905.6176 415.208489 897.9736 431.37523 905.7036 448.698521"></polyline>
            <polyline id="Stroke-317" points="926.5516 382.24979 905.6176 382.24979 896.9186 398.572336 905.7036 414.836954"></polyline>
            <polyline id="Stroke-319" points="897.5516 398.229765 877.4386 398.229765 869.7936 414.143823 877.3816 430.35351"></polyline>
            <polyline id="Stroke-321" points="870.5516 415.208489 849.2596 415.208489 841.6146 431.37523 849.7926 447.958449"></polyline>
            <polyline id="Stroke-323" points="877.4384 398.571737 869.6444 383.248938 849.2594 383.248938 841.6154 398.911311 849.2594 414.443847"></polyline>
            <polyline id="Stroke-325" points="815.5516 482.124634 793.5006 482.124634 785.8566 497.79999 794.4126 514.628902"></polyline>
            <polyline id="Stroke-327" points="815.5516 450.164684 793.5006 450.164684 785.8566 465.336671 793.8816 482.214521"></polyline>
            <polyline id="Stroke-329" points="815.5516 415.208489 793.5006 415.208489 785.8566 431.37523 793.8816 448.685537"></polyline>
            <polyline id="Stroke-331" points="785.8561 496.990705 765.3161 496.641143 757.6771 513.667806 765.3161 530.190101"></polyline>
            <polyline id="Stroke-333" points="785.8561 465.197845 765.3101 465.235798 757.6771 480.312904 765.3161 496.641442"></polyline>
            <polyline id="Stroke-335" points="785.8561 430.843096 765.3211 431.016879 757.6711 447.820821 765.3101 465.235997"></polyline>
            <polyline id="Stroke-337" points="821.8295 398.911311 813.8855 383.248938 793.5005 383.248938 785.8565 398.911311 793.5005 415.395654"></polyline>
            <polyline id="Stroke-339" points="785.8561 398.612785 764.7331 398.519902 757.5921 413.639954"></polyline>
            <polyline id="Stroke-341" points="702.5516 415.208489 681.0836 415.208489 673.4396 431.37523 681.7046 447.958449"></polyline>
            <polyline id="Stroke-343" points="674.5516 433.18596 652.9046 433.18596 645.1686 449.862063 653.6146 465.562388"></polyline>
            <polyline id="Stroke-345" points="646.5516 516.082081 624.7256 516.082081 617.0806 531.262058 625.5256 548.338659"></polyline>
            <polyline id="Stroke-347" points="646.5516 450.164684 624.7256 450.164684 617.0806 465.336671 625.5256 482.417267"></polyline>
            <polyline id="Stroke-349" points="617.0811 530.345706 596.6981 530.189902 589.2021 547.022808 596.6981 563.73886"></polyline>
            <polyline id="Stroke-351" points="616.5516 498.104609 596.8456 498.104609 589.2016 514.03165 596.5856 530.734719"></polyline>
            <polyline id="Stroke-353" points="617.0811 464.198098 596.6981 463.935427 589.2021 480.312904 596.8461 497.378519"></polyline>
            <polyline id="Stroke-355" points="616.5516 433.18596 596.8456 433.18596 589.2016 448.605638 596.5856 465.562388"></polyline>
            <polyline id="Stroke-357" points="653.0544 432.960543 645.1104 415.208788 624.7254 415.208788 616.1684 432.375276 624.7254 449.370978"></polyline>
            <polyline id="Stroke-359" points="589.2017 513.668206 568.9667 514.249477 561.6477 531.121334 568.9667 546.868601"></polyline>
            <polyline id="Stroke-361" points="589.2017 480.313204 568.9667 480.506961 561.3227 496.990305 568.9667 514.249677"></polyline>
            <polyline id="Stroke-363" points="589.5516 450.164684 568.9666 450.164684 561.3226 466.461262 568.8526 481.63325"></polyline>
            <polyline id="Stroke-365" points="562.5516 532.062056 540.7876 532.062056 533.1436 547.493718 542.2116 563.975064"></polyline>
            <polyline id="Stroke-367" points="596.8461 432.375176 589.3521 415.208688 568.9671 415.208688 561.3221 431.374431 568.9671 449.370879"></polyline>
            <path d="M709.2629,398.323947 L702.1689,415.55036" id="Stroke-369"></path>
            <polyline id="Stroke-371" points="702.5516 383.248539 681.0836 383.248539 673.4396 398.910912 681.2756 415.317352"></polyline>
            <polyline id="Stroke-373" points="702.5516 349.291092 681.0836 349.291092 673.4396 365.448844 681.2186 382.938927"></polyline>
            <polyline id="Stroke-375" points="673.4394 398.612785 653.0544 398.567842 645.1104 415.55056"></polyline>
            <polyline id="Stroke-377" points="673.4394 365.257783 652.9844 365.064026 645.2604 381.934885 653.0544 398.568041"></polyline>
            <polyline id="Stroke-379" points="645.2603 381.935284 624.8513 381.749517 617.3813 398.612386 624.7253 415.551159"></polyline>
            <polyline id="Stroke-381" points="645.5516 348.292343 625.4746 348.292343 617.3806 365.449843 625.6756 382.038056"></polyline>
            <polyline id="Stroke-383" points="652.9046 332.036614 645.2606 348.579883 652.9836 365.063227"></polyline>
            <path d="M681.0837,349.568344 L674.1547,332.036314" id="Stroke-385"></path>
            <polyline id="Stroke-387" points="617.3809 398.612785 597.4099 398.523897 589.3519 415.55056"></polyline>
            <polyline id="Stroke-389" points="617.3809 365.257783 597.1459 365.780129 589.1689 383.55885 597.4099 398.524096"></polyline>
            <polyline id="Stroke-391" points="589.5516 383.248539 568.9666 383.248539 561.3226 398.910912 569.1586 415.317352"></polyline>
            <polyline id="Stroke-393" points="568.9667 382.89638 561.1727 366.270215 540.7877 366.270215 533.1437 382.180277 541.7177 398.643647"></polyline>
            <polyline id="Stroke-395" points="596.9255 333.572589 589.5015 348.579783 597.1455 365.780229"></polyline>
            <path d="M625.4749,348.580283 L617.0809,333.573089" id="Stroke-397"></path>
            <polyline id="Stroke-399" points="589.5516 349.291092 568.9666 349.291092 561.0616 366.162949"></polyline>
            <polyline id="Stroke-401" points="568.9667 349.545473 561.1727 333.310817 540.7877 333.310817 533.1437 349.217884 540.7877 366.41733"></polyline>
            <polyline id="Stroke-403" points="897.5516 366.269815 877.1386 366.269815 869.9606 383.141673"></polyline>
            <polyline id="Stroke-405" points="793.5005 382.89638 785.4065 366.270215 765.0215 366.270215 757.3775 382.407992"></polyline>
            <polyline id="Stroke-407" points="815.5516 349.291092 793.2006 349.291092 785.7876 366.162949"></polyline>
            <polyline id="Stroke-409" points="793.3506 349.217484 785.4066 333.311417 765.0216 333.311417 757.3776 349.217484 765.0216 366.416931"></polyline>
            <polyline id="Stroke-411" points="1431.9081 215.242373 1439.7771 199.312335 1431.8331 183.499151 1411.4481 183.499151 1403.8041 199.312335 1411.5281 215.519026"></polyline>
            <polyline id="Stroke-413" points="1431.8333 183.566567 1439.7773 166.349142 1431.8333 150.539953 1411.4483 150.539953 1404.0593 167.309938 1411.4483 183.745343"></polyline>
            <polyline id="Stroke-415" points="1431.8333 150.621152 1439.7773 133.386749 1431.8333 117.581555 1411.4483 117.581555 1403.8043 133.386749 1411.4483 150.609167"></polyline>
            <polyline id="Stroke-417" points="1403.8041 199.346093 1383.6851 199.349089 1375.6251 215.824443 1383.6851 232.235878"></polyline>
            <polyline id="Stroke-419" points="1404.0588 167.350987 1383.2688 167.616654 1375.6248 183.129215 1383.6848 199.348889"></polyline>
            <polyline id="Stroke-421" points="1405.5516 101.60148 1383.2696 101.60148 1375.6246 117.154989 1383.8976 133.60138"></polyline>
            <polyline id="Stroke-423" points="1376.5516 248.4175 1355.0896 248.4175 1347.4456 264.738048 1355.2816 280.453355"></polyline>
            <polyline id="Stroke-425" points="1376.5516 150.540153 1355.0896 150.540153 1347.4456 166.349342 1355.7076 183.111337"></polyline>
            <polyline id="Stroke-427" points="1375.6249 117.171369 1355.5159 117.20233 1347.4459 132.411271 1355.0899 150.621451"></polyline>
            <polyline id="Stroke-429" points="1376.5516 84.6227564 1355.0896 84.6227564 1347.4456 100.423955 1355.7076 117.189945"></polyline>
            <polyline id="Stroke-431" points="1376.5516 50.6653096 1355.0896 50.6653096 1347.4456 66.9618879 1355.2816 84.6517202"></polyline>
            <polyline id="Stroke-433" points="1347.4458 264.369011 1326.5738 264.17825 1319.2668 280.483817 1327.2108 297.784137"></polyline>
            <polyline id="Stroke-435" points="1347.4458 165.991191 1326.8158 165.799431 1319.2668 182.668292 1326.8158 199.34839"></polyline>
            <polyline id="Stroke-437" points="1347.5516 132.562681 1326.9106 132.562681 1319.2666 149.619307 1327.0076 165.752091"></polyline>
            <polyline id="Stroke-439" points="1319.2666 149.31359 1299.4436 149.024952 1291.3876 165.990692 1299.3756 182.573911"></polyline>
            <polyline id="Stroke-441" points="1319.0118 116.483231 1299.0318 116.079737 1291.3868 132.635989 1299.4438 149.024453"></polyline>
            <polyline id="Stroke-443" points="1319.2666 49.8109802 1299.0316 49.7180966 1291.3876 66.4880816 1299.3756 82.7706773"></polyline>
            <polyline id="Stroke-445" points="1355.0901 50.6649101 1347.2961 33.6861867 1326.9111 33.6861867 1319.2671 49.6681592 1326.9901 66.1515034"></polyline>
            <polyline id="Stroke-447" points="1291.8191 264.184642 1271.3011 264.310484 1263.6571 281.369107 1271.4271 298.888153"></polyline>
            <polyline id="Stroke-449" points="1291.3873 165.991191 1271.3723 165.799431 1263.5083 182.668292 1271.3723 199.34839"></polyline>
            <polyline id="Stroke-451" points="1291.3873 132.636089 1271.1523 132.951694 1263.5083 149.313191 1271.3723 165.799531"></polyline>
            <polyline id="Stroke-453" points="1263.6566 281.369607 1242.9736 281.586335 1235.3286 297.402515 1243.0526 314.335296 1263.5076 314.335296 1271.4276 298.473173 1291.1256 298.223486"></polyline>
            <polyline id="Stroke-455" points="1263.5516 248.4175 1242.9736 248.4175 1235.3286 264.738048 1243.1646 281.453102"></polyline>
            <polyline id="Stroke-457" points="1263.5079 149.31359 1242.9579 149.187748 1235.3289 166.390191 1242.9579 183.172161"></polyline>
            <polyline id="Stroke-459" points="1263.5516 117.581455 1242.9736 117.581455 1235.3286 133.386649 1243.1496 149.150894"></polyline>
            <polyline id="Stroke-461" points="1235.3287 165.991191 1215.0667 165.799431 1207.1497 181.543702 1215.0667 198.223799"></polyline>
            <polyline id="Stroke-463" points="1235.5516 133.56143 1214.7936 133.56143 1207.1496 149.618308 1215.0596 166.256459"></polyline>
            <polyline id="Stroke-465" points="1207.1497 149.31359 1187.1757 149.21771 1179.2707 165.990692 1187.6257 182.573911"></polyline>
            <polyline id="Stroke-467" points="1179.2703 165.991191 1159.0943 166.198931 1151.0913 182.916981 1159.4943 199.720923"></polyline>
            <polyline id="Stroke-469" points="1149.5516 150.540153 1130.5566 150.540153 1122.1356 166.999527 1129.1646 182.762774"></polyline>
            <polyline id="Stroke-471" points="1121.5516 199.478827 1102.0416 199.478827 1094.9316 216.267788 1102.1486 232.029037"></polyline>
            <polyline id="Stroke-473" points="1122.5516 166.520128 1101.3776 166.520128 1094.7326 183.081375 1101.8516 199.967215"></polyline>
            <polyline id="Stroke-475" points="1095.5516 216.45755 1074.8336 216.45755 1066.8536 232.490459 1074.7816 248.877923"></polyline>
            <polyline id="Stroke-477" points="1094.7329 182.668592 1075.0829 182.573711 1066.8539 199.279776 1074.9489 216.085716"></polyline>
            <polyline id="Stroke-479" points="1094.5516 150.540153 1074.4976 150.540153 1066.8536 166.349342 1075.4546 183.111337"></polyline>
            <polyline id="Stroke-481" points="1094.5516 117.581455 1074.4976 117.581455 1066.8536 133.386649 1074.8706 150.94964"></polyline>
            <polyline id="Stroke-483" points="1066.8535 199.279976 1046.7225 199.312934 1038.9745 214.898404 1047.2485 231.932058"></polyline>
            <polyline id="Stroke-485" points="1066.8535 165.991191 1047.1605 165.799431 1038.2485 182.668292 1046.7225 199.313434"></polyline>
            <polyline id="Stroke-487" points="1066.8535 132.636089 1046.7485 132.552194 1038.9745 149.313191 1047.1605 165.799531"></polyline>
            <polyline id="Stroke-489" points="1038.2485 182.668592 1019.0085 182.573711 1010.7945 199.345693 1019.3695 215.060001"></polyline>
            <polyline id="Stroke-491" points="1038.9741 149.31359 1019.2671 149.375513 1010.7951 165.990692 1019.0081 182.573911"></polyline>
            <polyline id="Stroke-493" points="1039.5516 117.581455 1018.4396 117.581455 1010.7946 133.386649 1019.1406 150.501202"></polyline>
            <polyline id="Stroke-495" points="1010.795 199.346093 990.758 199.280175 982.616 214.898604 991.589 231.43588"></polyline>
            <polyline id="Stroke-497" points="1010.795 165.991191 990.855 165.799431 982.424 183.566167 990.758 199.280475"></polyline>
            <polyline id="Stroke-499" points="1010.795 132.636089 991.103 132.727974 982.616 149.313191 990.855 165.799531"></polyline>
            <polyline id="Stroke-501" points="982.5516 183.498852 962.3806 183.498852 954.7366 199.312036 963.3746 215.009365"></polyline>
            <polyline id="Stroke-503" points="982.6158 149.31359 962.6168 149.375513 954.2978 166.694809 962.3808 183.566667"></polyline>
            <polyline id="Stroke-505" points="1207.1497 17.0182738 1186.9147 17.1001712 1179.2707 33.6953752 1187.6257 50.0648621"></polyline>
            <polyline id="Stroke-507" points="1180.5516 0.72788786 1158.7356 0.72788786 1151.0916 17.2681607 1160.2316 33.6646138"></polyline>
            <polyline id="Stroke-509" points="1121.5516 34.6853347 1102.6766 34.6853347 1095.0326 50.7302283 1102.0016 67.374371"></polyline>
            <polyline id="Stroke-511" points="1122.5516 0.72788786 1102.6766 0.72788786 1095.0326 17.2681607 1102.8686 34.7023134"></polyline>
            <path d="M1121.9332,0.228513642 L1130.7572,17.3870118" id="Stroke-513"></path>
            <polyline id="Stroke-515" points="1095.0326 17.0182738 1074.7976 17.1001712 1067.1536 33.6953752 1074.7516 50.0648621"></polyline>
            <polyline id="Stroke-517" points="1013.5516 32.6878378 991.0046 32.6878378 984.0406 48.385167 993.0126 64.9813697"></polyline>
            <path d="M1067.9298,0.228513642 L1074.7978,17.100371" id="Stroke-519"></path>
            <polyline id="Stroke-521" points="1068.5516 0.72788786 1046.6186 0.72788786 1039.2486 17.0943785"></polyline>
            <polyline id="Stroke-523" points="990.56 0.228513642 982.916 17.0184736 991.005 32.8466388"></polyline>
            <polyline id="Stroke-525" points="1320.1552 314.642811 1327.5802 297.523264 1347.6302 297.074826 1355.0902 280.377749 1376.5512 280.377749"></polyline>
            <polyline id="Stroke-527" points="1319.2666 280.484116 1299.3656 280.283368 1291.3876 298.849102 1299.1106 315.299488"></polyline>
            <polyline id="Stroke-529" points="1376.5516 16.7078628 1354.7906 16.7078628 1347.4876 33.703565"></polyline>
            <polyline id="Stroke-531" points="1347.5516 0.72788786 1326.9106 0.72788786 1319.2666 17.2681607 1327.0656 34.0111795"></polyline>
            <path d="M1346.9476,0.228513642 L1354.7906,17.100371" id="Stroke-533"></path>
            <polyline id="Stroke-535" points="1319.2666 17.0182738 1299.0316 17.1001712 1291.6516 33.4666618"></polyline>
            <polyline id="Stroke-537" points="1271.0023 33.4997204 1263.0583 16.707763 1242.6733 16.707763 1235.0293 33.286987"></polyline>
            <path d="M1291.8191,0.228513642 L1299.0321,17.100371" id="Stroke-539"></path>
            <polyline id="Stroke-541" points="1292.5516 0.72788786 1270.8526 0.72788786 1263.2496 16.7238428"></polyline>
            <path d="M1234.4404,0.228513642 L1242.6734,16.6569267" id="Stroke-543"></path>
            <polyline id="Stroke-545" points="1234.5516 0.72788786 1214.7936 0.72788786 1207.1496 17.2681607 1214.9806 33.6646138"></polyline>
            <path d="M1179.3119,0.228513642 L1186.9149,17.100371" id="Stroke-547"></path>
            <polyline id="Stroke-549" points="982.9156 17.0182738 962.3806 17.1001712 954.7366 33.6953752 961.9066 50.8428871"></polyline>
            <polyline id="Stroke-553" points="1403.8041 133.411018 1383.7061 133.625749 1375.6431 150.835183 1383.2691 167.617153"></polyline>
            <polyline id="Stroke-555" points="1405.5516 498.104609 1383.2696 498.104609 1375.0746 514.612922 1384.2976 530.66181"></polyline>
            <polyline id="Stroke-557" points="1383.2693 431.016679 1375.6253 447.375179 1383.6843 463.862519"></polyline>
            <polyline id="Stroke-559" points="1405.5516 397.231017 1383.2696 397.231017 1375.6246 413.999004 1384.0296 431.021673"></polyline>
            <polyline id="Stroke-561" points="1375.5516 515.083332 1356.2426 515.083332 1347.4456 531.216116 1355.2076 547.460759"></polyline>
            <polyline id="Stroke-563" points="1375.2291 480.533428 1355.0591 480.441543 1347.4461 497.358344 1356.2431 514.524832"></polyline>
            <polyline id="Stroke-565" points="1375.6249 447.37488 1354.9689 447.088239 1347.4459 463.489686 1355.0589 480.441443"></polyline>
            <polyline id="Stroke-567" points="1375.6249 414.019778 1355.0899 414.144622 1347.4459 430.69688 1354.9689 447.088339"></polyline>
            <polyline id="Stroke-569" points="1347.4458 530.199989 1326.9108 529.996244 1319.2668 546.314795 1326.9108 563.739959"></polyline>
            <polyline id="Stroke-571" points="1347.4458 496.844987 1326.8158 496.568334 1319.2668 513.522089 1326.8158 530.117293"></polyline>
            <polyline id="Stroke-573" points="1347.4458 463.489985 1326.9108 463.634804 1319.2668 480.167087 1326.8158 496.568534"></polyline>
            <polyline id="Stroke-575" points="1319.2666 513.522488 1299.3756 513.342713 1291.3876 530.199589 1299.6266 546.868701"></polyline>
            <polyline id="Stroke-577" points="1319.2666 480.167486 1299.2896 480.02866 1291.3876 496.844588 1299.3756 513.342913"></polyline>
            <polyline id="Stroke-579" points="1292.5516 531.063307 1271.1526 531.063307 1263.5076 546.848526 1271.7386 563.622506"></polyline>
            <polyline id="Stroke-581" points="1292.5516 498.104609 1271.1526 498.104609 1263.5076 513.885833 1271.7386 530.66181"></polyline>
            <polyline id="Stroke-583" points="1263.5079 513.597894 1242.9729 513.524985 1235.3289 530.83729 1243.0529 546.576567"></polyline>
            <polyline id="Stroke-585" points="1263.5516 482.124634 1242.9736 482.124634 1235.3286 497.654173 1242.9026 513.464361"></polyline>
            <polyline id="Stroke-587" points="1235.5516 531.063307 1214.7936 531.063307 1207.1496 546.848526 1214.9856 563.919134"></polyline>
            <polyline id="Stroke-589" points="1235.3287 496.844987 1214.7937 497.378319 1207.1497 514.521836 1215.0667 530.117293"></polyline>
            <polyline id="Stroke-591" points="1121.5516 531.063307 1102.3776 531.063307 1094.7326 546.848526 1101.6866 564.493415"></polyline>
            <polyline id="Stroke-593" points="1121.5516 433.18596 1102.3776 433.18596 1094.7326 448.45982 1101.8516 465.48948"></polyline>
            <polyline id="Stroke-595" points="1095.5516 516.082081 1075.6226 516.082081 1067.9786 531.116241 1075.9326 548.242779"></polyline>
            <polyline id="Stroke-597" points="1094.5516 415.208489 1074.4976 415.208489 1066.8536 431.229412 1074.4116 447.88554"></polyline>
            <polyline id="Stroke-599" points="1067.5516 531.063307 1046.6186 531.063307 1038.9736 546.848526 1046.4296 563.414766"></polyline>
            <polyline id="Stroke-601" points="1066.8535 430.697279 1046.7685 430.503522 1038.9745 447.37438 1047.1605 463.862718"></polyline>
            <polyline id="Stroke-603" points="1039.5516 516.082081 1018.4396 516.082081 1010.7946 531.116241 1018.3136 548.242779"></polyline>
            <polyline id="Stroke-605" points="1010.795 530.83719 990.26 530.520587 982.424 548.255363 990.26 563.615115"></polyline>
            <polyline id="Stroke-607" points="982.5516 549.040779 962.3806 549.040779 954.2456 565.912636"></polyline>
            <polyline id="Stroke-609" points="982.5516 516.082081 962.3806 516.082081 954.3726 532.078036"></polyline>
            <polyline id="Stroke-611" points="982.5516 449.165935 962.3806 449.165935 954.7366 464.69148 962.3536 481.595297"></polyline>
            <polyline id="Stroke-613" points="1018.5892 448.459421 1010.6452 433.185561 990.2602 433.185561 982.6162 448.459421 990.3392 464.942765"></polyline>
            <polyline id="Stroke-615" points="1039.5516 415.208489 1018.4396 415.208489 1010.5196 432.080346"></polyline>
            <polyline id="Stroke-617" points="1018.4393 415.387564 1010.6453 399.228813 990.2603 399.228813 982.1683 415.387564 990.2603 432.383266"></polyline>
            <polyline id="Stroke-619" points="982.5516 415.208489 962.3806 415.208489 954.7366 431.229412 962.3536 447.88554"></polyline>
            <polyline id="Stroke-621" points="1327.0156 331.621534 1319.4166 314.335196 1299.0316 314.335196 1291.3876 331.341885 1298.6686 350.149316"></polyline>
            <polyline id="Stroke-623" points="1291.3873 331.757064 1270.3633 331.703132 1263.2333 348.737785"></polyline>
            <polyline id="Stroke-625" points="1347.4508 430.943471 1326.9258 431.012384 1319.0118 447.507713 1326.9108 463.635503"></polyline>
            <polyline id="Stroke-627" points="1383.7059 463.635104 1375.2289 480.533927 1383.4169 497.320891"></polyline>
            <polyline id="Stroke-629" points="561.3224 496.990705 541.8474 497.378219 534.0734 515.14096 540.7874 531.121934"></polyline>
            <polyline id="Stroke-631" points="561.3224 465.322789 541.5694 464.953252 534.1684 481.533475 541.8474 497.378619"></polyline>
            <polyline id="Stroke-633" points="561.3224 430.843096 541.5694 431.404393 534.0734 448.431056 541.5694 464.953352"></polyline>
            <polyline id="Stroke-635" points="562.5516 398.229765 541.7176 398.229765 534.0736 414.99176 542.0216 431.277352"></polyline>
            <polyline id="Stroke-637" points="534.0732 515.141359 514.6152 514.947602 506.1942 530.131575 512.6082 546.868601"></polyline>
            <polyline id="Stroke-639" points="534.1685 481.533375 514.1285 481.728131 506.2425 498.774769 514.8765 515.624654"></polyline>
            <polyline id="Stroke-641" points="534.0732 448.431356 514.1292 448.178673 506.1942 465.108457 514.1292 481.727631"></polyline>
            <polyline id="Stroke-643" points="534.0732 415.076354 513.8382 415.270111 506.1942 431.753456 514.1292 448.178872"></polyline>
            <polyline id="Stroke-645" points="506.2425 498.774669 485.4835 499.742456 478.0145 514.016569 485.9755 530.926379"></polyline>
            <polyline id="Stroke-647" points="506.5516 466.144659 485.6586 466.144659 478.0146 482.915643 485.6756 500.197985"></polyline>
            <polyline id="Stroke-649" points="478.0147 514.016569 457.8227 514.433047 449.8357 530.131375 457.8227 546.29512"></polyline>
            <polyline id="Stroke-651" points="478.5516 483.123382 457.4796 483.123382 449.8356 498.647928 458.0146 514.875592"></polyline>
            <path d="M289.7072,182.264898 L310.0872,182.195984" id="Stroke-653"></path>
            <polyline id="Stroke-655" points="310.0875 182.195984 317.9565 165.810517 310.0125 149.541904 289.6275 149.541904 281.9835 165.810517 289.7075 182.244923"></polyline>
            <polyline id="Stroke-657" points="310.0875 149.229096 317.9565 133.846373 310.0125 118.580503 289.6275 118.580503 281.9835 133.846373 289.7075 149.779407"></polyline>
            <polyline id="Stroke-659" points="421.5516 84.6227564 401.3306 84.6227564 393.6866 100.030449 401.2016 117.618409"></polyline>
            <polyline id="Stroke-661" points="421.5516 51.6640581 401.3306 51.6640581 393.6866 67.5671294 401.3286 84.2821832"></polyline>
            <polyline id="Stroke-663" points="393.3656 133.871142 373.5476 134.122826 365.5076 150.256609 373.5476 167.107492"></polyline>
            <polyline id="Stroke-665" points="393.6866 100.038139 373.4686 100.441633 365.5076 117.277536 373.5466 134.122427"></polyline>
            <polyline id="Stroke-667" points="393.6866 67.1568436 373.3186 67.2547209 365.5076 83.8339449 373.4686 100.441134"></polyline>
            <polyline id="Stroke-669" points="365.5075 150.256409 344.9725 150.620952 337.3285 165.995685 345.4575 182.476033"></polyline>
            <polyline id="Stroke-671" points="366.5516 117.581455 344.9726 117.581455 337.3286 133.492516 345.1646 150.585097"></polyline>
            <polyline id="Stroke-673" points="365.5075 83.8343444 345.8345 83.7993882 337.3285 101.037786 345.4575 118.004525"></polyline>
            <path d="M337.5516,133.56143 L318.5516,133.56143" id="Stroke-675"></path>
            <polyline id="Stroke-677" points="337.5516 100.602731 317.9566 100.602731 310.2046 118.598181"></polyline>
            <path d="M401.0893,182.264898 L421.4693,182.195984" id="Stroke-679"></path>
            <polyline id="Stroke-681" points="421.4696 182.195984 429.3386 165.810517 421.3946 149.541904 401.0096 149.541904 393.3656 165.810517 401.0896 182.244923"></polyline>
            <polyline id="Stroke-683" points="421.4696 149.229096 429.3386 133.846373 421.3946 117.581754 401.0096 117.581754 393.3656 133.846373 401.0896 149.779407"></polyline>
            <polyline id="Stroke-685" points="534.5516 85.6215049 512.7126 85.6215049 505.0686 101.029197 513.5196 117.99194"></polyline>
            <polyline id="Stroke-687" points="533.1432 50.5190929 513.1012 50.137571 505.0692 67.1572431 513.0042 83.6665547"></polyline>
            <polyline id="Stroke-689" points="505.5516 134.560178 484.5336 134.560178 476.8896 150.22355 484.9296 167.058454"></polyline>
            <polyline id="Stroke-691" points="505.5516 101.60148 484.5336 101.60148 476.8896 117.260857 484.9296 134.097758"></polyline>
            <polyline id="Stroke-693" points="505.5516 69.6415299 484.5336 69.6415299 476.8896 84.7975374 484.9296 101.886123"></polyline>
            <polyline id="Stroke-695" points="477.5516 149.541405 456.3546 149.541405 448.7106 165.955835 456.8406 182.41521"></polyline>
            <polyline id="Stroke-697" points="477.5516 117.581455 456.3546 117.581455 448.7106 133.492516 456.8406 150.203575"></polyline>
            <polyline id="Stroke-699" points="477.5516 85.6215049 456.3546 85.6215049 448.7106 101.029197 456.8406 117.99194"></polyline>
            <path d="M448.7105,133.516985 L429.3385,133.871541" id="Stroke-701"></path>
            <polyline id="Stroke-703" points="448.7105 101.037786 429.3385 101.384352 421.3945 117.629994"></polyline>
            <polyline id="Stroke-705" points="870.3561 84.846576 849.4161 84.6388363 841.7721 101.232043 849.6791 117.854213"></polyline>
            <polyline id="Stroke-707" points="878.0004 67.6515237 869.8014 51.6635587 849.4164 51.6635587 842.1684 69.651018 849.4164 84.6472258"></polyline>
            <polyline id="Stroke-709" points="813.5516 85.6215049 793.0576 85.6215049 785.4136 101.222954 792.1916 117.090071"></polyline>
            <polyline id="Stroke-711" points="842.5516 69.6415299 821.6736 69.6415299 813.1966 85.3578353 821.5136 102.736058"></polyline>
            <polyline id="Stroke-713" points="956.5516 100.602731 934.0586 100.602731 926.4146 117.810168 934.3616 133.810118"></polyline>
            <polyline id="Stroke-715" points="957.5516 67.644033 935.0586 67.644033 926.4146 84.8474748 934.6236 100.905352"></polyline>
            <polyline id="Stroke-717" points="954.7365 33.6957747 934.0585 33.9714293 927.2955 50.8432866 935.0585 67.643234"></polyline>
            <polyline id="Stroke-719" points="926.4146 117.825649 906.6596 118.205173 898.9746 134.153188 906.0546 150.621551"></polyline>
            <polyline id="Stroke-721" points="926.4146 84.882431 906.4746 84.6906713 898.2356 100.559785 906.6596 118.204674"></polyline>
            <polyline id="Stroke-723" points="927.5516 51.6640581 905.8796 51.6640581 898.2356 67.6150693 906.6026 84.3061532"></polyline>
            <polyline id="Stroke-725" points="898.2355 100.560185 877.9095 100.465304 870.3565 117.237286 877.9095 134.014262"></polyline>
            <polyline id="Stroke-727" points="898.5516 67.644033 878.0006 67.644033 870.3556 84.8474748 878.1006 100.465903"></polyline>
            <polyline id="Stroke-729" points="1066.5156 264.947585 1047.1986 264.767811 1039.6046 281.360019 1046.2366 298.189928"></polyline>
            <polyline id="Stroke-731" points="1066.5516 232.437525 1047.2486 232.437525 1039.6046 248.158824 1047.0716 265.147535"></polyline>
            <polyline id="Stroke-733" points="1038.6362 314.980088 1018.4342 314.957117 1011.0562 331.066929 1018.9102 345.927307"></polyline>
            <polyline id="Stroke-735" points="1039.6044 281.360019 1019.3694 281.421941 1011.7254 298.316769 1018.4344 314.957916"></polyline>
            <polyline id="Stroke-737" points="1039.6044 247.905442 1019.8284 247.81056 1011.7254 264.582543 1019.3694 281.421442"></polyline>
            <polyline id="Stroke-739" points="1038.5516 215.458802 1019.3696 215.458802 1011.7246 231.42779 1019.7646 248.109885"></polyline>
            <polyline id="Stroke-741" points="1011.725 264.583042 992.387 264.616001 983.846 280.135553 992.033 296.447112"></polyline>
            <polyline id="Stroke-743" points="1011.725 231.228041 991.589 231.43578 984.674 248.59328 992.363 264.300596"></polyline>
            <polyline id="Stroke-745" points="984.5516 249.416248 963.3106 249.416248 955.6666 264.889858 963.8176 281.819643"></polyline>
            <polyline id="Stroke-747" points="982.6158 214.898903 963.3108 215.0607 955.6668 231.22844 963.3108 248.803416"></polyline>
            <polyline id="Stroke-749" points="955.6664 264.583042 935.7264 264.586039 927.4874 280.135553 935.7264 296.447112"></polyline>
            <polyline id="Stroke-751" points="955.6664 231.228041 935.3444 231.43578 927.4874 247.905142 935.7264 264.58524"></polyline>
            <polyline id="Stroke-753" points="1234.5516 328.317375 1214.4556 328.317375 1206.8116 345.913325 1214.5116 363.427377"></polyline>
            <polyline id="Stroke-755" points="1235.5516 298.354922 1215.5816 298.354922 1206.8116 315.011049 1214.6476 328.403267"></polyline>
            <polyline id="Stroke-757" points="1235.3287 264.369011 1214.3347 264.767511 1206.3137 281.421641 1215.5807 298.293499"></polyline>
            <polyline id="Stroke-759" points="1234.5516 232.437525 1214.4556 232.437525 1206.8116 248.523367 1214.3906 265.147535"></polyline>
            <polyline id="Stroke-761" points="1207.0209 346.041264 1186.4859 346.052251 1178.6329 362.763309 1186.5769 380.212443"></polyline>
            <polyline id="Stroke-763" points="1206.8118 314.980088 1185.8518 314.957117 1178.6328 330.532599 1186.2768 346.658391"></polyline>
            <polyline id="Stroke-765" points="1206.3136 281.421841 1186.2766 281.586635 1178.5376 297.530655 1185.8516 314.957816"></polyline>
            <polyline id="Stroke-767" points="1206.8118 248.270085 1186.6248 248.349984 1178.6328 265.213852 1186.2768 281.586335"></polyline>
            <polyline id="Stroke-769" points="1178.6327 330.532798 1158.6177 330.496844 1150.7537 346.647605 1158.7417 362.884258"></polyline>
            <polyline id="Stroke-771" points="1178.5378 297.947832 1158.7418 298.317369 1150.7528 314.980488 1158.6178 330.497043"></polyline>
            <polyline id="Stroke-773" points="1178.6327 265.214251 1158.3977 265.590779 1150.7537 281.582739 1159.1697 298.253848"></polyline>
            <polyline id="Stroke-775" points="1180.5516 232.437525 1158.3976 232.437525 1150.7536 248.523367 1158.5886 265.469132"></polyline>
            <polyline id="Stroke-777" points="1150.7533 346.647904 1130.7383 346.953521 1123.0583 363.529749 1131.2543 380.018087"></polyline>
            <polyline id="Stroke-779" points="1150.7533 314.980088 1130.4783 314.810301 1122.8743 330.532599 1130.7383 346.953022"></polyline>
            <polyline id="Stroke-781" points="1150.7533 281.625086 1130.5183 281.42234 1122.6133 298.302188 1130.4783 314.810501"></polyline>
            <polyline id="Stroke-783" points="1150.7533 248.270085 1130.6953 248.349984 1122.8743 264.947186 1130.5183 281.421541"></polyline>
            <polyline id="Stroke-785" points="1122.5516 363.27357 1102.3386 363.27357 1094.6946 380.69374 1102.4186 397.231017 1122.8736 397.231017 1131.2536 379.996614 1150.4996 380.364153"></polyline>
            <polyline id="Stroke-787" points="1122.8739 330.532798 1102.4649 330.496844 1094.6949 346.647605 1102.3389 362.530701"></polyline>
            <polyline id="Stroke-789" points="1122.6133 298.302587 1102.5853 298.31657 1094.6953 314.979689 1102.4653 330.497243"></polyline>
            <polyline id="Stroke-791" points="1122.8739 264.947585 1102.5859 264.767811 1094.6949 281.624687 1102.5859 298.316769"></polyline>
            <polyline id="Stroke-793" points="1122.5516 232.437525 1102.3386 232.437525 1094.6946 248.523367 1102.3326 265.147535"></polyline>
            <polyline id="Stroke-795" points="1094.6948 346.647904 1074.3788 346.7308 1066.5158 362.76271 1074.3518 380.401606"></polyline>
            <polyline id="Stroke-797" points="1094.6948 314.980088 1074.3518 314.957117 1064.4408 330.310877 1074.3788 346.7313"></polyline>
            <polyline id="Stroke-799" points="1094.6948 281.625086 1074.1598 281.42234 1066.5158 298.317169 1074.3518 314.957317"></polyline>
            <polyline id="Stroke-801" points="1094.6948 248.270085 1074.3528 248.349984 1066.5158 264.947186 1074.1598 281.421541"></polyline>
            <polyline id="Stroke-803" points="1066.5156 362.76311 1046.9916 362.883958 1038.6366 380.322106 1046.3596 397.230917 1066.5156 397.230917 1074.3516 380.381032 1094.6946 380.333092"></polyline>
            <polyline id="Stroke-805" points="1064.4404 330.310677 1046.9194 330.496444 1037.3934 346.953821 1046.9924 362.884857"></polyline>
            <polyline id="Stroke-807" points="1066.5156 298.316869 1046.2366 298.190028 1038.6366 314.979988 1046.9196 330.496544"></polyline>
            <polyline id="Stroke-809" points="1178.6882 363.134544 1158.7692 363.069626 1150.7672 380.096289 1158.4842 396.585626 1178.9362 396.705475 1186.5782 380.224129 1206.8122 380.373941 1214.4562 363.27337 1234.5512 363.27337"></polyline>
            <polyline id="Stroke-811" points="1206.8118 379.996314 1213.9908 397.717108 1234.9908 397.273663 1242.2008 382.421275 1262.7588 382.270464"></polyline>
            <polyline id="Stroke-813" points="1214.1564 397.273464 1207.4384 415.269912 1214.8984 432.141769"></polyline>
            <path d="M1242.778,415.269812 L1234.991,397.273364" id="Stroke-815"></path>
            <polyline id="Stroke-817" points="1102.0393 397.273464 1094.3953 416.034953 1101.8733 432.519296"></polyline>
            <polyline id="Stroke-819" points="1347.5516 366.269815 1327.0156 366.269815 1319.9456 381.77139 1328.3736 398.733134"></polyline>
            <polyline id="Stroke-821" points="1347.5516 331.31362 1327.0156 331.31362 1319.3716 349.420929 1326.9026 366.774183"></polyline>
            <polyline id="Stroke-823" points="1320.5516 416.207237 1298.8366 416.207237 1291.1926 432.076351 1299.5806 448.808383"></polyline>
            <polyline id="Stroke-825" points="1319.9459 381.918705 1298.7159 381.85079 1291.1919 398.769589 1299.4169 415.979023"></polyline>
            <polyline id="Stroke-827" points="1319.3713 349.550966 1298.8363 349.907519 1291.1923 365.46003 1298.7153 381.851489"></polyline>
            <polyline id="Stroke-829" points="1291.1921 431.608138 1270.6571 432.141469 1263.0131 448.285239 1270.5621 464.880443"></polyline>
            <polyline id="Stroke-831" points="1291.5516 398.229765 1270.6576 398.229765 1263.0126 414.845943 1271.0866 432.015427"></polyline>
            <polyline id="Stroke-833" points="1263.0131 448.285639 1243.1221 448.105864 1235.1341 464.96274 1242.9731 481.532975"></polyline>
            <polyline id="Stroke-835" points="1263.0131 414.930637 1242.7781 415.270211 1235.1341 431.607738 1243.1221 448.106064"></polyline>
            <polyline id="Stroke-837" points="1235.1337 464.963139 1214.8987 464.759395 1207.2547 481.077945 1214.8317 497.378519"></polyline>
            <polyline id="Stroke-839" points="1235.5516 432.187212 1214.8986 432.187212 1207.2546 449.308756 1215.0906 465.240791"></polyline>
            <polyline id="Stroke-841" points="1207.2543 481.078245 1186.9663 480.654776 1179.0753 498.317642 1186.6813 513.480641"></polyline>
            <polyline id="Stroke-843" points="1207.2543 448.987958 1186.7193 449.542264 1179.0753 465.726982 1186.9663 480.655275"></polyline>
            <polyline id="Stroke-845" points="1207.5516 415.208489 1186.7196 415.208489 1179.0756 432.07735 1186.9106 449.284786"></polyline>
            <polyline id="Stroke-847" points="1179.5516 466.144659 1159.5136 466.144659 1151.1846 482.728877 1159.4796 499.232196"></polyline>
            <polyline id="Stroke-849" points="1179.0752 431.608138 1158.5402 432.141469 1150.8962 448.285239 1159.5132 465.53762"></polyline>
            <polyline id="Stroke-851" points="1151.5516 483.123382 1129.5356 483.123382 1122.3616 499.163282 1131.5556 516.322779"></polyline>
            <polyline id="Stroke-853" points="1291.1973 365.706621 1270.6723 365.775535 1262.7583 382.270864 1270.5373 398.580426"></polyline>
            <polyline id="Stroke-855" points="139.5516 749.789215 120.3126 749.789215 112.6686 764.972188 119.8196 782.04779"></polyline>
            <polyline id="Stroke-857" points="139.5516 716.830516 120.3126 716.830516 112.6686 732.009495 120.2156 750.102822"></polyline>
            <polyline id="Stroke-859" points="139.5516 682.873069 120.3126 682.873069 112.7436 698.909973 120.2156 716.199307"></polyline>
            <polyline id="Stroke-861" points="139.5516 648.915623 120.3126 648.915623 112.6686 664.523064 120.2156 681.45185"></polyline>
            <polyline id="Stroke-863" points="139.5516 615.956924 120.3126 615.956924 112.7436 632.833775 120.2156 648.578046"></polyline>
            <polyline id="Stroke-865" points="112.6686 764.423176 92.2766 764.437159 84.7896 779.975687 92.4286 796.988368"></polyline>
            <polyline id="Stroke-867" points="113.5516 731.811743 92.4336 731.811743 84.7896 749.24989 92.6806 765.275808"></polyline>
            <polyline id="Stroke-869" points="113.5516 698.853044 92.4336 698.853044 84.7896 714.779087 92.8796 731.483154"></polyline>
            <polyline id="Stroke-871" points="113.5516 665.894346 92.4336 665.894346 84.7896 681.816393 92.8376 699.24755"></polyline>
            <polyline id="Stroke-873" points="113.5516 633.934396 92.4336 633.934396 84.7896 649.353074 92.8376 665.154273"></polyline>
            <polyline id="Stroke-875" points="84.7892 714.390674 64.8852 714.126005 56.6102 731.067775 64.8852 747.674964"></polyline>
            <polyline id="Stroke-877" points="84.7892 681.035672 64.2542 681.20446 56.6102 697.712773 64.8852 714.125206"></polyline>
            <polyline id="Stroke-879" points="84.7892 648.805461 64.4042 648.585736 56.6102 664.248109 64.1682 681.040066"></polyline>
            <polyline id="Stroke-881" points="56.6101 697.713173 36.7321 697.350627 28.4311 714.390274 36.1801 730.694842"></polyline>
            <polyline id="Stroke-883" points="56.6101 664.358171 36.0751 664.333202 28.4311 681.035272 36.7321 697.350827"></polyline>
            <polyline id="Stroke-885" points="64.4043 649.352974 56.4603 633.934296 36.0753 633.934296 28.4313 649.352974 36.0753 664.880516"></polyline>
            <polyline id="Stroke-887" points="120.313 616.345038 112.819 600.975298 92.434 600.975298 84.789 616.952277 92.434 633.216895"></polyline>
            <polyline id="Stroke-889" points="84.7892 616.575149 64.2542 615.96791 56.4602 632.838769"></polyline>
            <polyline id="Stroke-891" points="64.2545 616.408059 56.4605 599.97665 36.0755 599.97665 28.4315 615.890707 36.0755 633.279916"></polyline>
            <polyline id="Stroke-893" points="57.5516 569.015748 36.3746 569.015748 28.7306 583.927062 36.0436 600.155725"></polyline>
            <polyline id="Stroke-895" points="476.8373 746.7684 485.5923 732.009894 477.6483 716.830916 457.2633 716.830916 449.6193 732.009894 456.6023 746.91222"></polyline>
            <polyline id="Stroke-897" points="477.6484 716.45249 485.5924 698.546928 477.6484 682.87257 457.2634 682.87257 449.6194 699.546675 457.2634 716.555361"></polyline>
            <polyline id="Stroke-899" points="449.6192 699.341432 429.3832 699.193618 421.0132 714.947875 428.7982 730.694143"></polyline>
            <polyline id="Stroke-901" points="450.5516 567.018251 429.0846 567.018251 421.4396 583.928061 429.4366 600.228634"></polyline>
            <polyline id="Stroke-903" points="421.0134 714.947576 400.9054 714.453195 393.2614 731.820432 400.9574 746.44111"></polyline>
            <polyline id="Stroke-905" points="420.5516 682.873069 400.9056 682.873069 392.8866 698.909973 401.0966 714.762108"></polyline>
            <polyline id="Stroke-907" points="421.5516 583.996974 401.9056 583.996974 393.2606 599.659347 400.6156 615.994877"></polyline>
            <polyline id="Stroke-909" points="392.5516 698.853044 372.7256 698.853044 365.0816 714.779087 372.5256 731.483154"></polyline>
            <polyline id="Stroke-911" points="392.5516 665.894346 372.7256 665.894346 365.0816 681.816393 372.5586 699.24755"></polyline>
            <polyline id="Stroke-913" points="393.5516 599.976949 372.7256 599.976949 365.8846 616.408358 372.4796 632.601067"></polyline>
            <polyline id="Stroke-915" points="365.0818 714.390674 344.8468 714.947975 337.2028 731.067775 343.5288 747.674964"></polyline>
            <polyline id="Stroke-917" points="365.0818 681.035672 344.8468 681.20446 337.2028 697.712773 344.8468 714.947176"></polyline>
            <polyline id="Stroke-919" points="365.5516 647.916874 344.8466 647.916874 337.2026 664.585985 345.2426 681.545733"></polyline>
            <polyline id="Stroke-921" points="365.8849 616.161368 344.8469 616.47897 337.7579 632.594775 344.9889 647.094605"></polyline>
            <polyline id="Stroke-923" points="401.9052 583.750283 393.1112 568.016999 372.7262 568.016999 365.0822 583.927062 372.8052 600.410406"></polyline>
            <polyline id="Stroke-925" points="337.5516 764.770441 316.9676 764.770441 309.3226 780.704474 316.5006 796.963099"></polyline>
            <polyline id="Stroke-927" points="337.2024 731.068174 316.9674 730.694643 309.6314 747.5665 316.9674 764.439356"></polyline>
            <polyline id="Stroke-929" points="337.2024 697.713173 316.9674 698.075718 308.9164 714.947576 316.9674 730.694842"></polyline>
            <polyline id="Stroke-931" points="337.2024 664.358171 316.9674 664.333202 309.3234 681.035272 316.9674 698.075918"></polyline>
            <polyline id="Stroke-933" points="338.5516 632.935648 316.9676 632.935648 309.3226 649.353074 317.1586 664.678869"></polyline>
            <polyline id="Stroke-935" points="310.5516 747.791718 288.8066 747.791718 281.1436 765.226869 289.1486 782.430311"></polyline>
            <polyline id="Stroke-937" points="308.9162 714.947576 288.9422 715.074417 281.1442 731.820432 288.7272 747.312019"></polyline>
            <polyline id="Stroke-939" points="309.323 681.035672 289.178 681.20446 281.144 697.797667 288.942 715.074017"></polyline>
            <polyline id="Stroke-941" points="281.1439 764.423176 260.6089 764.437159 252.9649 779.975687 260.7019 796.998355"></polyline>
            <polyline id="Stroke-943" points="281.1439 731.068174 260.6089 730.694643 252.9649 747.18298 260.6089 764.437358"></polyline>
            <polyline id="Stroke-945" points="281.1439 697.713173 260.6089 697.701188 252.9649 714.390274 260.6089 730.694842"></polyline>
            <polyline id="Stroke-947" points="420.5516 550.039527 400.6056 550.039527 393.3026 568.034977"></polyline>
            <polyline id="Stroke-949" points="393.266 631.982142 372.741 632.051056 364.76 647.461744 372.726 665.466182"></polyline>
            <polyline id="Stroke-951" points="786.5516 633.934396 765.3216 633.934396 757.6766 649.498892 764.9906 667.403455"></polyline>
            <polyline id="Stroke-953" points="757.5516 714.833019 737.1426 714.833019 729.4976 731.908621 736.6136 748.790466"></polyline>
            <polyline id="Stroke-955" points="757.3392 682.638363 736.7372 682.086056 729.4982 697.85929 737.1422 714.947875"></polyline>
            <polyline id="Stroke-957" points="729.4979 697.85889 709.2629 698.075619 701.6189 714.535991 709.7229 730.973393"></polyline>
            <polyline id="Stroke-959" points="729.3659 664.828781 709.2629 664.751878 701.6189 681.391027 709.2629 698.076118"></polyline>
            <polyline id="Stroke-961" points="765.3214 632.833775 757.5274 615.956924 737.1424 615.956924 729.4984 632.268484 737.2214 648.751828"></polyline>
            <polyline id="Stroke-963" points="701.6185 714.536391 681.5695 714.198814 674.1545 729.569552 681.1365 746.44141"></polyline>
            <polyline id="Stroke-965" points="701.6185 681.391126 681.0835 681.20436 673.4395 697.858491 681.5695 714.198015"></polyline>
            <polyline id="Stroke-967" points="702.5516 648.915623 681.0836 648.915623 673.4396 665.231177 681.7046 681.740489"></polyline>
            <polyline id="Stroke-969" points="674.5516 698.853044 652.9046 698.853044 645.2606 714.924904 653.1556 730.152822"></polyline>
            <polyline id="Stroke-971" points="674.5516 665.894346 652.9046 665.894346 645.2606 681.962211 653.6146 698.595367"></polyline>
            <polyline id="Stroke-973" points="646.5516 716.830516 624.7256 716.830516 616.7756 730.511372 624.9696 746.725054"></polyline>
            <polyline id="Stroke-975" points="646.5516 682.873069 624.7256 682.873069 617.0806 698.693245 625.5496 716.199307"></polyline>
            <polyline id="Stroke-977" points="646.5516 648.915623 624.7256 648.915623 617.0806 665.231177 625.5256 681.740489"></polyline>
            <polyline id="Stroke-979" points="616.5516 698.853044 596.8456 698.853044 589.2016 714.924904 596.4866 730.152822"></polyline>
            <polyline id="Stroke-981" points="616.5516 665.894346 596.8456 665.894346 589.2016 681.962211 596.7336 699.24755"></polyline>
            <polyline id="Stroke-983" points="589.2017 714.536391 569.2577 714.198814 561.3227 731.213492 568.7197 746.44141"></polyline>
            <polyline id="Stroke-985" points="589.2017 681.181389 568.9667 681.20436 561.3227 697.858491 569.2577 714.198015"></polyline>
            <polyline id="Stroke-987" points="589.5516 648.915623 568.9666 648.915623 561.3226 665.231177 568.8556 681.45185"></polyline>
            <polyline id="Stroke-989" points="561.3224 697.85889 540.7874 698.075619 533.1434 714.535991 541.1044 730.973393"></polyline>
            <polyline id="Stroke-991" points="533.1432 714.536391 512.9342 714.415542 504.9642 731.213492 512.6612 746.44141"></polyline>
            <polyline id="Stroke-993" points="534.5516 682.873069 512.6086 682.873069 504.9636 698.693245 513.4666 715.450246"></polyline>
            <path d="M504.9641,697.85889 L485.5921,697.713073" id="Stroke-995"></path>
            <polyline id="Stroke-997" points="757.798 648.690605 737.376 648.862389 729.565 664.695548 736.738 682.085756"></polyline>
            <polyline id="Stroke-999" points="1375.6545 758.125168 1383.5235 742.412858 1375.5795 726.8184 1355.1945 726.8184 1347.5505 742.412858 1355.2745 758.510685"></polyline>
            <polyline id="Stroke-1001" points="1375.5797 726.449862 1383.5237 709.949539 1375.5797 694.85845 1355.1947 694.85845 1347.5507 709.949539 1355.1947 726.549737"></polyline>
            <polyline id="Stroke-1003" points="1347.5504 709.309341 1327.0154 709.323324 1319.3714 724.861852 1327.4314 741.197381"></polyline>
            <polyline id="Stroke-1005" points="1320.5516 749.789215 1298.8366 749.789215 1291.1926 763.847597 1299.5806 780.923199"></polyline>
            <polyline id="Stroke-1007" points="1291.1921 763.298386 1270.6571 763.312368 1263.0131 779.975487 1270.7491 796.998155"></polyline>
            <polyline id="Stroke-1009" points="1235.1337 763.298386 1215.9727 763.312368 1207.2547 779.983477 1214.7347 796.989167"></polyline>
            <polyline id="Stroke-1011" points="1178.5516 764.770441 1157.9196 764.770441 1150.2746 780.30797 1158.7966 797.246744"></polyline>
            <polyline id="Stroke-1013" points="1157.9192 729.569652 1150.2752 746.223782 1157.9192 764.439955"></polyline>
            <polyline id="Stroke-1015" points="1150.2748 746.224182 1130.6448 746.104332 1122.7238 764.439356"></polyline>
            <polyline id="Stroke-1017" points="1130.0398 713.117569 1122.3958 729.756718 1130.6448 746.104232"></polyline>
            <polyline id="Stroke-1019" points="1123.5516 764.770441 1101.8606 764.770441 1094.2166 780.30797 1102.5506 797.246744"></polyline>
            <polyline id="Stroke-1021" points="1122.3954 729.756418 1101.8604 729.569652 1094.2164 746.223782 1101.8604 764.439955"></polyline>
            <path d="M1094.2163,713.431476 L1101.8603,729.569253" id="Stroke-1023"></path>
            <polyline id="Stroke-1025" points="1094.2163 746.224182 1074.1933 745.788728 1066.0373 762.901283 1074.1933 779.338685"></polyline>
            <polyline id="Stroke-1027" points="1073.675 711.905887 1066.037 729.546781 1074.193 745.789427"></polyline>
            <polyline id="Stroke-1029" points="1066.0371 762.901683 1045.4781 762.564106 1037.9831 780.578531 1046.5191 796.988967"></polyline>
            <polyline id="Stroke-1031" points="1066.0371 729.546681 1045.5021 729.569652 1037.8581 746.223782 1045.4781 762.563307"></polyline>
            <path d="M1037.858,712.193327 L1045.502,729.569552" id="Stroke-1033"></path>
            <polyline id="Stroke-1035" points="1017.623 712.698095 1009.979 729.546981 1018.475 745.789627"></polyline>
            <polyline id="Stroke-1037" points="1037.858 746.224182 1018.475 745.95452 1010.168 763.771193 989.744 763.771193 981.717 780.998605 990.274 797.071464"></polyline>
            <path d="M981.0993,746.224182 L989.7433,763.312768" id="Stroke-1039"></path>
            <polyline id="Stroke-1041" points="1009.9786 729.546681 989.7436 729.569652 981.0996 746.223782"></polyline>
            <path d="M982.0993,713.431476 L989.7433,729.569253" id="Stroke-1043"></path>
            <path d="M1150.3422,713.06124 L1157.9192,729.569552" id="Stroke-1045"></path>
            <polyline id="Stroke-1047" points="953.5516 764.770441 932.9046 764.770441 925.2606 780.30797 933.4066 797.236756"></polyline>
            <polyline id="Stroke-1049" points="953.5516 730.812994 932.9046 730.812994 925.2606 746.845903 933.0946 764.245099"></polyline>
            <polyline id="Stroke-1051" points="925.2604 746.224182 905.0254 746.44091 897.3814 762.901283 905.4854 779.338685"></polyline>
            <polyline id="Stroke-1053" points="905.0254 713.117569 897.3814 729.756718 905.0254 746.440811"></polyline>
            <polyline id="Stroke-1055" points="897.381 762.901683 877.332 762.564106 869.202 779.578784 877.085 796.988967"></polyline>
            <polyline id="Stroke-1057" points="897.381 729.756418 876.846 729.569652 869.202 746.223782 877.332 762.563307"></polyline>
            <path d="M869.2019,713.431476 L876.8459,729.569253" id="Stroke-1059"></path>
            <polyline id="Stroke-1061" points="848.6671 712.698095 841.0231 729.546981 848.6671 746.440811"></polyline>
            <polyline id="Stroke-1063" points="841.0228 762.901683 820.4638 762.564106 813.9688 779.578784 821.3038 796.988967"></polyline>
            <polyline id="Stroke-1065" points="841.5516 730.812994 820.4876 730.812994 812.8436 746.845903 820.9066 763.496038"></polyline>
            <path d="M812.8436,713.431476 L820.4636,729.857891" id="Stroke-1067"></path>
            <polyline id="Stroke-1069" points="813.5516 747.791718 792.6086 747.791718 784.9646 763.576937 792.9666 780.350917"></polyline>
            <polyline id="Stroke-1071" points="792.6086 712.698095 784.9646 729.546981 792.6086 746.440811"></polyline>
            <path d="M757.0849,779.579184 L765.0199,796.988368" id="Stroke-1073"></path>
            <polyline id="Stroke-1075" points="784.9643 762.901683 765.0203 762.564106 757.0853 779.578784"></polyline>
            <path d="M757.0849,746.224182 L765.0199,762.563706" id="Stroke-1077"></path>
            <polyline id="Stroke-1079" points="784.9643 729.546681 764.7293 729.569652 757.0853 746.223782"></polyline>
            <path d="M757.4099,714.947576 L765.0199,729.857891" id="Stroke-1081"></path>
            <path d="M925.3278,713.06124 L932.9048,730.448451" id="Stroke-1083"></path>
            <path d="M1151.1104,645.23903 L1158.9074,628.893513" id="Stroke-1085"></path>
            <path d="M1120.7068,628.16952 L1130.1278,645.212163" id="Stroke-1087"></path>
            <path d="M1066.1255,627.572868 L1074.0695,645.022002" id="Stroke-1089"></path>
            <path d="M1017.3015,646.211411 L1038.2465,645.812911" id="Stroke-1091"></path>
            <polyline id="Stroke-1093" points="1066.2753 663.690608 1074.0693 645.918878 1094.0043 645.918878 1101.9493 629.013063"></polyline>
            <polyline id="Stroke-1095" points="1045.8904 629.339854 1038.2464 645.812212 1045.8904 663.467088"></polyline>
            <polyline id="Stroke-1097" points="1122.2256 663.914527 1130.1276 645.919078 1151.5516 645.919078"></polyline>
            <path d="M1094.0048,645.211664 L1101.6488,663.466788" id="Stroke-1099"></path>
            <polyline id="Stroke-1101" points="1151.5516 679.876824 1129.8286 679.876824 1122.1836 696.484013 1130.0416 713.841262"></polyline>
            <polyline id="Stroke-1103" points="1122.184 696.522964 1101.729 696.329207 1094.216 713.431775"></polyline>
            <polyline id="Stroke-1105" points="1094.5516 679.876824 1073.7696 679.876824 1066.1256 696.484013 1073.7016 712.59782"></polyline>
            <polyline id="Stroke-1107" points="1129.8282 679.677474 1122.0342 663.897249 1101.6492 663.897249 1094.0052 679.75238 1101.7282 696.544337"></polyline>
            <polyline id="Stroke-1109" points="1066.1255 695.523317 1045.9695 695.32956 1037.8585 712.193427"></polyline>
            <polyline id="Stroke-1111" points="1073.7698 679.861643 1066.2748 663.896649 1045.8908 663.896649 1038.2458 679.752779 1045.9698 696.236124"></polyline>
            <polyline id="Stroke-1113" points="1038.2461 678.845816 1017.7111 678.95468 1010.3581 695.322169"></polyline>
            <polyline id="Stroke-1115" points="450.0332 796.960003 457.8802 781.008992 449.5212 764.770341 429.1372 764.770341 421.4922 780.162053 428.6852 797.042899"></polyline>
            <polyline id="Stroke-1117" points="449.6192 731.068174 428.7982 730.694643 421.4922 746.078365 429.1372 764.439356"></polyline>
            <polyline id="Stroke-1119" points="421.4924 746.078465 400.9574 746.44101 393.3134 762.755566 401.4354 779.265876"></polyline>
            <polyline id="Stroke-1121" points="393.3132 762.755965 372.7192 762.491297 365.1342 779.433067 372.6132 796.71541"></polyline>
            <polyline id="Stroke-1123" points="393.2609 731.068174 372.6929 730.900385 365.1339 746.078365 372.7199 762.490798"></polyline>
            <polyline id="Stroke-1125" points="728.5516 762.772944 709.0156 762.772944 701.3706 780.308969 709.1196 797.237755"></polyline>
            <polyline id="Stroke-1127" points="729.4979 731.213892 709.7229 730.973193 701.3709 746.224082 709.0159 763.312668"></polyline>
            <polyline id="Stroke-1129" points="701.3711 746.224182 681.1361 746.44091 673.4921 762.901283 681.5961 779.338685"></polyline>
            <polyline id="Stroke-1131" points="673.4917 762.901683 653.4427 762.564106 645.3127 779.578784 652.7977 796.988967"></polyline>
            <polyline id="Stroke-1133" points="674.5516 730.812994 652.9566 730.812994 645.3126 746.845903 653.6416 763.496038"></polyline>
            <polyline id="Stroke-1135" points="645.3126 746.224182 624.7776 746.44091 617.1336 762.901283 625.2896 779.338685"></polyline>
            <polyline id="Stroke-1137" points="617.1334 762.901683 596.5984 763.313167 588.9544 779.578784 596.9004 796.998954"></polyline>
            <polyline id="Stroke-1139" points="616.5516 730.812994 596.5986 730.812994 588.9546 746.845903 596.4866 764.245099"></polyline>
            <polyline id="Stroke-1141" points="588.9543 746.224182 568.7193 746.44091 561.0753 762.901283 568.5713 779.338685"></polyline>
            <polyline id="Stroke-1143" points="561.075 762.901683 541.131 762.564106 533.196 779.578784 540.829 796.998954"></polyline>
            <polyline id="Stroke-1145" points="561.3224 731.213892 541.1044 730.973193 533.1954 746.224082 541.1304 762.563607"></polyline>
            <polyline id="Stroke-1147" points="533.1956 746.224182 512.6606 746.44091 505.0166 762.901283 512.9776 779.338685"></polyline>
            <polyline id="Stroke-1149" points="505.0164 762.901683 484.4814 763.313167 476.8374 779.578784 484.5824 796.998954"></polyline>
            <path d="M476.8373,746.7684 L484.4813,763.312668" id="Stroke-1151"></path>
            <polyline id="Stroke-1153" points="476.8373 746.7684 456.6023 746.440811 449.5213 764.440255"></polyline>
            <polyline id="Stroke-1155" points="869.2019 746.224182 848.6669 746.44091 841.0229 762.901283 849.1789 779.338685 841.8519 796.988567"></polyline>
            <path d="M905.485,779.338286 L897.381,796.989167" id="Stroke-1157"></path>
            <path d="M849.179,779.338286 L869.202,779.578984" id="Stroke-1159"></path>
            <polyline id="Stroke-1161" points="645.3126 779.579184 625.2896 779.338485 617.5646 796.998355"></polyline>
            <polyline id="Stroke-1163" points="701.3711 779.579184 681.5431 779.338485 673.2301 796.988368"></polyline>
            <polyline id="Stroke-1165" points="588.9543 779.579184 568.5713 779.338485 561.0753 796.988368"></polyline>
            <polyline id="Stroke-1167" points="533.1956 779.579184 512.9776 779.338485 505.2636 796.998355"></polyline>
            <polyline id="Stroke-1169" points="421.4924 779.433466 401.4354 779.265677 392.8864 796.998455"></polyline>
            <path d="M476.8373,779.579184 L457.4653,779.996661" id="Stroke-1171"></path>
            <polyline id="Stroke-1173" points="1263.5516 748.790466 1242.7776 748.790466 1235.1336 763.910519 1243.1216 780.404849 1234.6316 797.214784"></polyline>
            <polyline id="Stroke-1175" points="175.156 749.815581 167.872 764.437259 174.819 780.042703"></polyline>
            <polyline id="Stroke-1177" points="167.5516 765.769189 146.9766 765.769189 139.3326 781.766143 148.3656 797.309665"></polyline>
            <path d="M139.7454,748.690791 L146.9764,764.438058" id="Stroke-1179"></path>
            <path d="M119.9161,781.223823 L112.7441,796.998056" id="Stroke-1181"></path>
            <path d="M119.9161,781.223823 L139.3321,781.100977" id="Stroke-1183"></path>
            <polyline id="Stroke-1185" points="56.5516 764.770441 36.1796 764.770441 28.5356 780.39586 36.2526 797.243748"></polyline>
            <polyline id="Stroke-1187" points="56.6101 731.068174 36.1801 730.694643 28.5361 747.357761 36.1801 763.312768"></polyline>
            <path d="M8.534,779.812092 L0.552,796.988567" id="Stroke-1189"></path>
            <path d="M8.534,779.812092 L28.536,779.667273" id="Stroke-1191"></path>
            <polyline id="Stroke-1193" points="756.5516 584.995723 737.1426 584.995723 729.4976 600.826884 736.7126 617.202363"></polyline>
            <polyline id="Stroke-1195" points="729.4979 600.003616 709.2629 600.220344 701.6189 616.680717 709.7229 633.118119"></polyline>
            <polyline id="Stroke-1197" points="729.3659 566.973507 709.2629 566.896603 701.6189 583.535752 709.2629 600.220844"></polyline>
            <polyline id="Stroke-1199" points="701.6185 616.681117 681.5695 616.34354 673.4395 633.358218 681.5695 649.892498"></polyline>
            <polyline id="Stroke-1201" points="701.6185 583.535852 681.0835 583.349086 673.4395 600.003216 681.5695 616.342741"></polyline>
            <polyline id="Stroke-1203" points="702.5516 551.038276 681.0836 551.038276 673.4396 567.364817 680.9756 583.579497"></polyline>
            <polyline id="Stroke-1205" points="673.4394 600.003616 653.4164 599.568161 645.2604 616.680717 653.4164 633.118119"></polyline>
            <polyline id="Stroke-1207" points="673.4394 567.211009 652.6494 567.040223 645.2604 583.325815 653.4164 599.568461"></polyline>
            <polyline id="Stroke-1209" points="646.5516 616.955673 624.7256 616.955673 617.0806 633.290203 625.5256 649.789527"></polyline>
            <polyline id="Stroke-1211" points="645.2603 583.326115 624.7253 583.349086 617.0813 600.003216 624.7013 616.342741"></polyline>
            <polyline id="Stroke-1213" points="646.5516 551.038276 624.7256 551.038276 617.0806 567.364817 625.5496 583.579497"></polyline>
            <polyline id="Stroke-1215" points="616.5516 600.975698 596.8456 600.975698 589.2016 617.058544 596.5856 633.68371"></polyline>
            <polyline id="Stroke-1217" points="617.0811 567.211009 596.5911 567.040223 589.2021 583.325815 596.8461 600.220644"></polyline>
            <polyline id="Stroke-1219" points="589.2017 616.681117 569.2577 616.34354 561.3227 633.358218 568.9667 648.586135"></polyline>
            <polyline id="Stroke-1221" points="589.2017 583.326115 568.9667 583.349086 561.3227 600.003216 569.2577 616.342741"></polyline>
            <polyline id="Stroke-1223" points="589.5516 551.038276 568.9666 551.038276 561.3226 567.364817 568.8556 583.579497"></polyline>
            <polyline id="Stroke-1225" points="561.3224 600.003616 540.7874 600.220344 533.1434 616.680717 541.1044 633.118119"></polyline>
            <polyline id="Stroke-1227" points="533.1432 616.681117 512.6082 617.092601 504.9642 633.358218 512.9512 649.892498"></polyline>
            <polyline id="Stroke-1229" points="534.5516 584.995723 512.6086 584.995723 504.9636 600.826884 513.1236 618.326954"></polyline>
            <polyline id="Stroke-1231" points="757.677 551.095904 737.376 551.007015 729.565 566.841173 737.072 583.576202"></polyline>
            <path d="M785.3712,699.935787 L793.1682,683.590271" id="Stroke-1233"></path>
            <path d="M793.1685,683.59077 L814.1025,683.396014" id="Stroke-1235"></path>
            <polyline id="Stroke-1237" points="814.5516 649.914371 793.1626 649.914371 785.5186 666.62543 793.6126 683.742979"></polyline>
            <polyline id="Stroke-1239" points="821.7468 633.712374 813.5478 617.954121 793.1628 617.954121 785.5368 632.707633 793.2418 649.656394"></polyline>
            <polyline id="Stroke-1241" points="813.5475 618.217092 821.4915 602.197167 813.5475 586.99322 793.1625 586.99322 785.5185 602.197167 793.2415 618.100238"></polyline>
            <polyline id="Stroke-1243" points="813.5475 586.487054 821.4915 569.235672 813.5475 552.037224 793.1625 552.037224 785.5185 569.235672 793.1625 586.621885"></polyline>
            <polyline id="Stroke-1245" points="785.5183 666.523258 764.4833 666.582184 757.3393 682.638064 765.1473 698.714917"></polyline>
            <polyline id="Stroke-1247" points="900.5516 632.935648 878.9306 632.935648 871.2856 649.186283 879.6276 665.727555"></polyline>
            <polyline id="Stroke-1249" points="900.2941 599.34604 878.3741 599.369011 871.2861 616.907034 878.9301 631.714478"></polyline>
            <polyline id="Stroke-1251" points="899.5516 569.015748 877.8056 569.015748 870.1606 584.321567 878.5656 600.3355"></polyline>
            <polyline id="Stroke-1253" points="872.5516 648.915623 849.6266 648.915623 841.7906 666.747277 850.3806 684.825623"></polyline>
            <polyline id="Stroke-1255" points="872.5516 616.955673 849.6266 616.955673 841.9816 633.516919 850.3806 648.483164"></polyline>
            <polyline id="Stroke-1257" points="870.161 584.059696 849.626 584.48716 841.982 602.29884 849.626 616.47907"></polyline>
            <polyline id="Stroke-1259" points="842.5516 667.891843 821.7466 667.891843 814.1026 684.313265 821.8266 700.850541 841.9816 700.850541 850.1896 684.870566 872.5516 684.870566"></polyline>
            <polyline id="Stroke-1261" points="842.5516 633.934396 821.7466 633.934396 814.1026 650.247953 822.1276 667.403455"></polyline>
            <path d="M841.9819,601.791975 L821.4919,601.50034" id="Stroke-1263"></path>
            <path d="M841.7903,568.727109 L821.4913,569.145585" id="Stroke-1265"></path>
            <polyline id="Stroke-1267" points="1039.7618 608.868906 1047.6308 593.378318 1039.6868 578.004583 1019.3018 578.004583 1011.6578 593.378318 1019.3818 609.365284"></polyline>
            <path d="M1011.6578,560.233453 L1019.3018,578.075095" id="Stroke-1269"></path>
            <polyline id="Stroke-1271" points="1124.5516 561.02576 1103.9446 561.02576 1096.3006 577.00174 1104.1346 594.180213"></polyline>
            <polyline id="Stroke-1273" points="1096.3004 576.415575 1076.3604 576.808083 1068.1214 591.968085 1076.3604 608.388508"></polyline>
            <path d="M1067.9298,560.853676 L1076.3608,576.807683" id="Stroke-1275"></path>
            <polyline id="Stroke-1277" points="1067.5516 562.024509 1047.8866 562.024509 1039.4976 578.020464"></polyline>
        </g>
    </g>
</svg>