<?xml version="1.0" encoding="UTF-8"?>
<svg width="1440px" height="818px" viewBox="0 0 1440 818" version="1.1" xmlns="http://www.w3.org/2000/svg" xmlns:xlink="http://www.w3.org/1999/xlink">
    <!-- Generator: Sketch 48.2 (47327) - http://www.bohemiancoding.com/sketch -->
    <title>Page 1</title>
    <desc>Created with Sketch.</desc>
    <defs></defs>
    <g id="bee-v3/03-product" stroke="none" stroke-width="1" fill="none" fill-rule="evenodd" transform="translate(0.000000, -1102.000000)" opacity="0.07">
        <g id="Page-1" transform="translate(0.000000, 1102.000000)" stroke="#36464F">
            <polyline id="Stroke-1" points="477.7232 51.6714936 485.5922 34.3389029 477.6482 17.1260944 457.2632 17.1260944 449.6192 34.3389029 457.3432 51.4534285"></polyline>
            <polyline id="Stroke-3" points="449.6192 34.5402804 429.4122 34.1246258 421.4402 52.212766 429.2942 68.4458173"></polyline>
            <polyline id="Stroke-5" points="401.331 52.958999 393.111 35.5547437 372.726 35.5547437 365.082 52.001765 373.319 68.7303257"></polyline>
            <polyline id="Stroke-7" points="345.2964 52.0015602 337.3524 35.5545389 316.9674 35.5545389 309.3234 52.0015602 317.0464 68.8980208"></polyline>
            <polyline id="Stroke-9" points="196.5516 289.452013 175.2466 289.452013 167.8726 306.258381 176.2196 322.808804"></polyline>
            <polyline id="Stroke-11" points="196.5516 257.714842 175.2466 257.714842 167.6016 274.638944 175.5226 291.058323"></polyline>
            <polyline id="Stroke-13" points="196.5516 223.930111 175.2466 223.930111 167.6016 240.27373 175.5226 257.360614"></polyline>
            <polyline id="Stroke-15" points="197.5516 154.313089 176.3716 154.313089 167.6016 171.671275 175.7236 188.854393"></polyline>
            <polyline id="Stroke-17" points="167.5516 203.454516 148.1926 203.454516 140.5476 220.433903 147.7586 237.229009"></polyline>
            <polyline id="Stroke-19" points="167.602 171.30425 147.958 171.375914 140.548 187.246547 148.192 203.156084"></polyline>
            <polyline id="Stroke-21" points="139.5516 287.404454 120.3126 287.404454 112.6686 304.74933 120.3926 322.212964 140.5476 322.212964 148.1926 306.856268 167.5516 306.856268"></polyline>
            <polyline id="Stroke-23" points="140.548 187.246752 119.916 187.149493 112.669 203.18905 119.916 220.386502"></polyline>
            <polyline id="Stroke-25" points="139.5516 155.336869 120.3126 155.336869 112.6686 171.543302 119.8196 187.700594"></polyline>
            <polyline id="Stroke-27" points="113.5516 237.239247 92.4336 237.239247 84.7896 254.222729 92.8796 271.015788"></polyline>
            <polyline id="Stroke-29" points="113.5516 171.717345 92.4336 171.717345 85.7416 188.589235 93.9636 204.975853"></polyline>
            <polyline id="Stroke-31" points="86.5516 287.404454 64.2546 287.404454 56.6106 304.74933 64.3336 322.212964 84.7896 322.212964 92.4336 304.808709 113.5516 304.808709"></polyline>
            <polyline id="Stroke-33" points="84.7892 253.899317 64.2542 253.886008 56.6102 270.994391 64.2542 287.618526"></polyline>
            <polyline id="Stroke-35" points="86.5516 188.09782 64.2546 188.09782 56.6106 204.307325 65.2896 221.487372"></polyline>
            <polyline id="Stroke-37" points="56.6101 270.9948 36.7321 270.531028 28.3631 288.474815 37.1041 305.769526"></polyline>
            <polyline id="Stroke-39" points="57.5516 237.239247 36.0756 237.239247 28.4306 254.222729 36.7006 271.015788"></polyline>
            <polyline id="Stroke-41" points="56.6101 204.342236 35.5451 204.345307 28.4311 220.284533 36.0751 237.404178"></polyline>
            <polyline id="Stroke-43" points="28.5516 288.428233 8.1956 288.428233 0.5516 304.748306 8.2756 322.212964 28.4306 322.212964 37.1036 305.344146 56.7046 304.961252"></polyline>
            <polyline id="Stroke-45" points="167.5516 0.746130663 148.4916 0.746130663 140.8476 17.7009467 147.9086 34.5083384"></polyline>
            <path d="M167.8722,0.234240801 L176.6342,17.8227765" id="Stroke-47"></path>
            <path d="M112.7437,0.234240801 L120.6287,17.8227765" id="Stroke-49"></path>
            <polyline id="Stroke-51" points="113.5516 0.746130663 92.4336 0.746130663 85.1556 17.522809"></polyline>
            <polyline id="Stroke-53" points="36.3751 0.234240801 28.7311 17.4450018 36.8821 34.124421"></polyline>
            <polyline id="Stroke-55" points="450.5516 0.746130663 428.7846 0.746130663 421.1406 17.7009467 429.5546 34.5083384"></polyline>
            <polyline id="Stroke-57" points="421.1403 17.6665477 400.6053 17.5283374 393.1113 35.5202423"></polyline>
            <polyline id="Stroke-59" points="393.111 0.737019024 372.726 0.6776398 365.082 17.6662406 372.726 35.5209589"></polyline>
            <path d="M392.8866,0.234240801 L400.6056,17.5289517" id="Stroke-61"></path>
            <polyline id="Stroke-63" points="365.0818 17.444797 344.8468 17.5287469 337.3528 35.9762338"></polyline>
            <polyline id="Stroke-65" points="316.9674 35.7749587 308.8734 17.126811 288.4884 17.126811 280.8444 34.1215544"></polyline>
            <path d="M316.6676,0.234240801 L308.8736,17.0743935" id="Stroke-67"></path>
            <path d="M281.5045,0.234240801 L288.4885,17.5289517" id="Stroke-69"></path>
            <polyline id="Stroke-71" points="282.5516 0.746130663 260.6086 0.746130663 252.9646 17.7009467 261.4676 34.5083384"></polyline>
            <path d="M450.2653,0.234240801 L457.2633,17.5289517" id="Stroke-73"></path>
            <polyline id="Stroke-75" points="28.5516 17.1266063 8.1956 17.1266063 0.5516 34.3394148 8.2606 51.0178103"></polyline>
            <path d="M0.5516,0.925804005 L8.1666,17.8222646" id="Stroke-77"></path>
            <polyline id="Stroke-79" points="450.5516 510.588434 429.0846 510.588434 420.1686 528.740048 428.0696 544.259525"></polyline>
            <polyline id="Stroke-81" points="450.5516 444.042751 429.0846 444.042751 421.4396 459.699415 429.7046 477.155883"></polyline>
            <polyline id="Stroke-83" points="450.5516 407.186681 429.0846 407.186681 421.4396 424.374919 429.2756 443.13773"></polyline>
            <polyline id="Stroke-85" points="450.5516 376.47329 429.0846 376.47329 421.4396 392.121763 429.2276 407.510196"></polyline>
            <polyline id="Stroke-87" points="420.5516 529.016469 400.9056 529.016469 393.2606 544.427425 399.2316 558.639535"></polyline>
            <polyline id="Stroke-89" points="421.0442 493.55192 400.9052 493.602085 393.2612 509.822851 400.9052 528.44438"></polyline>
            <polyline id="Stroke-91" points="421.44 458.587283 400.846 458.293458 393.261 475.105969 400.905 493.601573"></polyline>
            <polyline id="Stroke-93" points="421.44 424.396214 400.905 424.524186 393.261 441.491288 400.846 458.29356"></polyline>
            <polyline id="Stroke-95" points="421.44 391.934718 401.055 392.241852 393.261 407.454195 400.905 424.524698"></polyline>
            <polyline id="Stroke-97" points="393.2609 544.141381 372.7259 543.816843 365.0819 560.275125 372.3339 576.306492"></polyline>
            <polyline id="Stroke-99" points="393.2609 509.823363 372.7259 509.998429 365.0819 526.470021 372.3339 543.519025"></polyline>
            <polyline id="Stroke-101" points="393.2609 475.106276 372.7259 475.254724 365.0819 492.20135 372.7259 509.844146"></polyline>
            <polyline id="Stroke-103" points="365.5516 526.968909 345.2526 526.968909 337.2026 544.428449 345.1146 561.004466"></polyline>
            <polyline id="Stroke-105" points="365.0818 492.201759 344.8468 492.549844 337.2028 509.296833 345.2528 526.20865"></polyline>
            <polyline id="Stroke-107" points="365.0818 391.716244 345.2968 391.934309 337.2028 407.453785 345.0918 424.133205"></polyline>
            <polyline id="Stroke-109" points="401.0551 392.121251 393.1111 376.472778 372.7261 376.472778 365.0821 392.121251 372.8051 409.017711"></polyline>
            <polyline id="Stroke-111" points="337.2024 509.297243 317.6394 509.843941 309.3234 526.470124 317.9544 543.519127"></polyline>
            <polyline id="Stroke-113" points="336.5516 477.827482 316.9676 477.827482 309.3226 493.488241 317.8306 510.310989"></polyline>
            <polyline id="Stroke-115" points="309.5516 494.207958 288.7886 494.207958 281.1436 510.126709 289.0566 527.452133"></polyline>
            <polyline id="Stroke-117" points="309.5516 460.423227 288.7886 460.423227 281.1436 476.337883 289.0566 493.665355"></polyline>
            <polyline id="Stroke-119" points="309.5516 424.590937 288.7886 424.590937 281.1436 442.037167 289.0566 459.111765"></polyline>
            <polyline id="Stroke-121" points="281.1439 476.017849 260.6089 476.18063 252.9649 493.176397 261.2759 510.476227"></polyline>
            <polyline id="Stroke-123" points="252.9648 424.396214 232.7298 424.524186 225.0858 441.491288 233.5028 458.29356"></polyline>
            <polyline id="Stroke-125" points="288.9381 424.37451 280.9941 407.186272 260.6091 407.186272 252.9651 424.37451 260.8431 441.829954"></polyline>
            <polyline id="Stroke-127" points="345.2964 392.121251 337.3524 376.472778 316.9674 376.472778 309.3234 392.121251 317.0464 409.017711"></polyline>
            <polyline id="Stroke-129" points="309.5516 391.829985 288.9386 391.829985 281.3476 407.508148"></polyline>
            <polyline id="Stroke-131" points="288.9381 392.121251 280.9941 376.472778 260.6091 376.472778 252.9651 392.121251 260.6091 407.41652"></polyline>
            <polyline id="Stroke-133" points="252.9648 391.934718 231.9688 391.665464 225.0858 408.382763 232.7298 424.524698"></polyline>
            <polyline id="Stroke-135" points="225.5516 408.210461 204.1286 408.210461 196.9066 424.121022 205.7006 440.685778"></polyline>
            <polyline id="Stroke-137" points="197.5516 424.590937 176.3716 424.590937 168.7276 442.037167 176.8486 459.111765"></polyline>
            <polyline id="Stroke-139" points="140.548 424.396214 120.313 424.524186 112.669 441.491288 119.916 458.29356"></polyline>
            <polyline id="Stroke-141" points="168.7271 407.30073 148.1921 407.23009 140.5481 424.395804 148.4821 441.292265"></polyline>
            <polyline id="Stroke-143" points="113.5516 544.373164 92.4336 544.373164 84.7896 560.554003 92.6256 577.027643"></polyline>
            <polyline id="Stroke-145" points="113.5516 510.588434 92.4336 510.588434 84.7896 526.765177 92.8796 543.961605"></polyline>
            <polyline id="Stroke-147" points="84.7892 526.392726 64.8852 526.208446 56.6102 543.4878 63.7712 560.574683"></polyline>
            <polyline id="Stroke-149" points="86.5516 494.207958 64.2546 494.207958 56.6106 510.126709 65.2896 527.452133"></polyline>
            <polyline id="Stroke-151" points="56.6101 543.488209 36.0751 543.279358 28.4311 560.006895 35.6501 577.655834"></polyline>
            <polyline id="Stroke-153" points="56.6101 509.297243 36.7321 509.013656 28.4311 526.392316 36.0751 543.279563"></polyline>
            <polyline id="Stroke-155" points="57.5516 477.827482 36.0756 477.827482 28.4306 493.488241 36.9236 509.47968"></polyline>
            <polyline id="Stroke-157" points="64.4043 459.699005 56.4603 444.042342 36.0753 444.042342 28.4313 459.699005 36.0753 477.533248"></polyline>
            <polyline id="Stroke-159" points="86.5516 425.614716 64.9146 425.614716 56.8646 442.909427"></polyline>
            <polyline id="Stroke-161" points="56.5516 407.186681 36.0756 407.186681 28.4306 424.374919 36.2666 443.13773"></polyline>
            <polyline id="Stroke-163" points="226.5516 376.47329 204.5506 376.47329 196.9066 392.121763 204.2166 408.662972"></polyline>
            <polyline id="Stroke-165" points="196.9062 391.934718 175.6102 391.665464 168.7272 407.300628 176.3712 424.524698"></polyline>
            <polyline id="Stroke-167" points="167.5516 376.47329 148.4916 376.47329 140.8476 392.121763 148.0316 407.510196"></polyline>
            <polyline id="Stroke-169" points="167.5516 341.664779 148.4916 341.664779 140.8476 357.820023 148.3316 377.080391"></polyline>
            <polyline id="Stroke-171" points="140.8477 391.934718 120.6287 391.242643 112.9687 407.300628 120.3127 424.524698"></polyline>
            <polyline id="Stroke-173" points="140.8477 357.167261 120.6917 356.968648 112.9687 374.262335 120.6287 391.242745"></polyline>
            <polyline id="Stroke-175" points="113.5516 374.42573 92.5836 374.42573 84.7896 391.133815 92.7676 407.524529"></polyline>
            <polyline id="Stroke-177" points="84.7892 390.818082 64.3342 391.159 56.6102 407.300935 64.9152 425.965463"></polyline>
            <polyline id="Stroke-179" points="56.6101 374.262744 37.1701 374.406074 28.7311 391.93523 36.0751 407.230499"></polyline>
            <polyline id="Stroke-181" points="92.5835 373.990521 84.6395 358.045152 64.2545 358.045152 56.6105 374.459413 64.3335 391.355873"></polyline>
            <polyline id="Stroke-183" points="120.6127 323.06393 112.9687 340.071982 120.6917 356.968443"></polyline>
            <path d="M148.4921,340.358334 L140.5481,323.063623" id="Stroke-185"></path>
            <polyline id="Stroke-187" points="113.5516 339.61722 92.4336 339.61722 84.8306 358.063683"></polyline>
            <polyline id="Stroke-189" points="64.2545 323.06393 56.6105 340.071982 64.2545 357.652328"></polyline>
            <path d="M92.4336,339.8833 L84.6396,323.063623" id="Stroke-191"></path>
            <polyline id="Stroke-193" points="56.6101 340.071778 36.3751 340.358436 28.7311 357.166852 37.1701 374.406278"></polyline>
            <polyline id="Stroke-195" points="420.5516 358.045255 400.6056 358.045255 392.8806 376.492741"></polyline>
            <polyline id="Stroke-197" points="392.5516 341.664779 372.7256 341.664779 365.0816 357.820023 372.5586 377.080391"></polyline>
            <polyline id="Stroke-199" points="365.0818 357.167261 345.2968 357.135524 337.3528 376.10002"></polyline>
            <polyline id="Stroke-201" points="316.9674 376.29638 308.8734 358.045459 288.4884 358.045459 280.9944 376.394663"></polyline>
            <polyline id="Stroke-203" points="339.5516 341.664779 316.6676 341.664779 309.7706 358.95949"></polyline>
            <polyline id="Stroke-205" points="281.2649 441.675977 260.8429 441.852068 253.0319 458.082048 260.5389 476.262328"></polyline>
            <polyline id="Stroke-207" points="450.5516 477.827482 429.5206 477.827482 421.0446 493.862944 429.2756 510.46558"></polyline>
            <polyline id="Stroke-209" points="954.5516 171.717345 933.7966 171.717345 926.1526 187.818328 934.0606 204.799763"></polyline>
            <polyline id="Stroke-211" points="962.6171 153.43182 954.1811 136.909039 933.7971 136.909039 926.1681 154.363459 933.7971 171.785119"></polyline>
            <polyline id="Stroke-213" points="897.5516 170.693565 877.4386 170.693565 869.7936 187.819352 877.3816 205.05366"></polyline>
            <polyline id="Stroke-215" points="821.6738 71.3960433 813.8858 53.982574 793.5008 53.982574 785.8558 69.8132798 793.0578 87.7928994"></polyline>
            <polyline id="Stroke-217" points="702.5516 324.260524 681.0836 324.260524 674.2896 340.402459"></polyline>
            <path d="M674.0981,340.652875 L652.9041,340.358027" id="Stroke-219"></path>
            <polyline id="Stroke-221" points="674.5516 239.286807 652.9046 239.286807 645.2606 254.243205 653.6146 271.473417"></polyline>
            <polyline id="Stroke-223" points="646.5516 286.380674 624.7006 286.380674 616.7756 305.299099 625.0416 323.326837"></polyline>
            <polyline id="Stroke-225" points="645.2603 254.048686 624.7253 253.885905 617.0813 271.14376 624.7013 287.321527"></polyline>
            <polyline id="Stroke-227" points="616.5516 304.808709 596.8456 304.808709 589.2016 323.689255 596.9256 341.664779 617.0806 341.664779 624.8506 323.236744 646.5516 323.236744"></polyline>
            <polyline id="Stroke-229" points="617.5516 271.023978 597.8456 271.023978 589.2016 288.161027 596.7336 304.6275"></polyline>
            <polyline id="Stroke-231" points="616.5516 239.286807 596.8456 239.286807 589.2016 255.39598 597.7336 271.472393"></polyline>
            <polyline id="Stroke-233" points="589.2017 288.239653 568.9667 288.475122 561.3227 304.758339 569.2577 321.325142"></polyline>
            <polyline id="Stroke-235" points="589.2017 255.201667 568.8477 254.916033 561.3227 271.143965 568.9667 288.474508"></polyline>
            <path d="M540.5982,238.479761 L560.9782,238.645613" id="Stroke-237"></path>
            <polyline id="Stroke-239" points="560.9786 238.645613 568.8476 221.502422 560.9036 204.477989 540.5186 204.477989 532.8746 221.502422 540.5986 238.521736"></polyline>
            <polyline id="Stroke-241" points="560.9037 204.308656 568.8477 188.736966 560.9037 172.741432 540.5187 172.741432 532.8747 188.736966 540.5187 204.487817"></polyline>
            <polyline id="Stroke-243" points="673.5516 138.956393 652.2216 138.956393 644.5776 155.097305 652.7736 172.312161"></polyline>
            <polyline id="Stroke-245" points="674.5516 102.100323 653.3466 102.100323 644.5776 120.925585 652.4206 138.893943"></polyline>
            <polyline id="Stroke-247" points="646.5516 188.09782 624.3986 188.09782 616.7756 204.076974 625.5026 220.918151"></polyline>
            <polyline id="Stroke-249" points="644.5777 154.914253 623.5597 154.730996 616.3987 171.469795 624.6017 188.421539"></polyline>
            <polyline id="Stroke-251" points="644.5777 120.723286 624.2237 120.524673 616.3987 138.843163 623.5597 154.731201"></polyline>
            <polyline id="Stroke-253" points="616.7759 204.135534 595.8639 204.308553 588.2199 221.717927 596.5429 239.12423"></polyline>
            <polyline id="Stroke-255" points="616.3986 171.433246 595.8636 170.873238 588.2196 187.951932 595.8636 204.30886"></polyline>
            <polyline id="Stroke-257" points="616.3986 138.843573 595.8636 138.589676 588.2196 154.913843 595.8636 170.872522"></polyline>
            <path d="M588.2194,187.952239 L568.8474,188.379155" id="Stroke-259"></path>
            <polyline id="Stroke-261" points="588.2194 154.914253 567.9844 154.730996 560.9034 172.842683"></polyline>
            <polyline id="Stroke-263" points="701.6185 17.5941665 680.7565 17.5286446 673.4395 34.6564793 681.8375 51.3451126"></polyline>
            <polyline id="Stroke-265" points="674.1685 68.579011 652.9045 68.258568 645.2605 85.4273539 653.3475 102.131344"></polyline>
            <polyline id="Stroke-267" points="673.4394 34.6568889 652.9844 34.4910365 645.2604 51.7847237 652.9044 68.259387"></polyline>
            <polyline id="Stroke-269" points="645.2603 17.5941665 625.0253 17.5286446 617.3813 34.6892403 624.8513 51.3942541"></polyline>
            <polyline id="Stroke-271" points="680.7563 17.7845895 673.2893 0.745823529 652.9043 0.745823529 645.2603 17.8501114 652.9843 34.746572"></polyline>
            <polyline id="Stroke-273" points="569.1166 51.6390398 561.1726 34.5306568 540.7876 34.5306568 533.1436 51.6390398 540.8666 68.5355004"></polyline>
            <polyline id="Stroke-275" points="625.0252 17.7845895 617.5312 0.745823529 597.1462 0.745823529 589.5012 17.8501114 597.2252 34.746572"></polyline>
            <polyline id="Stroke-277" points="589.5516 17.1266063 568.9666 17.1266063 561.0616 34.4213171"></polyline>
            <polyline id="Stroke-279" points="568.9667 17.7845895 561.1727 0.745823529 540.7877 0.745823529 533.1437 17.8501114 540.8667 34.746572"></polyline>
            <polyline id="Stroke-281" points="533.1432 17.5941665 512.9082 17.5286446 505.2642 34.6892403 513.1012 51.3942541"></polyline>
            <polyline id="Stroke-283" points="925.8525 17.5941665 905.3175 17.5286446 897.6735 34.6892403 905.6315 51.3942541"></polyline>
            <polyline id="Stroke-285" points="897.6734 34.6897522 877.1384 34.8228436 869.1914 51.6005457"></polyline>
            <polyline id="Stroke-287" points="869.4943 17.5941665 849.2593 17.5286446 841.6153 34.6892403 849.4753 51.3942541"></polyline>
            <polyline id="Stroke-289" points="905.4676 17.8501114 897.5236 0.745823529 877.1386 0.745823529 869.4946 17.8501114 877.2176 34.746572"></polyline>
            <polyline id="Stroke-291" points="841.6149 34.6897522 821.3799 34.8228436 813.8859 53.9665006"></polyline>
            <polyline id="Stroke-293" points="793.5005 53.984212 785.4065 34.5303497 765.0215 34.5303497 757.3775 51.4739041"></polyline>
            <polyline id="Stroke-295" points="849.7089 17.8501114 841.7649 0.745823529 821.3799 0.745823529 813.7359 17.8501114 821.3799 35.0793004"></polyline>
            <polyline id="Stroke-297" points="813.7355 17.5941665 793.2005 17.5286446 785.4065 34.8233554"></polyline>
            <polyline id="Stroke-299" points="793.3506 17.8501114 785.4066 0.745823529 765.0216 0.745823529 757.3776 17.8501114 765.0216 35.0793004"></polyline>
            <polyline id="Stroke-301" points="709.2629 0.234240801 701.6189 17.5944736 709.1599 34.4909342"></polyline>
            <polyline id="Stroke-303" points="933.4969 0.234240801 925.8529 17.5944736 934.0589 34.8226388"></polyline>
            <polyline id="Stroke-305" points="512.9082 17.7845895 505.1142 0.745823529 484.7292 0.745823529 477.6482 17.912562"></polyline>
            <polyline id="Stroke-307" points="926.5516 154.313089 906.0546 154.313089 897.5776 171.043698 905.7036 188.54726"></polyline>
            <polyline id="Stroke-309" points="962.3809 562.209352 954.1819 545.396842 933.7969 545.396842 926.1519 561.215262 933.7969 579.504063"></polyline>
            <polyline id="Stroke-311" points="962.3809 528.739639 954.1819 510.588024 933.7969 510.588024 926.1519 526.914239 933.7969 544.80479"></polyline>
            <polyline id="Stroke-313" points="962.3809 425.79828 954.1819 409.234548 933.7969 409.234548 926.1519 424.522651 933.8759 441.688365"></polyline>
            <polyline id="Stroke-315" points="926.5516 425.614716 905.6176 425.614716 897.9736 442.186639 905.7036 459.944098"></polyline>
            <polyline id="Stroke-317" points="926.5516 391.829985 905.6176 391.829985 896.9186 408.561618 905.7036 425.23387"></polyline>
            <polyline id="Stroke-319" points="897.5516 408.210461 877.4386 408.210461 869.7936 424.523367 877.3816 441.139312"></polyline>
            <polyline id="Stroke-321" points="870.5516 425.614716 849.2596 425.614716 841.6146 442.186639 849.7926 459.185477"></polyline>
            <polyline id="Stroke-323" points="877.4384 408.561003 869.6444 392.854175 849.2594 392.854175 841.6154 408.909088 849.2594 424.830911"></polyline>
            <polyline id="Stroke-325" points="815.5516 494.207958 793.5006 494.207958 785.8566 510.276181 794.4126 527.526869"></polyline>
            <polyline id="Stroke-327" points="815.5516 461.447007 793.5006 461.447007 785.8566 476.999245 793.8816 494.300098"></polyline>
            <polyline id="Stroke-329" points="815.5516 425.614716 793.5006 425.614716 785.8566 442.186639 793.8816 459.930789"></polyline>
            <polyline id="Stroke-331" points="785.8561 509.446612 765.3161 509.088289 757.6771 526.541686 765.3161 543.478074"></polyline>
            <polyline id="Stroke-333" points="785.8561 476.856939 765.3101 476.895843 757.6771 492.350822 765.3161 509.088596"></polyline>
            <polyline id="Stroke-335" points="785.8561 441.641169 765.3211 441.819307 757.6711 459.044401 765.3101 476.896048"></polyline>
            <polyline id="Stroke-337" points="821.8295 408.909088 813.8855 392.854175 793.5005 392.854175 785.8565 408.909088 793.5005 425.806573"></polyline>
            <polyline id="Stroke-339" points="785.8561 408.603081 764.7331 408.507869 757.5921 424.00687"></polyline>
            <polyline id="Stroke-341" points="702.5516 425.614716 681.0836 425.614716 673.4396 442.186639 681.7046 459.185477"></polyline>
            <polyline id="Stroke-343" points="674.5516 444.042751 652.9046 444.042751 645.1686 461.136802 653.6146 477.230619"></polyline>
            <polyline id="Stroke-345" points="646.5516 529.016469 624.7256 529.016469 617.0806 544.576897 625.5256 562.081482"></polyline>
            <polyline id="Stroke-347" points="646.5516 461.447007 624.7256 461.447007 617.0806 476.999245 625.5256 494.507925"></polyline>
            <polyline id="Stroke-349" points="617.0811 543.637579 596.6981 543.477869 589.2021 560.732653 596.6981 577.867654"></polyline>
            <polyline id="Stroke-351" points="616.5516 510.588434 596.8456 510.588434 589.2016 526.914649 596.5856 544.036341"></polyline>
            <polyline id="Stroke-353" points="617.0811 475.832136 596.6981 475.562882 589.2021 492.350822 596.8461 509.844146"></polyline>
            <polyline id="Stroke-355" points="616.5516 444.042751 596.8456 444.042751 589.2016 459.848887 596.5856 477.230619"></polyline>
            <polyline id="Stroke-357" points="653.0544 443.811684 645.1104 425.615024 624.7254 425.615024 616.1684 443.211749 624.7254 460.633409"></polyline>
            <polyline id="Stroke-359" points="589.2017 526.542095 568.9667 527.137935 561.6477 544.432646 568.9667 560.574581"></polyline>
            <polyline id="Stroke-361" points="589.2017 492.351129 568.9667 492.549742 561.3227 509.446203 568.9667 527.13814"></polyline>
            <polyline id="Stroke-363" points="589.5516 461.447007 568.9666 461.447007 561.3226 478.152021 568.8526 493.704258"></polyline>
            <polyline id="Stroke-365" points="562.5516 545.396944 540.7876 545.396944 533.1436 561.215365 542.2116 578.109778"></polyline>
            <polyline id="Stroke-367" points="596.8461 443.211647 589.3521 425.614921 568.9671 425.614921 561.3221 442.18582 568.9671 460.633307"></polyline>
            <path d="M709.2629,408.307004 L702.1689,425.965156" id="Stroke-369"></path>
            <polyline id="Stroke-371" points="702.5516 392.853765 681.0836 392.853765 673.4396 408.908679 681.2756 425.726308"></polyline>
            <polyline id="Stroke-373" points="702.5516 358.045255 681.0836 358.045255 673.4396 374.607963 681.2186 392.536393"></polyline>
            <polyline id="Stroke-375" points="673.4394 408.603081 653.0544 408.557011 645.1104 425.965361"></polyline>
            <polyline id="Stroke-377" points="673.4394 374.412114 652.9844 374.213501 645.2604 391.507188 653.0544 408.557215"></polyline>
            <polyline id="Stroke-379" points="645.2603 391.507597 624.8513 391.317174 617.3813 408.602671 624.7253 425.965975"></polyline>
            <polyline id="Stroke-381" points="645.5516 357.021475 625.4746 357.021475 617.3806 374.608987 625.6756 391.612944"></polyline>
            <polyline id="Stroke-383" points="652.9046 340.358334 645.2606 357.316221 652.9836 374.212682"></polyline>
            <path d="M681.0837,358.329456 L674.1547,340.358027" id="Stroke-385"></path>
            <polyline id="Stroke-387" points="617.3809 408.603081 597.4099 408.511964 589.3519 425.965361"></polyline>
            <polyline id="Stroke-389" points="617.3809 374.412114 597.1459 374.947551 589.1689 393.171854 597.4099 408.512169"></polyline>
            <polyline id="Stroke-391" points="589.5516 392.853765 568.9666 392.853765 561.3226 408.908679 569.1586 425.726308"></polyline>
            <polyline id="Stroke-393" points="568.9667 392.49278 561.1727 375.449919 540.7877 375.449919 533.1437 391.75873 541.7177 408.634715"></polyline>
            <polyline id="Stroke-395" points="596.9255 341.932805 589.5015 357.316119 597.1455 374.947653"></polyline>
            <path d="M625.4749,357.316631 L617.0809,341.933316" id="Stroke-397"></path>
            <polyline id="Stroke-399" points="589.5516 358.045255 568.9666 358.045255 561.0616 375.339965"></polyline>
            <polyline id="Stroke-401" points="568.9667 358.306011 561.1727 341.664472 540.7877 341.664472 533.1437 357.970212 540.7877 375.600722"></polyline>
            <polyline id="Stroke-403" points="897.5516 375.44951 877.1386 375.44951 869.9606 392.744221"></polyline>
            <polyline id="Stroke-405" points="793.5005 392.49278 785.4065 375.449919 765.0215 375.449919 757.3775 391.992152"></polyline>
            <polyline id="Stroke-407" points="815.5516 358.045255 793.2006 358.045255 785.7876 375.339965"></polyline>
            <polyline id="Stroke-409" points="793.3506 357.969802 785.4066 341.665086 765.0216 341.665086 757.3776 357.969802 765.0216 375.600313"></polyline>
            <polyline id="Stroke-411" points="1431.9081 220.636918 1439.7771 204.307632 1431.8331 188.098127 1411.4481 188.098127 1403.8041 204.307632 1411.5281 220.920505"></polyline>
            <polyline id="Stroke-413" points="1431.8333 188.167233 1439.7773 170.518294 1431.8333 154.312885 1411.4483 154.312885 1404.0593 171.50317 1411.4483 188.350489"></polyline>
            <polyline id="Stroke-415" points="1431.8333 154.396118 1439.7773 136.729775 1431.8333 120.528461 1411.4483 120.528461 1403.8043 136.729775 1411.4483 154.383833"></polyline>
            <polyline id="Stroke-417" points="1403.8041 204.342236 1383.6851 204.345307 1375.6251 221.233577 1383.6851 238.056326"></polyline>
            <polyline id="Stroke-419" points="1404.0588 171.545247 1383.2688 171.817573 1375.6248 187.718919 1383.6848 204.345102"></polyline>
            <polyline id="Stroke-421" points="1405.5516 104.147883 1383.2696 104.147883 1375.6246 120.091205 1383.8976 136.949785"></polyline>
            <polyline id="Stroke-423" points="1376.5516 254.643502 1355.0896 254.643502 1347.4456 271.373087 1355.2816 287.482261"></polyline>
            <polyline id="Stroke-425" points="1376.5516 154.313089 1355.0896 154.313089 1347.4456 170.518499 1355.7076 187.700594"></polyline>
            <polyline id="Stroke-427" points="1375.6249 120.107994 1355.5159 120.139732 1347.4459 135.729849 1355.0899 154.396425"></polyline>
            <polyline id="Stroke-429" points="1376.5516 86.7436275 1355.0896 86.7436275 1347.4456 102.940847 1355.7076 120.127037"></polyline>
            <polyline id="Stroke-431" points="1376.5516 51.9351169 1355.0896 51.9351169 1347.4456 68.6401307 1355.2816 86.7733171"></polyline>
            <polyline id="Stroke-433" points="1347.4458 270.9948 1326.5738 270.799258 1319.2668 287.513486 1327.2108 305.247398"></polyline>
            <polyline id="Stroke-435" points="1347.4458 170.151371 1326.8158 169.954806 1319.2668 187.246445 1326.8158 204.34459"></polyline>
            <polyline id="Stroke-437" points="1347.5516 135.885054 1326.9106 135.885054 1319.2666 153.369164 1327.0076 169.906278"></polyline>
            <polyline id="Stroke-439" points="1319.2666 153.055785 1299.4436 152.759913 1291.3876 170.150859 1299.3756 187.149698"></polyline>
            <polyline id="Stroke-441" points="1319.0118 119.40261 1299.0318 118.989003 1291.3868 135.9602 1299.4438 152.759401"></polyline>
            <polyline id="Stroke-443" points="1319.2666 51.0593757 1299.0316 50.9641642 1291.3876 68.1544496 1299.3756 84.8451304"></polyline>
            <polyline id="Stroke-445" points="1355.0901 51.9347074 1347.2961 34.5304521 1326.9111 34.5304521 1319.2671 50.9129752 1326.9901 67.8094358"></polyline>
            <polyline id="Stroke-447" points="1291.8191 270.805811 1271.3011 270.934807 1263.6571 288.420964 1271.4271 306.379085"></polyline>
            <polyline id="Stroke-449" points="1291.3873 170.151371 1271.3723 169.954806 1263.5083 187.246445 1271.3723 204.34459"></polyline>
            <polyline id="Stroke-451" points="1291.3873 135.960302 1271.1523 136.283817 1263.5083 153.055376 1271.3723 169.954908"></polyline>
            <polyline id="Stroke-453" points="1263.6566 288.421476 1242.9736 288.643637 1235.3286 304.856212 1243.0526 322.213374 1263.5076 322.213374 1271.4276 305.953704 1291.1256 305.697759"></polyline>
            <polyline id="Stroke-455" points="1263.5516 254.643502 1242.9736 254.643502 1235.3286 271.373087 1243.1646 288.507064"></polyline>
            <polyline id="Stroke-457" points="1263.5079 153.055785 1242.9579 152.926789 1235.3289 170.560371 1242.9579 187.762942"></polyline>
            <polyline id="Stroke-459" points="1263.5516 120.528358 1242.9736 120.528358 1235.3286 136.729673 1243.1496 152.889012"></polyline>
            <polyline id="Stroke-461" points="1235.3287 170.151371 1215.0667 169.954806 1207.1497 186.093669 1215.0667 203.191814"></polyline>
            <polyline id="Stroke-463" points="1235.5516 136.908834 1214.7936 136.908834 1207.1496 153.368141 1215.0596 170.423287"></polyline>
            <polyline id="Stroke-465" points="1207.1497 153.055785 1187.1757 152.957503 1179.2707 170.150859 1187.6257 187.149698"></polyline>
            <polyline id="Stroke-467" points="1179.2703 170.151371 1159.0943 170.364317 1151.0913 187.501366 1159.4943 204.72646"></polyline>
            <polyline id="Stroke-469" points="1149.5516 154.313089 1130.5566 154.313089 1122.1356 171.184979 1129.1646 187.343295"></polyline>
            <polyline id="Stroke-471" points="1121.5516 204.478296 1102.0416 204.478296 1094.9316 221.688033 1102.1486 237.844301"></polyline>
            <polyline id="Stroke-473" points="1122.5516 170.693565 1101.3776 170.693565 1094.7326 187.66988 1101.8516 204.978924"></polyline>
            <polyline id="Stroke-475" points="1095.5516 221.882551 1074.8336 221.882551 1066.8536 238.317287 1074.7816 255.115465"></polyline>
            <polyline id="Stroke-477" points="1094.7329 187.246752 1075.0829 187.149493 1066.8539 204.274257 1074.9489 221.501398"></polyline>
            <polyline id="Stroke-479" points="1094.5516 154.313089 1074.4976 154.313089 1066.8536 170.518499 1075.4546 187.700594"></polyline>
            <polyline id="Stroke-481" points="1094.5516 120.528358 1074.4976 120.528358 1066.8536 136.729673 1074.8706 154.732839"></polyline>
            <polyline id="Stroke-483" points="1066.8535 204.274461 1046.7225 204.308246 1038.9745 220.284329 1047.2485 237.744892"></polyline>
            <polyline id="Stroke-485" points="1066.8535 170.151371 1047.1605 169.954806 1038.2485 187.246445 1046.7225 204.308758"></polyline>
            <polyline id="Stroke-487" points="1066.8535 135.960302 1046.7485 135.874305 1038.9745 153.055376 1047.1605 169.954908"></polyline>
            <polyline id="Stroke-489" points="1038.2485 187.246752 1019.0085 187.149493 1010.7945 204.341826 1019.3695 220.449976"></polyline>
            <polyline id="Stroke-491" points="1038.9741 153.055785 1019.2671 153.11926 1010.7951 170.150859 1019.0081 187.149698"></polyline>
            <polyline id="Stroke-493" points="1039.5516 120.528358 1018.4396 120.528358 1010.7946 136.729673 1019.1406 154.273162"></polyline>
            <polyline id="Stroke-495" points="1010.795 204.342236 990.758 204.274666 982.616 220.284533 991.589 237.236278"></polyline>
            <polyline id="Stroke-497" points="1010.795 170.151371 990.855 169.954806 982.424 188.166823 990.758 204.274973"></polyline>
            <polyline id="Stroke-499" points="1010.795 135.960302 991.103 136.05449 982.616 153.055376 990.855 169.954908"></polyline>
            <polyline id="Stroke-501" points="982.5516 188.09782 962.3806 188.09782 954.7366 204.307325 963.3746 220.398071"></polyline>
            <polyline id="Stroke-503" points="982.6158 153.055785 962.6168 153.11926 954.2978 170.872624 962.3808 188.167335"></polyline>
            <polyline id="Stroke-505" points="1207.1497 17.444797 1186.9147 17.5287469 1179.2707 34.5398708 1187.6257 51.3196205"></polyline>
            <polyline id="Stroke-507" points="1180.5516 0.746130663 1158.7356 0.746130663 1151.0916 17.7009467 1160.2316 34.5083384"></polyline>
            <polyline id="Stroke-509" points="1121.5516 35.5546413 1102.6766 35.5546413 1095.0326 52.0016626 1102.0016 69.0629517"></polyline>
            <polyline id="Stroke-511" points="1122.5516 0.746130663 1102.6766 0.746130663 1095.0326 17.7009467 1102.8686 35.5720456"></polyline>
            <path d="M1121.9332,0.234240801 L1130.7572,17.8227765" id="Stroke-513"></path>
            <polyline id="Stroke-515" points="1095.0326 17.444797 1074.7976 17.5287469 1067.1536 34.5398708 1074.7516 51.3196205"></polyline>
            <polyline id="Stroke-517" points="1013.5516 33.5070819 991.0046 33.5070819 984.0406 49.5978278 993.0126 66.6099755"></polyline>
            <path d="M1067.9298,0.234240801 L1074.7978,17.5289517" id="Stroke-519"></path>
            <polyline id="Stroke-521" points="1068.5516 0.746130663 1046.6186 0.746130663 1039.2486 17.522809"></polyline>
            <polyline id="Stroke-523" points="990.56 0.234240801 982.916 17.4450018 991.005 33.6698628"></polyline>
            <polyline id="Stroke-525" points="1320.1552 322.528595 1327.5802 304.979987 1347.6302 304.52031 1355.0902 287.404761 1376.5512 287.404761"></polyline>
            <polyline id="Stroke-527" points="1319.2666 287.513793 1299.3656 287.308014 1291.3876 306.339055 1299.1106 323.201731"></polyline>
            <polyline id="Stroke-529" points="1376.5516 17.1266063 1354.7906 17.1266063 1347.4876 34.5482658"></polyline>
            <polyline id="Stroke-531" points="1347.5516 0.746130663 1326.9106 0.746130663 1319.2666 17.7009467 1327.0656 34.86359"></polyline>
            <path d="M1346.9476,0.234240801 L1354.7906,17.5289517" id="Stroke-533"></path>
            <polyline id="Stroke-535" points="1319.2666 17.444797 1299.0316 17.5287469 1291.6516 34.3054253"></polyline>
            <polyline id="Stroke-537" points="1271.0023 34.3393124 1263.0583 17.1265039 1242.6733 17.1265039 1235.0293 34.1212473"></polyline>
            <path d="M1291.8191,0.234240801 L1299.0321,17.5289517" id="Stroke-539"></path>
            <polyline id="Stroke-541" points="1292.5516 0.746130663 1270.8526 0.746130663 1263.2496 17.1429867"></polyline>
            <path d="M1234.4404,0.234240801 L1242.6734,17.0743935" id="Stroke-543"></path>
            <polyline id="Stroke-545" points="1234.5516 0.746130663 1214.7936 0.746130663 1207.1496 17.7009467 1214.9806 34.5083384"></polyline>
            <path d="M1179.3119,0.234240801 L1186.9149,17.5289517" id="Stroke-547"></path>
            <polyline id="Stroke-549" points="982.9156 17.444797 962.3806 17.5287469 954.7366 34.5398708 961.9066 52.1171449"></polyline>
            <polyline id="Stroke-551" points="1347.4508 102.423326 1326.9258 102.493967 1319.0118 119.402713 1326.9108 135.950064"></polyline>
            <polyline id="Stroke-553" points="1403.8041 136.754653 1383.7061 136.974765 1375.6431 154.615514 1383.2691 171.818085"></polyline>
            <polyline id="Stroke-555" points="1405.5516 510.588434 1383.2696 510.588434 1375.0746 527.510489 1384.2976 543.961605"></polyline>
            <polyline id="Stroke-557" points="1383.2693 441.819102 1375.6253 458.58759 1383.6843 475.488146"></polyline>
            <polyline id="Stroke-559" points="1405.5516 407.186681 1383.2696 407.186681 1375.6246 424.374919 1384.0296 441.824221"></polyline>
            <polyline id="Stroke-561" points="1375.5516 527.992689 1356.2426 527.992689 1347.4456 544.529803 1355.2076 561.18158"></polyline>
            <polyline id="Stroke-563" points="1375.2291 492.576872 1355.0591 492.482684 1347.4461 509.823465 1356.2431 527.420191"></polyline>
            <polyline id="Stroke-565" points="1375.6249 458.587283 1354.9689 458.293458 1347.4459 475.105969 1355.0589 492.482582"></polyline>
            <polyline id="Stroke-567" points="1375.6249 424.396214 1355.0899 424.524186 1347.4459 441.491288 1354.9689 458.29356"></polyline>
            <polyline id="Stroke-569" points="1347.4458 543.488209 1326.9108 543.279358 1319.2668 560.006895 1326.9108 577.86878"></polyline>
            <polyline id="Stroke-571" points="1347.4458 509.297243 1326.8158 509.013656 1319.2668 526.392316 1326.8158 543.40344"></polyline>
            <polyline id="Stroke-573" points="1347.4458 475.106276 1326.9108 475.254724 1319.2668 492.20135 1326.8158 509.01386"></polyline>
            <polyline id="Stroke-575" points="1319.2666 526.392726 1299.3756 526.208446 1291.3876 543.4878 1299.6266 560.574683"></polyline>
            <polyline id="Stroke-577" points="1319.2666 492.201759 1299.2896 492.059454 1291.3876 509.296833 1299.3756 526.20865"></polyline>
            <polyline id="Stroke-579" points="1292.5516 544.373164 1271.1526 544.373164 1263.5076 560.554003 1271.7386 577.748383"></polyline>
            <polyline id="Stroke-581" points="1292.5516 510.588434 1271.1526 510.588434 1263.5076 526.765177 1271.7386 543.961605"></polyline>
            <polyline id="Stroke-583" points="1263.5079 526.470021 1242.9729 526.395285 1235.3289 544.141483 1243.0529 560.275228"></polyline>
            <polyline id="Stroke-585" points="1263.5516 494.207958 1242.9736 494.207958 1235.3286 510.126709 1242.9026 526.333142"></polyline>
            <polyline id="Stroke-587" points="1235.5516 544.373164 1214.7936 544.373164 1207.1496 560.554003 1214.9856 578.052446"></polyline>
            <polyline id="Stroke-589" points="1235.3287 509.297243 1214.7937 509.843941 1207.1497 527.41712 1215.0667 543.40344"></polyline>
            <polyline id="Stroke-591" points="1121.5516 544.373164 1102.3776 544.373164 1094.7326 560.554003 1101.6866 578.641119"></polyline>
            <polyline id="Stroke-593" points="1121.5516 444.042751 1102.3776 444.042751 1094.7326 459.699415 1101.8516 477.155883"></polyline>
            <polyline id="Stroke-595" points="1095.5516 529.016469 1075.6226 529.016469 1067.9786 544.427425 1075.9326 561.983199"></polyline>
            <polyline id="Stroke-597" points="1094.5516 425.614716 1074.4976 425.614716 1066.8536 442.037167 1074.4116 459.110741"></polyline>
            <polyline id="Stroke-599" points="1067.5516 544.373164 1046.6186 544.373164 1038.9736 560.554003 1046.4296 577.535437"></polyline>
            <polyline id="Stroke-601" points="1066.8535 441.491697 1046.7685 441.293084 1038.9745 458.586771 1047.1605 475.48835"></polyline>
            <polyline id="Stroke-603" points="1039.5516 529.016469 1018.4396 529.016469 1010.7946 544.427425 1018.3136 561.983199"></polyline>
            <polyline id="Stroke-605" points="1010.795 544.141381 990.26 543.816843 982.424 561.996099 990.26 577.740808"></polyline>
            <polyline id="Stroke-607" points="982.5516 562.801199 962.3806 562.801199 954.2456 580.09591"></polyline>
            <polyline id="Stroke-609" points="982.5516 529.016469 962.3806 529.016469 954.3726 545.413325"></polyline>
            <polyline id="Stroke-611" points="982.5516 460.423227 962.3806 460.423227 954.7366 476.337883 962.3536 493.665355"></polyline>
            <polyline id="Stroke-613" points="1018.5892 459.699005 1010.6452 444.042342 990.2602 444.042342 982.6162 459.699005 990.3392 476.595466"></polyline>
            <polyline id="Stroke-615" points="1039.5516 425.614716 1018.4396 425.614716 1010.5196 442.909427"></polyline>
            <polyline id="Stroke-617" points="1018.4393 425.79828 1010.6453 409.234548 990.2603 409.234548 982.1683 425.79828 990.2603 443.21994"></polyline>
            <polyline id="Stroke-619" points="982.5516 425.614716 962.3806 425.614716 954.7366 442.037167 962.3536 459.110741"></polyline>
            <polyline id="Stroke-621" points="1327.0156 339.932851 1319.4166 322.213271 1299.0316 322.213271 1291.3876 339.646192 1298.6686 358.924988"></polyline>
            <polyline id="Stroke-623" points="1291.3873 340.071778 1270.3633 340.016494 1263.2333 357.478081"></polyline>
            <polyline id="Stroke-625" points="1347.4508 441.744059 1326.9258 441.8147 1319.0118 458.723446 1326.9108 475.255441"></polyline>
            <polyline id="Stroke-627" points="1383.7059 475.255031 1375.2289 492.577384 1383.4169 509.785074"></polyline>
            <polyline id="Stroke-629" points="561.3224 509.446612 541.8474 509.843839 534.0734 528.051761 540.7874 544.43326"></polyline>
            <polyline id="Stroke-631" points="561.3224 476.985014 541.5694 476.606216 534.1684 493.601983 541.8474 509.844248"></polyline>
            <polyline id="Stroke-633" points="561.3224 441.641169 541.5694 442.216533 534.0734 459.66993 541.5694 476.606318"></polyline>
            <polyline id="Stroke-635" points="562.5516 408.210461 541.7176 408.210461 534.0736 425.392556 542.0216 442.086308"></polyline>
            <polyline id="Stroke-637" points="534.0732 528.05217 514.6152 527.853557 506.1942 543.41808 512.6082 560.574581"></polyline>
            <polyline id="Stroke-639" points="534.1685 493.60188 514.1285 493.801517 506.2425 511.27539 514.8765 528.547577"></polyline>
            <polyline id="Stroke-641" points="534.0732 459.670237 514.1292 459.411221 506.1942 476.765311 514.1292 493.801006"></polyline>
            <polyline id="Stroke-643" points="534.0732 425.47927 513.8382 425.677884 506.1942 442.574344 514.1292 459.411426"></polyline>
            <polyline id="Stroke-645" points="506.2425 511.275287 485.4835 512.26733 478.0145 526.89919 485.9755 544.232804"></polyline>
            <polyline id="Stroke-647" points="506.5516 477.827482 485.6586 477.827482 478.0146 495.018791 485.6756 512.734276"></polyline>
            <polyline id="Stroke-649" points="478.0147 526.89919 457.8227 527.326106 449.8357 543.417876 457.8227 559.986727"></polyline>
            <polyline id="Stroke-651" points="478.5516 495.231738 457.4796 495.231738 449.8356 511.14537 458.0146 527.779743"></polyline>
            <path d="M289.7072,186.83294 L310.0872,186.7623" id="Stroke-653"></path>
            <polyline id="Stroke-655" points="310.0875 186.7623 317.9565 169.966169 310.0125 153.289822 289.6275 153.289822 281.9835 169.966169 289.7075 186.812465"></polyline>
            <polyline id="Stroke-657" points="310.0875 152.969174 317.9565 137.200918 310.0125 121.552445 289.6275 121.552445 281.9835 137.200918 289.7075 153.533276"></polyline>
            <polyline id="Stroke-659" points="421.5516 86.7436275 401.3306 86.7436275 393.6866 102.537477 401.2016 120.566238"></polyline>
            <polyline id="Stroke-661" points="421.5516 52.9588966 401.3306 52.9588966 393.6866 69.2605412 401.3286 86.3945186"></polyline>
            <polyline id="Stroke-663" points="393.3656 137.226308 373.5476 137.484301 365.5076 154.022438 373.5476 171.29565"></polyline>
            <polyline id="Stroke-665" points="393.6866 102.54536 373.4686 102.958967 365.5076 120.216822 373.5466 137.483891"></polyline>
            <polyline id="Stroke-667" points="393.6866 68.8399725 373.3186 68.9403029 365.5076 85.9350463 373.4686 102.958456"></polyline>
            <polyline id="Stroke-669" points="365.5075 154.022234 344.9725 154.395913 337.3285 170.155978 345.4575 187.049367"></polyline>
            <polyline id="Stroke-671" points="366.5516 120.528358 344.9726 120.528358 337.3286 136.838193 345.1646 154.359159"></polyline>
            <polyline id="Stroke-673" points="365.5075 85.9354558 345.8345 85.8996235 337.3285 103.570062 345.4575 120.962032"></polyline>
            <path d="M337.5516,136.908834 L318.5516,136.908834" id="Stroke-675"></path>
            <polyline id="Stroke-677" points="337.5516 103.124103 317.9566 103.124103 310.2046 121.570566"></polyline>
            <path d="M401.0893,186.83294 L421.4693,186.7623" id="Stroke-679"></path>
            <polyline id="Stroke-681" points="421.4696 186.7623 429.3386 169.966169 421.3946 153.289822 401.0096 153.289822 393.3656 169.966169 401.0896 186.812465"></polyline>
            <polyline id="Stroke-683" points="421.4696 152.969174 429.3386 137.200918 421.3946 120.528666 401.0096 120.528666 393.3656 137.200918 401.0896 153.533276"></polyline>
            <polyline id="Stroke-685" points="534.5516 87.7674073 512.7126 87.7674073 505.0686 103.561257 513.5196 120.949132"></polyline>
            <polyline id="Stroke-687" points="533.1432 51.7852355 513.1012 51.3941517 505.0692 68.840382 513.0042 85.7634608"></polyline>
            <polyline id="Stroke-689" points="505.5516 137.932614 484.5336 137.932614 476.8896 153.988551 484.9296 171.245382"></polyline>
            <polyline id="Stroke-691" points="505.5516 104.147883 484.5336 104.147883 476.8896 120.199725 484.9296 137.458604"></polyline>
            <polyline id="Stroke-693" points="505.5516 71.3869317 484.5336 71.3869317 476.8896 86.922789 484.9296 104.43966"></polyline>
            <polyline id="Stroke-695" points="477.5516 153.28931 456.3546 153.28931 448.7106 170.115129 456.8406 186.987019"></polyline>
            <polyline id="Stroke-697" points="477.5516 120.528358 456.3546 120.528358 448.7106 136.838193 456.8406 153.968076"></polyline>
            <polyline id="Stroke-699" points="477.5516 87.7674073 456.3546 87.7674073 448.7106 103.561257 456.8406 120.949132"></polyline>
            <path d="M448.7105,136.863276 L429.3385,137.226718" id="Stroke-701"></path>
            <polyline id="Stroke-703" points="448.7105 103.570062 429.3385 103.925313 421.3945 120.578114"></polyline>
            <polyline id="Stroke-705" points="870.3561 86.9730566 849.4161 86.7601104 841.7721 103.769187 849.6791 120.807953"></polyline>
            <polyline id="Stroke-707" points="878.0004 69.3470506 869.8014 52.9583847 849.4164 52.9583847 842.1684 71.3966576 849.4164 86.7687101"></polyline>
            <polyline id="Stroke-709" points="813.5516 87.7674073 793.0576 87.7674073 785.4136 103.75987 792.1916 120.024659"></polyline>
            <polyline id="Stroke-711" points="842.5516 71.3869317 821.6736 71.3869317 813.1966 87.4971294 821.5136 105.310897"></polyline>
            <polyline id="Stroke-713" points="956.5516 103.124103 934.0586 103.124103 926.4146 120.762804 934.3616 137.163755"></polyline>
            <polyline id="Stroke-715" points="957.5516 69.3393722 935.0586 69.3393722 926.4146 86.973978 934.6236 103.434308"></polyline>
            <polyline id="Stroke-717" points="954.7365 34.5402804 934.0585 34.8228436 927.2955 52.1175544 935.0585 69.3385532"></polyline>
            <polyline id="Stroke-719" points="926.4146 120.778673 906.6596 121.167709 898.9746 137.515424 906.0546 154.396527"></polyline>
            <polyline id="Stroke-721" points="926.4146 87.0098103 906.4746 86.8132446 898.2356 103.080081 906.6596 121.167197"></polyline>
            <polyline id="Stroke-723" points="927.5516 52.9588966 905.8796 52.9588966 898.2356 69.3096826 906.6026 86.4190894"></polyline>
            <polyline id="Stroke-725" points="898.2355 103.08049 877.9095 102.983231 870.3565 120.175564 877.9095 137.373016"></polyline>
            <polyline id="Stroke-727" points="898.5516 69.3393722 878.0006 69.3393722 870.3556 86.973978 878.1006 102.983845"></polyline>
            <polyline id="Stroke-729" points="1066.5156 271.587876 1047.1986 271.403595 1039.6046 288.411648 1046.2366 305.66336"></polyline>
            <polyline id="Stroke-731" points="1066.5516 238.263027 1047.2486 238.263027 1039.6046 254.378343 1047.0716 271.792837"></polyline>
            <polyline id="Stroke-733" points="1038.6362 322.874326 1018.4342 322.850779 1011.0562 339.364346 1018.9102 354.597164"></polyline>
            <polyline id="Stroke-735" points="1039.6044 288.411648 1019.3694 288.475122 1011.7254 305.79338 1018.4344 322.851598"></polyline>
            <polyline id="Stroke-737" points="1039.6044 254.118611 1019.8284 254.021351 1011.7254 271.213684 1019.3694 288.474611"></polyline>
            <polyline id="Stroke-739" points="1038.5516 220.858771 1019.3696 220.858771 1011.7246 237.227985 1019.7646 254.328178"></polyline>
            <polyline id="Stroke-741" points="1011.725 271.214196 992.387 271.247981 983.846 287.156494 992.033 303.876865"></polyline>
            <polyline id="Stroke-743" points="1011.725 237.02323 991.589 237.236176 984.674 254.823688 992.363 270.924671"></polyline>
            <polyline id="Stroke-745" points="984.5516 255.667282 963.3106 255.667282 955.6666 271.528701 963.8176 288.882791"></polyline>
            <polyline id="Stroke-747" points="982.6158 220.284841 963.3108 220.450693 955.6668 237.023639 963.3108 255.039091"></polyline>
            <polyline id="Stroke-749" points="955.6664 271.214196 935.7264 271.217268 927.4874 287.156494 935.7264 303.876865"></polyline>
            <polyline id="Stroke-751" points="955.6664 237.02323 935.3444 237.236176 927.4874 254.118303 935.7264 271.216449"></polyline>
            <polyline id="Stroke-753" points="1234.5516 336.54588 1214.4556 336.54588 1206.8116 354.582832 1214.5116 372.535833"></polyline>
            <polyline id="Stroke-755" points="1235.5516 305.832489 1215.5816 305.832489 1206.8116 322.906063 1214.6476 336.633925"></polyline>
            <polyline id="Stroke-757" points="1235.3287 270.9948 1214.3347 271.403288 1206.3137 288.474815 1215.5807 305.769526"></polyline>
            <polyline id="Stroke-759" points="1234.5516 238.263027 1214.4556 238.263027 1206.8116 254.752023 1214.3906 271.792837"></polyline>
            <polyline id="Stroke-761" points="1207.0209 354.713978 1186.4859 354.725239 1178.6329 371.855122 1186.5769 389.741577"></polyline>
            <polyline id="Stroke-763" points="1206.8118 322.874326 1185.8518 322.850779 1178.6328 338.816624 1186.2768 355.346571"></polyline>
            <polyline id="Stroke-765" points="1206.3136 288.47502 1186.2766 288.643944 1178.5376 304.987563 1185.8516 322.851496"></polyline>
            <polyline id="Stroke-767" points="1206.8118 254.492392 1186.6248 254.574295 1178.6328 271.860816 1186.2768 288.643637"></polyline>
            <polyline id="Stroke-769" points="1178.6327 338.816829 1158.6177 338.779972 1150.7537 355.335514 1158.7417 371.979101"></polyline>
            <polyline id="Stroke-771" points="1178.5378 305.415196 1158.7418 305.793994 1150.7528 322.874735 1158.6178 338.780177"></polyline>
            <polyline id="Stroke-773" points="1178.6327 271.861225 1158.3977 272.24719 1150.7537 288.639951 1159.1697 305.728882"></polyline>
            <polyline id="Stroke-775" points="1180.5516 238.263027 1158.3976 238.263027 1150.7536 254.752023 1158.5886 272.122494"></polyline>
            <polyline id="Stroke-777" points="1150.7533 355.335822 1130.7383 355.649098 1123.0583 372.64077 1131.2543 389.54235"></polyline>
            <polyline id="Stroke-779" points="1150.7533 322.874326 1130.4783 322.700283 1122.8743 338.816624 1130.7383 355.648586"></polyline>
            <polyline id="Stroke-781" points="1150.7533 288.683359 1130.5183 288.475532 1122.6133 305.778433 1130.4783 322.700488"></polyline>
            <polyline id="Stroke-783" points="1150.7533 254.492392 1130.6953 254.574295 1122.8743 271.587466 1130.5183 288.474713"></polyline>
            <polyline id="Stroke-785" points="1122.5516 372.378171 1102.3386 372.378171 1094.6946 390.234937 1102.4186 407.186681 1122.8736 407.186681 1131.2536 389.520338 1150.4996 389.897089"></polyline>
            <polyline id="Stroke-787" points="1122.8739 338.816829 1102.4649 338.779972 1094.6949 355.335514 1102.3389 371.616683"></polyline>
            <polyline id="Stroke-789" points="1122.6133 305.778843 1102.5853 305.793175 1094.6953 322.873916 1102.4653 338.780382"></polyline>
            <polyline id="Stroke-791" points="1122.8739 271.587876 1102.5859 271.403595 1094.6949 288.68295 1102.5859 305.79338"></polyline>
            <polyline id="Stroke-793" points="1122.5516 238.263027 1102.3386 238.263027 1094.6946 254.752023 1102.3326 271.792837"></polyline>
            <polyline id="Stroke-795" points="1094.6948 355.335822 1074.3788 355.420795 1066.5158 371.854507 1074.3518 389.935481"></polyline>
            <polyline id="Stroke-797" points="1094.6948 322.874326 1074.3518 322.850779 1064.4408 338.589345 1074.3788 355.421307"></polyline>
            <polyline id="Stroke-799" points="1094.6948 288.683359 1074.1598 288.475532 1066.5158 305.79379 1074.3518 322.850984"></polyline>
            <polyline id="Stroke-801" points="1094.6948 254.492392 1074.3528 254.574295 1066.5158 271.587466 1074.1598 288.474713"></polyline>
            <polyline id="Stroke-803" points="1066.5156 371.854917 1046.9916 371.978794 1038.6366 389.853988 1046.3596 407.186579 1066.5156 407.186579 1074.3516 389.914391 1094.6946 389.86525"></polyline>
            <polyline id="Stroke-805" points="1064.4404 338.58914 1046.9194 338.779563 1037.3934 355.649405 1046.9924 371.979716"></polyline>
            <polyline id="Stroke-807" points="1066.5156 305.793483 1046.2366 305.663463 1038.6366 322.874224 1046.9196 338.779665"></polyline>
            <polyline id="Stroke-809" points="1178.6882 372.235661 1158.7692 372.169115 1150.7672 389.622512 1158.4842 406.525115 1178.9362 406.647968 1186.5782 389.753555 1206.8122 389.907122 1214.4562 372.377966 1234.5512 372.377966"></polyline>
            <polyline id="Stroke-811" points="1206.8118 389.520031 1213.9908 407.684955 1234.9908 407.230397 1242.2008 392.005768 1262.7588 391.851178"></polyline>
            <polyline id="Stroke-813" points="1214.1564 407.230192 1207.4384 425.677679 1214.8984 442.97239"></polyline>
            <path d="M1242.778,425.677576 L1234.991,407.23009" id="Stroke-815"></path>
            <polyline id="Stroke-817" points="1102.0393 407.230192 1094.3953 426.461894 1101.8733 443.359378"></polyline>
            <polyline id="Stroke-819" points="1347.5516 375.44951 1327.0156 375.44951 1319.9456 391.339595 1328.3736 408.726446"></polyline>
            <polyline id="Stroke-821" points="1347.5516 339.61722 1327.0156 339.61722 1319.3716 358.178346 1326.9026 375.966519"></polyline>
            <polyline id="Stroke-823" points="1320.5516 426.638496 1298.8366 426.638496 1291.1926 442.905332 1299.5806 460.056714"></polyline>
            <polyline id="Stroke-825" points="1319.9459 391.490603 1298.7159 391.420985 1291.1919 408.763814 1299.4169 426.404562"></polyline>
            <polyline id="Stroke-827" points="1319.3713 358.311642 1298.8363 358.677131 1291.1923 374.619429 1298.7153 391.421702"></polyline>
            <polyline id="Stroke-829" points="1291.1921 442.425384 1270.6571 442.972083 1263.0131 459.520458 1270.5621 476.531582"></polyline>
            <polyline id="Stroke-831" points="1291.5516 408.210461 1270.6576 408.210461 1263.0126 425.243084 1271.0866 442.842882"></polyline>
            <polyline id="Stroke-833" points="1263.0131 459.520868 1243.1221 459.336587 1235.1341 476.615941 1242.9731 493.601471"></polyline>
            <polyline id="Stroke-835" points="1263.0131 425.329901 1242.7781 425.677986 1235.1341 442.424975 1243.1221 459.336792"></polyline>
            <polyline id="Stroke-837" points="1235.1337 476.616351 1214.8987 476.4075 1207.2547 493.135037 1214.8317 509.844146"></polyline>
            <polyline id="Stroke-839" points="1235.5516 443.018972 1214.8986 443.018972 1207.2546 460.569628 1215.0906 476.900962"></polyline>
            <polyline id="Stroke-841" points="1207.2543 493.135344 1186.9663 492.701261 1179.0753 510.806806 1186.6813 526.34983"></polyline>
            <polyline id="Stroke-843" points="1207.2543 460.240789 1186.7193 460.808987 1179.0753 477.399338 1186.9663 492.701773"></polyline>
            <polyline id="Stroke-845" points="1207.5516 425.614716 1186.7196 425.614716 1179.0756 442.906356 1186.9106 460.545057"></polyline>
            <polyline id="Stroke-847" points="1179.5516 477.827482 1159.5136 477.827482 1151.1846 494.827345 1159.4796 511.744281"></polyline>
            <polyline id="Stroke-849" points="1179.0752 442.425384 1158.5402 442.972083 1150.8962 459.520458 1159.5132 477.205229"></polyline>
            <polyline id="Stroke-851" points="1151.5516 495.231738 1129.5356 495.231738 1122.3616 511.67364 1131.5556 529.263199"></polyline>
            <polyline id="Stroke-853" points="1291.1973 374.872201 1270.6723 374.942841 1262.7583 391.851587 1270.5373 408.56991"></polyline>
            <polyline id="Stroke-855" points="139.5516 768.580924 120.3126 768.580924 112.6686 784.144424 119.8196 801.647985"></polyline>
            <polyline id="Stroke-857" points="139.5516 734.796193 120.3126 734.796193 112.6686 750.355597 120.2156 768.902391"></polyline>
            <polyline id="Stroke-859" points="139.5516 699.987683 120.3126 699.987683 112.7436 716.426514 120.2156 734.149164"></polyline>
            <polyline id="Stroke-861" points="139.5516 665.179172 120.3126 665.179172 112.6686 681.177778 120.2156 698.530844"></polyline>
            <polyline id="Stroke-863" points="139.5516 631.394441 120.3126 631.394441 112.7436 648.694271 120.2156 664.833134"></polyline>
            <polyline id="Stroke-865" points="112.6686 783.581652 92.2766 783.595985 84.7896 799.52395 92.4286 816.963014"></polyline>
            <polyline id="Stroke-867" points="113.5516 750.152889 92.4336 750.152889 84.7896 768.028083 92.6806 784.455653"></polyline>
            <polyline id="Stroke-869" points="113.5516 716.368158 92.4336 716.368158 84.7896 732.69335 92.8796 749.816066"></polyline>
            <polyline id="Stroke-871" points="113.5516 682.583427 92.4336 682.583427 84.7896 698.904524 92.8376 716.772551"></polyline>
            <polyline id="Stroke-873" points="113.5516 649.822476 92.4336 649.822476 84.7896 665.627587 92.8376 681.824807"></polyline>
            <polyline id="Stroke-875" points="84.7892 732.295202 64.8852 732.0239 56.6102 749.390276 64.8852 766.413685"></polyline>
            <polyline id="Stroke-877" points="84.7892 698.104235 64.2542 698.277254 56.6102 715.199309 64.8852 732.023081"></polyline>
            <polyline id="Stroke-879" points="84.7892 665.066249 64.4042 664.841018 56.6102 680.895931 64.1682 698.10874"></polyline>
            <polyline id="Stroke-881" points="56.6101 715.199718 36.7321 714.828086 28.4311 732.294792 36.1801 749.007996"></polyline>
            <polyline id="Stroke-883" points="56.6101 681.008752 36.0751 680.983157 28.4311 698.103826 36.7321 714.828291"></polyline>
            <polyline id="Stroke-885" points="64.4043 665.627485 56.4603 649.822374 36.0753 649.822374 28.4313 665.627485 36.0753 681.544188"></polyline>
            <polyline id="Stroke-887" points="120.313 631.792282 112.819 616.037336 92.434 616.037336 84.789 632.41474 92.434 649.086993"></polyline>
            <polyline id="Stroke-889" points="84.7892 632.028161 64.2542 631.405703 56.4602 648.69939"></polyline>
            <polyline id="Stroke-891" points="64.2545 631.856882 56.4605 615.013658 36.0755 615.013658 28.4315 631.326564 36.0755 649.151593"></polyline>
            <polyline id="Stroke-893" points="57.5516 583.276794 36.3746 583.276794 28.7306 598.561825 36.0436 615.197222"></polyline>
            <polyline id="Stroke-895" points="476.8373 765.4844 485.5923 750.356007 477.6483 734.796603 457.2633 734.796603 449.6193 750.356007 456.6023 765.631824"></polyline>
            <polyline id="Stroke-897" points="477.6484 734.408693 485.5924 716.05437 477.6484 699.987171 457.2634 699.987171 449.6194 717.079173 457.2634 734.514142"></polyline>
            <polyline id="Stroke-899" points="449.6192 716.868786 429.3832 716.717267 421.0132 732.866368 428.7982 749.00728"></polyline>
            <polyline id="Stroke-901" points="450.5516 581.229235 429.0846 581.229235 421.4396 598.562849 429.4366 615.271958"></polyline>
            <polyline id="Stroke-903" points="421.0134 732.866061 400.9054 732.35929 393.2614 750.161796 400.9574 765.148907"></polyline>
            <polyline id="Stroke-905" points="420.5516 699.987683 400.9056 699.987683 392.8866 716.426514 401.0966 732.675945"></polyline>
            <polyline id="Stroke-907" points="421.5516 598.63349 401.9056 598.63349 393.2606 614.688404 400.6156 631.433345"></polyline>
            <polyline id="Stroke-909" points="392.5516 716.368158 372.7256 716.368158 365.0816 732.69335 372.5256 749.816066"></polyline>
            <polyline id="Stroke-911" points="392.5516 682.583427 372.7256 682.583427 365.0816 698.904524 372.5586 716.772551"></polyline>
            <polyline id="Stroke-913" points="393.5516 615.013965 372.7256 615.013965 365.8846 631.857189 372.4796 648.45573"></polyline>
            <polyline id="Stroke-915" points="365.0818 732.295202 344.8468 732.866471 337.2028 749.390276 343.5288 766.413685"></polyline>
            <polyline id="Stroke-917" points="365.0818 698.104235 344.8468 698.277254 337.2028 715.199309 344.8468 732.865652"></polyline>
            <polyline id="Stroke-919" points="365.5516 664.155392 344.8466 664.155392 337.2026 681.242276 345.2426 698.627079"></polyline>
            <polyline id="Stroke-921" points="365.8849 631.604009 344.8469 631.929571 337.7579 648.44928 344.9889 663.312514"></polyline>
            <polyline id="Stroke-923" points="401.9052 598.380616 393.1112 582.253014 372.7262 582.253014 365.0822 598.561825 372.8052 615.458286"></polyline>
            <polyline id="Stroke-925" points="337.5516 783.93762 316.9676 783.93762 309.3226 800.271002 316.5006 816.937112"></polyline>
            <polyline id="Stroke-927" points="337.2024 749.390685 316.9674 749.007791 309.6314 766.302502 316.9674 783.598237"></polyline>
            <polyline id="Stroke-929" points="337.2024 715.199718 316.9674 715.57135 308.9164 732.866061 316.9674 749.007996"></polyline>
            <polyline id="Stroke-931" points="337.2024 681.008752 316.9674 680.983157 309.3234 698.103826 316.9674 715.571555"></polyline>
            <polyline id="Stroke-933" points="338.5516 648.798696 316.9676 648.798696 309.3226 665.627587 317.1586 681.337487"></polyline>
            <polyline id="Stroke-935" points="310.5516 766.533365 288.8066 766.533365 281.1436 784.405487 289.1486 802.040093"></polyline>
            <polyline id="Stroke-937" points="308.9162 732.866061 288.9422 732.996081 281.1442 750.161796 288.7272 766.041643"></polyline>
            <polyline id="Stroke-939" points="309.323 698.104235 289.178 698.277254 281.144 715.28633 288.942 732.995672"></polyline>
            <polyline id="Stroke-941" points="281.1439 783.581652 260.6089 783.595985 252.9649 799.52395 260.7019 816.973251"></polyline>
            <polyline id="Stroke-943" points="281.1439 749.390685 260.6089 749.007791 252.9649 765.909371 260.6089 783.596189"></polyline>
            <polyline id="Stroke-945" points="281.1439 715.199718 260.6089 715.187433 252.9649 732.294792 260.6089 749.007996"></polyline>
            <polyline id="Stroke-947" points="420.5516 563.824979 400.6056 563.824979 393.3026 582.271442"></polyline>
            <polyline id="Stroke-949" points="393.266 647.821294 372.741 647.891935 364.76 663.688856 372.726 682.144533"></polyline>
            <polyline id="Stroke-951" points="786.5516 649.822476 765.3216 649.822476 757.6766 665.777059 764.9906 684.130358"></polyline>
            <polyline id="Stroke-953" points="757.5516 732.748634 737.1426 732.748634 729.4976 750.252196 736.6136 767.557144"></polyline>
            <polyline id="Stroke-955" points="757.3392 699.747094 736.7372 699.180944 729.4982 715.349497 737.1422 732.866368"></polyline>
            <polyline id="Stroke-957" points="729.4979 715.349088 709.2629 715.571248 701.6189 732.444162 709.7229 749.293528"></polyline>
            <polyline id="Stroke-959" points="729.3659 681.491157 709.2629 681.412326 701.6189 698.468496 709.2629 715.57176"></polyline>
            <polyline id="Stroke-961" points="765.3214 648.694271 757.5274 631.394441 737.1424 631.394441 729.4984 648.114812 737.2214 665.011272"></polyline>
            <polyline id="Stroke-963" points="701.6185 732.444571 681.5695 732.098534 674.1545 747.854504 681.1365 765.149215"></polyline>
            <polyline id="Stroke-965" points="701.6185 698.468598 681.0835 698.277151 673.4395 715.348678 681.5695 732.097715"></polyline>
            <polyline id="Stroke-967" points="702.5516 665.179172 681.0836 665.179172 673.4396 681.903638 681.7046 698.826716"></polyline>
            <polyline id="Stroke-969" points="674.5516 716.368158 652.9046 716.368158 645.2606 732.842822 653.1556 748.452391"></polyline>
            <polyline id="Stroke-971" points="674.5516 682.583427 652.9046 682.583427 645.2606 699.053995 653.6146 716.104023"></polyline>
            <polyline id="Stroke-973" points="646.5516 734.796193 624.7256 734.796193 616.7756 748.819928 624.9696 765.439968"></polyline>
            <polyline id="Stroke-975" points="646.5516 699.987683 624.7256 699.987683 617.0806 716.204353 625.5496 734.149164"></polyline>
            <polyline id="Stroke-977" points="646.5516 665.179172 624.7256 665.179172 617.0806 681.903638 625.5256 698.826716"></polyline>
            <polyline id="Stroke-979" points="616.5516 716.368158 596.8456 716.368158 589.2016 732.842822 596.4866 748.452391"></polyline>
            <polyline id="Stroke-981" points="616.5516 682.583427 596.8456 682.583427 589.2016 699.053995 596.7336 716.772551"></polyline>
            <polyline id="Stroke-983" points="589.2017 732.444571 569.2577 732.098534 561.3227 749.539645 568.7197 765.149215"></polyline>
            <polyline id="Stroke-985" points="589.2017 698.253605 568.9667 698.277151 561.3227 715.348678 569.2577 732.097715"></polyline>
            <polyline id="Stroke-987" points="589.5516 665.179172 568.9666 665.179172 561.3226 681.903638 568.8556 698.530844"></polyline>
            <polyline id="Stroke-989" points="561.3224 715.349088 540.7874 715.571248 533.1434 732.444162 541.1044 749.293528"></polyline>
            <polyline id="Stroke-991" points="533.1432 732.444571 512.9342 732.320694 504.9642 749.539645 512.6612 765.149215"></polyline>
            <polyline id="Stroke-993" points="534.5516 699.987683 512.6086 699.987683 504.9636 716.204353 513.4666 733.38133"></polyline>
            <path d="M504.9641,715.349088 L485.5921,715.199616" id="Stroke-995"></path>
            <polyline id="Stroke-997" points="757.798 664.948514 737.376 665.124605 729.565 681.354584 736.738 699.180637"></polyline>
            <polyline id="Stroke-999" points="1375.6545 777.125799 1383.5235 761.019697 1375.5795 745.0344 1355.1945 745.0344 1347.5505 761.019697 1355.2745 777.520978"></polyline>
            <polyline id="Stroke-1001" points="1375.5797 744.656625 1383.5237 727.74276 1375.5797 712.273449 1355.1947 712.273449 1347.5507 727.74276 1355.1947 744.759003"></polyline>
            <polyline id="Stroke-1003" points="1347.5504 727.086518 1327.0154 727.100851 1319.3714 743.028816 1327.4314 759.773757"></polyline>
            <polyline id="Stroke-1005" points="1320.5516 768.580924 1298.8366 768.580924 1291.1926 782.991648 1299.5806 800.49521"></polyline>
            <polyline id="Stroke-1007" points="1291.1921 782.428671 1270.6571 782.443004 1263.0131 799.523745 1270.7491 816.973047"></polyline>
            <polyline id="Stroke-1009" points="1235.1337 782.428671 1215.9727 782.443004 1207.2547 799.531935 1214.7347 816.963833"></polyline>
            <polyline id="Stroke-1011" points="1178.5516 783.93762 1157.9196 783.93762 1150.2746 799.864561 1158.7966 817.227865"></polyline>
            <polyline id="Stroke-1013" points="1157.9192 747.854606 1150.2752 764.926133 1157.9192 783.598851"></polyline>
            <polyline id="Stroke-1015" points="1150.2748 764.926542 1130.6448 764.803689 1122.7238 783.598237"></polyline>
            <polyline id="Stroke-1017" points="1130.0398 730.99019 1122.3958 748.04636 1130.6448 764.803586"></polyline>
            <polyline id="Stroke-1019" points="1123.5516 783.93762 1101.8606 783.93762 1094.2166 799.864561 1102.5506 817.227865"></polyline>
            <polyline id="Stroke-1021" points="1122.3954 748.046053 1101.8604 747.854606 1094.2164 764.926133 1101.8604 783.598851"></polyline>
            <path d="M1094.2163,731.311964 L1101.8603,747.854196" id="Stroke-1023"></path>
            <polyline id="Stroke-1025" points="1094.2163 764.926542 1074.1933 764.480174 1066.0373 782.021616 1074.1933 798.870983"></polyline>
            <polyline id="Stroke-1027" points="1073.675 729.74814 1066.037 747.831161 1074.193 764.480891"></polyline>
            <polyline id="Stroke-1029" points="1066.0371 782.022026 1045.4781 781.675988 1037.9831 800.141903 1046.5191 816.963628"></polyline>
            <polyline id="Stroke-1031" points="1066.0371 747.831059 1045.5021 747.854606 1037.8581 764.926133 1045.4781 781.675169"></polyline>
            <path d="M1037.858,730.042784 L1045.502,747.854504" id="Stroke-1033"></path>
            <polyline id="Stroke-1035" points="1017.623 730.560202 1009.979 747.831366 1018.475 764.481096"></polyline>
            <polyline id="Stroke-1037" points="1037.858 764.926542 1018.475 764.650122 1010.168 782.913328 989.744 782.913328 981.717 800.572505 990.274 817.048192"></polyline>
            <path d="M981.0993,764.926542 L989.7433,782.443414" id="Stroke-1039"></path>
            <polyline id="Stroke-1041" points="1009.9786 747.831059 989.7436 747.854606 981.0996 764.926133"></polyline>
            <path d="M982.0993,731.311964 L989.7433,747.854196" id="Stroke-1043"></path>
            <path d="M1150.3422,730.932449 L1157.9192,747.854504" id="Stroke-1045"></path>
            <polyline id="Stroke-1047" points="953.5516 783.93762 932.9046 783.93762 925.2606 799.864561 933.4066 817.217628"></polyline>
            <polyline id="Stroke-1049" points="953.5516 749.129109 932.9046 749.129109 925.2606 765.563845 933.0946 783.399112"></polyline>
            <polyline id="Stroke-1051" points="925.2604 764.926542 905.0254 765.148703 897.3814 782.021616 905.4854 798.870983"></polyline>
            <polyline id="Stroke-1053" points="905.0254 730.99019 897.3814 748.04636 905.0254 765.1486"></polyline>
            <polyline id="Stroke-1055" points="897.381 782.022026 877.332 781.675988 869.202 799.1171 877.085 816.963628"></polyline>
            <polyline id="Stroke-1057" points="897.381 748.046053 876.846 747.854606 869.202 764.926133 877.332 781.675169"></polyline>
            <path d="M869.2019,731.311964 L876.8459,747.854196" id="Stroke-1059"></path>
            <polyline id="Stroke-1061" points="848.6671 730.560202 841.0231 747.831366 848.6671 765.1486"></polyline>
            <polyline id="Stroke-1063" points="841.0228 782.022026 820.4638 781.675988 813.9688 799.1171 821.3038 816.963628"></polyline>
            <polyline id="Stroke-1065" points="841.5516 749.129109 820.4876 749.129109 812.8436 765.563845 820.9066 782.631277"></polyline>
            <path d="M812.8436,731.311964 L820.4636,748.150069" id="Stroke-1067"></path>
            <polyline id="Stroke-1069" points="813.5516 766.533365 792.6086 766.533365 784.9646 782.714203 792.9666 799.908584"></polyline>
            <polyline id="Stroke-1071" points="792.6086 730.560202 784.9646 747.831366 792.6086 765.1486"></polyline>
            <path d="M757.0849,799.117509 L765.0199,816.963014" id="Stroke-1073"></path>
            <polyline id="Stroke-1075" points="784.9643 782.022026 765.0203 781.675988 757.0853 799.1171"></polyline>
            <path d="M757.0849,764.926542 L765.0199,781.675579" id="Stroke-1077"></path>
            <polyline id="Stroke-1079" points="784.9643 747.831059 764.7293 747.854606 757.0853 764.926133"></polyline>
            <path d="M757.4099,732.866061 L765.0199,748.150069" id="Stroke-1081"></path>
            <path d="M925.3278,730.932449 L932.9048,748.75543" id="Stroke-1083"></path>
            <path d="M1151.1104,661.410434 L1158.9074,644.655255" id="Stroke-1085"></path>
            <path d="M1120.7068,643.913117 L1130.1278,661.382894" id="Stroke-1087"></path>
            <path d="M1066.1255,643.301511 L1074.0695,661.187967" id="Stroke-1089"></path>
            <path d="M1017.3015,662.407186 L1038.2465,661.998698" id="Stroke-1091"></path>
            <polyline id="Stroke-1093" points="1066.2753 680.324457 1074.0693 662.107321 1094.0043 662.107321 1101.9493 644.777802"></polyline>
            <polyline id="Stroke-1095" points="1045.8904 645.112782 1038.2464 661.997981 1045.8904 680.095335"></polyline>
            <polyline id="Stroke-1097" points="1122.2256 680.553989 1130.1276 662.107526 1151.5516 662.107526"></polyline>
            <path d="M1094.0048,661.382382 L1101.6488,680.095028" id="Stroke-1099"></path>
            <polyline id="Stroke-1101" points="1151.5516 696.916343 1129.8286 696.916343 1122.1836 713.939753 1130.0416 731.732021"></polyline>
            <polyline id="Stroke-1103" points="1122.184 713.97968 1101.729 713.781067 1094.216 731.312271"></polyline>
            <polyline id="Stroke-1105" points="1094.5516 696.916343 1073.7696 696.916343 1066.1256 713.939753 1073.7016 730.457415"></polyline>
            <polyline id="Stroke-1107" points="1129.8282 696.711997 1122.0342 680.536277 1101.6492 680.536277 1094.0052 696.78878 1101.7282 714.001589"></polyline>
            <polyline id="Stroke-1109" points="1066.1255 712.954979 1045.9695 712.756366 1037.8585 730.042886"></polyline>
            <polyline id="Stroke-1111" points="1073.7698 696.900782 1066.2748 680.535663 1045.8908 680.535663 1038.2458 696.78919 1045.9698 713.685651"></polyline>
            <polyline id="Stroke-1113" points="1038.2461 695.859496 1017.7111 695.971088 1010.3581 712.74879"></polyline>
            <polyline id="Stroke-1115" points="450.0332 816.933938 457.8802 800.583152 449.5212 783.937518 429.1372 783.937518 421.4922 799.714987 428.6852 817.018912"></polyline>
            <polyline id="Stroke-1117" points="449.6192 749.390685 428.7982 749.007791 421.4922 764.777071 429.1372 783.598237"></polyline>
            <polyline id="Stroke-1119" points="421.4924 764.777173 400.9574 765.148805 393.3134 781.872247 401.4354 798.796349"></polyline>
            <polyline id="Stroke-1121" points="393.3132 781.872656 372.7192 781.601355 365.1342 798.96773 372.6132 816.683215"></polyline>
            <polyline id="Stroke-1123" points="393.2609 749.390685 372.6929 749.21869 365.1339 764.777071 372.7199 781.600843"></polyline>
            <polyline id="Stroke-1125" points="728.5516 781.890061 709.0156 781.890061 701.3706 799.865585 709.1196 817.218651"></polyline>
            <polyline id="Stroke-1127" points="729.4979 749.540055 709.7229 749.293324 701.3709 764.92644 709.0159 782.443311"></polyline>
            <polyline id="Stroke-1129" points="701.3711 764.926542 681.1361 765.148703 673.4921 782.021616 681.5961 798.870983"></polyline>
            <polyline id="Stroke-1131" points="673.4917 782.022026 653.4427 781.675988 645.3127 799.1171 652.7977 816.963628"></polyline>
            <polyline id="Stroke-1133" points="674.5516 749.129109 652.9566 749.129109 645.3126 765.563845 653.6416 782.631277"></polyline>
            <polyline id="Stroke-1135" points="645.3126 764.926542 624.7776 765.148703 617.1336 782.021616 625.2896 798.870983"></polyline>
            <polyline id="Stroke-1137" points="617.1334 782.022026 596.5984 782.443823 588.9544 799.1171 596.9004 816.973866"></polyline>
            <polyline id="Stroke-1139" points="616.5516 749.129109 596.5986 749.129109 588.9546 765.563845 596.4866 783.399112"></polyline>
            <polyline id="Stroke-1141" points="588.9543 764.926542 568.7193 765.148703 561.0753 782.021616 568.5713 798.870983"></polyline>
            <polyline id="Stroke-1143" points="561.075 782.022026 541.131 781.675988 533.196 799.1171 540.829 816.973866"></polyline>
            <polyline id="Stroke-1145" points="561.3224 749.540055 541.1044 749.293324 533.1954 764.92644 541.1304 781.675476"></polyline>
            <polyline id="Stroke-1147" points="533.1956 764.926542 512.6606 765.148703 505.0166 782.021616 512.9776 798.870983"></polyline>
            <polyline id="Stroke-1149" points="505.0164 782.022026 484.4814 782.443823 476.8374 799.1171 484.5824 816.973866"></polyline>
            <path d="M476.8373,765.4844 L484.4813,782.443311" id="Stroke-1151"></path>
            <polyline id="Stroke-1153" points="476.8373 765.4844 456.6023 765.1486 449.5213 783.599158"></polyline>
            <polyline id="Stroke-1155" points="869.2019 764.926542 848.6669 765.148703 841.0229 782.021616 849.1789 798.870983 841.8519 816.963218"></polyline>
            <path d="M905.485,798.870573 L897.381,816.963833" id="Stroke-1157"></path>
            <path d="M849.179,798.870573 L869.202,799.117304" id="Stroke-1159"></path>
            <polyline id="Stroke-1161" points="645.3126 799.117509 625.2896 798.870778 617.5646 816.973251"></polyline>
            <polyline id="Stroke-1163" points="701.3711 799.117509 681.5431 798.870778 673.2301 816.963014"></polyline>
            <polyline id="Stroke-1165" points="588.9543 799.117509 568.5713 798.870778 561.0753 816.963014"></polyline>
            <polyline id="Stroke-1167" points="533.1956 799.117509 512.9776 798.870778 505.2636 816.973251"></polyline>
            <polyline id="Stroke-1169" points="421.4924 798.96814 401.4354 798.796145 392.8864 816.973354"></polyline>
            <path d="M476.8373,799.117509 L457.4653,799.545449" id="Stroke-1171"></path>
            <polyline id="Stroke-1173" points="1263.5516 767.557144 1242.7776 767.557144 1235.1336 783.056146 1243.1216 799.963868 1234.6316 817.195104"></polyline>
            <polyline id="Stroke-1175" points="175.156 768.607952 167.872 783.596087 174.819 799.592645"></polyline>
            <polyline id="Stroke-1177" points="167.5516 784.9614 146.9766 784.9614 139.3326 801.35928 148.3656 817.292363"></polyline>
            <path d="M139.7454,767.454971 L146.9764,783.596906" id="Stroke-1179"></path>
            <path d="M119.9161,800.803367 L112.7441,816.972944" id="Stroke-1181"></path>
            <path d="M119.9161,800.803367 L139.3321,800.677442" id="Stroke-1183"></path>
            <polyline id="Stroke-1185" points="56.5516 783.93762 36.1796 783.93762 28.5356 799.954654 36.2526 817.224794"></polyline>
            <polyline id="Stroke-1187" points="56.6101 749.390685 36.1801 749.007791 28.5361 766.088532 36.1801 782.443414"></polyline>
            <path d="M8.534,799.356255 L0.552,816.963218" id="Stroke-1189"></path>
            <path d="M8.534,799.356255 L28.536,799.207807" id="Stroke-1191"></path>
            <polyline id="Stroke-1193" points="756.5516 599.65727 737.1426 599.65727 729.4976 615.885202 736.7126 632.671094"></polyline>
            <polyline id="Stroke-1195" points="729.4979 615.0413 709.2629 615.263461 701.6189 632.136374 709.7229 648.985741"></polyline>
            <polyline id="Stroke-1197" points="729.3659 581.183369 709.2629 581.104538 701.6189 598.160708 709.2629 615.263972"></polyline>
            <polyline id="Stroke-1199" points="701.6185 632.136784 681.5695 631.790746 673.4395 649.231858 681.5695 666.180531"></polyline>
            <polyline id="Stroke-1201" points="701.6185 598.160811 681.0835 597.969364 673.4395 615.040891 681.5695 631.789927"></polyline>
            <polyline id="Stroke-1203" points="702.5516 564.848759 681.0836 564.848759 673.4396 581.584486 680.9756 598.20555"></polyline>
            <polyline id="Stroke-1205" points="673.4394 615.0413 653.4164 614.594932 645.2604 632.136374 653.4164 648.985741"></polyline>
            <polyline id="Stroke-1207" points="673.4394 581.426824 652.6494 581.251758 645.2604 597.94551 653.4164 614.59524"></polyline>
            <polyline id="Stroke-1209" points="646.5516 632.418221 624.7256 632.418221 617.0806 649.162138 625.5256 666.074979"></polyline>
            <polyline id="Stroke-1211" points="645.2603 597.945817 624.7253 597.969364 617.0813 615.040891 624.7013 631.789927"></polyline>
            <polyline id="Stroke-1213" points="646.5516 564.848759 624.7256 564.848759 617.0806 581.584486 625.5496 598.20555"></polyline>
            <polyline id="Stroke-1215" points="616.5516 616.037745 596.8456 616.037745 589.2016 632.52367 596.5856 649.565507"></polyline>
            <polyline id="Stroke-1217" points="617.0811 581.426824 596.5911 581.251758 589.2021 597.94551 596.8461 615.263768"></polyline>
            <polyline id="Stroke-1219" points="589.2017 632.136784 569.2577 631.790746 561.3227 649.231858 568.9667 664.841427"></polyline>
            <polyline id="Stroke-1221" points="589.2017 597.945817 568.9667 597.969364 561.3227 615.040891 569.2577 631.789927"></polyline>
            <polyline id="Stroke-1223" points="589.5516 564.848759 568.9666 564.848759 561.3226 581.584486 568.8556 598.20555"></polyline>
            <polyline id="Stroke-1225" points="561.3224 615.0413 540.7874 615.263461 533.1434 632.136374 541.1044 648.985741"></polyline>
            <polyline id="Stroke-1227" points="533.1432 632.136784 512.6082 632.558581 504.9642 649.231858 512.9512 666.180531"></polyline>
            <polyline id="Stroke-1229" points="534.5516 599.65727 512.6086 599.65727 504.9636 615.885202 513.1236 633.82387"></polyline>
            <polyline id="Stroke-1231" points="757.677 564.907831 737.376 564.816715 729.565 581.047718 737.072 598.202171"></polyline>
            <path d="M785.3712,717.478038 L793.1682,700.722859" id="Stroke-1233"></path>
            <path d="M793.1685,700.723371 L814.1025,700.523734" id="Stroke-1235"></path>
            <polyline id="Stroke-1237" points="814.5516 666.202952 793.1626 666.202952 785.5186 683.332834 793.6126 700.879395"></polyline>
            <polyline id="Stroke-1239" points="821.7468 649.59489 813.5478 633.441693 793.1628 633.441693 785.5368 648.564967 793.2418 665.938509"></polyline>
            <polyline id="Stroke-1241" points="813.5475 633.711255 821.4915 617.289828 813.5475 601.704829 793.1625 601.704829 785.5185 617.289828 793.2415 633.591472"></polyline>
            <polyline id="Stroke-1243" points="813.5475 601.185977 821.4915 583.50223 813.5475 565.872743 793.1625 565.872743 785.5185 583.50223 793.1625 601.324188"></polyline>
            <polyline id="Stroke-1245" points="785.5183 683.228101 764.4833 683.288504 757.3393 699.746787 765.1473 716.226569"></polyline>
            <polyline id="Stroke-1247" points="900.5516 648.798696 878.9306 648.798696 871.2856 665.456616 879.6276 682.412456"></polyline>
            <polyline id="Stroke-1249" points="900.2941 614.367244 878.3741 614.390791 871.2861 632.368363 878.9301 647.546921"></polyline>
            <polyline id="Stroke-1251" points="899.5516 583.276794 877.8056 583.276794 870.1606 598.966218 878.5656 615.381502"></polyline>
            <polyline id="Stroke-1253" points="872.5516 665.179172 849.6266 665.179172 841.7906 683.457735 850.3806 701.989172"></polyline>
            <polyline id="Stroke-1255" points="872.5516 632.418221 849.6266 632.418221 841.9816 649.394536 850.3806 664.735875"></polyline>
            <polyline id="Stroke-1257" points="870.161 598.697783 849.626 599.135961 841.982 617.394049 849.626 631.929673"></polyline>
            <polyline id="Stroke-1259" points="842.5516 684.630987 821.7466 684.630987 814.1026 701.463973 821.8266 718.415718 841.9816 718.415718 850.1896 702.035242 872.5516 702.035242"></polyline>
            <polyline id="Stroke-1261" points="842.5516 649.822476 821.7466 649.822476 814.1026 666.544894 822.1276 684.130358"></polyline>
            <path d="M841.9819,616.87448 L821.4919,616.575537" id="Stroke-1263"></path>
            <path d="M841.7903,582.980922 L821.4913,583.409885" id="Stroke-1265"></path>
            <polyline id="Stroke-1267" points="1039.7618 624.128779 1047.6308 608.249955 1039.6868 592.490914 1019.3018 592.490914 1011.6578 608.249955 1019.3818 624.637597"></polyline>
            <path d="M1011.6578,574.274392 L1019.3018,592.563193" id="Stroke-1269"></path>
            <polyline id="Stroke-1271" points="1124.5516 575.086556 1103.9446 575.086556 1096.3006 591.462937 1104.1346 609.071948"></polyline>
            <polyline id="Stroke-1273" points="1096.3004 590.86208 1076.3604 591.264426 1068.1214 606.804378 1076.3604 623.636341"></polyline>
            <path d="M1067.9298,574.910159 L1076.3608,591.264016" id="Stroke-1275"></path>
            <polyline id="Stroke-1277" points="1067.5516 576.110336 1047.8866 576.110336 1039.4976 592.507192"></polyline>
        </g>
    </g>
</svg>