<?xml version="1.0" encoding="UTF-8"?>
<svg width="1440px" height="800px" viewBox="0 0 1440 800" version="1.1" xmlns="http://www.w3.org/2000/svg" xmlns:xlink="http://www.w3.org/1999/xlink">
    <!-- Generator: Sketch 48.2 (47327) - http://www.bohemiancoding.com/sketch -->
    <title>Page 1</title>
    <desc>Created with Sketch.</desc>
    <defs></defs>
    <g id="bee-v3/02-about" stroke="none" stroke-width="1" fill="none" fill-rule="evenodd" opacity="0.07">
        <g id="Page-1" stroke="#36464F">
            <polyline id="Stroke-1" points="477.7232 50.5976362 485.5922 33.6252582 477.6482 16.7701731 457.2632 16.7701731 449.6192 33.6252582 457.3432 50.384103"></polyline>
            <polyline id="Stroke-3" points="449.6192 33.8224506 429.4122 33.4154343 421.4402 51.1276596 429.2942 67.0233492"></polyline>
            <polyline id="Stroke-5" points="401.331 51.8583841 393.111 34.8158309 372.726 34.8158309 365.082 50.9210437 373.319 67.3019448"></polyline>
            <polyline id="Stroke-7" points="345.2964 50.9208432 337.3524 34.8156304 316.9674 34.8156304 309.3234 50.9208432 317.0464 67.4661548"></polyline>
            <polyline id="Stroke-9" points="196.5516 283.436507 175.2466 283.436507 167.8726 299.893598 176.2196 316.100064"></polyline>
            <polyline id="Stroke-11" points="196.5516 252.35891 175.2466 252.35891 167.6016 268.931289 175.5226 285.009434"></polyline>
            <polyline id="Stroke-13" points="196.5516 219.276306 175.2466 219.276306 167.6016 235.280266 175.5226 252.012044"></polyline>
            <polyline id="Stroke-15" points="197.5516 151.106094 176.3716 151.106094 167.6016 168.103534 175.7236 184.929547"></polyline>
            <polyline id="Stroke-17" points="167.5516 199.226244 148.1926 199.226244 140.5476 215.852758 147.7586 232.298822"></polyline>
            <polyline id="Stroke-19" points="167.602 167.744137 147.958 167.814312 140.548 183.355116 148.192 198.934014"></polyline>
            <polyline id="Stroke-21" points="139.5516 281.4315 120.3126 281.4315 112.6686 298.415908 120.3926 315.516607 140.5476 315.516607 148.1926 300.47906 167.5516 300.47906"></polyline>
            <polyline id="Stroke-23" points="140.548 183.355316 119.916 183.260078 112.669 198.966295 119.916 215.806342"></polyline>
            <polyline id="Stroke-25" points="139.5516 152.108597 120.3126 152.108597 112.6686 167.978221 119.8196 183.799726"></polyline>
            <polyline id="Stroke-27" points="113.5516 232.308847 92.4336 232.308847 84.7896 248.939371 92.8796 265.38343"></polyline>
            <polyline id="Stroke-29" points="113.5516 168.148647 92.4336 168.148647 85.7416 184.669898 93.9636 200.715963"></polyline>
            <polyline id="Stroke-31" points="86.5516 281.4315 64.2546 281.4315 56.6106 298.415908 64.3336 315.516607 84.7896 315.516607 92.4336 298.474054 113.5516 298.474054"></polyline>
            <polyline id="Stroke-33" points="84.7892 248.622681 64.2542 248.609648 56.6102 265.362478 64.2542 281.641124"></polyline>
            <polyline id="Stroke-35" points="86.5516 184.188697 64.2546 184.188697 56.6106 200.061329 65.2896 216.884334"></polyline>
            <polyline id="Stroke-37" points="56.6101 265.362879 36.7321 264.908745 28.3631 282.479617 37.1041 299.414903"></polyline>
            <polyline id="Stroke-39" points="57.5516 232.308847 36.0756 232.308847 28.4306 248.939371 36.7006 265.38343"></polyline>
            <polyline id="Stroke-41" points="56.6101 200.095514 35.5451 200.098522 28.4311 215.706493 36.0751 232.47035"></polyline>
            <polyline id="Stroke-43" points="28.5516 282.434004 8.1956 282.434004 0.5516 298.414906 8.2756 315.516607 28.4306 315.516607 37.1036 298.998363 56.7046 298.623427"></polyline>
            <polyline id="Stroke-45" points="167.5516 0.73062428 148.4916 0.73062428 140.8476 17.3330786 147.9086 33.7911725"></polyline>
            <path d="M167.8722,0.229372716 L176.6342,17.4523765" id="Stroke-47"></path>
            <path d="M112.7437,0.229372716 L120.6287,17.4523765" id="Stroke-49"></path>
            <polyline id="Stroke-51" points="113.5516 0.73062428 92.4336 0.73062428 85.1556 17.1586431"></polyline>
            <polyline id="Stroke-53" points="36.3751 0.229372716 28.7311 17.0824528 36.8821 33.4152338"></polyline>
            <polyline id="Stroke-55" points="450.5516 0.73062428 428.7846 0.73062428 421.1406 17.3330786 429.5546 33.7911725"></polyline>
            <polyline id="Stroke-57" points="421.1403 17.2993945 400.6053 17.1640566 393.1113 34.7820466"></polyline>
            <polyline id="Stroke-59" points="393.111 0.721702003 372.726 0.663556821 365.082 17.2990937 372.726 34.7827483"></polyline>
            <path d="M392.8866,0.229372716 L400.6056,17.1646581" id="Stroke-61"></path>
            <polyline id="Stroke-63" points="365.0818 17.0822523 344.8468 17.1644576 337.3528 35.2285615"></polyline>
            <polyline id="Stroke-65" points="316.9674 35.0314693 308.8734 16.7708748 288.4884 16.7708748 280.8444 33.4124268"></polyline>
            <path d="M316.6676,0.229372716 L308.8736,16.7195467" id="Stroke-67"></path>
            <path d="M281.5045,0.229372716 L288.4885,17.1646581" id="Stroke-69"></path>
            <polyline id="Stroke-71" points="282.5516 0.73062428 260.6086 0.73062428 252.9646 17.3330786 261.4676 33.7911725"></polyline>
            <path d="M450.2653,0.229372716 L457.2633,17.1646581" id="Stroke-73"></path>
            <polyline id="Stroke-75" points="28.5516 16.7706743 8.1956 16.7706743 0.5516 33.6257594 8.2606 49.9575379"></polyline>
            <path d="M0.5516,0.906563579 L8.1666,17.4518752" id="Stroke-77"></path>
            <polyline id="Stroke-79" points="450.5516 499.977182 429.0846 499.977182 420.1686 517.751563 428.0696 532.948508"></polyline>
            <polyline id="Stroke-81" points="450.5516 434.814479 429.0846 434.814479 421.4396 450.145759 429.7046 467.23944"></polyline>
            <polyline id="Stroke-83" points="450.5516 398.724366 429.0846 398.724366 421.4396 415.555391 429.2756 433.928266"></polyline>
            <polyline id="Stroke-85" points="450.5516 368.649273 429.0846 368.649273 421.4396 383.972533 429.2276 399.041157"></polyline>
            <polyline id="Stroke-87" points="420.5516 518.022239 400.9056 518.022239 393.2606 533.112918 399.2316 547.029667"></polyline>
            <polyline id="Stroke-89" points="421.0442 483.294728 400.9052 483.343851 393.2612 499.227511 400.9052 517.46204"></polyline>
            <polyline id="Stroke-91" points="421.44 449.05674 400.846 448.769022 393.261 465.232128 400.905 483.34335"></polyline>
            <polyline id="Stroke-93" points="421.44 415.576244 400.905 415.701556 393.261 432.316041 400.846 448.769122"></polyline>
            <polyline id="Stroke-95" points="421.44 383.789376 401.055 384.090127 393.261 398.986321 400.905 415.702058"></polyline>
            <polyline id="Stroke-97" points="393.2609 532.832819 372.7259 532.515026 365.0819 548.631266 372.3339 564.329462"></polyline>
            <polyline id="Stroke-99" points="393.2609 499.228012 372.7259 499.39944 365.0819 515.528713 372.3339 532.223397"></polyline>
            <polyline id="Stroke-101" points="393.2609 465.232429 372.7259 465.377792 365.0819 481.972226 372.7259 499.248363"></polyline>
            <polyline id="Stroke-103" points="365.5516 516.017233 345.2526 516.017233 337.2026 533.113921 345.1146 549.345449"></polyline>
            <polyline id="Stroke-105" points="365.0818 481.972627 344.8468 482.313478 337.2028 498.712425 345.2528 515.272774"></polyline>
            <polyline id="Stroke-107" points="365.0818 383.575441 345.2968 383.788975 337.2028 398.98592 345.0918 415.318701"></polyline>
            <polyline id="Stroke-109" points="401.0551 383.972032 393.1111 368.648771 372.7261 368.648771 365.0821 383.972032 372.8051 400.517343"></polyline>
            <polyline id="Stroke-111" points="337.2024 498.712826 317.6394 499.248162 309.3234 515.528813 317.9544 532.223498"></polyline>
            <polyline id="Stroke-113" points="336.5516 467.897082 316.9676 467.897082 309.3226 483.232373 317.8306 499.705504"></polyline>
            <polyline id="Stroke-115" points="309.5516 483.937132 288.7886 483.937132 281.1436 499.525054 289.0566 516.490414"></polyline>
            <polyline id="Stroke-117" points="309.5516 450.854529 288.7886 450.854529 281.1436 466.43844 289.0566 483.405806"></polyline>
            <polyline id="Stroke-119" points="309.5516 415.76692 288.7886 415.76692 281.1436 432.850575 289.0566 449.570323"></polyline>
            <polyline id="Stroke-121" points="281.1439 466.125058 260.6089 466.284456 252.9649 482.92701 261.2759 499.867308"></polyline>
            <polyline id="Stroke-123" points="252.9648 415.576244 232.7298 415.701556 225.0858 432.316041 233.5028 448.769122"></polyline>
            <polyline id="Stroke-125" points="288.9381 415.55499 280.9941 398.723965 260.6091 398.723965 252.9651 415.55499 260.8431 432.647669"></polyline>
            <polyline id="Stroke-127" points="345.2964 383.972032 337.3524 368.648771 316.9674 368.648771 309.3234 383.972032 317.0464 400.517343"></polyline>
            <polyline id="Stroke-129" points="309.5516 383.68682 288.9386 383.68682 281.3476 399.039152"></polyline>
            <polyline id="Stroke-131" points="288.9381 383.972032 280.9941 368.648771 260.6091 368.648771 252.9651 383.972032 260.6091 398.949428"></polyline>
            <polyline id="Stroke-133" points="252.9648 383.789376 231.9688 383.525717 225.0858 399.895591 232.7298 415.702058"></polyline>
            <polyline id="Stroke-135" points="225.5516 399.72687 204.1286 399.72687 196.9066 415.306771 205.7006 431.527271"></polyline>
            <polyline id="Stroke-137" points="197.5516 415.76692 176.3716 415.76692 168.7276 432.850575 176.8486 449.570323"></polyline>
            <polyline id="Stroke-139" points="140.548 415.576244 120.313 415.701556 112.669 432.316041 119.916 448.769122"></polyline>
            <polyline id="Stroke-141" points="168.7271 398.836045 148.1921 398.766873 140.5481 415.575843 148.4821 432.121154"></polyline>
            <polyline id="Stroke-143" points="113.5516 533.059786 92.4336 533.059786 84.7896 548.904348 92.6256 565.035626"></polyline>
            <polyline id="Stroke-145" points="113.5516 499.977182 92.4336 499.977182 84.7896 515.817734 92.8796 532.656779"></polyline>
            <polyline id="Stroke-147" points="84.7892 515.453024 64.8852 515.272573 56.6102 532.192821 63.7712 548.924598"></polyline>
            <polyline id="Stroke-149" points="86.5516 483.937132 64.2546 483.937132 56.6106 499.525054 65.2896 516.490414"></polyline>
            <polyline id="Stroke-151" points="56.6101 532.193222 36.0751 531.988711 28.4311 548.36861 35.6501 565.650761"></polyline>
            <polyline id="Stroke-153" points="56.6101 498.712826 36.7321 498.435132 28.4311 515.452623 36.0751 531.988912"></polyline>
            <polyline id="Stroke-155" points="57.5516 467.897082 36.0756 467.897082 28.4306 483.232373 36.9236 498.891472"></polyline>
            <polyline id="Stroke-157" points="64.4043 450.145358 56.4603 434.814078 36.0753 434.814078 28.4313 450.145358 36.0753 467.608963"></polyline>
            <polyline id="Stroke-159" points="86.5516 416.769423 64.9146 416.769423 56.8646 433.704708"></polyline>
            <polyline id="Stroke-161" points="56.5516 398.724366 36.0756 398.724366 28.4306 415.555391 36.2666 433.928266"></polyline>
            <polyline id="Stroke-163" points="226.5516 368.649273 204.5506 368.649273 196.9066 383.972533 204.2166 400.169976"></polyline>
            <polyline id="Stroke-165" points="196.9062 383.789376 175.6102 383.525717 168.7272 398.835945 176.3712 415.702058"></polyline>
            <polyline id="Stroke-167" points="167.5516 368.649273 148.4916 368.649273 140.8476 383.972533 148.0316 399.041157"></polyline>
            <polyline id="Stroke-169" points="167.5516 334.564166 148.4916 334.564166 140.8476 350.383666 148.3316 369.243757"></polyline>
            <polyline id="Stroke-171" points="140.8477 383.789376 120.6287 383.111683 112.9687 398.835945 120.3127 415.702058"></polyline>
            <polyline id="Stroke-173" points="140.8477 349.74447 120.6917 349.549984 112.9687 366.484267 120.6287 383.111784"></polyline>
            <polyline id="Stroke-175" points="113.5516 366.644266 92.5836 366.644266 84.7896 383.005117 92.7676 399.055192"></polyline>
            <polyline id="Stroke-177" points="84.7892 382.695945 64.3342 383.029779 56.6102 398.836246 64.9152 417.11288"></polyline>
            <polyline id="Stroke-179" points="56.6101 366.484668 37.1701 366.625018 28.7311 383.789877 36.0751 398.767274"></polyline>
            <polyline id="Stroke-181" points="92.5835 366.218102 84.6395 350.604116 64.2545 350.604116 56.6105 366.677249 64.3335 383.22256"></polyline>
            <polyline id="Stroke-183" points="120.6127 316.349887 112.9687 333.004472 120.6917 349.549783"></polyline>
            <path d="M148.4921,333.284872 L140.5481,316.349587" id="Stroke-185"></path>
            <polyline id="Stroke-187" points="113.5516 332.55916 92.4336 332.55916 84.8306 350.622261"></polyline>
            <polyline id="Stroke-189" points="64.2545 316.349887 56.6105 333.004472 64.2545 350.219456"></polyline>
            <path d="M92.4336,332.819711 L84.6396,316.349587" id="Stroke-191"></path>
            <polyline id="Stroke-193" points="56.6101 333.004271 36.3751 333.284972 28.7311 349.744069 37.1701 366.625219"></polyline>
            <polyline id="Stroke-195" points="420.5516 350.604216 400.6056 350.604216 392.8806 368.66832"></polyline>
            <polyline id="Stroke-197" points="392.5516 334.564166 372.7256 334.564166 365.0816 350.383666 372.5586 369.243757"></polyline>
            <polyline id="Stroke-199" points="365.0818 349.74447 345.2968 349.713392 337.3528 368.28376"></polyline>
            <polyline id="Stroke-201" points="316.9674 368.47604 308.8734 350.604417 288.4884 350.604417 280.9944 368.57228"></polyline>
            <polyline id="Stroke-203" points="339.5516 334.564166 316.6676 334.564166 309.7706 351.499452"></polyline>
            <polyline id="Stroke-205" points="281.2649 432.496892 260.8429 432.669323 253.0319 448.562005 260.5389 466.364456"></polyline>
            <polyline id="Stroke-207" points="450.5516 467.897082 429.5206 467.897082 421.0446 483.599289 429.2756 499.856882"></polyline>
            <polyline id="Stroke-209" points="954.5516 168.148647 933.7966 168.148647 926.1526 183.915014 934.0606 200.543533"></polyline>
            <polyline id="Stroke-211" points="962.6171 150.243139 954.1811 134.063741 933.7971 134.063741 926.1681 151.155417 933.7971 168.215013"></polyline>
            <polyline id="Stroke-213" points="897.5516 167.146144 877.4386 167.146144 869.7936 183.916016 877.3816 200.792154"></polyline>
            <polyline id="Stroke-215" points="821.6738 69.9122625 813.8858 52.8606867 793.5008 52.8606867 785.8558 68.3623926 793.0578 85.9683526"></polyline>
            <polyline id="Stroke-217" points="702.5516 317.521613 681.0836 317.521613 674.2896 333.32808"></polyline>
            <path d="M674.0981,333.573292 L652.9041,333.284571" id="Stroke-219"></path>
            <polyline id="Stroke-221" points="674.5516 234.313853 652.9046 234.313853 645.2606 248.959422 653.6146 265.831549"></polyline>
            <polyline id="Stroke-223" points="646.5516 280.428997 624.7006 280.428997 616.7756 298.954253 625.0416 316.60733"></polyline>
            <polyline id="Stroke-225" points="645.2603 248.768946 624.7253 248.609548 617.0813 265.508743 624.7013 281.350298"></polyline>
            <polyline id="Stroke-227" points="616.5516 298.474054 596.8456 298.474054 589.2016 316.962216 596.9256 334.564166 617.0806 334.564166 624.8506 316.51911 646.5516 316.51911"></polyline>
            <polyline id="Stroke-229" points="617.5516 265.39145 597.8456 265.39145 589.2016 282.17235 596.7336 298.296611"></polyline>
            <polyline id="Stroke-231" points="616.5516 234.313853 596.8456 234.313853 589.2016 250.08824 597.7336 265.830547"></polyline>
            <polyline id="Stroke-233" points="589.2017 282.249342 568.9667 282.479918 561.3227 298.42473 569.2577 314.647236"></polyline>
            <polyline id="Stroke-235" points="589.2017 249.897965 568.8477 249.618267 561.3227 265.508944 568.9667 282.479317"></polyline>
            <path d="M540.5982,233.52358 L560.9782,233.685986" id="Stroke-237"></path>
            <polyline id="Stroke-239" points="560.9786 233.685986 568.8476 216.899071 560.9036 200.228446 540.5186 200.228446 532.8746 216.899071 540.5986 233.564683"></polyline>
            <polyline id="Stroke-241" points="560.9037 200.062632 568.8477 184.81456 560.9037 169.151451 540.5187 169.151451 532.8747 184.81456 540.5187 200.23807"></polyline>
            <polyline id="Stroke-243" points="673.5516 136.068547 652.2216 136.068547 644.5776 151.874011 652.7736 168.731101"></polyline>
            <polyline id="Stroke-245" points="674.5516 99.978434 653.3466 99.978434 644.5776 118.412462 652.4206 136.007394"></polyline>
            <polyline id="Stroke-247" points="646.5516 184.188697 624.3986 184.188697 616.7756 199.835766 625.5026 216.326942"></polyline>
            <polyline id="Stroke-249" points="644.5777 151.694763 623.5597 151.515315 616.3987 167.906242 624.6017 184.505688"></polyline>
            <polyline id="Stroke-251" points="644.5777 118.214367 624.2237 118.019881 616.3987 135.95767 623.5597 151.515516"></polyline>
            <polyline id="Stroke-253" points="616.7759 199.893109 595.8639 200.062532 588.2199 217.110098 596.5429 234.154656"></polyline>
            <polyline id="Stroke-255" points="616.3986 167.870452 595.8636 167.322083 588.2196 184.04584 595.8636 200.062833"></polyline>
            <polyline id="Stroke-257" points="616.3986 135.958071 595.8636 135.70945 588.2196 151.694362 595.8636 167.321381"></polyline>
            <path d="M588.2194,184.046141 L568.8474,184.464185" id="Stroke-259"></path>
            <polyline id="Stroke-261" points="588.2194 151.694763 567.9844 151.515315 560.9034 169.250598"></polyline>
            <polyline id="Stroke-263" points="701.6185 17.2285175 680.7565 17.1643573 673.4395 33.9362347 681.8375 50.2780382"></polyline>
            <polyline id="Stroke-265" points="674.1685 67.1537748 652.9045 66.8399914 645.2605 83.6519688 653.3475 100.00881"></polyline>
            <polyline id="Stroke-267" points="673.4394 33.9366357 652.9844 33.7742302 645.2604 50.708513 652.9044 66.8407934"></polyline>
            <polyline id="Stroke-269" points="645.2603 17.2285175 625.0253 17.1643573 617.3813 33.9683148 624.8513 50.3261583"></polyline>
            <polyline id="Stroke-271" points="680.7563 17.4149831 673.2893 0.730323529 652.9043 0.730323529 645.2603 17.4791433 652.9843 34.0244549"></polyline>
            <polyline id="Stroke-273" points="569.1166 50.5658568 561.1726 33.813027 540.7876 33.813027 533.1436 50.5658568 540.8666 67.1111685"></polyline>
            <polyline id="Stroke-275" points="625.0252 17.4149831 617.5312 0.730323529 597.1462 0.730323529 589.5012 17.4791433 597.2252 34.0244549"></polyline>
            <polyline id="Stroke-277" points="589.5516 16.7706743 568.9666 16.7706743 561.0616 33.7059597"></polyline>
            <polyline id="Stroke-279" points="568.9667 17.4149831 561.1727 0.730323529 540.7877 0.730323529 533.1437 17.4791433 540.8667 34.0244549"></polyline>
            <polyline id="Stroke-281" points="533.1432 17.2285175 512.9082 17.1643573 505.2642 33.9683148 513.1012 50.3261583"></polyline>
            <polyline id="Stroke-283" points="925.8525 17.2285175 905.3175 17.1643573 897.6735 33.9683148 905.6315 50.3261583"></polyline>
            <polyline id="Stroke-285" points="897.6734 33.968816 877.1384 34.0991414 869.1914 50.5281627"></polyline>
            <polyline id="Stroke-287" points="869.4943 17.2285175 849.2593 17.1643573 841.6153 33.9683148 849.4753 50.3261583"></polyline>
            <polyline id="Stroke-289" points="905.4676 17.4791433 897.5236 0.730323529 877.1386 0.730323529 869.4946 17.4791433 877.2176 34.0244549"></polyline>
            <polyline id="Stroke-291" points="841.6149 33.968816 821.3799 34.0991414 813.8859 52.8449474"></polyline>
            <polyline id="Stroke-293" points="793.5005 52.8622907 785.4065 33.8127263 765.0215 33.8127263 757.3775 50.4041531"></polyline>
            <polyline id="Stroke-295" points="849.7089 17.4791433 841.7649 0.730323529 821.3799 0.730323529 813.7359 17.4791433 821.3799 34.3502685"></polyline>
            <polyline id="Stroke-297" points="813.7355 17.2285175 793.2005 17.1643573 785.4065 34.0996427"></polyline>
            <polyline id="Stroke-299" points="793.3506 17.4791433 785.4066 0.730323529 765.0216 0.730323529 757.3776 17.4791433 765.0216 34.3502685"></polyline>
            <polyline id="Stroke-301" points="709.2629 0.229372716 701.6189 17.2288183 709.1599 33.7741299"></polyline>
            <polyline id="Stroke-303" points="933.4969 0.229372716 925.8529 17.2288183 934.0589 34.0989409"></polyline>
            <polyline id="Stroke-305" points="512.9082 17.4149831 505.1142 0.730323529 484.7292 0.730323529 477.6482 17.540296"></polyline>
            <polyline id="Stroke-307" points="926.5516 151.106094 906.0546 151.106094 897.5776 167.489 905.7036 184.628796"></polyline>
            <polyline id="Stroke-309" points="962.3809 550.525295 954.1819 534.062189 933.7969 534.062189 926.1519 549.551864 933.7969 567.46058"></polyline>
            <polyline id="Stroke-311" points="962.3809 517.751162 954.1819 499.976781 933.7969 499.976781 926.1519 515.963699 933.7969 533.482441"></polyline>
            <polyline id="Stroke-313" points="962.3809 416.949172 954.1819 400.729673 933.7969 400.729673 926.1519 415.700053 933.8759 432.509023"></polyline>
            <polyline id="Stroke-315" points="926.5516 416.769423 905.6176 416.769423 897.9736 432.996941 905.7036 450.385358"></polyline>
            <polyline id="Stroke-317" points="926.5516 383.68682 905.6176 383.68682 896.9186 400.070728 905.7036 416.396492"></polyline>
            <polyline id="Stroke-319" points="897.5516 399.72687 877.4386 399.72687 869.7936 415.700754 877.3816 431.97138"></polyline>
            <polyline id="Stroke-321" points="870.5516 416.769423 849.2596 416.769423 841.6146 432.996941 849.7926 449.642503"></polyline>
            <polyline id="Stroke-323" points="877.4384 400.070127 869.6444 384.689724 849.2594 384.689724 841.6154 400.410978 849.2594 416.001906"></polyline>
            <polyline id="Stroke-325" points="815.5516 483.937132 793.5006 483.937132 785.8566 499.671419 794.4126 516.563597"></polyline>
            <polyline id="Stroke-327" points="815.5516 451.857032 793.5006 451.857032 785.8566 467.086057 793.8816 484.027358"></polyline>
            <polyline id="Stroke-329" points="815.5516 416.769423 793.5006 416.769423 785.8566 432.996941 793.8816 450.372325"></polyline>
            <polyline id="Stroke-331" points="785.8561 498.859091 765.3161 498.508215 757.6771 515.598888 765.3161 532.183297"></polyline>
            <polyline id="Stroke-333" points="785.8561 466.946709 765.3101 466.984805 757.6771 482.118592 765.3161 498.508515"></polyline>
            <polyline id="Stroke-335" points="785.8561 432.462807 765.3211 432.637243 757.6711 449.504358 765.3101 466.985005"></polyline>
            <polyline id="Stroke-337" points="821.8295 400.410978 813.8855 384.689724 793.5005 384.689724 785.8565 400.410978 793.5005 416.957292"></polyline>
            <polyline id="Stroke-339" points="785.8561 400.11133 764.7331 400.018097 757.5921 415.194992"></polyline>
            <polyline id="Stroke-341" points="702.5516 416.769423 681.0836 416.769423 673.4396 432.996941 681.7046 449.642503"></polyline>
            <polyline id="Stroke-343" points="674.5516 434.814479 652.9046 434.814479 645.1686 451.553274 653.6146 467.312623"></polyline>
            <polyline id="Stroke-345" points="646.5516 518.022239 624.7256 518.022239 617.0806 533.259284 625.5256 550.400082"></polyline>
            <polyline id="Stroke-347" points="646.5516 451.857032 624.7256 451.857032 617.0806 467.086057 625.5256 484.230866"></polyline>
            <polyline id="Stroke-349" points="617.0811 532.339487 596.6981 532.183097 589.2021 549.079284 596.6981 565.858179"></polyline>
            <polyline id="Stroke-351" points="616.5516 499.977182 596.8456 499.977182 589.2016 515.9641 596.5856 532.729962"></polyline>
            <polyline id="Stroke-353" points="617.0811 465.943204 596.6981 465.679545 589.2021 482.118592 596.8461 499.248363"></polyline>
            <polyline id="Stroke-355" points="616.5516 434.814479 596.8456 434.814479 589.2016 450.292125 596.5856 467.312623"></polyline>
            <polyline id="Stroke-357" points="653.0544 434.588214 645.1104 416.769724 624.7254 416.769724 616.1684 434.000747 624.7254 451.060343"></polyline>
            <polyline id="Stroke-359" points="589.2017 515.599289 568.9667 516.182746 561.6477 533.118031 568.9667 548.924498"></polyline>
            <polyline id="Stroke-361" points="589.2017 482.118892 568.9667 482.313378 561.3227 498.85869 568.9667 516.182946"></polyline>
            <polyline id="Stroke-363" points="589.5516 451.857032 568.9666 451.857032 561.3226 468.214876 568.8526 483.443901"></polyline>
            <polyline id="Stroke-365" points="562.5516 534.062289 540.7876 534.062289 533.1436 549.551965 542.2116 566.095271"></polyline>
            <polyline id="Stroke-367" points="596.8461 434.000647 589.3521 416.769623 568.9671 416.769623 561.3221 432.996139 568.9671 451.060243"></polyline>
            <path d="M709.2629,399.821406 L702.1689,417.11258" id="Stroke-369"></path>
            <polyline id="Stroke-371" points="702.5516 384.689323 681.0836 384.689323 673.4396 400.410577 681.2756 416.878696"></polyline>
            <polyline id="Stroke-373" points="702.5516 350.604216 681.0836 350.604216 673.4396 366.822712 681.2186 384.378547"></polyline>
            <polyline id="Stroke-375" points="673.4394 400.11133 653.0544 400.066217 645.1104 417.11278"></polyline>
            <polyline id="Stroke-377" points="673.4394 366.630933 652.9844 366.436447 645.2604 383.37073 653.0544 400.066417"></polyline>
            <polyline id="Stroke-379" points="645.2603 383.371131 624.8513 383.184666 617.3813 400.110929 624.7253 417.113382"></polyline>
            <polyline id="Stroke-381" points="645.5516 349.601713 625.4746 349.601713 617.3806 366.823714 625.6756 383.474289"></polyline>
            <polyline id="Stroke-383" points="652.9046 333.284872 645.2606 349.890334 652.9836 366.435645"></polyline>
            <path d="M681.0837,350.882511 L674.1547,333.284571" id="Stroke-385"></path>
            <polyline id="Stroke-387" points="617.3809 400.11133 597.4099 400.022107 589.3519 417.11278"></polyline>
            <polyline id="Stroke-389" points="617.3809 366.630933 597.1459 367.155242 589.1689 385.0008 597.4099 400.022307"></polyline>
            <polyline id="Stroke-391" points="589.5516 384.689323 568.9666 384.689323 561.3226 400.410577 569.1586 416.878696"></polyline>
            <polyline id="Stroke-393" points="568.9667 384.33584 561.1727 367.64717 540.7877 367.64717 533.1437 383.617045 541.7177 400.142307"></polyline>
            <polyline id="Stroke-395" points="596.9255 334.826622 589.5015 349.890234 597.1455 367.155342"></polyline>
            <path d="M625.4749,349.890735 L617.0809,334.827123" id="Stroke-397"></path>
            <polyline id="Stroke-399" points="589.5516 350.604216 568.9666 350.604216 561.0616 367.539502"></polyline>
            <polyline id="Stroke-401" points="568.9667 350.859554 561.1727 334.563865 540.7877 334.563865 533.1437 350.530733 540.7877 367.794839"></polyline>
            <polyline id="Stroke-403" points="897.5516 367.646769 877.1386 367.646769 869.9606 384.582055"></polyline>
            <polyline id="Stroke-405" points="793.5005 384.33584 785.4065 367.64717 765.0215 367.64717 757.3775 383.845616"></polyline>
            <polyline id="Stroke-407" points="815.5516 350.604216 793.2006 350.604216 785.7876 367.539502"></polyline>
            <polyline id="Stroke-409" points="793.3506 350.530332 785.4066 334.564467 765.0216 334.564467 757.3776 350.530332 765.0216 367.794438"></polyline>
            <polyline id="Stroke-411" points="1431.9081 216.051555 1439.7771 200.06163 1431.8331 184.188998 1411.4481 184.188998 1403.8041 200.06163 1411.5281 216.329248"></polyline>
            <polyline id="Stroke-413" points="1431.8333 184.256667 1439.7773 166.974515 1431.8333 151.105893 1411.4483 151.105893 1404.0593 167.938923 1411.4483 184.436115"></polyline>
            <polyline id="Stroke-415" points="1431.8333 151.187397 1439.7773 133.888203 1431.8333 118.023591 1411.4483 118.023591 1403.8043 133.888203 1411.4483 151.175367"></polyline>
            <polyline id="Stroke-417" points="1403.8041 200.095514 1383.6851 200.098522 1375.6251 216.635813 1383.6851 233.108945"></polyline>
            <polyline id="Stroke-419" points="1404.0588 167.980126 1383.2688 168.246792 1375.6248 183.81767 1383.6848 200.098321"></polyline>
            <polyline id="Stroke-421" points="1405.5516 101.98344 1383.2696 101.98344 1375.6246 117.595422 1383.8976 134.103641"></polyline>
            <polyline id="Stroke-423" points="1376.5516 249.3514 1355.0896 249.3514 1347.4456 265.733304 1355.2816 281.507691"></polyline>
            <polyline id="Stroke-425" points="1376.5516 151.106094 1355.0896 151.106094 1347.4456 166.974716 1355.7076 183.799726"></polyline>
            <polyline id="Stroke-427" points="1375.6249 117.611863 1355.5159 117.64294 1347.4459 132.909058 1355.0899 151.187697"></polyline>
            <polyline id="Stroke-429" points="1376.5516 84.9408871 1355.0896 84.9408871 1347.4456 100.801489 1355.7076 117.630509"></polyline>
            <polyline id="Stroke-431" points="1376.5516 50.8557807 1355.0896 50.8557807 1347.4456 67.2136243 1355.2816 84.9699597"></polyline>
            <polyline id="Stroke-433" points="1347.4458 265.362879 1326.5738 265.171401 1319.2668 281.538267 1327.2108 298.903626"></polyline>
            <polyline id="Stroke-435" points="1347.4458 166.615218 1326.8158 166.422737 1319.2668 183.355015 1326.8158 200.09782"></polyline>
            <polyline id="Stroke-437" points="1347.5516 133.061037 1326.9106 133.061037 1319.2666 150.181786 1327.0076 166.375219"></polyline>
            <polyline id="Stroke-439" points="1319.2666 149.87492 1299.4436 149.585196 1291.3876 166.614717 1299.3756 183.260279"></polyline>
            <polyline id="Stroke-441" points="1319.0118 116.921138 1299.0318 116.516127 1291.3868 133.134621 1299.4438 149.584695"></polyline>
            <polyline id="Stroke-443" points="1319.2666 49.9982395 1299.0316 49.9050068 1291.3876 66.7380368 1299.3756 83.0818453"></polyline>
            <polyline id="Stroke-445" points="1355.0901 50.8553797 1347.2961 33.8128265 1326.9111 33.8128265 1319.2671 49.8548816 1326.9901 66.4001932"></polyline>
            <polyline id="Stroke-447" points="1291.8191 265.177817 1271.3011 265.304132 1263.6571 282.426886 1271.4271 300.011793"></polyline>
            <polyline id="Stroke-449" points="1291.3873 166.615218 1271.3723 166.422737 1263.5083 183.355015 1271.3723 200.09782"></polyline>
            <polyline id="Stroke-451" points="1291.3873 133.134721 1271.1523 133.451512 1263.5083 149.874519 1271.3723 166.422838"></polyline>
            <polyline id="Stroke-453" points="1263.6566 282.427387 1242.9736 282.64493 1235.3286 298.52057 1243.0526 315.517008 1263.5076 315.517008 1271.4276 299.595253 1291.1256 299.344627"></polyline>
            <polyline id="Stroke-455" points="1263.5516 249.3514 1242.9736 249.3514 1235.3286 265.733304 1243.1646 282.511196"></polyline>
            <polyline id="Stroke-457" points="1263.5079 149.87492 1242.9579 149.748604 1235.3289 167.015718 1242.9579 183.860778"></polyline>
            <polyline id="Stroke-459" points="1263.5516 118.02349 1242.9736 118.02349 1235.3286 133.888102 1243.1496 149.711612"></polyline>
            <polyline id="Stroke-461" points="1235.3287 166.615218 1215.0667 166.422737 1207.1497 182.226197 1215.0667 198.969002"></polyline>
            <polyline id="Stroke-463" points="1235.5516 134.06354 1214.7936 134.06354 1207.1496 150.180783 1215.0596 166.881483"></polyline>
            <polyline id="Stroke-465" points="1207.1497 149.87492 1187.1757 149.778679 1179.2707 166.614717 1187.6257 183.260279"></polyline>
            <polyline id="Stroke-467" points="1179.2703 166.615218 1159.0943 166.823739 1151.0913 183.604639 1159.4943 200.471754"></polyline>
            <polyline id="Stroke-469" points="1149.5516 151.106094 1130.5566 151.106094 1122.1356 167.627345 1129.1646 183.449852"></polyline>
            <polyline id="Stroke-471" points="1121.5516 200.228747 1102.0416 200.228747 1094.9316 217.080825 1102.1486 232.901326"></polyline>
            <polyline id="Stroke-473" points="1122.5516 167.146144 1101.3776 167.146144 1094.7326 183.769651 1101.8516 200.718971"></polyline>
            <polyline id="Stroke-475" points="1095.5516 217.2713 1074.8336 217.2713 1066.8536 233.364483 1074.7816 249.813554"></polyline>
            <polyline id="Stroke-477" points="1094.7329 183.355316 1075.0829 183.260078 1066.8539 200.028948 1074.9489 216.898068"></polyline>
            <polyline id="Stroke-479" points="1094.5516 151.106094 1074.4976 151.106094 1066.8536 166.974716 1075.4546 183.799726"></polyline>
            <polyline id="Stroke-481" points="1094.5516 118.02349 1074.4976 118.02349 1066.8536 133.888102 1074.8706 151.51712"></polyline>
            <polyline id="Stroke-483" points="1066.8535 200.029149 1046.7225 200.062231 1038.9745 215.706292 1047.2485 232.803983"></polyline>
            <polyline id="Stroke-485" points="1066.8535 166.615218 1047.1605 166.422737 1038.2485 183.355015 1046.7225 200.062732"></polyline>
            <polyline id="Stroke-487" points="1066.8535 133.134721 1046.7485 133.050511 1038.9745 149.874519 1047.1605 166.422838"></polyline>
            <polyline id="Stroke-489" points="1038.2485 183.355316 1019.0085 183.260078 1010.7945 200.095113 1019.3695 215.868497"></polyline>
            <polyline id="Stroke-491" points="1038.9741 149.87492 1019.2671 149.937075 1010.7951 166.614717 1019.0081 183.260279"></polyline>
            <polyline id="Stroke-493" points="1039.5516 118.02349 1018.4396 118.02349 1010.7946 133.888102 1019.1406 151.066996"></polyline>
            <polyline id="Stroke-495" points="1010.795 200.095514 990.758 200.029349 982.616 215.706493 991.589 232.30594"></polyline>
            <polyline id="Stroke-497" points="1010.795 166.615218 990.855 166.422737 982.424 184.256266 990.758 200.02965"></polyline>
            <polyline id="Stroke-499" points="1010.795 133.134721 991.103 133.226952 982.616 149.874519 990.855 166.422838"></polyline>
            <polyline id="Stroke-501" points="982.5516 184.188697 962.3806 184.188697 954.7366 200.061329 963.3746 215.817671"></polyline>
            <polyline id="Stroke-503" points="982.6158 149.87492 962.6168 149.937075 954.2978 167.321481 962.3808 184.256767"></polyline>
            <polyline id="Stroke-505" points="1207.1497 17.0822523 1186.9147 17.1644576 1179.2707 33.8220496 1187.6257 50.2530758"></polyline>
            <polyline id="Stroke-507" points="1180.5516 0.73062428 1158.7356 0.73062428 1151.0916 17.3330786 1160.2316 33.7911725"></polyline>
            <polyline id="Stroke-509" points="1121.5516 34.8157307 1102.6766 34.8157307 1095.0326 50.9209434 1102.0016 67.6276581"></polyline>
            <polyline id="Stroke-511" points="1122.5516 0.73062428 1102.6766 0.73062428 1095.0326 17.3330786 1102.8686 34.8327732"></polyline>
            <path d="M1121.9332,0.229372716 L1130.7572,17.4523765" id="Stroke-513"></path>
            <polyline id="Stroke-515" points="1095.0326 17.0822523 1074.7976 17.1644576 1067.1536 33.8220496 1074.7516 50.2530758"></polyline>
            <polyline id="Stroke-517" points="1013.5516 32.8107244 991.0046 32.8107244 984.0406 48.5670661 993.0126 65.2256606"></polyline>
            <path d="M1067.9298,0.229372716 L1074.7978,17.1646581" id="Stroke-519"></path>
            <polyline id="Stroke-521" points="1068.5516 0.73062428 1046.6186 0.73062428 1039.2486 17.1586431"></polyline>
            <polyline id="Stroke-523" points="990.56 0.229372716 982.916 17.0824528 991.005 32.9701224"></polyline>
            <polyline id="Stroke-525" points="1320.1552 315.825678 1327.5802 298.641772 1347.6302 298.191648 1355.0902 281.431801 1376.5512 281.431801"></polyline>
            <polyline id="Stroke-527" points="1319.2666 281.538568 1299.3656 281.337065 1291.3876 299.972595 1299.1106 316.484824"></polyline>
            <polyline id="Stroke-529" points="1376.5516 16.7706743 1354.7906 16.7706743 1347.4876 33.8302701"></polyline>
            <polyline id="Stroke-531" points="1347.5516 0.73062428 1326.9106 0.73062428 1319.2666 17.3330786 1327.0656 34.1390411"></polyline>
            <path d="M1346.9476,0.229372716 L1354.7906,17.1646581" id="Stroke-533"></path>
            <polyline id="Stroke-535" points="1319.2666 17.0822523 1299.0316 17.1644576 1291.6516 33.5924763"></polyline>
            <polyline id="Stroke-537" points="1271.0023 33.6256592 1263.0583 16.7705741 1242.6733 16.7705741 1235.0293 33.412126"></polyline>
            <path d="M1291.8191,0.229372716 L1299.0321,17.1646581" id="Stroke-539"></path>
            <polyline id="Stroke-541" points="1292.5516 0.73062428 1270.8526 0.73062428 1263.2496 16.7867144"></polyline>
            <path d="M1234.4404,0.229372716 L1242.6734,16.7195467" id="Stroke-543"></path>
            <polyline id="Stroke-545" points="1234.5516 0.73062428 1214.7936 0.73062428 1207.1496 17.3330786 1214.9806 33.7911725"></polyline>
            <path d="M1179.3119,0.229372716 L1186.9149,17.1646581" id="Stroke-547"></path>
            <polyline id="Stroke-549" points="982.9156 17.0822523 962.3806 17.1644576 954.7366 33.8220496 961.9066 51.0340258"></polyline>
            <polyline id="Stroke-551" points="1347.4508 100.294724 1326.9258 100.363896 1319.0118 116.921238 1326.9108 133.124696"></polyline>
            <polyline id="Stroke-553" points="1403.8041 133.912563 1383.7061 134.128102 1375.6431 151.402233 1383.2691 168.247293"></polyline>
            <polyline id="Stroke-555" points="1405.5516 499.977182 1383.2696 499.977182 1375.0746 516.547557 1384.2976 532.656779"></polyline>
            <polyline id="Stroke-557" points="1383.2693 432.637042 1375.6253 449.057041 1383.6843 465.606363"></polyline>
            <polyline id="Stroke-559" points="1405.5516 398.724366 1383.2696 398.724366 1375.6246 415.555391 1384.0296 432.642055"></polyline>
            <polyline id="Stroke-561" points="1375.5516 517.019736 1356.2426 517.019736 1347.4456 533.213169 1355.2076 549.518882"></polyline>
            <polyline id="Stroke-563" points="1375.2291 482.339944 1355.0591 482.247714 1347.4461 499.228112 1356.2431 516.459136"></polyline>
            <polyline id="Stroke-565" points="1375.6249 449.05674 1354.9689 448.769022 1347.4459 465.232128 1355.0589 482.247614"></polyline>
            <polyline id="Stroke-567" points="1375.6249 415.576244 1355.0899 415.701556 1347.4459 432.316041 1354.9689 448.769122"></polyline>
            <polyline id="Stroke-569" points="1347.4458 532.193222 1326.9108 531.988711 1319.2668 548.36861 1326.9108 565.859282"></polyline>
            <polyline id="Stroke-571" points="1347.4458 498.712826 1326.8158 498.435132 1319.2668 515.452623 1326.8158 532.110215"></polyline>
            <polyline id="Stroke-573" points="1347.4458 465.232429 1326.9108 465.377792 1319.2668 481.972226 1326.8158 498.435333"></polyline>
            <polyline id="Stroke-575" points="1319.2666 515.453024 1299.3756 515.272573 1291.3876 532.192821 1299.6266 548.924598"></polyline>
            <polyline id="Stroke-577" points="1319.2666 481.972627 1299.2896 481.833279 1291.3876 498.712425 1299.3756 515.272774"></polyline>
            <polyline id="Stroke-579" points="1292.5516 533.059786 1271.1526 533.059786 1263.5076 548.904348 1271.7386 565.741388"></polyline>
            <polyline id="Stroke-581" points="1292.5516 499.977182 1271.1526 499.977182 1263.5076 515.817734 1271.7386 532.656779"></polyline>
            <polyline id="Stroke-583" points="1263.5079 515.528713 1242.9729 515.45553 1235.3289 532.832919 1243.0529 548.631366"></polyline>
            <polyline id="Stroke-585" points="1263.5516 483.937132 1242.9736 483.937132 1235.3286 499.525054 1242.9026 515.394678"></polyline>
            <polyline id="Stroke-587" points="1235.5516 533.059786 1214.7936 533.059786 1207.1496 548.904348 1214.9856 566.039131"></polyline>
            <polyline id="Stroke-589" points="1235.3287 498.712826 1214.7937 499.248162 1207.1497 516.456128 1215.0667 532.110215"></polyline>
            <polyline id="Stroke-591" points="1121.5516 533.059786 1102.3776 533.059786 1094.7326 548.904348 1101.6866 566.61557"></polyline>
            <polyline id="Stroke-593" points="1121.5516 434.814479 1102.3776 434.814479 1094.7326 450.145759 1101.8516 467.23944"></polyline>
            <polyline id="Stroke-595" points="1095.5516 518.022239 1075.6226 518.022239 1067.9786 533.112918 1075.9326 550.303842"></polyline>
            <polyline id="Stroke-597" points="1094.5516 416.769423 1074.4976 416.769423 1066.8536 432.850575 1074.4116 449.56932"></polyline>
            <polyline id="Stroke-599" points="1067.5516 533.059786 1046.6186 533.059786 1038.9736 548.904348 1046.4296 565.532867"></polyline>
            <polyline id="Stroke-601" points="1066.8535 432.316442 1046.7685 432.121956 1038.9745 449.056239 1047.1605 465.606563"></polyline>
            <polyline id="Stroke-603" points="1039.5516 518.022239 1018.4396 518.022239 1010.7946 533.112918 1018.3136 550.303842"></polyline>
            <polyline id="Stroke-605" points="1010.795 532.832819 990.26 532.515026 982.424 550.316474 990.26 565.733969"></polyline>
            <polyline id="Stroke-607" points="982.5516 551.104842 962.3806 551.104842 954.2456 568.040127"></polyline>
            <polyline id="Stroke-609" points="982.5516 518.022239 962.3806 518.022239 954.3726 534.078329"></polyline>
            <polyline id="Stroke-611" points="982.5516 450.854529 962.3806 450.854529 954.7366 466.43844 962.3536 483.405806"></polyline>
            <polyline id="Stroke-613" points="1018.5892 450.145358 1010.6452 434.814078 990.2602 434.814078 982.6162 450.145358 990.3392 466.69067"></polyline>
            <polyline id="Stroke-615" points="1039.5516 416.769423 1018.4396 416.769423 1010.5196 433.704708"></polyline>
            <polyline id="Stroke-617" points="1018.4393 416.949172 1010.6453 400.729673 990.2603 400.729673 982.1683 416.949172 990.2603 434.008767"></polyline>
            <polyline id="Stroke-619" points="982.5516 416.769423 962.3806 416.769423 954.7366 432.850575 962.3536 449.56932"></polyline>
            <polyline id="Stroke-621" points="1327.0156 332.868232 1319.4166 315.516908 1299.0316 315.516908 1291.3876 332.587531 1298.6686 351.465667"></polyline>
            <polyline id="Stroke-623" points="1291.3873 333.004271 1270.3633 332.950136 1263.2333 350.04883"></polyline>
            <polyline id="Stroke-625" points="1347.4508 432.563559 1326.9258 432.632732 1319.0118 449.190073 1326.9108 465.378494"></polyline>
            <polyline id="Stroke-627" points="1383.7059 465.378093 1375.2289 482.340446 1383.4169 499.190518"></polyline>
            <polyline id="Stroke-629" points="561.3224 498.859091 541.8474 499.248062 534.0734 517.07758 540.7874 533.118633"></polyline>
            <polyline id="Stroke-631" points="561.3224 467.072123 541.5694 466.701196 534.1684 483.343751 541.8474 499.248463"></polyline>
            <polyline id="Stroke-633" points="561.3224 432.462807 541.5694 433.026214 534.0734 450.116887 541.5694 466.701297"></polyline>
            <polyline id="Stroke-635" points="562.5516 399.72687 541.7176 399.72687 534.0736 416.55188 542.0216 432.898696"></polyline>
            <polyline id="Stroke-637" points="534.0732 517.077981 514.6152 516.883495 506.1942 532.124551 512.6082 548.924498"></polyline>
            <polyline id="Stroke-639" points="534.1685 483.343651 514.1285 483.539139 506.2425 500.649862 514.8765 517.563092"></polyline>
            <polyline id="Stroke-641" points="534.0732 450.117188 514.1292 449.863555 506.1942 466.856985 514.1292 483.538637"></polyline>
            <polyline id="Stroke-643" points="534.0732 416.636792 513.8382 416.831277 506.1942 433.376589 514.1292 449.863755"></polyline>
            <polyline id="Stroke-645" points="506.2425 500.649762 485.4835 501.621187 478.0145 515.948962 485.9755 532.922343"></polyline>
            <polyline id="Stroke-647" points="506.5516 467.897082 485.6586 467.897082 478.0146 484.731115 485.6756 502.078429"></polyline>
            <polyline id="Stroke-649" points="478.0147 515.948962 457.8227 516.367006 449.8357 532.12435 457.8227 548.348861"></polyline>
            <polyline id="Stroke-651" points="478.5516 484.939636 457.4796 484.939636 449.8356 500.522544 458.0146 516.811215"></polyline>
            <path d="M289.7072,182.950104 L310.0872,182.880932" id="Stroke-653"></path>
            <polyline id="Stroke-655" points="310.0875 182.880932 317.9565 166.433865 310.0125 150.104092 289.6275 150.104092 281.9835 166.433865 289.7075 182.930054"></polyline>
            <polyline id="Stroke-657" points="310.0875 149.790108 317.9565 134.349555 310.0125 119.026294 289.6275 119.026294 281.9835 134.349555 289.7075 150.342487"></polyline>
            <polyline id="Stroke-659" points="421.5516 84.9408871 401.3306 84.9408871 393.6866 100.406503 401.2016 118.060583"></polyline>
            <polyline id="Stroke-661" points="421.5516 51.8582839 401.3306 51.8582839 393.6866 67.8211412 401.3286 84.5990335"></polyline>
            <polyline id="Stroke-663" points="393.3656 134.374417 373.5476 134.627047 365.5076 150.821483 373.5476 167.735716"></polyline>
            <polyline id="Stroke-665" points="393.6866 100.414222 373.4686 100.819233 365.5076 117.718429 373.5466 134.626646"></polyline>
            <polyline id="Stroke-667" points="393.6866 67.4093129 373.3186 67.5075582 365.5076 84.1491101 373.4686 100.818732"></polyline>
            <polyline id="Stroke-669" points="365.5075 150.821282 344.9725 151.187196 337.3285 166.619729 345.4575 183.162033"></polyline>
            <polyline id="Stroke-671" points="366.5516 118.02349 344.9726 118.02349 337.3286 133.994368 345.1646 151.151206"></polyline>
            <polyline id="Stroke-673" points="365.5075 84.1495111 345.8345 84.1144235 337.3285 101.417628 345.4575 118.448151"></polyline>
            <path d="M337.5516,134.06354 L318.5516,134.06354" id="Stroke-675"></path>
            <polyline id="Stroke-677" points="337.5516 100.980937 317.9566 100.980937 310.2046 119.044039"></polyline>
            <path d="M401.0893,182.950104 L421.4693,182.880932" id="Stroke-679"></path>
            <polyline id="Stroke-681" points="421.4696 182.880932 429.3386 166.433865 421.3946 150.104092 401.0096 150.104092 393.3656 166.433865 401.0896 182.930054"></polyline>
            <polyline id="Stroke-683" points="421.4696 149.790108 429.3386 134.349555 421.3946 118.023791 401.0096 118.023791 393.3656 134.349555 401.0896 150.342487"></polyline>
            <polyline id="Stroke-685" points="534.5516 85.9433902 512.7126 85.9433902 505.0686 101.409006 513.5196 118.435519"></polyline>
            <polyline id="Stroke-687" points="533.1432 50.7090143 513.1012 50.3260581 505.0692 67.4097139 513.0042 83.9810906"></polyline>
            <polyline id="Stroke-689" points="505.5516 135.066044 484.5336 135.066044 476.8896 150.7883 484.9296 167.686493"></polyline>
            <polyline id="Stroke-691" points="505.5516 101.98344 484.5336 101.98344 476.8896 117.701687 484.9296 134.601885"></polyline>
            <polyline id="Stroke-693" points="505.5516 69.9033402 484.5336 69.9033402 476.8896 85.1163252 484.9296 102.269154"></polyline>
            <polyline id="Stroke-695" points="477.5516 150.10359 456.3546 150.10359 448.7106 166.579729 456.8406 183.100981"></polyline>
            <polyline id="Stroke-697" points="477.5516 118.02349 456.3546 118.02349 448.7106 133.994368 456.8406 150.76825"></polyline>
            <polyline id="Stroke-699" points="477.5516 85.9433902 456.3546 85.9433902 448.7106 101.409006 456.8406 118.435519"></polyline>
            <path d="M448.7105,134.018929 L429.3385,134.374818" id="Stroke-701"></path>
            <polyline id="Stroke-703" points="448.7105 101.417628 429.3385 101.765496 421.3945 118.072212"></polyline>
            <polyline id="Stroke-705" points="870.3561 85.1655481 849.4161 84.9570274 841.7721 101.612614 849.6791 118.297274"></polyline>
            <polyline id="Stroke-707" points="878.0004 67.9058527 869.8014 51.8577826 849.4164 51.8577826 842.1684 69.912864 849.4164 84.9654484"></polyline>
            <polyline id="Stroke-709" points="813.5516 85.9433902 793.0576 85.9433902 785.4136 101.603492 792.1916 117.530259"></polyline>
            <polyline id="Stroke-711" points="842.5516 69.9033402 821.6736 69.9033402 813.1966 85.6787294 821.5136 103.122284"></polyline>
            <polyline id="Stroke-713" points="956.5516 100.980937 934.0586 100.980937 926.4146 118.253064 934.3616 134.313164"></polyline>
            <polyline id="Stroke-715" points="957.5516 67.8983339 935.0586 67.8983339 926.4146 85.1664503 934.6236 101.284696"></polyline>
            <polyline id="Stroke-717" points="954.7365 33.8224506 934.0585 34.0991414 927.2955 51.0344268 935.0585 67.8975319"></polyline>
            <polyline id="Stroke-719" points="926.4146 118.268602 906.6596 118.649554 898.9746 134.657524 906.0546 151.187798"></polyline>
            <polyline id="Stroke-721" points="926.4146 85.2015379 906.4746 85.0090573 898.2356 100.93783 906.6596 118.649052"></polyline>
            <polyline id="Stroke-723" points="927.5516 51.8582839 905.8796 51.8582839 898.2356 67.8692613 906.6026 84.6230936"></polyline>
            <polyline id="Stroke-725" points="898.2355 100.938231 877.9095 100.842993 870.3565 117.678028 877.9095 134.518075"></polyline>
            <polyline id="Stroke-727" points="898.5516 67.8983339 878.0006 67.8983339 870.3556 85.1664503 878.1006 100.843594"></polyline>
            <polyline id="Stroke-729" points="1066.5156 265.943629 1047.1986 265.763178 1039.6046 282.417763 1046.2366 299.310943"></polyline>
            <polyline id="Stroke-731" points="1066.5516 233.31135 1047.2486 233.31135 1039.6046 249.091752 1047.0716 266.14433"></polyline>
            <polyline id="Stroke-733" points="1038.6362 316.164224 1018.4342 316.141166 1011.0562 332.311542 1018.9102 347.227786"></polyline>
            <polyline id="Stroke-735" points="1039.6044 282.417763 1019.3694 282.479918 1011.7254 299.438261 1018.4344 316.141968"></polyline>
            <polyline id="Stroke-737" points="1039.6044 248.837417 1019.8284 248.742179 1011.7254 265.577214 1019.3694 282.479417"></polyline>
            <polyline id="Stroke-739" points="1038.5516 216.268797 1019.3696 216.268797 1011.7246 232.29782 1019.7646 249.042629"></polyline>
            <polyline id="Stroke-741" points="1011.725 265.577715 992.387 265.610798 983.846 281.188694 992.033 297.561575"></polyline>
            <polyline id="Stroke-743" points="1011.725 232.097319 991.589 232.30584 984.674 249.527841 992.363 265.294208"></polyline>
            <polyline id="Stroke-745" points="984.5516 250.353903 963.3106 250.353903 955.6666 265.885684 963.8176 282.879115"></polyline>
            <polyline id="Stroke-747" points="982.6158 215.706794 963.3108 215.869199 955.6668 232.09772 963.3108 249.738767"></polyline>
            <polyline id="Stroke-749" points="955.6664 265.577715 935.7264 265.580723 927.4874 281.188694 935.7264 297.561575"></polyline>
            <polyline id="Stroke-751" points="955.6664 232.097319 935.3444 232.30584 927.4874 248.837116 935.7264 265.579921"></polyline>
            <polyline id="Stroke-753" points="1234.5516 329.551651 1214.4556 329.551651 1206.8116 347.213751 1214.5116 364.793646"></polyline>
            <polyline id="Stroke-755" points="1235.5516 299.476557 1215.5816 299.476557 1206.8116 316.195301 1214.6476 329.637866"></polyline>
            <polyline id="Stroke-757" points="1235.3287 265.362879 1214.3347 265.762878 1206.3137 282.479617 1215.5807 299.414903"></polyline>
            <polyline id="Stroke-759" points="1234.5516 233.31135 1214.4556 233.31135 1206.8116 249.457666 1214.3906 266.14433"></polyline>
            <polyline id="Stroke-761" points="1207.0209 347.342171 1186.4859 347.353199 1178.6329 364.127081 1186.5769 381.641813"></polyline>
            <polyline id="Stroke-763" points="1206.8118 316.164224 1185.8518 316.141166 1178.6328 331.775203 1186.2768 347.961618"></polyline>
            <polyline id="Stroke-765" points="1206.3136 282.479818 1186.2766 282.645231 1178.5376 298.649191 1185.8516 316.141868"></polyline>
            <polyline id="Stroke-767" points="1206.8118 249.203431 1186.6248 249.283631 1178.6328 266.210896 1186.2768 282.64493"></polyline>
            <polyline id="Stroke-769" points="1178.6327 331.775403 1158.6177 331.739313 1150.7537 347.950791 1158.7417 364.248484"></polyline>
            <polyline id="Stroke-771" points="1178.5378 299.067936 1158.7418 299.438863 1150.7528 316.164625 1158.6178 331.739513"></polyline>
            <polyline id="Stroke-773" points="1178.6327 266.211297 1158.3977 266.589241 1150.7537 282.641321 1159.1697 299.375103"></polyline>
            <polyline id="Stroke-775" points="1180.5516 233.31135 1158.3976 233.31135 1150.7536 249.457666 1158.5886 266.467136"></polyline>
            <polyline id="Stroke-777" points="1150.7533 347.951092 1130.7383 348.257858 1123.0583 364.896402 1131.2543 381.446726"></polyline>
            <polyline id="Stroke-779" points="1150.7533 316.164224 1130.4783 315.993798 1122.8743 331.775203 1130.7383 348.257356"></polyline>
            <polyline id="Stroke-781" points="1150.7533 282.683827 1130.5183 282.480319 1122.6133 299.423625 1130.4783 315.993999"></polyline>
            <polyline id="Stroke-783" points="1150.7533 249.203431 1130.6953 249.283631 1122.8743 265.943228 1130.5183 282.479517"></polyline>
            <polyline id="Stroke-785" points="1122.5516 364.63926 1102.3386 364.63926 1094.6946 382.12492 1102.4186 398.724366 1122.8736 398.724366 1131.2536 381.425172 1150.4996 381.794094"></polyline>
            <polyline id="Stroke-787" points="1122.8739 331.775403 1102.4649 331.739313 1094.6949 347.950791 1102.3389 363.893598"></polyline>
            <polyline id="Stroke-789" points="1122.6133 299.424026 1102.5853 299.438061 1094.6953 316.163823 1102.4653 331.739714"></polyline>
            <polyline id="Stroke-791" points="1122.8739 265.943629 1102.5859 265.763178 1094.6949 282.683426 1102.5859 299.438261"></polyline>
            <polyline id="Stroke-793" points="1122.5516 233.31135 1102.3386 233.31135 1094.6946 249.457666 1102.3326 266.14433"></polyline>
            <polyline id="Stroke-795" points="1094.6948 347.951092 1074.3788 348.034299 1066.5158 364.12648 1074.3518 381.831687"></polyline>
            <polyline id="Stroke-797" points="1094.6948 316.164224 1074.3518 316.141166 1064.4408 331.552647 1074.3788 348.034801"></polyline>
            <polyline id="Stroke-799" points="1094.6948 282.683827 1074.1598 282.480319 1066.5158 299.438662 1074.3518 316.141367"></polyline>
            <polyline id="Stroke-801" points="1094.6948 249.203431 1074.3528 249.283631 1066.5158 265.943228 1074.1598 282.479517"></polyline>
            <polyline id="Stroke-803" points="1066.5156 364.126881 1046.9916 364.248184 1038.6366 381.751888 1046.3596 398.724266 1066.5156 398.724266 1074.3516 381.811036 1094.6946 381.762916"></polyline>
            <polyline id="Stroke-805" points="1064.4404 331.552446 1046.9194 331.738912 1037.3934 348.258158 1046.9924 364.249086"></polyline>
            <polyline id="Stroke-807" points="1066.5156 299.438361 1046.2366 299.311043 1038.6366 316.164124 1046.9196 331.739012"></polyline>
            <polyline id="Stroke-809" points="1178.6882 364.499712 1158.7692 364.434549 1150.7672 381.525222 1158.4842 398.076549 1178.9362 398.196849 1186.5782 381.653543 1206.8122 381.803918 1214.4562 364.63906 1234.5512 364.63906"></polyline>
            <polyline id="Stroke-811" points="1206.8118 381.424872 1213.9908 399.212285 1234.9908 398.767173 1242.2008 383.858949 1262.7588 383.707571"></polyline>
            <polyline id="Stroke-813" points="1214.1564 398.766973 1207.4384 416.831077 1214.8984 433.766362"></polyline>
            <path d="M1242.778,416.830976 L1234.991,398.766873" id="Stroke-815"></path>
            <polyline id="Stroke-817" points="1102.0393 398.766973 1094.3953 417.598994 1101.8733 434.145308"></polyline>
            <polyline id="Stroke-819" points="1347.5516 367.646769 1327.0156 367.646769 1319.9456 383.206621 1328.3736 400.232131"></polyline>
            <polyline id="Stroke-821" points="1347.5516 332.55916 1327.0156 332.55916 1319.3716 350.734542 1326.9026 368.153034"></polyline>
            <polyline id="Stroke-823" points="1320.5516 417.771926 1298.8366 417.771926 1291.1926 433.700698 1299.5806 450.495633"></polyline>
            <polyline id="Stroke-825" points="1319.9459 383.35449 1298.7159 383.28632 1291.1919 400.268723 1299.4169 417.542854"></polyline>
            <polyline id="Stroke-827" points="1319.3713 350.865068 1298.8363 351.222961 1291.1923 366.83394 1298.7153 383.287021"></polyline>
            <polyline id="Stroke-829" points="1291.1921 433.230725 1270.6571 433.766061 1263.0131 449.970522 1270.5621 466.628114"></polyline>
            <polyline id="Stroke-831" points="1291.5516 399.72687 1270.6576 399.72687 1263.0126 416.405514 1271.0866 433.639545"></polyline>
            <polyline id="Stroke-833" points="1263.0131 449.970923 1243.1221 449.790472 1235.1341 466.71072 1242.9731 483.34325"></polyline>
            <polyline id="Stroke-835" points="1263.0131 416.490526 1242.7781 416.831377 1235.1341 433.230324 1243.1221 449.790673"></polyline>
            <polyline id="Stroke-837" points="1235.1337 466.711121 1214.8987 466.506611 1207.2547 482.886509 1214.8317 499.248363"></polyline>
            <polyline id="Stroke-839" points="1235.5516 433.811976 1214.8986 433.811976 1207.2546 450.997887 1215.0906 466.989817"></polyline>
            <polyline id="Stroke-841" points="1207.2543 482.88681 1186.9663 482.461749 1179.0753 500.191016 1186.6813 515.411019"></polyline>
            <polyline id="Stroke-843" points="1207.2543 450.675883 1186.7193 451.232272 1179.0753 467.477836 1186.9663 482.46225"></polyline>
            <polyline id="Stroke-845" points="1207.5516 416.769423 1186.7196 416.769423 1179.0756 433.701701 1186.9106 450.973827"></polyline>
            <polyline id="Stroke-847" points="1179.5516 467.897082 1159.5136 467.897082 1151.1846 484.543647 1159.4796 501.109009"></polyline>
            <polyline id="Stroke-849" points="1179.0752 433.230725 1158.5402 433.766061 1150.8962 449.970522 1159.5132 467.287761"></polyline>
            <polyline id="Stroke-851" points="1151.5516 484.939636 1129.5356 484.939636 1122.3616 501.039836 1131.5556 518.263842"></polyline>
            <polyline id="Stroke-853" points="1291.1973 367.081458 1270.6723 367.150631 1262.7583 383.707972 1270.5373 400.078848"></polyline>
            <polyline id="Stroke-855" points="139.5516 752.607971 120.3126 752.607971 112.6686 767.848024 119.8196 784.98782"></polyline>
            <polyline id="Stroke-857" points="139.5516 719.525368 120.3126 719.525368 112.6686 734.76141 120.2156 752.922757"></polyline>
            <polyline id="Stroke-859" points="139.5516 685.440261 120.3126 685.440261 112.7436 701.537454 120.2156 718.891786"></polyline>
            <polyline id="Stroke-861" points="139.5516 651.355155 120.3126 651.355155 112.6686 667.021271 120.2156 684.013699"></polyline>
            <polyline id="Stroke-863" points="139.5516 618.272552 120.3126 618.272552 112.7436 635.21285 120.2156 651.016309"></polyline>
            <polyline id="Stroke-865" points="112.6686 767.296948 92.2766 767.310983 84.7896 782.907926 92.4286 799.984565"></polyline>
            <polyline id="Stroke-867" points="113.5516 734.562915 92.4336 734.562915 84.7896 752.066619 92.6806 768.152784"></polyline>
            <polyline id="Stroke-869" points="113.5516 701.480311 92.4336 701.480311 84.7896 717.466226 92.8796 734.233091"></polyline>
            <polyline id="Stroke-871" points="113.5516 668.397708 92.4336 668.397708 84.7896 684.379613 92.8376 701.8763"></polyline>
            <polyline id="Stroke-873" points="113.5516 636.317608 92.4336 636.317608 84.7896 651.794251 92.8376 667.654853"></polyline>
            <polyline id="Stroke-875" points="84.7892 717.076353 64.8852 716.810689 56.6102 733.81615 64.8852 750.485772"></polyline>
            <polyline id="Stroke-877" points="84.7892 683.595956 64.2542 683.765379 56.6102 700.335754 64.8852 716.809887"></polyline>
            <polyline id="Stroke-879" points="84.7892 651.244579 64.4042 651.024028 56.6102 666.745282 64.1682 683.600367"></polyline>
            <polyline id="Stroke-881" points="56.6101 700.336155 36.7321 699.972246 28.4311 717.075952 36.1801 733.441815"></polyline>
            <polyline id="Stroke-883" points="56.6101 666.855758 36.0751 666.830695 28.4311 683.595555 36.7321 699.972446"></polyline>
            <polyline id="Stroke-885" points="64.4043 651.794151 56.4603 636.317508 36.0753 636.317508 28.4313 651.794151 36.0753 667.380067"></polyline>
            <polyline id="Stroke-887" points="120.313 618.662124 112.819 603.234604 92.434 603.234604 84.789 619.271646 92.434 635.59741"></polyline>
            <polyline id="Stroke-889" points="84.7892 618.893101 64.2542 618.283579 56.4602 635.217862"></polyline>
            <polyline id="Stroke-891" points="64.2545 618.725382 56.4605 602.232201 36.0755 602.232201 28.4315 618.206086 36.0755 635.660668"></polyline>
            <polyline id="Stroke-893" points="57.5516 571.154905 36.3746 571.154905 28.7306 586.122276 36.0436 602.41195"></polyline>
            <polyline id="Stroke-895" points="476.8373 749.5758 485.5923 734.761811 477.6483 719.525769 457.2633 719.525769 449.6193 734.761811 456.6023 749.72016"></polyline>
            <polyline id="Stroke-897" points="477.6484 719.14592 485.5924 701.173044 477.6484 685.43976 457.2634 685.43976 449.6194 702.17655 457.2634 719.249178"></polyline>
            <polyline id="Stroke-899" points="449.6192 701.970535 429.3832 701.822165 421.0132 717.635649 428.7982 733.441114"></polyline>
            <polyline id="Stroke-901" points="450.5516 569.149898 429.0846 569.149898 421.4396 586.123279 429.4366 602.485132"></polyline>
            <polyline id="Stroke-903" points="421.0134 717.635349 400.9054 717.13911 393.2614 734.571636 400.9574 749.24728"></polyline>
            <polyline id="Stroke-905" points="420.5516 685.440261 400.9056 685.440261 392.8866 701.537454 401.0966 717.449184"></polyline>
            <polyline id="Stroke-907" points="421.5516 586.192452 401.9056 586.192452 393.2606 601.913706 400.6156 618.310647"></polyline>
            <polyline id="Stroke-909" points="392.5516 701.480311 372.7256 701.480311 365.0816 717.466226 372.5256 734.233091"></polyline>
            <polyline id="Stroke-911" points="392.5516 668.397708 372.7256 668.397708 365.0816 684.379613 372.5586 701.8763"></polyline>
            <polyline id="Stroke-913" points="393.5516 602.232502 372.7256 602.232502 365.8846 618.725683 372.4796 634.979266"></polyline>
            <polyline id="Stroke-915" points="365.0818 717.076353 344.8468 717.63575 337.2028 733.81615 343.5288 750.485772"></polyline>
            <polyline id="Stroke-917" points="365.0818 683.595956 344.8468 683.765379 337.2028 700.335754 344.8468 717.634948"></polyline>
            <polyline id="Stroke-919" points="365.5516 650.352652 344.8466 650.352652 337.2026 667.084429 345.2426 684.107935"></polyline>
            <polyline id="Stroke-921" points="365.8849 618.477764 344.8469 618.79656 337.7579 634.972951 344.9889 649.527291"></polyline>
            <polyline id="Stroke-923" points="401.9052 585.944833 393.1112 570.152402 372.7262 570.152402 365.0822 586.122276 372.8052 602.667588"></polyline>
            <polyline id="Stroke-925" points="337.5516 767.645518 316.9676 767.645518 309.3226 783.639453 316.5006 799.959201"></polyline>
            <polyline id="Stroke-927" points="337.2024 733.816551 316.9674 733.441615 309.6314 750.3769 316.9674 767.313188"></polyline>
            <polyline id="Stroke-929" points="337.2024 700.336155 316.9674 700.700063 308.9164 717.635349 316.9674 733.441815"></polyline>
            <polyline id="Stroke-931" points="337.2024 666.855758 316.9674 666.830695 309.3234 683.595555 316.9674 700.700264"></polyline>
            <polyline id="Stroke-933" points="338.5516 635.315105 316.9676 635.315105 309.3226 651.794251 317.1586 667.177662"></polyline>
            <polyline id="Stroke-935" points="310.5516 750.602965 288.8066 750.602965 281.1436 768.103662 289.1486 785.371778"></polyline>
            <polyline id="Stroke-937" points="308.9162 717.635349 288.9422 717.762666 281.1442 734.571636 288.7272 750.121462"></polyline>
            <polyline id="Stroke-939" points="309.323 683.595956 289.178 683.765379 281.144 700.420966 288.942 717.762265"></polyline>
            <polyline id="Stroke-941" points="281.1439 767.296948 260.6089 767.310983 252.9649 782.907926 260.7019 799.99459"></polyline>
            <polyline id="Stroke-943" points="281.1439 733.816551 260.6089 733.441615 252.9649 749.991939 260.6089 767.311183"></polyline>
            <polyline id="Stroke-945" points="281.1439 700.336155 260.6089 700.324125 252.9649 717.075952 260.6089 733.441815"></polyline>
            <polyline id="Stroke-947" points="420.5516 552.107345 400.6056 552.107345 393.3026 570.170447"></polyline>
            <polyline id="Stroke-949" points="393.266 634.358015 372.741 634.427188 364.76 649.895811 372.726 667.967935"></polyline>
            <polyline id="Stroke-951" points="786.5516 636.317608 765.3216 636.317608 757.6766 651.940617 764.9906 669.91249"></polyline>
            <polyline id="Stroke-953" points="757.5516 717.520361 737.1426 717.520361 729.4976 734.660157 736.6136 751.605468"></polyline>
            <polyline id="Stroke-955" points="757.3392 685.204673 736.7372 684.650289 729.4982 700.482821 737.1422 717.635649"></polyline>
            <polyline id="Stroke-957" points="729.4979 700.48242 709.2629 700.699963 701.6189 717.222217 709.7229 733.721414"></polyline>
            <polyline id="Stroke-959" points="729.3659 667.328138 709.2629 667.250945 701.6189 683.952647 709.2629 700.700464"></polyline>
            <polyline id="Stroke-961" points="765.3214 635.21285 757.5274 618.272552 737.1424 618.272552 729.4984 634.645433 737.2214 651.190744"></polyline>
            <polyline id="Stroke-963" points="701.6185 717.222618 681.5695 716.883772 674.1545 732.312295 681.1365 749.24758"></polyline>
            <polyline id="Stroke-965" points="701.6185 683.952747 681.0835 683.765279 673.4395 700.482019 681.5695 716.88297"></polyline>
            <polyline id="Stroke-967" points="702.5516 651.355155 681.0836 651.355155 673.4396 667.732046 681.7046 684.303423"></polyline>
            <polyline id="Stroke-969" points="674.5516 701.480311 652.9046 701.480311 645.2606 717.612592 653.1556 732.897757"></polyline>
            <polyline id="Stroke-971" points="674.5516 668.397708 652.9046 668.397708 645.2606 684.525978 653.6146 701.221666"></polyline>
            <polyline id="Stroke-973" points="646.5516 719.525368 624.7256 719.525368 616.7756 733.257656 624.9696 749.532291"></polyline>
            <polyline id="Stroke-975" points="646.5516 685.440261 624.7256 685.440261 617.0806 701.319911 625.5496 718.891786"></polyline>
            <polyline id="Stroke-977" points="646.5516 651.355155 624.7256 651.355155 617.0806 667.732046 625.5256 684.303423"></polyline>
            <polyline id="Stroke-979" points="616.5516 701.480311 596.8456 701.480311 589.2016 717.612592 596.4866 732.897757"></polyline>
            <polyline id="Stroke-981" points="616.5516 668.397708 596.8456 668.397708 589.2016 684.525978 596.7336 701.8763"></polyline>
            <polyline id="Stroke-983" points="589.2017 717.222618 569.2577 716.883772 561.3227 733.962415 568.7197 749.24758"></polyline>
            <polyline id="Stroke-985" points="589.2017 683.742222 568.9667 683.765279 561.3227 700.482019 569.2577 716.88297"></polyline>
            <polyline id="Stroke-987" points="589.5516 651.355155 568.9666 651.355155 561.3226 667.732046 568.8556 684.013699"></polyline>
            <polyline id="Stroke-989" points="561.3224 700.48242 540.7874 700.699963 533.1434 717.222217 541.1044 733.721414"></polyline>
            <polyline id="Stroke-991" points="533.1432 717.222618 512.9342 717.101315 504.9642 733.962415 512.6612 749.24758"></polyline>
            <polyline id="Stroke-993" points="534.5516 685.440261 512.6086 685.440261 504.9636 701.319911 513.4666 718.139908"></polyline>
            <path d="M504.9641,700.48242 L485.5921,700.336054" id="Stroke-995"></path>
            <polyline id="Stroke-997" points="757.798 651.129291 737.376 651.301722 729.565 667.194404 736.738 684.649988"></polyline>
            <polyline id="Stroke-999" points="1375.6545 760.975263 1383.5235 745.203884 1375.5795 729.5508 1355.1945 729.5508 1347.5505 745.203884 1355.2745 761.362229"></polyline>
            <polyline id="Stroke-1001" points="1375.5797 729.180876 1383.5237 712.618522 1375.5797 697.4707 1355.1947 697.4707 1347.5507 712.618522 1355.1947 729.281127"></polyline>
            <polyline id="Stroke-1003" points="1347.5504 711.975918 1327.0154 711.989953 1319.3714 727.586896 1327.4314 743.983838"></polyline>
            <polyline id="Stroke-1005" points="1320.5516 752.607971 1298.8366 752.607971 1291.1926 766.719205 1299.5806 783.859001"></polyline>
            <polyline id="Stroke-1007" points="1291.1921 766.167929 1270.6571 766.181964 1263.0131 782.907726 1270.7491 799.994389"></polyline>
            <polyline id="Stroke-1009" points="1235.1337 766.167929 1215.9727 766.181964 1207.2547 782.915746 1214.7347 799.985367"></polyline>
            <polyline id="Stroke-1011" points="1178.5516 767.645518 1157.9196 767.645518 1150.2746 783.241459 1158.7966 800.243912"></polyline>
            <polyline id="Stroke-1013" points="1157.9192 732.312395 1150.2752 749.029135 1157.9192 767.31379"></polyline>
            <polyline id="Stroke-1015" points="1150.2748 749.029536 1130.6448 748.909236 1122.7238 767.313188"></polyline>
            <polyline id="Stroke-1017" points="1130.0398 715.798462 1122.3958 732.500164 1130.6448 748.909135"></polyline>
            <polyline id="Stroke-1019" points="1123.5516 767.645518 1101.8606 767.645518 1094.2166 783.241459 1102.5506 800.243912"></polyline>
            <polyline id="Stroke-1021" points="1122.3954 732.499863 1101.8604 732.312395 1094.2164 749.029135 1101.8604 767.31379"></polyline>
            <path d="M1094.2163,716.113549 L1101.8603,732.311994" id="Stroke-1023"></path>
            <polyline id="Stroke-1025" points="1094.2163 749.029536 1074.1933 748.592445 1066.0373 765.769333 1074.1933 782.26853"></polyline>
            <polyline id="Stroke-1027" points="1073.675 714.582225 1066.037 732.289438 1074.193 748.593146"></polyline>
            <polyline id="Stroke-1029" points="1066.0371 765.769734 1045.4781 765.430888 1037.9831 783.513037 1046.5191 799.985166"></polyline>
            <polyline id="Stroke-1031" points="1066.0371 732.289338 1045.5021 732.312395 1037.8581 749.029135 1045.4781 765.430086"></polyline>
            <path d="M1037.858,714.870746 L1045.502,732.312295" id="Stroke-1033"></path>
            <polyline id="Stroke-1035" points="1017.623 715.377411 1009.979 732.289639 1018.475 748.593347"></polyline>
            <polyline id="Stroke-1037" points="1037.858 749.029536 1018.475 748.75886 1010.168 766.642514 989.744 766.642514 981.717 783.93469 990.274 800.067973"></polyline>
            <path d="M981.0993,749.029536 L989.7433,766.182365" id="Stroke-1039"></path>
            <polyline id="Stroke-1041" points="1009.9786 732.289338 989.7436 732.312395 981.0996 749.029135"></polyline>
            <path d="M982.0993,716.113549 L989.7433,732.311994" id="Stroke-1043"></path>
            <path d="M1150.3422,715.741921 L1157.9192,732.312295" id="Stroke-1045"></path>
            <polyline id="Stroke-1047" points="953.5516 767.645518 932.9046 767.645518 925.2606 783.241459 933.4066 800.233887"></polyline>
            <polyline id="Stroke-1049" points="953.5516 733.560412 932.9046 733.560412 925.2606 749.653594 933.0946 767.118201"></polyline>
            <polyline id="Stroke-1051" points="925.2604 749.029536 905.0254 749.247079 897.3814 765.769333 905.4854 782.26853"></polyline>
            <polyline id="Stroke-1053" points="905.0254 715.798462 897.3814 732.500164 905.0254 749.246979"></polyline>
            <polyline id="Stroke-1055" points="897.381 765.769734 877.332 765.430888 869.202 782.509532 877.085 799.985166"></polyline>
            <polyline id="Stroke-1057" points="897.381 732.499863 876.846 732.312395 869.202 749.029135 877.332 765.430086"></polyline>
            <path d="M869.2019,716.113549 L876.8459,732.311994" id="Stroke-1059"></path>
            <polyline id="Stroke-1061" points="848.6671 715.377411 841.0231 732.289639 848.6671 749.246979"></polyline>
            <polyline id="Stroke-1063" points="841.0228 765.769734 820.4638 765.430888 813.9688 782.509532 821.3038 799.985166"></polyline>
            <polyline id="Stroke-1065" points="841.5516 733.560412 820.4876 733.560412 812.8436 749.653594 820.9066 766.366324"></polyline>
            <path d="M812.8436,716.113549 L820.4636,732.601718" id="Stroke-1067"></path>
            <polyline id="Stroke-1069" points="813.5516 750.602965 792.6086 750.602965 784.9646 766.447527 792.9666 783.284567"></polyline>
            <polyline id="Stroke-1071" points="792.6086 715.377411 784.9646 732.289639 792.6086 749.246979"></polyline>
            <path d="M757.0849,782.509933 L765.0199,799.984565" id="Stroke-1073"></path>
            <polyline id="Stroke-1075" points="784.9643 765.769734 765.0203 765.430888 757.0853 782.509532"></polyline>
            <path d="M757.0849,749.029536 L765.0199,765.430487" id="Stroke-1077"></path>
            <polyline id="Stroke-1079" points="784.9643 732.289338 764.7293 732.312395 757.0853 749.029135"></polyline>
            <path d="M757.4099,717.635349 L765.0199,732.601718" id="Stroke-1081"></path>
            <path d="M925.3278,715.741921 L932.9048,733.194498" id="Stroke-1083"></path>
            <path d="M1151.1104,647.66474 L1158.9074,631.257774" id="Stroke-1085"></path>
            <path d="M1120.7068,630.53106 L1130.1278,647.637773" id="Stroke-1087"></path>
            <path d="M1066.1255,629.932164 L1074.0695,647.446896" id="Stroke-1089"></path>
            <path d="M1017.3015,648.640777 L1038.2465,648.240779" id="Stroke-1091"></path>
            <polyline id="Stroke-1093" points="1066.2753 666.185685 1074.0693 648.347144 1094.0043 648.347144 1101.9493 631.377774"></polyline>
            <polyline id="Stroke-1095" points="1045.8904 631.705793 1038.2464 648.240077 1045.8904 665.961325"></polyline>
            <polyline id="Stroke-1097" points="1122.2256 666.410446 1130.1276 648.347345 1151.5516 648.347345"></polyline>
            <path d="M1094.0048,647.637272 L1101.6488,665.961024" id="Stroke-1099"></path>
            <polyline id="Stroke-1101" points="1151.5516 682.432752 1129.8286 682.432752 1122.1836 699.102374 1130.0416 716.524876"></polyline>
            <polyline id="Stroke-1103" points="1122.184 699.141472 1101.729 698.946986 1094.216 716.11385"></polyline>
            <polyline id="Stroke-1105" points="1094.5516 682.432752 1073.7696 682.432752 1066.1256 699.102374 1073.7016 715.276759"></polyline>
            <polyline id="Stroke-1107" points="1129.8282 682.232652 1122.0342 666.393103 1101.6492 666.393103 1094.0052 682.30784 1101.7282 699.162925"></polyline>
            <polyline id="Stroke-1109" points="1066.1255 698.138066 1045.9695 697.943581 1037.8585 714.870846"></polyline>
            <polyline id="Stroke-1111" points="1073.7698 682.417514 1066.2748 666.392501 1045.8908 666.392501 1038.2458 682.308241 1045.9698 698.853553"></polyline>
            <polyline id="Stroke-1113" points="1038.2461 681.397868 1017.7111 681.507141 1010.3581 697.936162"></polyline>
            <polyline id="Stroke-1115" points="450.0332 799.956093 457.8802 783.945116 449.5212 767.645418 429.1372 767.645418 421.4922 783.094993 428.6852 800.039301"></polyline>
            <polyline id="Stroke-1117" points="449.6192 733.816551 428.7982 733.441615 421.4922 748.883171 429.1372 767.313188"></polyline>
            <polyline id="Stroke-1119" points="421.4924 748.883271 400.9574 749.247179 393.3134 765.623068 401.4354 782.195447"></polyline>
            <polyline id="Stroke-1121" points="393.3132 765.623469 372.7192 765.357806 365.1342 782.363266 372.6132 799.71058"></polyline>
            <polyline id="Stroke-1123" points="393.2609 733.816551 372.6929 733.648131 365.1339 748.883171 372.7199 765.357305"></polyline>
            <polyline id="Stroke-1125" points="728.5516 765.640512 709.0156 765.640512 701.3706 783.242462 709.1196 800.23489"></polyline>
            <polyline id="Stroke-1127" points="729.4979 733.962816 709.7229 733.721213 701.3709 749.029436 709.0159 766.182264"></polyline>
            <polyline id="Stroke-1129" points="701.3711 749.029536 681.1361 749.247079 673.4921 765.769333 681.5961 782.26853"></polyline>
            <polyline id="Stroke-1131" points="673.4917 765.769734 653.4427 765.430888 645.3127 782.509532 652.7977 799.985166"></polyline>
            <polyline id="Stroke-1133" points="674.5516 733.560412 652.9566 733.560412 645.3126 749.653594 653.6416 766.366324"></polyline>
            <polyline id="Stroke-1135" points="645.3126 749.029536 624.7776 749.247079 617.1336 765.769333 625.2896 782.26853"></polyline>
            <polyline id="Stroke-1137" points="617.1334 765.769734 596.5984 766.182766 588.9544 782.509532 596.9004 799.995191"></polyline>
            <polyline id="Stroke-1139" points="616.5516 733.560412 596.5986 733.560412 588.9546 749.653594 596.4866 767.118201"></polyline>
            <polyline id="Stroke-1141" points="588.9543 749.029536 568.7193 749.247079 561.0753 765.769333 568.5713 782.26853"></polyline>
            <polyline id="Stroke-1143" points="561.075 765.769734 541.131 765.430888 533.196 782.509532 540.829 799.995191"></polyline>
            <polyline id="Stroke-1145" points="561.3224 733.962816 541.1044 733.721213 533.1954 749.029436 541.1304 765.430387"></polyline>
            <polyline id="Stroke-1147" points="533.1956 749.029536 512.6606 749.247079 505.0166 765.769333 512.9776 782.26853"></polyline>
            <polyline id="Stroke-1149" points="505.0164 765.769734 484.4814 766.182766 476.8374 782.509532 484.5824 799.995191"></polyline>
            <path d="M476.8373,749.5758 L484.4813,766.182264" id="Stroke-1151"></path>
            <polyline id="Stroke-1153" points="476.8373 749.5758 456.6023 749.246979 449.5213 767.31409"></polyline>
            <polyline id="Stroke-1155" points="869.2019 749.029536 848.6669 749.247079 841.0229 765.769333 849.1789 782.26853 841.8519 799.984765"></polyline>
            <path d="M905.485,782.268129 L897.381,799.985367" id="Stroke-1157"></path>
            <path d="M849.179,782.268129 L869.202,782.509732" id="Stroke-1159"></path>
            <polyline id="Stroke-1161" points="645.3126 782.509933 625.2896 782.268329 617.5646 799.99459"></polyline>
            <polyline id="Stroke-1163" points="701.3711 782.509933 681.5431 782.268329 673.2301 799.984565"></polyline>
            <polyline id="Stroke-1165" points="588.9543 782.509933 568.5713 782.268329 561.0753 799.984565"></polyline>
            <polyline id="Stroke-1167" points="533.1956 782.509933 512.9776 782.268329 505.2636 799.99459"></polyline>
            <polyline id="Stroke-1169" points="421.4924 782.363667 401.4354 782.195247 392.8864 799.99469"></polyline>
            <path d="M476.8373,782.509933 L457.4653,782.928979" id="Stroke-1171"></path>
            <polyline id="Stroke-1173" points="1263.5516 751.605468 1242.7776 751.605468 1235.1336 766.782363 1243.1216 783.338702 1234.6316 800.211832"></polyline>
            <polyline id="Stroke-1175" points="175.156 752.634437 167.872 767.311083 174.819 782.975194"></polyline>
            <polyline id="Stroke-1177" points="167.5516 768.648021 146.9766 768.648021 139.3326 784.705114 148.3656 800.30707"></polyline>
            <path d="M139.7454,751.505418 L146.9764,767.311885" id="Stroke-1179"></path>
            <path d="M119.9161,784.160754 L112.7441,799.994289" id="Stroke-1181"></path>
            <path d="M119.9161,784.160754 L139.3321,784.037447" id="Stroke-1183"></path>
            <polyline id="Stroke-1185" points="56.5516 767.645518 36.1796 767.645518 28.5356 783.329679 36.2526 800.240905"></polyline>
            <polyline id="Stroke-1187" points="56.6101 733.816551 36.1801 733.441615 28.5361 750.167377 36.1801 766.182365"></polyline>
            <path d="M8.534,782.743716 L0.552,799.984765" id="Stroke-1189"></path>
            <path d="M8.534,782.743716 L28.536,782.598353" id="Stroke-1191"></path>
            <polyline id="Stroke-1193" points="756.5516 587.194955 737.1426 587.194955 729.4976 603.085632 736.7126 619.522673"></polyline>
            <polyline id="Stroke-1195" points="729.4979 602.259268 709.2629 602.476812 701.6189 618.999066 709.7229 635.498262"></polyline>
            <polyline id="Stroke-1197" points="729.3659 569.104986 709.2629 569.027793 701.6189 585.729496 709.2629 602.477313"></polyline>
            <polyline id="Stroke-1199" points="701.6185 618.999467 681.5695 618.660621 673.4395 635.739264 681.5695 652.335703"></polyline>
            <polyline id="Stroke-1201" points="701.6185 585.729596 681.0835 585.542128 673.4395 602.258867 681.5695 618.659819"></polyline>
            <polyline id="Stroke-1203" points="702.5516 553.109848 681.0836 553.109848 673.4396 569.497767 680.9756 585.773405"></polyline>
            <polyline id="Stroke-1205" points="673.4394 602.259268 653.4164 601.822177 645.2604 618.999066 653.4164 635.498262"></polyline>
            <polyline id="Stroke-1207" points="673.4394 569.343381 652.6494 569.171953 645.2604 585.518769 653.4164 601.822478"></polyline>
            <polyline id="Stroke-1209" points="646.5516 619.275055 624.7256 619.275055 617.0806 635.670993 625.5256 652.232345"></polyline>
            <polyline id="Stroke-1211" points="645.2603 585.51907 624.7253 585.542128 617.0813 602.258867 624.7013 618.659819"></polyline>
            <polyline id="Stroke-1213" points="646.5516 553.109848 624.7256 553.109848 617.0806 569.497767 625.5496 585.773405"></polyline>
            <polyline id="Stroke-1215" points="616.5516 603.235005 596.8456 603.235005 589.2016 619.378313 596.5856 636.06598"></polyline>
            <polyline id="Stroke-1217" points="617.0811 569.343381 596.5911 569.171953 589.2021 585.518769 596.8461 602.477112"></polyline>
            <polyline id="Stroke-1219" points="589.2017 618.999467 569.2577 618.660621 561.3227 635.739264 568.9667 651.024429"></polyline>
            <polyline id="Stroke-1221" points="589.2017 585.51907 568.9667 585.542128 561.3227 602.258867 569.2577 618.659819"></polyline>
            <polyline id="Stroke-1223" points="589.5516 553.109848 568.9666 553.109848 561.3226 569.497767 568.8556 585.773405"></polyline>
            <polyline id="Stroke-1225" points="561.3224 602.259268 540.7874 602.476812 533.1434 618.999066 541.1044 635.498262"></polyline>
            <polyline id="Stroke-1227" points="533.1432 618.999467 512.6082 619.412498 504.9642 635.739264 512.9512 652.335703"></polyline>
            <polyline id="Stroke-1229" points="534.5516 587.194955 512.6086 587.194955 504.9636 603.085632 513.1236 620.651492"></polyline>
            <polyline id="Stroke-1231" points="757.677 553.167693 737.376 553.07847 729.565 568.972155 737.072 585.770097"></polyline>
            <path d="M785.3712,702.567125 L793.1682,686.160159" id="Stroke-1233"></path>
            <path d="M793.1685,686.16066 L814.1025,685.965172" id="Stroke-1235"></path>
            <polyline id="Stroke-1237" points="814.5516 652.357658 793.1626 652.357658 785.5186 669.13154 793.6126 686.313442"></polyline>
            <polyline id="Stroke-1239" points="821.7468 636.094752 813.5478 620.277257 793.1628 620.277257 785.5368 635.086233 793.2418 652.098712"></polyline>
            <polyline id="Stroke-1241" points="813.5475 620.541216 821.4915 604.461066 813.5475 589.199961 793.1625 589.199961 785.5185 604.461066 793.2415 620.423923"></polyline>
            <polyline id="Stroke-1243" points="813.5475 588.691892 821.4915 571.375656 813.5475 554.112552 793.1625 554.112552 785.5185 571.375656 793.1625 588.82723"></polyline>
            <polyline id="Stroke-1245" points="785.5183 669.028984 764.4833 669.088132 757.3393 685.204372 765.1473 701.341665"></polyline>
            <polyline id="Stroke-1247" points="900.5516 635.315105 878.9306 635.315105 871.2856 651.626833 879.6276 668.23029"></polyline>
            <polyline id="Stroke-1249" points="900.2941 601.59922 878.3741 601.622278 871.2861 619.226233 878.9301 634.089344"></polyline>
            <polyline id="Stroke-1251" points="899.5516 571.154905 877.8056 571.154905 870.1606 586.518265 878.5656 602.5924"></polyline>
            <polyline id="Stroke-1253" points="872.5516 651.355155 849.6266 651.355155 841.7906 669.253846 850.3806 687.400155"></polyline>
            <polyline id="Stroke-1255" points="872.5516 619.275055 849.6266 619.275055 841.9816 635.898562 850.3806 650.921071"></polyline>
            <polyline id="Stroke-1257" points="870.161 586.255409 849.626 586.68448 841.982 604.563121 849.626 618.79666"></polyline>
            <polyline id="Stroke-1259" points="842.5516 670.402714 821.7466 670.402714 814.1026 686.885871 821.8266 703.485318 841.9816 703.485318 850.1896 687.445268 872.5516 687.445268"></polyline>
            <polyline id="Stroke-1261" points="842.5516 636.317608 821.7466 636.317608 814.1026 652.692494 822.1276 669.91249"></polyline>
            <path d="M841.9819,604.054351 L821.4919,603.76162" id="Stroke-1263"></path>
            <path d="M841.7903,570.865181 L821.4913,571.28523" id="Stroke-1265"></path>
            <polyline id="Stroke-1267" points="1039.7618 611.157887 1047.6308 595.609064 1039.6868 580.177533 1019.3018 580.177533 1011.6578 595.609064 1019.3818 611.656131"></polyline>
            <path d="M1011.6578,562.339594 L1019.3018,580.24831" id="Stroke-1269"></path>
            <polyline id="Stroke-1271" points="1124.5516 563.13488 1103.9446 563.13488 1096.3006 579.17092 1104.1346 596.413973"></polyline>
            <polyline id="Stroke-1273" points="1096.3004 578.582551 1076.3604 578.976534 1068.1214 594.193529 1076.3604 610.675683"></polyline>
            <path d="M1067.9298,562.962148 L1076.3608,578.976133" id="Stroke-1275"></path>
            <polyline id="Stroke-1277" points="1067.5516 564.137383 1047.8866 564.137383 1039.4976 580.193473"></polyline>
        </g>
    </g>
</svg>