<?xml version="1.0" encoding="UTF-8"?>
<svg width="705px" height="644px" viewBox="0 0 705 644" version="1.1" xmlns="http://www.w3.org/2000/svg" xmlns:xlink="http://www.w3.org/1999/xlink">
    <!-- Generator: Sketch 48.2 (47327) - http://www.bohemiancoding.com/sketch -->
    <title>Page 1</title>
    <desc>Created with Sketch.</desc>
    <defs></defs>
    <g id="bee-v3/03-product" stroke="none" stroke-width="1" fill="none" fill-rule="evenodd" transform="translate(-734.000000, -100.000000)" opacity="0.7">
        <g id="Page-1" transform="translate(734.000000, 100.000000)" stroke="#FFC107">
            <path d="M366.0436,271.5065 L378.3026,294.7075" id="Stroke-1"></path>
            <polyline id="Stroke-2" points="377.9543 294.2572 407.5483 294.7072 419.6353 319.2392 408.2063 344.1382 419.5743 369.3102 408.0783 394.3362 419.5743 418.3992 408.1683 446.4152"></polyline>
            <polyline id="Stroke-3" points="378.8546 246.8889 408.1996 246.8889 419.6356 269.9309 408.0326 294.3209"></polyline>
            <polyline id="Stroke-4" points="377.4795 197.3712 408.3805 196.9422 419.6355 221.4862 408.2465 246.8522"></polyline>
            <polyline id="Stroke-5" points="419.6355 418.6106 450.7345 418.5506 461.7915 442.7256 449.9075 468.8356"></polyline>
            <polyline id="Stroke-6" points="419.6355 369.3103 450.3555 369.5873 461.7915 394.4963 450.7345 418.5513"></polyline>
            <polyline id="Stroke-7" points="419.6355 319.3979 450.3555 319.0939 461.7915 345.4249 450.3555 369.5869"></polyline>
            <polyline id="Stroke-8" points="419.6355 270.4419 450.4975 270.9839 461.7915 296.3549 450.4975 319.2739"></polyline>
            <polyline id="Stroke-9" points="419.6355 221.4859 450.3555 221.7029 461.7915 246.4419 450.4975 270.9839"></polyline>
            <polyline id="Stroke-10" points="461.7915 394.496 491.6105 394.697 503.4995 418.611 491.5485 442.907"></polyline>
            <polyline id="Stroke-11" points="461.7915 345.4252 491.1735 345.4032 502.8535 370.2302 491.6105 394.6972"></polyline>
            <polyline id="Stroke-12" points="461.7915 296.3544 491.5485 296.0854 503.4995 321.3104 491.1735 345.4034"></polyline>
            <polyline id="Stroke-13" points="461.7915 246.442 491.6765 246.235 503.4995 271.398 491.5485 296.085"></polyline>
            <polyline id="Stroke-14" points="503.499 418.6106 533.771 418.5506 545.207 442.7256 533.276 468.8356"></polyline>
            <polyline id="Stroke-15" points="502.853 370.2304 533.771 369.8164 545.207 394.4964 533.771 418.5504"></polyline>
            <polyline id="Stroke-16" points="502.8546 321.8889 533.7706 321.8889 545.2066 345.8669 533.9626 369.5979"></polyline>
            <polyline id="Stroke-17" points="503.499 271.3982 533.771 271.1802 545.207 297.1212 533.771 322.1802"></polyline>
            <polyline id="Stroke-18" points="545.2065 442.7252 575.2115 442.1902 587.3625 468.5262 575.8075 493.8892 545.2065 493.8892 533.2765 468.5972 503.3615 468.1362"></polyline>
            <polyline id="Stroke-19" points="545.2065 394.496 575.7545 394.184 586.8895 417.479 575.2115 442.19"></polyline>
            <polyline id="Stroke-20" points="545.2065 345.4389 575.7465 346.0509 587.3625 371.1599 575.9435 394.0899"></polyline>
            <polyline id="Stroke-21" points="545.2065 297.1214 576.1085 297.2124 587.3625 321.7794 575.7465 346.0504"></polyline>
            <polyline id="Stroke-22" points="575.9266 246.6424 587.3626 272.2004 576.1086 297.2124"></polyline>
            <polyline id="Stroke-23" points="586.8896 417.4786 618.0826 418.7786 629.5186 442.8016 617.5436 469.2336"></polyline>
            <polyline id="Stroke-24" points="587.3625 371.2605 618.3305 371.0075 629.5185 394.5905 617.8565 419.2105"></polyline>
            <polyline id="Stroke-25" points="587.3625 321.7792 618.0825 322.1802 629.5185 346.0122 618.3305 371.0072"></polyline>
            <polyline id="Stroke-26" points="587.3625 272.3545 618.0825 272.1965 629.5185 297.3105 618.0825 322.1805"></polyline>
            <polyline id="Stroke-27" points="629.5186 494.1262 617.3616 469.0002 587.3626 468.9722"></polyline>
            <polyline id="Stroke-28" points="629.5186 442.7252 658.7256 442.9062 671.2266 468.9122 659.6716 494.1262"></polyline>
            <polyline id="Stroke-29" points="629.5186 394.496 659.9866 393.813 671.2266 418.611 658.6216 442.907"></polyline>
            <polyline id="Stroke-30" points="659.5606 346.8303 671.2256 371.5113 660.2326 393.8133"></polyline>
            <path d="M670.8546,468.8889 L702.8546,468.8889" id="Stroke-31"></path>
            <path d="M672.8546,418.8889 L702.8546,418.8889" id="Stroke-32"></path>
            <path d="M671.2261,371.2229 L703.4981,371.0599" id="Stroke-33"></path>
            <polyline id="Stroke-35" points="461.7915 442.7252 491.5485 442.9062 503.4995 468.5232 491.9445 494.1182 461.3435 494.4382 449.9075 468.8362 419.6355 469.4692 408.3805 446.7322"></polyline>
            <polyline id="Stroke-36" points="419.6279 172.7833 450.3329 172.8863 462.1729 197.5703 450.3559 221.7033"></polyline>
            <polyline id="Stroke-37" points="365.3903 221.703 378.0713 246.99 365.8233 271.154"></polyline>
            <path d="M491.9444,494.1179 L503.4994,519.4499" id="Stroke-38"></path>
            <path d="M503.499,519.4499 L534.219,519.6129" id="Stroke-39"></path>
            <path d="M533.9949,519.4499 L545.2069,494.3669" id="Stroke-40"></path>
            <polyline id="Stroke-41" points="675.1202 121.5068 663.6902 97.7148 630.0212 97.2598"></polyline>
            <path d="M619.2845,123.0643 L587.8675,122.3993" id="Stroke-42"></path>
            <polyline id="Stroke-43" points="619.0365 122.3997 629.0865 149.3297 617.9265 174.5757"></polyline>
            <path d="M576.2185,149.3294 L587.8675,122.3994" id="Stroke-44"></path>
            <path d="M492.355,149.0987 L503.791,173.6627" id="Stroke-45"></path>
            <path d="M503.7909,173.7779 L534.3369,173.5829" id="Stroke-46"></path>
            <polyline id="Stroke-47" points="505.4909 123.6546 534.5109 124.1306 545.9469 148.8456 533.9029 173.6556"></polyline>
            <polyline id="Stroke-48" points="575.5267 198.091 587.6547 223.69 575.9267 246.95"></polyline>
            <polyline id="Stroke-49" points="587.6544 223.6903 617.9264 223.3863 629.3624 247.8053 618.0274 272.1963"></polyline>
            <polyline id="Stroke-50" points="587.6544 173.7779 617.9264 174.2799 629.3624 198.5859 618.2524 223.3449"></polyline>
            <path d="M629.3619,247.8049 L659.7129,247.7119" id="Stroke-51"></path>
            <polyline id="Stroke-52" points="534.511 124.1303 546.328 99.9493 534.488 76.9663 505.483 76.8633 492.652 99.9193 505.491 123.6543 492.583 148.9153"></polyline>
            <polyline id="Stroke-53" points="407.3249 542.7918 419.3549 517.2788 419.3549 517.1268 407.7069 494.7438 419.5909 469.4628"></polyline>
            <polyline id="Stroke-54" points="281.6087 468.4878 292.9777 444.1368 281.5417 419.9308 249.5867 419.8508 238.3327 444.7148 249.5867 467.6788 249.7937 467.8888 281.5417 467.8888 292.9777 492.7818"></polyline>
            <polyline id="Stroke-55" points="292.9777 443.9252 323.6977 444.7532 335.1337 468.0402 323.6977 491.8802"></polyline>
            <polyline id="Stroke-56" points="335.1337 517.1107 366.6007 517.1267 377.5767 542.3737"></polyline>
            <polyline id="Stroke-57" points="335.1337 468.0399 365.8537 468.3169 376.4067 494.4049 366.6007 517.1269"></polyline>
            <polyline id="Stroke-58" points="365.8538 468.3166 377.5758 446.5506 365.3648 419.5336 335.1338 419.7526 323.7648 444.6666"></polyline>
            <path d="M376.4063,494.4047 L407.9433,494.8967" id="Stroke-59"></path>
            <path d="M377.9396,446.5115 L408.1986,446.4155" id="Stroke-60"></path>
            <path d="M407.5613,542.3303 L377.5763,542.3733" id="Stroke-61"></path>
            <polyline id="Stroke-62" points="365.3468 368.8495 377.4758 344.0345 365.7288 319.7385 378.3028 294.7075"></polyline>
            <polyline id="Stroke-63" points="239.4641 295.8303 250.8891 271.0233 239.4641 245.8893 207.7161 245.8893 196.2551 271.4673 207.7161 295.8893 239.4641 295.8893 249.5951 318.8173 281.6201 318.7953 293.0561 344.0223 280.3301 370.1123"></polyline>
            <polyline id="Stroke-64" points="250.8896 270.9193 281.6186 271.1063 293.0556 294.0973 281.6206 318.7873"></polyline>
            <polyline id="Stroke-65" points="293.056 344.0183 324.523 344.0343 335.499 369.2813 323.776 395.3603"></polyline>
            <polyline id="Stroke-66" points="293.056 294.0975 324.626 294.3745 334.329 320.3565 324.523 344.0345"></polyline>
            <polyline id="Stroke-67" points="335.4985 369.281 365.4835 368.849 376.9195 394.105 365.3645 419.534"></polyline>
            <path d="M334.3286,320.3561 L365.8656,319.8921" id="Stroke-68"></path>
            <polyline id="Stroke-69" points="280.3293 369.9172 292.5203 394.8892 323.7763 394.8892 335.4503 419.9632"></polyline>
            <polyline id="Stroke-70" points="545.2065 544.0942 575.2115 543.5592 587.3625 568.2542 575.8075 593.8892 545.2065 593.8892 533.2765 569.2822 545.2065 544.0942"></polyline>
            <polyline id="Stroke-71" points="575.8079 494.1262 586.8899 518.8472 575.2119 543.5592"></polyline>
            <polyline id="Stroke-72" points="586.8896 518.8476 618.0826 519.1916 629.5186 544.1706 617.5436 568.6896"></polyline>
            <path d="M629.5186,494.1262 L617.8566,519.6232" id="Stroke-73"></path>
            <polyline id="Stroke-74" points="629.5186 544.0942 658.7256 544.2752 671.2266 568.5442 659.6716 594.8892 629.5186 594.8892 617.3616 568.6312 587.3626 568.5162"></polyline>
            <polyline id="Stroke-75" points="629.8546 493.8889 659.6716 493.8889 671.2266 518.9049 658.7896 544.0979"></polyline>
            <polyline id="Stroke-76" points="702.8546 618.8889 672.3956 618.8889 659.0936 594.9809"></polyline>
            <path d="M671.2261,568.3689 L704.0111,568.4229" id="Stroke-77"></path>
            <path d="M534.2191,519.6131 L545.2061,544.0941" id="Stroke-79"></path>
            <polyline id="Stroke-80" points="419.5538 517.2785 449.9198 517.2595 461.2888 494.6235"></polyline>
            <path d="M377.4761,344.0344 L408.2061,344.1384" id="Stroke-81"></path>
            <path d="M376.9195,394.1045 L408.0785,394.3365" id="Stroke-82"></path>
            <polyline id="Stroke-83" points="462.0075 197.9096 492.0125 197.3746 504.1635 221.9166 491.6765 246.2346"></polyline>
            <path d="M503.7909,173.6626 L492.0129,197.3746" id="Stroke-84"></path>
            <polyline id="Stroke-85" points="534.3366 173.583 546.3196 197.985 534.1626 222.271"></polyline>
            <polyline id="Stroke-86" points="546.3195 197.9096 575.5265 198.0906 587.6545 173.7776 576.2185 149.3296 545.9465 148.8216"></polyline>
            <polyline id="Stroke-87" points="533.7706 271.4121 546.3196 246.4421 534.1626 222.2711 504.1636 221.9171"></polyline>
            <path d="M546.3195,246.4417 L575.9265,246.6427" id="Stroke-88"></path>
            <polyline id="Stroke-89" points="629.0677 346.3588 659.7877 346.6358 671.2237 371.5448"></polyline>
            <polyline id="Stroke-90" points="629.0677 296.4465 659.7877 296.1425 671.2237 322.4735 659.7877 346.6355"></polyline>
            <polyline id="Stroke-91" points="629.0677 247.4904 659.9297 248.0324 671.2237 273.4024 659.9297 296.3224"></polyline>
            <g id="Group-98" transform="translate(671.000000, 273.132000)">
                <path d="M0.2237,49.3417 L32.4747,49.2137" id="Stroke-92"></path>
                <path d="M0.2237,0.2709 L32.8497,0.0019" id="Stroke-94"></path>
                <path d="M0.2261,245.8913 L33.0561,245.8583" id="Stroke-96"></path>
            </g>
            <path d="M629.0861,149.3294 L663.2921,149.7484" id="Stroke-99"></path>
            <path d="M675.1202,121.5068 L663.4822,149.7478 L675.1202,121.5068 Z" id="Stroke-100"></path>
            <polyline id="Stroke-101" points="252.8546 221.8889 282.3996 221.8889 293.8356 246.6459 281.7546 271.1129"></polyline>
            <polyline id="Stroke-102" points="251.6795 172.7212 282.5805 172.2922 293.8355 196.8362 282.4465 222.2022"></polyline>
            <polyline id="Stroke-103" points="293.8355 246.6419 324.6975 246.3339 335.9915 270.8539 324.6265 294.3739"></polyline>
            <polyline id="Stroke-104" points="293.8355 196.8359 324.5555 197.0529 335.9915 221.7919 324.6975 246.3339"></polyline>
            <path d="M335.9915,270.8544 L365.8225,271.1544" id="Stroke-105"></path>
            <polyline id="Stroke-106" points="335.9915 221.792 365.3905 221.703 377.4795 197.371 366.0435 172.893 377.4615 147.459 408.1905 147.646 419.6355 172.415 408.3805 196.942"></polyline>
            <polyline id="Stroke-107" points="293.8279 148.1333 324.5329 148.2363 336.3729 172.9203 324.5559 197.0533"></polyline>
            <polyline id="Stroke-108" points="282.5805 172.292 293.8355 147.765 282.3905 122.996 252.5115 122.809 240.2435 148.243 251.6795 172.721 239.6225 198.243 252.5825 221.88 239.4645 245.68"></polyline>
            <path d="M336.3727,172.9199 L366.2127,172.7249" id="Stroke-109"></path>
            <polyline id="Stroke-110" points="240.2436 148.2429 208.7676 147.8999 197.9816 124.8249 167.2276 124.5999"></polyline>
            <path d="M197.1185,173.1294 L208.7685,147.8994" id="Stroke-111"></path>
            <path d="M124.6909,198.428 L155.2369,198.233" id="Stroke-112"></path>
            <polyline id="Stroke-113" points="126.3909 149.1546 155.4109 148.7806 166.8469 172.6456 154.8029 198.3056"></polyline>
            <path d="M196.4267,222.741 L207.7167,245.68" id="Stroke-114"></path>
            <path d="M208.5544,198.428 L239.6224,198.243" id="Stroke-115"></path>
            <polyline id="Stroke-116" points="155.411 148.7803 167.228 124.5993 155.388 101.6163 126.383 101.5133 113.552 124.5693 126.391 149.1543 112.913 173.2433"></polyline>
            <path d="M112.9129,222.0245 L125.0639,246.5665" id="Stroke-117"></path>
            <path d="M124.6909,198.3126 L112.9129,222.0246" id="Stroke-118"></path>
            <polyline id="Stroke-119" points="155.2366 198.233 167.2196 222.635 155.0626 246.922"></polyline>
            <polyline id="Stroke-120" points="167.2195 222.5596 196.4265 222.7406 208.5545 198.4276 197.1185 173.1296 166.8465 172.6216"></polyline>
            <path d="M155.0625,246.9215 L125.0635,246.5665" id="Stroke-121"></path>
            <polyline id="Stroke-122" points="82.1543 318.9072 111.7483 319.3572 123.8353 343.8892"></polyline>
            <polyline id="Stroke-123" points="81.8546 270.8889 112.3996 270.8889 123.8356 294.2559 112.2016 318.4839"></polyline>
            <path d="M125.0635,246.5667 L112.4465,271.5017" id="Stroke-124"></path>
            <path d="M154.5556,394.237 L165.9916,419.146" id="Stroke-125"></path>
            <polyline id="Stroke-126" points="154.5556 343.7438 165.9916 370.0748 154.5556 394.2368"></polyline>
            <polyline id="Stroke-127" points="123.8355 295.0919 154.6975 295.6339 165.9915 321.0039 154.6975 343.9239"></polyline>
            <polyline id="Stroke-128" points="155.0625 246.9215 165.9915 271.0925 154.6975 295.6335"></polyline>
            <path d="M165.9915,419.146 L195.8105,419.347" id="Stroke-129"></path>
            <polyline id="Stroke-130" points="165.9915 370.0752 195.3735 370.0532 207.0525 394.8802 195.8105 419.3472"></polyline>
            <polyline id="Stroke-131" points="165.9915 321.0044 195.7485 320.7354 207.6995 345.1104 195.3735 370.0534"></polyline>
            <path d="M207.7162,295.8303 L195.7482,320.7353" id="Stroke-132"></path>
            <path d="M165.9915,271.092 L196.2555,271.333" id="Stroke-133"></path>
            <polyline id="Stroke-134" points="207.053 394.8804 237.971 394.4664 249.587 419.8504"></polyline>
            <polyline id="Stroke-135" points="207.699 345.1105 237.971 345.1305 249.407 369.8125 237.977 394.4665"></polyline>
            <path d="M250.2566,318.3714 L237.9706,345.1304" id="Stroke-136"></path>
            <path d="M249.4066,369.8121 L280.3296,369.8501" id="Stroke-137"></path>
            <path d="M81.8546,270.8889 L70.0226,295.8049" id="Stroke-138"></path>
            <path d="M292.5204,395.2803 L281.5414,419.9303" id="Stroke-139"></path>
            <path d="M503.499,519.4499 L490.776,543.6359" id="Stroke-140"></path>
            <polyline id="Stroke-141" points="533.2761 569.4274 502.7061 569.1664 490.7761 543.3934 460.9991 543.3234"></polyline>
            <polyline id="Stroke-142" points="449.9195 517.2597 460.9995 543.3227 449.4445 568.0677"></polyline>
            <path d="M545.2065,594.1803 L532.7115,618.3593" id="Stroke-145"></path>
            <polyline id="Stroke-146" points="575.5826 593.9911 587.0186 618.9701 575.0436 643.4901"></polyline>
            <polyline id="Stroke-148" points="587.0186 618.8942 616.2256 619.0752 628.7266 643.4142"></polyline>
            <path d="M629.5186,595.0303 L616.3536,618.8913" id="Stroke-149"></path>
            <path d="M461.6295,148.9212 L492.3545,149.0982" id="Stroke-150"></path>
            <polyline id="Stroke-151" points="451.0436 122.7429 461.6296 148.9209 450.4216 172.7439"></polyline>
            <polyline id="Stroke-152" points="451.0436 122.7429 419.5676 122.3999 408.7816 99.3249 378.0276 99.0999"></polyline>
            <path d="M407.9185,147.6294 L419.5685,122.3994" id="Stroke-153"></path>
            <polyline id="Stroke-154" points="337.1909 123.6546 366.2109 123.2806 377.4619 147.4586"></polyline>
            <path d="M337.1909,123.6546 L324.5329,148.2366" id="Stroke-155"></path>
            <path d="M366.211,123.2803 L378.028,99.0993" id="Stroke-156"></path>
            <polyline id="Stroke-157" points="421.3279 74.1833 452.0329 74.2863 463.8729 98.9703 451.0439 122.7433"></polyline>
            <path d="M463.7075,99.3096 L492.6515,99.9196" id="Stroke-158"></path>
            <polyline id="Stroke-159" points="378.028 99.0997 367.744 74.2927 379.161 48.8587 409.891 49.0467 421.335 73.8147 408.782 99.3257"></polyline>
            <polyline id="Stroke-160" points="326.2327 49.6362 338.0727 74.3202 325.4057 98.4532 337.1907 123.6542"></polyline>
            <path d="M338.0726,74.3199 L367.9126,74.1249" id="Stroke-161"></path>
            <path d="M452.7436,24.1429 L463.3296,50.3209" id="Stroke-162"></path>
            <polyline id="Stroke-163" points="452.7436 24.1429 421.2676 23.7999 410.4816 0.7249 379.7276 0.4999"></polyline>
            <polyline id="Stroke-165" points="338.8909 25.0546 367.9109 24.6806 379.1619 48.8586"></polyline>
            <path d="M367.911,24.6803 L379.728,0.4993" id="Stroke-166"></path>
            <polyline id="Stroke-168" points="112.9129 173.2429 82.7679 172.8999 71.9819 149.8249 41.2279 149.5999"></polyline>
            <path d="M71.1185,198.1294 L82.7685,172.8994" id="Stroke-169"></path>
            <polyline id="Stroke-171" points="0.3909 174.1546 29.4109 173.7806 40.8469 197.6456 28.8029 223.3056"></polyline>
            <path d="M70.4267,247.741 L81.7167,270.68" id="Stroke-172"></path>
            <polyline id="Stroke-175" points="29.411 173.7803 41.228 149.5993 29.388 126.6163"></polyline>
            <polyline id="Stroke-181" points="29.2366 223.233 41.2196 247.635 29.0626 271.921"></polyline>
            <polyline id="Stroke-182" points="41.2195 247.5596 70.4265 247.7406 82.5545 223.4276 71.1185 198.1296 40.8465 197.6216"></polyline>
            <path d="M39.9915,296.092 L70.2555,296.333" id="Stroke-188"></path>
        </g>
    </g>
</svg>