<?xml version="1.0" encoding="utf-8"?>
<!-- Generator: Adobe Illustrator 19.1.0, SVG Export Plug-In . SVG Version: 6.00 Build 0)  -->
<svg version="1.1" id="Layer_1" xmlns="http://www.w3.org/2000/svg" xmlns:xlink="http://www.w3.org/1999/xlink" x="0px" y="0px"
	 viewBox="-616 426 206 50" style="enable-background:new -616 426 206 50;" xml:space="preserve">
<style type="text/css">
	.st0{fill:#FFC107;stroke:#FFC107;}
	.st1{fill:#263238;}
</style>
<title>Group 41</title>
<desc>Created with Sketch.</desc>
<g id="design">
	<g id="Group-41" transform="translate(1.000000, 1.000000)">
		<polygon id="Polygon-Copy-184" class="st0" points="-616,450 -602.1,474 -425.9,474 -412,450 -425.9,426 -466.4,426 -602.1,426 		
			"/>
		<path id="Combined-Shape" class="st1" d="M-445.7,452.9l7.7-6.9c0.3-0.3-0.1-0.4-0.5-0.2l-9.5,5.9l-4.1-1.3
			c-0.9-0.3-0.9-0.9,0.2-1.3l16-6.1c0.7-0.3,1.4,0.2,1.2,1.3l-2.7,12.7c-0.2,0.9-0.7,1.1-1.5,0.7l-4.1-3l-2,1.9
			c-0.2,0.2-0.4,0.4-0.8,0.4L-445.7,452.9L-445.7,452.9z"/>
	</g>
</g>
</svg>
