<?xml version="1.0" encoding="utf-8"?>
<!-- Generator: Adobe Illustrator 19.1.0, SVG Export Plug-In . SVG Version: 6.00 Build 0)  -->
<svg version="1.1" id="Layer_1" xmlns="http://www.w3.org/2000/svg" xmlns:xlink="http://www.w3.org/1999/xlink" x="0px" y="0px"
	 viewBox="0 0 159.3 60.1" style="enable-background:new 0 0 159.3 60.1;" xml:space="preserve">
<style type="text/css">
	.st0{fill:#FFC107;}
</style>
<g id="Logo">
	<g id="logo_bee_horizontal">
		<g id="logo_bee" transform="translate(188.000000, 240.000000)">
			<g id="bee" transform="translate(282.000000, 20.000000)">
				<g>
					<path id="Fill-1" class="st0" d="M-370.9-222.7c0.6-1.2,0.9-2.5,0.9-3.9s-0.3-2.7-0.9-3.9s-1.5-2.1-2.6-2.7
						c-1.1-0.6-2.3-1-3.7-1c-1.4,0-2.6,0.3-3.7,1c-1.1,0.6-2,1.5-2.6,2.7s-0.9,2.4-0.9,3.9s0.3,2.8,0.9,3.9c0.6,1.1,1.5,2,2.6,2.7
						c1.1,0.6,2.3,1,3.7,1c1.4,0,2.6-0.3,3.7-1C-372.4-220.6-371.5-221.5-370.9-222.7z M-368.2-232.1c0.9,1.6,1.3,3.5,1.3,5.6
						s-0.4,4-1.3,5.6s-2.1,2.9-3.6,3.8c-1.6,0.9-3.3,1.4-5.3,1.4c-1.8,0-3.4-0.4-4.8-1.1c-1.4-0.8-2.5-1.8-3.2-3.2v4.2h-3.8v-29.9
						h3.8v12.8c0.8-1.4,1.9-2.5,3.2-3.2c1.4-0.8,2.9-1.1,4.7-1.1c2,0,3.8,0.5,5.4,1.4C-370.3-235-369.1-233.7-368.2-232.1z"/>
					<path id="Fill-4" class="st0" d="M-346.9-228c-0.1-1.9-0.8-3.5-2-4.6s-2.8-1.7-4.7-1.7c-1.9,0-3.5,0.6-4.7,1.7
						c-1.3,1.1-2,2.7-2.3,4.6H-346.9z M-346.2-234.3c1.7,1.9,2.5,4.6,2.5,8.1c0,0.5,0,0.9,0,1.2h-16.9c0.3,1.9,1.1,3.4,2.4,4.5
						s2.9,1.7,4.8,1.7c1.3,0,2.4-0.2,3.5-0.7s2-1.1,2.9-1.9l2.1,2.1c-1.1,1.1-2.3,2-3.8,2.6s-3.1,0.9-4.9,0.9c-2.1,0-4-0.4-5.6-1.3
						c-1.6-0.9-2.9-2.2-3.8-3.8s-1.4-3.5-1.4-5.6s0.5-3.9,1.4-5.6c0.9-1.6,2.2-2.9,3.8-3.8c1.6-0.9,3.5-1.4,5.5-1.4
						C-350.4-237.2-347.9-236.3-346.2-234.3L-346.2-234.3z"/>
					<path id="Fill-4-Copy" class="st0" d="M-323.6-228c-0.1-1.9-0.8-3.5-2-4.6s-2.8-1.7-4.7-1.7c-1.9,0-3.5,0.6-4.7,1.7
						c-1.3,1.1-2,2.7-2.3,4.6H-323.6z M-322.9-234.3c1.7,1.9,2.5,4.6,2.5,8.1c0,0.5,0,0.9,0,1.2h-16.9c0.3,1.9,1.1,3.4,2.4,4.5
						s2.9,1.7,4.8,1.7c1.3,0,2.4-0.2,3.5-0.7s2-1.1,2.9-1.9l2.1,2.1c-1.1,1.1-2.3,2-3.8,2.6s-3.1,0.9-4.9,0.9c-2.1,0-4-0.4-5.6-1.3
						c-1.6-0.9-2.9-2.2-3.8-3.8s-1.4-3.5-1.4-5.6s0.5-3.9,1.4-5.6c0.9-1.6,2.2-2.9,3.8-3.8c1.6-0.9,3.5-1.4,5.5-1.4
						C-327.1-237.2-324.6-236.3-322.9-234.3L-322.9-234.3z"/>
				</g>
			</g>
			<g id="mark">
				<polygon id="Fill-1_1_" class="st0" points="-149,-227.4 -172.5,-213.9 -172.5,-194.1 -178.3,-197.5 -178.3,-217.3 
					-154.8,-230.8 				"/>
				<polygon id="Fill-2" class="st0" points="-142.9,-204.2 -119.4,-190.8 -119.4,-210.6 -142.9,-224.1 -166.4,-210.6 
					-166.4,-190.8 -160.5,-194.1 -160.5,-207.2 -142.9,-217.3 				"/>
			</g>
		</g>
	</g>
</g>
</svg>
