<?xml version="1.0" encoding="utf-8"?>
<!-- Generator: Adobe Illustrator 19.0.0, SVG Export Plug-In . SVG Version: 6.00 Build 0)  -->
<svg version="1.1" id="图层_1" xmlns="http://www.w3.org/2000/svg" xmlns:xlink="http://www.w3.org/1999/xlink" x="0px" y="0px"
	 viewBox="0 0 44.3 44.3" style="enable-background:new 0 0 44.3 44.3;" xml:space="preserve">
<style type="text/css">
	.st0{fill:#F5BB1D;stroke:#273238;stroke-width:0.6;}
</style>
<g>
	<rect x="16.7" y="19.4" class="st0" width="19.1" height="5.5"/>
	<rect x="8.5" y="27.6" class="st0" width="5.4" height="5.5"/>
	<rect x="8.5" y="19.4" class="st0" width="5.4" height="5.5"/>
	<rect x="8.5" y="11.2" class="st0" width="5.4" height="5.5"/>
	<rect x="16.7" y="27.6" class="st0" width="19.1" height="5.5"/>
	<rect x="16.7" y="11.2" class="st0" width="19.1" height="5.5"/>
	<path class="st0" d="M22.2,44c-12,0-21.9-9.8-21.9-21.9c0-12,9.8-21.9,21.9-21.9c12,0,21.9,9.8,21.9,21.9C44,34.2,34.2,44,22.2,44
		L22.2,44z M22.2,2.8c-10.7,0-19.4,8.7-19.4,19.4c0,10.7,8.7,19.4,19.4,19.4c10.7,0,19.4-8.7,19.4-19.4C41.6,11.5,32.8,2.8,22.2,2.8
		L22.2,2.8z M22.2,2.8"/>
</g>
</svg>
