<?xml version="1.0" encoding="UTF-8"?>
<svg width="71px" height="75px" viewBox="0 0 71 75" version="1.1" xmlns="http://www.w3.org/2000/svg" xmlns:xlink="http://www.w3.org/1999/xlink">
    <!-- Generator: Sketch 48.2 (47327) - http://www.bohemiancoding.com/sketch -->
    <title>Page 1</title>
    <desc>Created with Sketch.</desc>
    <defs></defs>
    <g id="bee-v3/03-product" stroke="none" stroke-width="1" fill="none" fill-rule="evenodd" transform="translate(-267.000000, -799.000000)">
        <g id="Page-1" transform="translate(268.000000, 800.000000)">
            <g id="Group-7" transform="translate(0.000000, 38.000000)">
                <polygon id="Fill-1" fill="#FFFFFF" points="6.2712748 22 18.7816247 22 25 11.0147776 18.8429575 0 6.25824159 0 0 11.0147776"></polygon>
                <polygon id="Stroke-2" stroke="#36464F" points="6.2712748 22 18.7816247 22 25 11.0147776 18.8429575 0 6.25824159 0 0 11.0147776"></polygon>
            </g>
            <g id="Group-8" transform="translate(22.000000, 51.000000)">
                <polygon id="Fill-4" fill="#FFFFFF" points="6.25824159 0 0 11.0147776 6.2712748 22 18.7816247 22 25 11.0147776 18.8429575 0"></polygon>
                <polygon id="Stroke-5" stroke="#36464F" points="6.2712748 22 18.7816247 22 25 11.0147776 18.8429575 0 6.25824159 0 0 11.0147776"></polygon>
            </g>
            <g id="Group-6" transform="translate(0.000000, 13.000000)">
                <polygon id="Fill-7" fill="#FFFFFF" points="6.25824159 0 0 11.0147776 6.2712748 22 18.7816247 22 25 11.0147776 18.8421908 0"></polygon>
                <polygon id="Stroke-8" stroke="#36464F" points="6.2712748 22 18.7816247 22 25 11.0147776 18.8429575 0 6.25824159 0 0 11.0147776"></polygon>
            </g>
            <g id="Group" transform="translate(22.000000, 25.000000)">
                <polygon id="Fill-10" stroke="#FFC107" fill="#FFFFFF" points="6.2712748 22 18.7816247 22 25 11.0147776 18.8429575 0 6.25824159 0 0 11.0147776"></polygon>
                <polygon id="Stroke-11" stroke="#36464F" points="6.2712748 22 18.7816247 22 25 11.0147776 18.8429575 0 6.25824159 0 0 11.0147776"></polygon>
            </g>
            <polygon id="Stroke-16" stroke="#36464F" fill="#FFFFFF" points="50.2712748 35 62.7816247 35 69 24.0147776 62.8429575 13 50.2582416 13 44 24.0147776"></polygon>
            <polygon id="Fill-12" fill="#FFFFFF" points="50.2582416 38 44 49.0143882 50.2712748 60 62.7816247 60 69 49.0143882 62.8429575 38"></polygon>
            <polygon id="Stroke-13" stroke="#36464F" points="50.2712748 60 62.7816247 60 69 49.0147776 62.8429575 38 50.2582416 38 44 49.0147776"></polygon>
            <g id="Group-2" transform="translate(22.000000, 0.000000)">
                <polygon id="Fill-18" fill="#FFFFFF" points="6.25824159 0 0 11.0147776 6.2712748 22 18.7816247 22 25 11.0147776 18.8429575 0"></polygon>
                <polygon id="Stroke-19" stroke="#36464F" points="6.2712748 22 18.7816247 22 25 11.0147776 18.8429575 0 6.25824159 0 0 11.0147776"></polygon>
            </g>
        </g>
    </g>
</svg>