<?xml version="1.0" encoding="utf-8"?>
<!-- Generator: Adobe Illustrator 19.0.0, SVG Export Plug-In . SVG Version: 6.00 Build 0)  -->
<svg version="1.1" id="图层_1" xmlns="http://www.w3.org/2000/svg" xmlns:xlink="http://www.w3.org/1999/xlink" x="0px" y="0px"
	 viewBox="0 0 34.3 34.6" style="enable-background:new 0 0 34.3 34.6;" xml:space="preserve">
<style type="text/css">
	.st0{fill:#fff;stroke:#273238;stroke-width:0.6;}
</style>
<path class="st0" d="M6.4,15.3c-0.2,0.3-0.2,0.6,0,0.9c0.4,1,2.6,1.6,3.4,1.2C9.9,17.2,10,17,10,16.7c-0.9-0.1-1.4-0.4-2.3-0.7
	C7.3,15.8,6.8,15.5,6.4,15.3L6.4,15.3z M18.6,1.7c1.1-0.2,1.8-0.6,2.4-0.9c1-0.5,1.6-0.8,2.3-0.1c0.2,0.2,0.4,0.6,0.6,1
	C23.9,2,24,2.1,24,2.3c1.1,0.1,2.2,0.7,2.6,1.7c0.2,0.5,0.3,1,0.2,1.7c0.3,0.1,0.5,0.2,0.7,0.4c0.9,0.6,1.3,1.5,1.1,2.5
	c0,0.2-0.1,0.3-0.1,0.5c1.1,0.7,1.5,2.4,1,3.6c1,0.6,1.3,1.7,1.1,2.7c-0.2,1-0.7,2.1-1.7,2.9c-0.1,0.1-0.2,0.2-0.3,0.3
	c0.4,0.8,0.9,1.5,1.5,2.2c0.3-0.1,0.6,0,0.8,0.3l1,1.4c0.2-0.1,0.5,0,0.6,0.2l1.2,1.5c0.1,0.1,0.1,0.2,0.1,0.4v9.3
	c0,0.3-0.2,0.5-0.5,0.5h-9.7c-0.2,0-0.3-0.1-0.4-0.2l-2-3c-0.1-0.2-0.1-0.5,0-0.6l-1-1.4c-0.2-0.3-0.2-0.6,0-0.9
	c-0.9-1.3-1.4-2.3-2.9-3c-1,0.2-1.8,0.5-2.6,1.5L13.8,28c0.2,0.3,0.2,0.7,0,0.9l-1,1.4c0.2,0.2,0.2,0.4,0,0.6l-2,3.1
	c-0.1,0.2-0.3,0.2-0.4,0.2H0.8c-0.3,0-0.5-0.2-0.5-0.5v-9.3c0-0.1,0.1-0.3,0.1-0.4l1.2-1.5c0.1-0.2,0.4-0.2,0.6-0.2l1-1.4
	c0.2-0.3,0.5-0.4,0.8-0.3c0.7-0.8,1.4-1.7,2-2.6c-0.9-0.6-1.4-1.5-1.4-2.4c0-0.5,0.2-1,0.5-1.5c-0.8-1-1.1-2.3-0.6-3.5
	c0.2-0.4,0.4-0.7,0.8-1C5,8.2,5.8,6.9,7.3,6.4C7.4,5,8.5,4.1,9.7,3.7c0.6-0.2,1.2-0.3,2-0.3C11.9,3,12.4,2.7,13,2.5
	c1.5-0.5,1.7-0.5,2.3-0.7c0.1,0,0.3-0.1,0.7-0.2C17,1.4,17.9,1.5,18.6,1.7L18.6,1.7z M22.4,2.4c0-0.1,0-0.1,0-0.1
	c-0.1-0.2-0.1-0.4-0.2-0.4C22.1,1.8,22,2,21.7,2.2c-0.4,0.2-0.8,0.4-1.4,0.7c0.1,0.1,0.1,0.1,0.2,0.2c0.3-0.1,0.6-0.2,0.9-0.4
	C21.8,2.6,22.1,2.5,22.4,2.4L22.4,2.4z M19,3.8c-0.2-0.2-0.5-0.4-0.7-0.5c-0.5-0.2-1.1-0.3-1.9-0.1c-0.2,0-0.5,0.1-0.7,0.2
	c-0.6,0.1-0.8,0.2-2.2,0.6c-0.4,0.1-0.8,0.4-0.7,0.8c0,0.5,0.5,1.1,0.9,1.3c0.2,0.1,0.5,0.1,0.9,0c0.5-0.1,1.1-0.4,1.7-0.7
	C17.1,4.8,18,4.3,19,3.8L19,3.8z M14.7,7.7c-0.6,0.1-1.1,0.1-1.6-0.1c-0.6-0.2-1.1-0.7-1.5-1.3c-0.3-0.4-0.4-0.9-0.4-1.4
	C10.6,5,10.1,5.2,9.7,5.4C9,5.8,8.7,6.4,9,7.2c0.4,1.1,1.9,2.1,3.4,2.7c0.5,0.2,1.3,0.5,1.7,0.6C15.3,10.5,15.7,8.9,14.7,7.7
	L14.7,7.7z M19.8,24.6c0.7,0.6,1.3,1.7,1.9,2.5l7.2-5.4c-0.5-0.7-1-1.3-1.4-2.1c-0.3,0.2-0.5,0.4-0.7,0.5l-4.9,3.4
	C21.2,24.1,20.5,24.4,19.8,24.6L19.8,24.6z M30.2,22.6l-8,6.1l0.5,0.7l8.1-6.1L30.2,22.6z M7.5,18.8c-0.6,1-1.4,1.9-2.1,2.8l7.2,5.4
	l1.2-1.5c1.3-1.7,2.7-1.9,4.2-2.2c1-0.2,2-0.4,3.1-1.1l4.9-3.4c0.7-0.5,1.4-1.2,2.1-1.7c0.7-0.6,1.1-1.3,1.2-1.9
	c0.1-0.7-0.1-1.2-0.8-1.3c-0.7-0.1-0.9-0.9-0.4-1.4c0.6-0.6,0.3-2.1-0.3-2.2c-0.2,0-0.3,0-0.5-0.1c-0.4-0.2-0.5-0.7-0.2-1.1
	c0.2-0.2,0.3-0.5,0.3-0.7c0.1-0.4-0.1-0.7-0.5-1c-0.2-0.2-0.5-0.3-0.9-0.3C25.3,7,25,6.4,25.2,6c0.2-0.6,0.2-1,0-1.3
	c-0.1-0.3-0.4-0.6-0.8-0.7c-0.8-0.3-1.6,0-2.3,0.2c-2.2,0.8-4,1.8-5.7,3.1l-0.1,0.1c0.4,0.7,0.6,1.6,0.5,2.4c-0.1,0.7-0.5,1.3-1,1.8
	c0.3,1.4-0.4,2.6-1.7,3c-0.2,1.2-1.2,2-2.4,2.2c-0.1,1.3-0.9,2.1-2.1,2.3C8.9,19.1,8.2,19,7.5,18.8L7.5,18.8z M14.2,12.5
	c0.1-0.1,0.1-0.3,0.1-0.5c-0.8,0-1.7-0.3-2.5-0.7C10,10.6,8.3,9.4,7.6,7.9c-0.8,0.3-0.9,1-0.5,1.7C8.4,12,13.3,14.1,14.2,12.5
	L14.2,12.5z M12.3,14.6c-2.2-0.3-4.8-1.8-6.2-3.5C5.9,11.5,5.9,12,6,12.4c0.3,1,1.4,1.7,2.4,2.1c0.8,0.3,1.2,0.6,2.3,0.6
	C11.3,15.2,12,15.1,12.3,14.6L12.3,14.6z M12.1,28.7l-7.7-5.8l-0.6,0.7l7.7,5.9L12.1,28.7z M12.1,28.7"/>
</svg>
