<?xml version="1.0" encoding="UTF-8"?>
<svg width="102px" height="70px" viewBox="0 0 102 70" version="1.1" xmlns="http://www.w3.org/2000/svg" xmlns:xlink="http://www.w3.org/1999/xlink">
    <!-- Generator: Sketch 48.2 (47327) - http://www.bohemiancoding.com/sketch -->
    <title>Page 1</title>
    <desc>Created with Sketch.</desc>
    <defs></defs>
    <g id="bee-v3/03-product" stroke="none" stroke-width="1" fill="none" fill-rule="evenodd" transform="translate(-530.000000, -801.000000)">
        <g id="Page-1" transform="translate(531.000000, 801.000000)">
            <polygon id="Fill-1" fill="#FFC107" points="78.9067483 18.3110428 75.415597 20 72 18.1620975 72.0932517 13.8283372 75.5871256 12 79 13.9772824"></polygon>
            <polygon id="Stroke-2" stroke="#263138" points="78.9067483 18.3110428 75.415597 20 72 18.1620975 72.0932517 13.8283372 75.5871256 12 79 13.9772824"></polygon>
            <polygon id="Fill-3" fill="#FFC107" points="78.9097921 12 75.8352045 9.98346582 73.8014254 11.2469528 72 9.98420774 72.0615054 6.87779544 75.0704872 5 79 7.45797562"></polygon>
            <polygon id="Stroke-4" stroke="#263138" points="78.9097921 12 75.8352045 9.98346582 73.8014254 11.2469528 72 9.98420774 72.0615054 6.87779544 75.0704872 5 79 7.45797562"></polygon>
            <polygon id="Fill-5" fill="#ECEFF1" points="79.7373461 32.8213359 75.3030096 35 71 32.6266226 71.2626539 20 75.6162791 22.4519707 80 20.1947132"></polygon>
            <polygon id="Stroke-6" stroke="#263138" points="79.7373461 32.8213359 75.3030096 35 71 32.6266226 71.2626539 20 75.6162791 22.4519707 80 20.1947132"></polygon>
            <polygon id="Fill-7" fill="#ECEFF1" points="93.8979649 21.6428383 88.4833453 22.887314 88.0204706 22.3781143 87.1899992 23 86.0649098 22.1330223 85.2607918 22.4422044 84.0383973 21.294216 83.7863503 21.5477595 79.851578 18.0016727 77 15.7141474 77.4243581 15 89.8408856 18.1439387 94 20.3117352"></polygon>
            <polygon id="Stroke-8" stroke="#263138" points="93.8979649 21.6428383 88.4833453 22.887314 88.0204706 22.3781143 87.1899992 23 86.0649098 22.1330223 85.2607918 22.4422044 84.0383973 21.294216 83.7863503 21.5477595 79.851578 18.0016727 77 15.7141474 77.4243581 15 89.8408856 18.1439387 94 20.3117352"></polygon>
            <polygon id="Fill-9" fill="#ECEFF1" points="57.0495751 20.4650382 62.6650142 21.842066 63.1720963 21.3898005 64.0148725 22 65.23017 21.2442663 66.0587819 21.56405 67.3888102 20.5518367 67.6416431 20.7972217 71.9150142 17.677699 75 15.6787246 74.5864023 15 61.4490085 17.3944621 57 19.2283237"></polygon>
            <polygon id="Stroke-10" stroke="#263138" points="57.0495751 20.4650382 62.6650142 21.842066 63.1720963 21.3898005 64.0148725 22 65.23017 21.2442663 66.0587819 21.56405 67.3888102 20.5518367 67.6416431 20.7972217 71.9150142 17.677699 75 15.6787246 74.5864023 15 61.4490085 17.3944621 57 19.2283237"></polygon>
            <polygon id="Fill-11" fill="#ECEFF1" points="86.3123146 13.9215824 78.0124976 15.0348523 78 15.6258388 87.3343432 17.4534802 91.6619958 17.61332 95.30089 19 99.9736161 14.6149224 100 13.372659 96.2854257 12.0799199 92.6076501 12"></polygon>
            <polygon id="Stroke-12" stroke="#263138" points="78 15.6258388 87.3350376 17.4534802 91.6619958 17.61332 95.30089 19 99.9736161 14.6149224 100 13.372659 96.2854257 12.0799199 92.6076501 12 86.3123146 13.9215824 78.0124976 15.0341512"></polygon>
            <polygon id="Fill-14" fill="#ECEFF1" points="73.987458 15.3642411 64.5503262 16.79359 60.2045354 16.7653699 56.4969912 18 52 13.3874219 52.0264775 12.1365652 55.8057896 11 59.4966111 11.0804273 65.7264838 13.2872405 74 14.7687966"></polygon>
            <polygon id="Stroke-15" stroke="#263138" points="73.987458 15.3642411 64.5503262 16.79359 60.2045354 16.7653699 56.4969912 18 52 13.3874219 52.0264775 12.1365652 55.8057896 11 59.4966111 11.0804273 65.7264838 13.2872405 74 14.7687966"></polygon>
            <polygon id="Fill-16" fill="#FFC107" points="79.9544357 33.0708464 75.4099229 35 71 32.8984326 71.0462653 31 75.5073604 33.1717868 80 31.1724138"></polygon>
            <polygon id="Fill-17" fill="#FFC107" points="79.9544357 29.0708464 75.4099229 31 71 28.8984326 71.0462653 27 75.5073604 29.1717868 80 27.1724138"></polygon>
            <polygon id="Fill-18" fill="#FFC107" points="79.9544357 24.0708464 75.4099229 26 71 23.8984326 71.0462653 22 75.5073604 24.1717868 80 22.1724138"></polygon>
            <polygon id="Fill-19" fill="#FFC107" points="80.9844841 2.43671766 81 1.77746871 79.5740884 1 77 4.71557719 77.5275407 5 79.7307991 1.82545202"></polygon>
            <polygon id="Fill-20" fill="#FFC107" points="72.1455201 0 71.0120265 0.708532423 71 1.35494881 71.9939868 0.803412969 73.5820806 4 74 3.74129693 73.7793145 3.29556314"></polygon>
            <polygon id="Stroke-21" stroke="#263138" points="79.7373461 32.8213359 75.3030096 35 71 32.6266226 71.2626539 20 75.6162791 22.4519707 80 20.1947132"></polygon>
            <polygon id="Fill-22" fill="#FFC107" points="81 11.693904 86.7678345 8.77431907 86.4706627 7.89688716 84.2526805 9.06095979 84.7261292 8.06614786 86.7523005 7 89 8.6536965 81.6848459 12"></polygon>
            <polygon id="Fill-23" fill="#FFC107" points="69 25.4747744 65.1269625 32.5550896 65.3631399 33.3169399 66.8156997 31.1516076 66.8518771 33.175753 65.7030717 35 63 35 69 24"></polygon>
            <polygon id="Fill-24" fill="#FFC107" points="81 25.4747744 84.8233714 32.4369678 84.5332438 33.2107002 83.2337139 31.1516076 83.2048355 33.175753 84.340497 35 87 35 81 24"></polygon>
            <polygon id="Fill-25" fill="#FFC107" points="71 11.693904 65.3695289 8.82360571 65.4731039 7.89948119 67.781156 9.08819715 67.2646174 8.06614786 65.2358837 7 63 8.6536965 70.2796525 12"></polygon>
            <polygon id="Fill-26" fill="#FFC107" points="26.9067483 18.3110428 23.415597 20 20 18.1620975 20.0932517 13.8283372 23.5871256 12 27 13.9772824"></polygon>
            <polygon id="Stroke-27" stroke="#263138" points="26.9067483 18.3110428 23.415597 20 20 18.1620975 20.0932517 13.8283372 23.5871256 12 27 13.9772824"></polygon>
            <polygon id="Fill-28" fill="#FFC107" points="27.9097921 12 24.8352045 9.98346582 22.8014254 11.2469528 21 9.98420774 21.0615054 6.87779544 24.0704872 5 28 7.45797562"></polygon>
            <polygon id="Stroke-29" stroke="#263138" points="27.9097921 12 24.8352045 9.98346582 22.8014254 11.2469528 21 9.98420774 21.0615054 6.87779544 24.0704872 5 28 7.45797562"></polygon>
            <polygon id="Fill-30" fill="#ECEFF1" points="27.7373461 32.8213359 23.3030096 35 19 32.6266226 19.2626539 20 23.6162791 22.4519707 28 20.1947132"></polygon>
            <polygon id="Stroke-31" stroke="#263138" points="27.7373461 32.8213359 23.3030096 35 19 32.6266226 19.2626539 20 23.6162791 22.4519707 28 20.1947132"></polygon>
            <polygon id="Fill-32" fill="#ECEFF1" points="42.8979649 21.6428383 37.4833453 22.887314 37.0204706 22.3781143 36.1899992 23 35.0649098 22.1330223 34.2607918 22.4422044 33.0383973 21.294216 32.7863503 21.5477595 28.851578 18.0016727 26 15.7141474 26.4243581 15 38.8408856 18.1439387 43 20.3117352"></polygon>
            <polygon id="Stroke-33" stroke="#263138" points="42.8979649 21.6428383 37.4833453 22.887314 37.0204706 22.3781143 36.1899992 23 35.0649098 22.1330223 34.2607918 22.4422044 33.0383973 21.294216 32.7863503 21.5477595 28.851578 18.0016727 26 15.7141474 26.4243581 15 38.8408856 18.1439387 43 20.3117352"></polygon>
            <polygon id="Fill-34" fill="#ECEFF1" points="5.04957507 20.4650382 10.6650142 21.842066 11.1720963 21.3898005 12.0148725 22 13.23017 21.2442663 14.0587819 21.56405 15.3888102 20.5518367 15.6416431 20.7972217 19.9150142 17.677699 23 15.6787246 22.5864023 15 9.4490085 17.3944621 5 19.2283237"></polygon>
            <polygon id="Stroke-35" stroke="#263138" points="5.04957507 20.4650382 10.6650142 21.842066 11.1720963 21.3898005 12.0148725 22 13.23017 21.2442663 14.0587819 21.56405 15.3888102 20.5518367 15.6416431 20.7972217 19.9150142 17.677699 23 15.6787246 22.5864023 15 9.4490085 17.3944621 5 19.2283237"></polygon>
            <polygon id="Fill-36" fill="#ECEFF1" points="26 15.6258388 35.3350376 17.4534802 39.6619958 17.61332 43.30089 19 47.9736161 14.6149224 48 13.372659 44.2854257 12.0799199 40.6076501 12 34.3123146 13.9215824 26.0124976 15.0341512"></polygon>
            <polygon id="Stroke-37" stroke="#263138" points="26 15.6258388 35.3350376 17.4534802 39.6619958 17.61332 43.30089 19 47.9736161 14.6149224 48 13.372659 44.2854257 12.0799199 40.6076501 12 34.3123146 13.9215824 26.0124976 15.0341512"></polygon>
            <polygon id="Fill-38" fill="#ECEFF1" points="0.0271733967 12.1365652 0 13.3874219 4.49754553 18 8.20497229 16.7653699 12.5506255 16.79359 21.9874584 15.3642411 22 14.7687966 13.7267458 13.2872405 7.49707047 11.0797218 3.8063658 11"></polygon>
            <polygon id="Stroke-39" stroke="#263138" points="21.987458 15.3642411 12.5503262 16.79359 8.20453538 16.7653699 4.4969912 18 0 13.3874219 0.0264774815 12.1365652 3.80578957 11 7.49661114 11.0804273 13.7264838 13.2872405 22 14.7687966"></polygon>
            <polygon id="Fill-41" fill="#FFC107" points="27.9544357 33.0708464 23.4099229 35 19 32.8984326 19.0462653 31 23.5073604 33.1717868 28 31.1724138"></polygon>
            <polygon id="Fill-42" fill="#FFC107" points="27.9544357 29.0708464 23.4099229 31 19 28.8984326 19.0462653 27 23.5073604 29.1717868 28 27.1724138"></polygon>
            <polygon id="Fill-43" fill="#FFC107" points="27.9544357 24.0708464 23.4099229 26 19 23.8984326 19.0462653 22 23.5073604 24.1717868 28 22.1724138"></polygon>
            <polygon id="Fill-44" fill="#FFC107" points="28.9844841 2.43671766 29 1.77746871 27.5740884 1 25 4.71557719 25.5275407 5 27.7300233 1.82545202"></polygon>
            <polygon id="Fill-45" fill="#FFC107" points="20.1449188 0 19.0114251 0.708532423 19 1.35494881 19.9933854 0.803412969 21.5814793 4 22 3.74129693 21.7793145 3.29556314"></polygon>
            <polygon id="Stroke-46" stroke="#263138" points="27.7373461 32.8213359 23.3030096 35 19 32.6266226 19.2626539 20 23.6162791 22.4519707 28 20.1947132"></polygon>
            <polygon id="Fill-47" fill="#FFC107" points="29 11.693904 34.7678345 8.77431907 34.4706627 7.89688716 32.2526805 9.06095979 32.7261292 8.06614786 34.7523005 7 37 8.6536965 29.6848459 12"></polygon>
            <polygon id="Fill-48" fill="#FFC107" points="18 25.4747744 14.1269625 32.5550896 14.3631399 33.3169399 15.8156997 31.1516076 15.8518771 33.175753 14.7030717 35 12 35 18 24"></polygon>
            <polygon id="Fill-49" fill="#FFC107" points="29 25.4747744 32.8233714 32.4369678 32.5332438 33.2107002 31.2337139 31.1516076 31.2048355 33.175753 32.340497 35 35 35 29 24"></polygon>
            <polygon id="Fill-50" fill="#FFC107" points="19 11.693904 13.3695289 8.82360571 13.4731039 7.89948119 15.781156 9.08819715 15.2646174 8.06614786 13.2358837 7 11 8.6536965 18.2796525 12"></polygon>
            <polygon id="Fill-51" fill="#FFC107" points="52.9067483 52.3110428 49.415597 54 46 52.1620975 46.0932517 47.8283372 49.5871256 46 53 47.9772824"></polygon>
            <polygon id="Stroke-52" stroke="#263138" points="52.9067483 52.3110428 49.415597 54 46 52.1620975 46.0932517 47.8283372 49.5871256 46 53 47.9772824"></polygon>
            <polygon id="Fill-53" fill="#FFC107" points="52.9097921 46 49.8352045 43.9834658 47.8014254 45.2469528 46 43.9842077 46.0615054 40.8777954 49.0704872 39 53 41.4579756"></polygon>
            <polygon id="Stroke-54" stroke="#263138" points="52.9097921 46 49.8352045 43.9834658 47.8014254 45.2469528 46 43.9842077 46.0615054 40.8777954 49.0704872 39 53 41.4579756"></polygon>
            <polygon id="Fill-55" fill="#ECEFF1" points="45 66.6266226 49.3033366 69 53.7380102 66.8213359 54 54.1940052 49.6159459 56.4519707 45.2619898 54"></polygon>
            <polygon id="Stroke-56" stroke="#263138" points="53.7373461 66.8213359 49.3030096 69 45 66.6266226 45.2626539 54 49.6162791 56.4519707 54 54.1947132"></polygon>
            <polygon id="Fill-58" fill="#ECEFF1" points="66.8979649 55.6428383 61.4833453 56.887314 61.0204706 56.3781143 60.1899992 57 59.0649098 56.1330223 58.2607918 56.4422044 57.0383973 55.294216 56.7863503 55.5477595 52.851578 52.0016727 50 49.7141474 50.4243581 49 62.8408856 52.1439387 67 54.3117352"></polygon>
            <polygon id="Stroke-59" stroke="#263138" points="66.8979649 55.6428383 61.4833453 56.887314 61.0204706 56.3781143 60.1899992 57 59.0649098 56.1330223 58.2607918 56.4422044 57.0383973 55.294216 56.7863503 55.5477595 52.851578 52.0016727 50 49.7141474 50.4243581 49 62.8408856 52.1439387 67 54.3117352"></polygon>
            <polygon id="Fill-60" fill="#ECEFF1" points="31.0495751 54.4650382 36.6650142 55.842066 37.1720963 55.3898005 38.0148725 56 39.23017 55.2442663 40.0587819 55.56405 41.3888102 54.5518367 41.6416431 54.7972217 45.9150142 51.677699 49 49.6787246 48.5864023 49 35.4490085 51.3944621 31 53.2283237"></polygon>
            <polygon id="Stroke-61" stroke="#263138" points="31.0495751 54.4650382 36.6650142 55.842066 37.1720963 55.3898005 38.0148725 56 39.23017 55.2442663 40.0587819 55.56405 41.3888102 54.5518367 41.6416431 54.7972217 45.9150142 51.677699 49 49.6787246 48.5864023 49 35.4490085 51.3944621 31 53.2283237"></polygon>
            <polygon id="Fill-62" fill="#ECEFF1" points="51 48.6258388 60.3350376 50.4534802 64.6619958 50.61332 68.30089 52 72.9736161 47.6149224 73 46.372659 69.2854257 45.0799199 65.6076501 45 59.3123146 46.9215824 51.0124976 48.0341512"></polygon>
            <polygon id="Stroke-63" stroke="#263138" points="51 48.6258388 60.3350376 50.4534802 64.6619958 50.61332 68.30089 52 72.9736161 47.6149224 73 46.372659 69.2854257 45.0799199 65.6076501 45 59.3123146 46.9215824 51.0124976 48.0341512"></polygon>
            <polygon id="Fill-64" fill="#ECEFF1" points="47.987458 49.3642411 38.5503262 50.79359 34.2045354 50.7653699 30.4969912 52 26 47.3874219 26.0264775 46.1365652 29.8057896 45 33.4966111 45.0804273 39.7264838 47.2872405 48 48.7687966"></polygon>
            <polygon id="Stroke-65" stroke="#263138" points="47.987458 49.3642411 38.5503262 50.79359 34.2045354 50.7653699 30.4969912 52 26 47.3874219 26.0264775 46.1365652 29.8057896 45 33.4966111 45.0804273 39.7264838 47.2872405 48 48.7687966"></polygon>
            <polygon id="Fill-66" fill="#FFC107" points="45 65.8987619 49.4099229 68 53.9544357 66.0711487 54 64.1730136 49.5080614 66.1720733 45.0462653 64"></polygon>
            <polygon id="Fill-67" fill="#FFC107" points="53.9544357 63.0708464 49.4099229 65 45 62.8984326 45.0462653 61 49.5073604 63.1717868 54 61.1724138"></polygon>
            <polygon id="Fill-68" fill="#FFC107" points="53.9544357 58.0708464 49.4099229 60 45 57.8984326 45.0462653 56 49.5073604 58.1717868 54 56.1724138"></polygon>
            <polygon id="Fill-69" fill="#FFC107" points="53.9844841 36.4367177 54 35.7774687 52.5740884 35 50 38.7155772 50.5275407 39 52.7307991 35.825452"></polygon>
            <polygon id="Fill-70" fill="#FFC107" points="45 36.3556314 45.012024 35.7085324 46.1452906 35 47.7787575 38.2955631 48 38.7412969 47.5815631 39 45.9937876 35.803413"></polygon>
            <polygon id="Stroke-71" stroke="#263138" points="53.7373461 66.8213359 49.3030096 69 45 66.6266226 45.2626539 54 49.6162791 56.4519707 54 54.1947132"></polygon>
            <polygon id="Fill-73" fill="#FFC107" points="54 45.693904 59.7678345 42.7743191 59.4706627 41.8968872 57.2526805 43.0609598 57.7261292 42.0661479 59.7523005 41 62 42.6536965 54.6848459 46"></polygon>
            <polygon id="Fill-74" fill="#FFC107" points="37 69 39.7033792 69 40.8516327 67.175054 40.8161338 65.1516076 39.3634088 67.3169399 39.1272045 66.5543906 43 59.4740755 43 58"></polygon>
            <polygon id="Fill-75" fill="#FFC107" points="54 59.4746807 57.8233714 66.4364318 57.5332438 67.2094161 56.2337139 65.1518521 56.2048355 67.17517 57.340497 69 60 69 54 58"></polygon>
            <polygon id="Fill-76" fill="#FFC107" points="45 44.693904 39.3695289 41.8236057 39.4731039 40.8994812 41.781156 42.0881971 41.2646174 41.0661479 39.2358837 40 37 41.6536965 44.2796525 45"></polygon>
        </g>
    </g>
</svg>