<?xml version="1.0" encoding="UTF-8"?>
<svg width="51px" height="36px" viewBox="0 0 51 36" version="1.1" xmlns="http://www.w3.org/2000/svg" xmlns:xlink="http://www.w3.org/1999/xlink">
    <!-- Generator: Sketch 48.2 (47327) - http://www.bohemiancoding.com/sketch -->
    <title>par-icon-3</title>
    <desc>Created with Sketch.</desc>
    <defs></defs>
    <g id="bee-v3/03-product" stroke="none" stroke-width="1" fill="none" fill-rule="evenodd" transform="translate(-735.000000, -1754.000000)">
        <g id="par-icon-3" transform="translate(736.000000, 1755.000000)" fill="#fff" stroke="#263238" stroke-width="0.6">
            <path d="M43.3051429,3.82169714 C37.8622857,-0.530788571 30.5751429,-0.830474286 24.9265714,2.48355429 C25.5946667,2.87746857 26.2451429,3.32044 26.8694286,3.81975429 C34.028,9.54389714 35.2813333,20.1033257 29.6694286,27.4050686 C28.3246667,29.1541257 26.7060952,30.5539543 24.925619,31.5987257 C31.9127619,35.7146686 40.9827619,34.0710114 46.1051429,27.4070114 C51.7170476,20.1052686 50.4632381,9.54584 43.3051429,3.82169714" id="Fill-1"></path>
            <path d="M24.9267143,2.48350571 C17.9390952,-1.63195143 8.86909524,0.01122 3.74719048,6.67570571 C-1.86471429,13.9769629 -0.611380952,24.5363914 6.54671429,30.2605343 C11.9900476,34.61302 19.2776667,34.9127057 24.9257619,31.5986771 C24.2576667,31.2052486 23.6071905,30.7622771 22.9824286,30.2629629 C15.8243333,24.5383343 14.571,13.9789057 20.1829048,6.67764857 C21.5276667,4.92762 23.1467143,3.52827714 24.9267143,2.48350571 Z" id="Fill-5"></path>
        </g>
    </g>
</svg>