<?xml version="1.0" encoding="UTF-8"?>
<svg width="34px" height="50px" viewBox="0 0 34 50" version="1.1" xmlns="http://www.w3.org/2000/svg" xmlns:xlink="http://www.w3.org/1999/xlink">
    <!-- Generator: Sketch 48.2 (47327) - http://www.bohemiancoding.com/sketch -->
    <title>par-icon-2</title>
    <desc>Created with Sketch.</desc>
    <defs></defs>
    <g id="bee-v3/03-product" stroke="none" stroke-width="1" fill="none" fill-rule="evenodd" transform="translate(-745.000000, -1672.000000)">
        <g id="par-icon-2" transform="translate(746.000000, 1673.000000)" fill="#fff">
            <path d="M17.4427765,36.2720317 C20.2550118,35.8262495 21.5237176,34.0992 21.5237176,32.2058139 C21.5237176,29.4774178 19.0418353,28.8087446 18.3246588,28.6414574 L17.4427765,28.3629624 L17.4427765,36.2720317 Z M14.1891294,11.8780515 C11.2658353,12.6569822 11.0456,14.6069228 11.0456,15.4424079 C11.0456,17.112903 12.3143059,18.5609822 14.1891294,19.0067644 L14.1891294,11.8780515 Z M10.1627765,30.7572594 C10.2178353,32.373101 10.4385412,35.2131802 14.1891294,36.1608238 L14.1891294,27.6386851 L10.7147765,26.6915168 C6.96418824,25.689695 0.842776471,24.0187248 0.842776471,16.4437545 C0.842776471,11.2098535 4.48277647,5.52826931 14.1891294,5.24929901 L14.1891294,0.237813861 L17.4427765,0.237813861 L17.4427765,5.24929901 C28.4168941,5.75068515 30.4578353,10.7079921 30.5128941,16.6671208 L20.4752471,16.6671208 C20.5307765,12.7681901 18.2696,12.0439129 17.4427765,11.9336554 L17.4427765,19.896903 C23.1783059,21.1781703 26.0456,21.8468436 28.6380706,24.0187248 C30.7331294,25.8013782 31.8366588,28.5302495 31.8366588,31.3703287 C31.8366588,33.7090218 31.0639529,38.4995168 25.4385412,41.2835168 C23.3990118,42.2862891 20.8620706,42.7881505 17.4427765,43.0110416 L17.4427765,47.9664475 L14.1891294,47.9664475 L14.1891294,43.0110416 C8.61877647,42.7881505 0.291717647,40.9494178 0.236658824,30.7572594 L10.1627765,30.7572594 Z" id="Fill-1"></path>
            <path d="M17.4427765,36.2720317 C20.2550118,35.8262495 21.5237176,34.0992 21.5237176,32.2058139 C21.5237176,29.4774178 19.0418353,28.8087446 18.3246588,28.6414574 L17.4427765,28.3629624 L17.4427765,36.2720317 Z M14.1891294,11.8780515 C11.2658353,12.6569822 11.0456,14.6069228 11.0456,15.4424079 C11.0456,17.112903 12.3143059,18.5609822 14.1891294,19.0067644 L14.1891294,11.8780515 Z M10.1627765,30.7572594 C10.2178353,32.373101 10.4385412,35.2131802 14.1891294,36.1608238 L14.1891294,27.6386851 L10.7147765,26.6915168 C6.96418824,25.689695 0.842776471,24.0187248 0.842776471,16.4437545 C0.842776471,11.2098535 4.48277647,5.52826931 14.1891294,5.24929901 L14.1891294,0.237813861 L17.4427765,0.237813861 L17.4427765,5.24929901 C28.4168941,5.75068515 30.4578353,10.7079921 30.5128941,16.6671208 L20.4752471,16.6671208 C20.5307765,12.7681901 18.2696,12.0439129 17.4427765,11.9336554 L17.4427765,19.896903 C23.1783059,21.1781703 26.0456,21.8468436 28.6380706,24.0187248 C30.7331294,25.8013782 31.8366588,28.5302495 31.8366588,31.3703287 C31.8366588,33.7090218 31.0639529,38.4995168 25.4385412,41.2835168 C23.3990118,42.2862891 20.8620706,42.7881505 17.4427765,43.0110416 L17.4427765,47.9664475 L14.1891294,47.9664475 L14.1891294,43.0110416 C8.61877647,42.7881505 0.291717647,40.9494178 0.236658824,30.7572594 L10.1627765,30.7572594 Z" id="Stroke-3" stroke="#263238" stroke-width="0.6"></path>
        </g>
    </g>
</svg>