<?xml version="1.0" encoding="UTF-8"?>
<svg width="50px" height="68px" viewBox="0 0 50 68" version="1.1" xmlns="http://www.w3.org/2000/svg" xmlns:xlink="http://www.w3.org/1999/xlink">
    <!-- Generator: Sketch 48.2 (47327) - http://www.bohemiancoding.com/sketch -->
    <title>icon-beenest-3</title>
    <desc>Created with Sketch.</desc>
    <defs></defs>
    <g id="bee-v3/03-product" stroke="none" stroke-width="1" fill="none" fill-rule="evenodd" transform="translate(-844.000000, -800.000000)">
        <g id="Group-7" transform="translate(783.000000, 800.000000)">
            <g id="icon-beenest-3" transform="translate(61.000000, 0.000000)">
                <polygon id="Fill-1" fill="#FFC107" points="25.0440845 10.9141432 0.365915493 0.544501053 1.77366197 56.1599116 24.8102817 67.6182695 48.0095775 56.1599116 49.4173239 0.544501053"></polygon>
                <polygon id="Fill-2" fill="#ECEFF1" points="25.0440845 58.2133684 1.5271831 46.4114316 1.77366197 56.1597684 24.8102817 67.6181263 48.0095775 56.1597684 48.2560563 46.4114316"></polygon>
                <polygon id="Fill-3" fill="#ECEFF1" points="48.4447183 39.0994274 24.8102113 50.5585011 1.33556338 39.0994274 1.10457746 29.6567326 25.0440141 41.4586695 48.675 29.6567326"></polygon>
                <polygon id="Fill-4" fill="#ECEFF1" points="25.148662 24.7034695 0.678943662 12.9015326 0.919788732 22.3449432 24.9148592 33.8033011 48.8620423 22.3449432 49.1042958 12.9015326"></polygon>
                <polygon id="Stroke-5" stroke="#263138" stroke-width="0.7" points="48.0090845 56.1595537 24.810493 67.6186274 1.77457746 56.1595537 0.366126761 0.544143158 25.0442958 10.9137853 49.4175352 0.544143158"></polygon>
            </g>
        </g>
    </g>
</svg>