<?xml version="1.0" encoding="UTF-8"?>
<svg width="71px" height="70px" viewBox="0 0 71 70" version="1.1" xmlns="http://www.w3.org/2000/svg" xmlns:xlink="http://www.w3.org/1999/xlink">
    <!-- Generator: Sketch 48.2 (47327) - http://www.bohemiancoding.com/sketch -->
    <title>icon-beenest-4</title>
    <desc>Created with Sketch.</desc>
    <defs></defs>
    <g id="bee-v3/03-product" stroke="none" stroke-width="1" fill="none" fill-rule="evenodd" transform="translate(-1101.000000, -800.000000)">
        <g id="icon-beenest-4" transform="translate(1101.000000, 800.000000)">
            <polygon id="Fill-1" fill="#ECEFF1" points="55.8557 12.8698969 53.9351141 20.6218557 41.7611242 23.9262887 52.1479222 34.3779381 67.4294172 29.8863918 70.3518919 17.9856701 63.2483061 10.8370103"></polygon>
            <polygon id="Stroke-2" stroke="#263138" stroke-width="0.72" points="41.7609808 23.926 53.9349707 20.621567 55.8555566 12.8703299 63.2474455 10.8367216 70.3524657 17.9861031 67.4292737 29.8868247 52.1477788 34.3776495"></polygon>
            <polygon id="Fill-4" fill="#ECEFF1" points="37.6009545 4.89747423 34.6777626 16.7989175 41.7820657 23.9468557 49.1746717 21.9139691 51.0945404 14.162732 63.2685303 10.8575773 52.8817323 0.405927835"></polygon>
            <polygon id="Stroke-5" stroke="#263138" stroke-width="0.72" points="63.2688172 10.8580825 51.0948273 14.1625155 49.1742414 21.9137526 41.7823525 23.9473608 34.6780495 16.798701 37.6005242 4.89725773 52.8820192 0.40643299"></polygon>
            <polygon id="Fill-7" fill="#ECEFF1" points="41.7609808 23.926 38.4770515 36.1767216 30.7739101 38.1085773 28.7529202 45.5473402 35.8572232 52.6952784 47.6848192 49.7545567 52.1477788 34.3776495"></polygon>
            <polygon id="Stroke-8" stroke="#263138" stroke-width="0.72" points="41.7609808 23.926 38.4770515 36.1767216 30.7739101 38.1085773 28.7529202 45.5473402 35.8572232 52.6952784 47.6848192 49.7545567 52.1477788 34.3776495"></polygon>
            <polygon id="Fill-9" fill="#ECEFF1" points="28.7741485 45.5684845 32.0580778 33.3177629 39.7612192 31.3859072 41.7822091 23.9471443 34.6779061 16.7992062 22.8503101 19.7399278 18.3873505 35.1168351"></polygon>
            <polygon id="Stroke-10" stroke="#263138" stroke-width="0.72" points="28.7741485 45.5684845 32.0580778 33.3177629 39.7612192 31.3859072 41.7822091 23.9471443 34.6779061 16.7992062 22.8503101 19.7399278 18.3873505 35.1168351"></polygon>
            <polygon id="Fill-11" fill="#ECEFF1" points="21.5743182 47.8180103 19.6537323 55.5699691 7.4804596 58.8744021 17.8665404 69.3253299 33.1480354 64.8352268 36.0705101 52.9330619 28.9669242 45.7851237"></polygon>
            <polygon id="Stroke-12" stroke="#263138" stroke-width="0.72" points="7.47995758 58.8738969 19.6539475 55.5701856 21.5745333 47.8182268 28.9664222 45.7846186 36.0707253 52.934 33.1482505 64.8354433 17.8667556 69.3255464"></polygon>
            <polygon id="Fill-14" fill="#ECEFF1" points="3.31957273 39.8455876 0.396380808 51.7470309 7.50068384 58.8949691 14.8932899 56.8620825 16.8131586 49.1108454 28.9878657 45.8056907 18.6010677 35.3540412"></polygon>
            <polygon id="Stroke-15" stroke="#263138" stroke-width="0.72" points="28.9877939 45.8059794 16.813804 49.1104124 14.8932182 56.8616495 7.50132929 58.8952577 0.396309091 51.7465979 3.31950101 39.8451546 18.600996 35.3543299"></polygon>
        </g>
    </g>
</svg>