<?xml version="1.0" encoding="utf-8"?>
<!-- Generator: Adobe Illustrator 19.0.0, SVG Export Plug-In . SVG Version: 6.00 Build 0)  -->
<svg version="1.1" id="图层_1" xmlns="http://www.w3.org/2000/svg" xmlns:xlink="http://www.w3.org/1999/xlink" x="0px" y="0px"
	 viewBox="0 0 51.4 33.1" style="enable-background:new 0 0 51.4 33.1;" xml:space="preserve">
<style type="text/css">
	.st0{fill:#fff;stroke:#273238;stroke-width:0.6;}
</style>
<path class="st0" d="M18.8,16.6c0,0.9,0.2,1.8,0.5,2.7c0.3,0.8,0.9,1.6,1.5,2.3c0.6,0.6,1.4,1.2,2.2,1.5c0.8,0.3,1.7,0.5,2.7,0.5
	c0.9,0,1.8-0.2,2.7-0.5c0.8-0.3,1.6-0.9,2.2-1.5c0.6-0.6,1.2-1.4,1.5-2.3c0.3-0.8,0.5-1.8,0.5-2.7c0-0.9-0.2-1.8-0.5-2.7
	c-0.3-0.8-0.9-1.6-1.5-2.3c-0.6-0.6-1.4-1.2-2.2-1.5c-0.8-0.3-1.7-0.5-2.7-0.5c-0.9,0-1.8,0.2-2.7,0.5c-0.8,0.3-1.6,0.9-2.2,1.5
	c-0.6,0.6-1.2,1.4-1.5,2.3C18.9,14.7,18.8,15.7,18.8,16.6L18.8,16.6z M50.6,14.9c0,0,0-0.7-6.1-6.4c-8.7-7.6-16.5-8.7-22.3-8
	C16.4,1.2,12,4.3,11.7,4.5c-2.7,1.5-10.5,9.2-11,10.2c-1.1,2.3,0.4,4.6,0.4,4.6S13.6,32.8,25,32.8s16.8-4.9,19.1-6.7
	c2.3-1.8,5.1-5.1,6.5-7C51.6,17,50.6,14.9,50.6,14.9L50.6,14.9z M25.7,28.3C19.3,28.3,14,23,14,16.6c0-6.5,5.2-11.7,11.6-11.7
	c6.4,0,11.6,5.2,11.6,11.7C37.3,23,32.1,28.3,25.7,28.3L25.7,28.3z M25.7,28.3"/>
</svg>
