<?xml version="1.0" encoding="utf-8"?>
<!-- Generator: Adobe Illustrator 19.0.0, SVG Export Plug-In . SVG Version: 6.00 Build 0)  -->
<svg version="1.1" id="图层_1" xmlns="http://www.w3.org/2000/svg" xmlns:xlink="http://www.w3.org/1999/xlink" x="0px" y="0px"
	 viewBox="0 0 39.6 33.8" style="enable-background:new 0 0 39.6 33.8;" xml:space="preserve">
<style type="text/css">
	.st0{fill:#fff;stroke:#273238;stroke-width:0.6;}
</style>
<g>
	<path class="st0" d="M1.6,20.8c0.8,0.8,1.7,1.4,2.7,1.9c1.7,0.9,3.5,1.4,5.3,1.9c2.8,0.7,5.6,1,8.4,1.1c2.7,0.1,5.3,0,8-0.4
		c2-0.3,4.1-0.7,6-1.3c1.7-0.5,3.4-1.2,4.8-2.2c0.8-0.5,1.5-1.2,2-2c0.5-0.8,0.6-1.7,0.2-2.7c-0.3-0.8-0.8-1.3-1.4-1.8
		c-0.1-0.1-0.3-0.2-0.4-0.3c-1,1.1-1.6,1.6-2.6,2.1c-1.6,0.9-3.4,1.5-5.1,2c-1.8,0.5-3.7,0.8-5.5,0.9c-1.4,0.1-2.8,0.2-4.2,0.2
		c-2.2,0-4.4-0.2-6.6-0.5c-2.1-0.3-4.1-0.8-6-1.6c-1.3-0.5-2.5-1.1-3.6-2c-0.4-0.3-0.8-0.7-1.2-1.1c-0.2,0.2-0.5,0.4-0.8,0.7
		c-0.6,0.6-1,1.2-1.2,2c0,0.1,0,0.2-0.1,0.3v0.4c0,0.1,0,0.2,0.1,0.3C0.5,19.6,1,20.2,1.6,20.8L1.6,20.8z M1.6,20.8"/>
	<path class="st0" d="M38,23.4c-0.3-0.3-0.5-0.5-0.8-0.7c-0.8,1-1.8,1.7-3,2.3c-1.5,0.8-3.1,1.3-4.7,1.7c-2.6,0.7-5.2,1-7.9,1.1
		c-3.2,0.1-6.4-0.1-9.5-0.6c-2.2-0.4-4.3-1-6.3-1.9c-1-0.5-1.9-1-2.7-1.7c-0.3-0.3-0.5-0.6-0.8-0.9c-0.3,0.2-0.5,0.4-0.8,0.7
		c-0.6,0.6-1,1.2-1.2,2c0,0.1,0,0.2-0.1,0.4v0.4c0,0,0,0.1,0,0.1c0.1,0.8,0.5,1.4,1,2c0.7,0.8,1.5,1.4,2.4,1.9
		c1.6,0.9,3.3,1.5,5.1,2c3.3,0.9,6.7,1.3,10.1,1.3c2.4,0,4.8-0.1,7.2-0.4c2-0.3,3.9-0.6,5.8-1.2c1.8-0.5,3.5-1.2,5-2.3
		c0.8-0.5,1.5-1.2,2-2c0.4-0.7,0.6-1.4,0.4-2.2C39,24.6,38.6,24,38,23.4L38,23.4z M38,23.4"/>
	<path class="st0" d="M3.2,13.9c1.2,0.9,2.6,1.5,4,2c2.9,1,6,1.5,9,1.7c1.1,0.1,2.3,0.1,3.4,0.2c1.9,0,3.8-0.1,5.7-0.3
		c1.8-0.2,3.6-0.5,5.3-1c1.9-0.5,3.7-1.2,5.4-2.3c1-0.6,1.9-1.4,2.5-2.4c0.7-1.1,0.9-2.4,0.7-3.7c-0.2-1.2-0.8-2.1-1.6-3
		c-1.1-1.1-2.4-1.9-3.8-2.5c-1.9-0.8-3.8-1.3-5.8-1.7c-2.1-0.4-4.2-0.6-6.3-0.7c-2.5-0.1-5,0-7.4,0.3C12.6,0.8,11,1.1,9.4,1.5
		C7.6,2,5.8,2.6,4.2,3.5C3.1,4.2,2.1,5,1.3,6c-1.1,1.7-1.3,3.5-0.4,5.3C1.5,12.4,2.3,13.2,3.2,13.9L3.2,13.9z M7.3,8.2
		c1.3-0.7,2.8-1.1,4.3-1.4C13.3,6.3,15,6.1,16.8,6c1.9-0.1,3.9-0.2,5.8,0c2.4,0.2,4.8,0.5,7.2,1.2C30.9,7.5,32,7.9,33,8.6
		c0.2,0.1,0.4,0.3,0.5,0.4c-0.4,0.4-0.8,0.6-1.3,0.9c-1.3,0.7-2.7,1.1-4.1,1.4c-1.8,0.4-3.6,0.6-5.4,0.8c-1.9,0.1-3.7,0.1-5.6,0
		c-2.4-0.2-4.8-0.5-7.2-1.2c-1.2-0.4-2.4-0.8-3.4-1.5C6.5,9.4,6.4,9.3,6.2,9.2c0,0-0.1-0.1-0.1-0.1C6.5,8.7,6.9,8.4,7.3,8.2L7.3,8.2
		z M7.3,8.2"/>
</g>
</svg>
