<?xml version="1.0" encoding="utf-8"?>
<!-- Generator: Adobe Illustrator 19.0.0, SVG Export Plug-In . SVG Version: 6.00 Build 0)  -->
<svg version="1.1" id="图层_1" xmlns="http://www.w3.org/2000/svg" xmlns:xlink="http://www.w3.org/1999/xlink" x="0px" y="0px"
	 viewBox="0 0 41.5 41.5" style="enable-background:new 0 0 41.5 41.5;" xml:space="preserve">
<style type="text/css">
	.st0{fill:#fff;stroke:#273238;stroke-width:0.6;}
</style>
<path class="st0" d="M40.3,14.3L27.2,1.1c-1.1-1.1-2.9-1.1-4,0c-1.1,1.1-1.1,2.9,0,4l2.7,2.7l-6.9,6.9l-2.6-2.6
	c-1.9-1.9-4.9-1.9-6.7,0l-5.3,5.3c-5.4,5.4-5.4,14.2,0,19.6c5.4,5.4,14.2,5.4,19.6,0l5.3-5.3c1.9-1.9,1.9-4.9,0-6.7l-2.6-2.6
	l6.9-6.9l2.7,2.7c1.1,1.1,2.9,1.1,4,0C41.5,17.2,41.5,15.4,40.3,14.3L40.3,14.3z M19.8,24l-9.9,9.9c-0.3,0.3-0.7,0.5-1.2,0.5
	c-0.4,0-0.8-0.2-1.2-0.5c-0.6-0.6-0.6-1.7,0-2.3l9.9-9.9c0.6-0.6,1.7-0.6,2.3,0C20.5,22.3,20.5,23.3,19.8,24L19.8,24z M19.8,24"/>
</svg>
