<?xml version="1.0" encoding="UTF-8"?>
<svg width="24px" height="24px" viewBox="0 0 24 24" version="1.1" xmlns="http://www.w3.org/2000/svg" xmlns:xlink="http://www.w3.org/1999/xlink">
    <!-- Generator: Sketch 48.2 (47327) - http://www.bohemiancoding.com/sketch -->
    <title>social/in</title>
    <desc>Created with Sketch.</desc>
    <defs></defs>
    <g id="bee-v3/05-team" stroke="none" stroke-width="1" fill="none" fill-rule="evenodd" transform="translate(-135.000000, -1750.000000)">
        <g id="team-text-copy" transform="translate(135.000000, 1672.000000)" fill="#FFFFFF">
            <g id="social/in" transform="translate(0.000000, 78.000000)">
                <g id="LinkedIN">
                    <path d="M0,12 C0,5.37258267 5.37258267,0 12,0 C18.6274173,0 24,5.37258267 24,12 C24,18.6274173 18.6274173,24 12,24 C5.37258267,24 0,18.6274173 0,12 Z M8.48027098,9.93892416 L5.76080857,9.93892416 L5.76080857,18.1097799 L8.48027098,18.1097799 L8.48027098,9.93892416 Z M8.65938164,7.41134885 C8.64173126,6.61020162 8.06882698,6 7.13851601,6 C6.20820505,6 5.6,6.61020162 5.6,7.41134885 C5.6,8.19590154 6.19022881,8.82367385 7.10321525,8.82367385 L7.12059408,8.82367385 C8.06882698,8.82367385 8.65938164,8.19590154 8.65938164,7.41134885 Z M18.2876928,13.4248609 C18.2876928,10.9151274 16.9461008,9.74705663 15.1565691,9.74705663 C13.7127135,9.74705663 13.066275,10.5401235 12.7053382,11.0964743 L12.7053382,9.93914108 L9.98554997,9.93914108 C10.0213938,10.7058519 9.98554997,18.1099968 9.98554997,18.1099968 L12.7053382,18.1099968 L12.7053382,13.5467169 C12.7053382,13.3025169 12.7229886,13.0589135 12.7948936,12.8840743 C12.9914374,12.3962167 13.4389425,11.8911138 14.1902514,11.8911138 C15.1747083,11.8911138 15.5682304,12.6403625 15.5682304,13.7383675 L15.5682304,18.1097799 L18.2875842,18.1097799 L18.2876928,13.4248609 Z" id="Combined-Shape"></path>
                </g>
            </g>
        </g>
    </g>
</svg>