<?xml version="1.0" encoding="UTF-8"?>
<svg width="176px" height="290px" viewBox="0 0 176 290" version="1.1" xmlns="http://www.w3.org/2000/svg" xmlns:xlink="http://www.w3.org/1999/xlink">
    <!-- Generator: Sketch 48.2 (47327) - http://www.bohemiancoding.com/sketch -->
    <title>Group</title>
    <desc>Created with Sketch.</desc>
    <defs>
        <polygon id="path-1" points="0 0 71 0 71 222 0 222"></polygon>
    </defs>
    <g id="bee-v3/02-about" stroke="none" stroke-width="1" fill="none" fill-rule="evenodd" transform="translate(-552.000000, -1.000000)" opacity="0.6">
        <g id="Group" transform="translate(552.000000, 1.000000)">
            <g id="Page-1" transform="translate(109.000000, 72.000000)">
                <mask id="mask-2" fill="white">
                    <use xlink:href="#path-1"></use>
                </mask>
                <g id="Clip-2"></g>
                <polyline id="Stroke-1" stroke="#263138" mask="url(#mask-2)" points="6.04320019 5 15.0892097 20.9775931 5 38.7976423 15.0892097 56.6186243 5 74.4396064 15.0892097 92.2596556 5 110.079705 15.0892097 127.899754 5 145.719803 15.0892097 163.539852 5 181.359902 15.0892097 199.179951 35.6558181 199.204206 45.8914093 217 67 217"></polyline>
            </g>
            <g id="Group-4" stroke="#263238">
                <g id="Group-54" transform="translate(0.000000, 48.136000)">
                    <polyline id="Stroke-52" points="0.0088 0.48 30.8708 1.022 42.1648 26.392 30.8708 49.312"></polyline>
                </g>
                <polyline id="Stroke-55" points="31.2358 0.4456 42.1648 24.6166 30.8708 49.1576"></polyline>
                <polyline id="Stroke-55" points="114.365 1 125.294 25.171 113.33701 50.1552278"></polyline>
                <polyline id="Stroke-50" points="125 25.304 155.72 25 167.156 51.331 155.72 75.493"></polyline>
                <path d="M84,50.269 L113.757,50" id="Stroke-58"></path>
                <g id="Group-54" transform="translate(42.000000, 24.000000)">
                    <polyline id="Stroke-50" points="0.0088 50.4361 30.7288 50.1321 42.1648 76.4631 30.7288 100.6251"></polyline>
                    <polyline id="Stroke-52" points="0.0088 0.48 30.8708 0.48 42.1648 26.392 30.8708 50.3078014"></polyline>
                </g>
            </g>
        </g>
    </g>
</svg>