<?xml version="1.0" encoding="UTF-8"?>
<svg width="19px" height="18px" viewBox="0 0 19 18" version="1.1" xmlns="http://www.w3.org/2000/svg" xmlns:xlink="http://www.w3.org/1999/xlink">
    <!-- Generator: Sketch 48.2 (47327) - http://www.bohemiancoding.com/sketch -->
    <title>instagram</title>
    <desc>Created with Sketch.</desc>
    <defs></defs>
    <g id="bee-v3/01-hero" stroke="none" stroke-width="1" fill="none" fill-rule="evenodd" transform="translate(-782.000000, -646.000000)">
        <g id="hero-content" fill="#FFC107">
            <g id="social-icons" transform="translate(595.000000, 646.000000)">
                <path d="M196.244492,0 C193.747889,0 193.434569,0.0106875 192.454007,0.054375 C191.475359,0.09825 190.807351,0.2499375 190.222844,0.4725 C189.618228,0.702375 189.105348,1.009875 188.594383,1.5103125 C188.083035,2.0105625 187.768949,2.5126875 187.533384,3.1044375 C187.30548,3.676875 187.150352,4.3310625 187.106304,5.2888125 C187.062446,6.2488125 187.050955,6.55575 187.050955,9 C187.050955,11.44425 187.062063,11.7500625 187.106495,12.7100625 C187.151501,13.6681875 187.306438,14.3221875 187.533576,14.8944375 C187.768566,15.486375 188.082652,15.9885 188.593809,16.48875 C189.104582,16.989375 189.617462,17.297625 190.221695,17.5275 C190.806585,17.7500625 191.474785,17.90175 192.45324,17.945625 C193.433803,17.9893125 193.746931,18 196.243343,18 C198.740138,18 199.052501,17.9893125 200.033063,17.945625 C201.01171,17.90175 201.680484,17.7500625 202.265374,17.5275 C202.869799,17.297625 203.381913,16.989375 203.892686,16.48875 C204.404034,15.9885 204.718121,15.486375 204.953685,14.894625 C205.179674,14.3221875 205.334802,13.668 205.380766,12.71025 C205.424815,11.75025 205.436306,11.44425 205.436306,9 C205.436306,6.55575 205.424815,6.249 205.380766,5.289 C205.334802,4.330875 205.179674,3.676875 204.953685,3.104625 C204.718121,2.5126875 204.404034,2.0105625 203.892686,1.5103125 C203.381338,1.0096875 202.869991,0.7021875 202.2648,0.4725 C201.678761,0.2499375 201.01037,0.09825 200.031722,0.054375 C199.05116,0.0106875 198.738989,2.66453526e-15 196.24162,2.66453526e-15 L196.244492,0 Z M195.419824,1.621875 C195.664582,1.6215 195.937684,1.621875 196.244492,1.621875 C198.698962,1.621875 198.989875,1.6305 199.959138,1.673625 C200.855433,1.71375 201.341884,1.860375 201.665929,1.9835625 C202.094925,2.1466875 202.400776,2.3416875 202.722332,2.6566875 C203.044079,2.9716875 203.243255,3.2716875 203.410257,3.6916875 C203.536083,4.0085625 203.68604,4.4848125 203.726833,5.3623125 C203.770882,6.3110625 203.780458,6.5960625 203.780458,8.9979375 C203.780458,11.3998125 203.770882,11.6848125 203.726833,12.6335625 C203.685849,13.5110625 203.536083,13.9873125 203.410257,14.3041875 C203.243638,14.7241875 203.044079,15.02325 202.722332,15.3380625 C202.400585,15.6530625 202.095117,15.8480625 201.665929,16.0111875 C201.342267,16.1349375 200.855433,16.2811875 199.959138,16.3213125 C198.990067,16.3644375 198.698962,16.3738125 196.244492,16.3738125 C193.789831,16.3738125 193.498918,16.3644375 192.529847,16.3213125 C191.633552,16.2808125 191.147101,16.1341875 190.822864,16.011 C190.393868,15.847875 190.087443,15.652875 189.765696,15.337875 C189.443949,15.022875 189.244772,14.723625 189.07777,14.3034375 C188.951944,13.9865625 188.801987,13.5103125 188.761194,12.6328125 C188.717145,11.6840625 188.708335,11.3990625 188.708335,8.9956875 C188.708335,6.5923125 188.717145,6.3088125 188.761194,5.3600625 C188.802178,4.4825625 188.951944,4.0063125 189.07777,3.6890625 C189.244389,3.2690625 189.443949,2.9690625 189.765696,2.6540625 C190.087443,2.3390625 190.393868,2.1440625 190.822864,1.9805625 C191.146909,1.8568125 191.633552,1.7105625 192.529847,1.67025 C193.37788,1.63275 193.706522,1.6215 195.419824,1.619625 L195.419824,1.621875 Z M201.151517,3.11625 C200.542496,3.11625 200.048384,3.5994375 200.048384,4.195875 C200.048384,4.792125 200.542496,5.275875 201.151517,5.275875 C201.760538,5.275875 202.254649,4.792125 202.254649,4.195875 C202.254649,3.599625 201.760538,3.115875 201.151517,3.115875 L201.151517,3.11625 Z M196.244492,4.378125 C193.637384,4.378125 191.523621,6.4475625 191.523621,9 C191.523621,11.5524375 193.637384,13.6209375 196.244492,13.6209375 C198.851601,13.6209375 200.964597,11.5524375 200.964597,9 C200.964597,6.4475625 198.851409,4.378125 196.244301,4.378125 L196.244492,4.378125 Z M196.244492,6 C197.936728,6 199.308749,7.3430625 199.308749,9 C199.308749,10.65675 197.936728,12 196.244492,12 C194.552065,12 193.180235,10.65675 193.180235,9 C193.180235,7.3430625 194.552065,6 196.244492,6 L196.244492,6 Z" id="instagram"></path>
            </g>
        </g>
    </g>
</svg>