<?xml version="1.0" encoding="utf-8"?>
<!-- Generator: Adobe Illustrator 19.1.0, SVG Export Plug-In . SVG Version: 6.00 Build 0)  -->
<svg version="1.1" id="Layer_1" xmlns="http://www.w3.org/2000/svg" xmlns:xlink="http://www.w3.org/1999/xlink" x="0px" y="0px"
	 viewBox="-656 433 126 36" style="enable-background:new -656 433 126 36;" xml:space="preserve">
<style type="text/css">
	.st0{fill:#FFC107;}
</style>
<title>logo_bee</title>
<desc>Created with Sketch.</desc>
<g id="design">
	<g id="Group-43" transform="translate(-80.000000, -22.000000)">
		<g id="nav-sticky-copy-2">
			<g id="logo_bee" transform="translate(80.000000, 22.000000)">
				<g id="bee" transform="translate(64.216216, 4.864865)">
					<g>
						<path id="Fill-1" class="st0" d="M-640,454c0.5-1,0.8-2.2,0.8-3.6c0-1.3-0.3-2.5-0.8-3.5c-0.6-1-1.3-1.9-2.3-2.5
							c-1-0.6-2-0.9-3.3-0.9c-1.2,0-2.3,0.3-3.3,0.9c-1,0.6-1.7,1.4-2.3,2.5c-0.6,1.1-0.8,2.2-0.8,3.5c0,1.3,0.3,2.5,0.8,3.6
							c0.6,1,1.3,1.8,2.3,2.4c1,0.6,2.1,0.9,3.3,0.9c1.2,0,2.3-0.3,3.3-0.9C-641.3,455.9-640.6,455-640,454z M-637.6,445.4
							c0.8,1.5,1.2,3.2,1.2,5.1c0,1.9-0.4,3.6-1.1,5.1c-0.8,1.5-1.8,2.6-3.2,3.4c-1.4,0.8-3,1.2-4.7,1.2c-1.6,0-3-0.3-4.2-1
							c-1.2-0.7-2.2-1.7-2.9-2.9v3.8h-3.3V433h3.3v11.6c0.7-1.3,1.6-2.2,2.9-2.9s2.6-1,4.2-1c1.8,0,3.4,0.4,4.7,1.2
							C-639.5,442.8-638.4,443.9-637.6,445.4z"/>
						<path id="Fill-4" class="st0" d="M-618.8,449.1c-0.1-1.8-0.7-3.1-1.7-4.2c-1.1-1-2.5-1.5-4.2-1.5c-1.7,0-3.1,0.5-4.2,1.5
							c-1.1,1-1.8,2.4-2,4.1H-618.8z M-618.1,443.4c1.5,1.8,2.3,4.2,2.3,7.4c0,0.5,0,0.9,0,1.1h-15c0.3,1.7,1,3.1,2.1,4.1
							c1.2,1,2.6,1.5,4.3,1.5c1.1,0,2.2-0.2,3.1-0.6c1-0.4,1.8-1,2.5-1.8l1.8,1.9c-0.9,1-2.1,1.8-3.4,2.4c-1.3,0.6-2.8,0.8-4.4,0.8
							c-1.9,0-3.5-0.4-5-1.2c-1.4-0.8-2.6-2-3.4-3.5c-0.8-1.5-1.2-3.2-1.2-5.1c0-1.9,0.4-3.6,1.2-5.1c0.8-1.5,1.9-2.6,3.4-3.5
							c1.4-0.8,3.1-1.3,4.9-1.3C-621.8,440.7-619.6,441.6-618.1,443.4z"/>
						<path id="Fill-4-Copy" class="st0" d="M-598.1,449.1c-0.1-1.8-0.7-3.1-1.7-4.2c-1.1-1-2.5-1.5-4.2-1.5c-1.7,0-3.1,0.5-4.2,1.5
							c-1.1,1-1.8,2.4-2,4.1H-598.1z M-597.5,443.4c1.5,1.8,2.3,4.2,2.3,7.4c0,0.5,0,0.9,0,1.1h-15c0.3,1.7,1,3.1,2.1,4.1
							c1.2,1,2.6,1.5,4.3,1.5c1.1,0,2.2-0.2,3.1-0.6c1-0.4,1.8-1,2.5-1.8l1.8,1.9c-0.9,1-2.1,1.8-3.4,2.4c-1.3,0.6-2.8,0.8-4.4,0.8
							c-1.9,0-3.5-0.4-5-1.2c-1.4-0.8-2.6-2-3.4-3.5c-0.8-1.5-1.2-3.2-1.2-5.1c0-1.9,0.4-3.6,1.2-5.1c0.8-1.5,1.9-2.6,3.4-3.5
							c1.4-0.8,3.1-1.3,4.9-1.3C-601.2,440.7-599,441.6-597.5,443.4z"/>
					</g>
				</g>
				<g id="mark">
					<polygon id="Fill-1_1_" class="st0" points="-629.9,436 -650.8,448.2 -650.8,466 -656,463 -656,445.1 -635.1,433 					"/>
					<polygon id="Fill-2" class="st0" points="-624.4,456.9 -603.5,469 -603.5,451.2 -624.4,439 -645.3,451.2 -645.3,469 
						-640.1,466 -640.1,454.2 -624.4,445.1 					"/>
				</g>
			</g>
		</g>
	</g>
</g>
</svg>
