<?xml version="1.0" encoding="UTF-8"?>
<svg width="19px" height="16px" viewBox="0 0 19 16" version="1.1" xmlns="http://www.w3.org/2000/svg" xmlns:xlink="http://www.w3.org/1999/xlink">
    <!-- Generator: Sketch 48.2 (47327) - http://www.bohemiancoding.com/sketch -->
    <title>medium</title>
    <desc>Created with Sketch.</desc>
    <defs></defs>
    <g id="bee-v3/01-hero" stroke="none" stroke-width="1" fill="none" fill-rule="evenodd" transform="translate(-595.000000, -647.000000)">
        <g id="hero-content" fill="#FFC107">
            <g id="social-icons" transform="translate(595.000000, 646.000000)">
                <path d="M5.96719885,4.73753755 C6.01282871,4.75950592 6.04164429,4.80446584 6.04164429,4.85357869 L6.04164429,16.5952811 C6.04164429,16.8146037 5.91863117,16.9452704 5.74323746,16.9452704 C5.68098083,16.9452704 5.61209848,16.9287791 5.53977827,16.8939306 L0.334598182,14.3879114 C0.150578558,14.2993157 0,14.0647657 0,13.8666291 L0,2.22483754 C0,2.15255258 0.020189653,2.09477275 0.0546308259,2.05480838 C0.0898220787,2.01394119 0.139827411,1.99155151 0.198958717,1.99155151 C0.240463143,1.99155151 0.286405543,2.0025056 0.334598182,2.0257379 L5.96719885,4.73753755 Z M12.5645274,14.4549601 L18.1243703,5.7554856 L18.1243703,16.591369 C18.1243703,16.8885739 17.8985337,17.0229722 17.6225043,16.8900786 L12.5645274,14.4549601 Z M6.57563873,5.60892949 L12.0833511,14.2268501 L6.57563873,11.5751776 L6.57563873,5.60892949 Z M17.9919812,4.70936989 C18.0634888,4.74379703 18.088929,4.8298047 18.0470496,4.89540888 L12.396822,13.7363235 L8.44652575,7.55520668 L11.9852781,2.01803393 C12.0229071,1.95923092 12.0924145,1.92546584 12.1622345,1.92546584 C12.1641097,1.92546584 12.1659224,1.92600752 12.1677976,1.92606771 C12.1961756,1.92678996 12.2245536,1.93262813 12.2506189,1.94520728 L17.9919812,4.70936989 Z" id="medium"></path>
            </g>
        </g>
    </g>
</svg>