<?xml version="1.0" encoding="UTF-8"?>
<svg width="67px" height="60px" viewBox="0 0 67 60" version="1.1" xmlns="http://www.w3.org/2000/svg" xmlns:xlink="http://www.w3.org/1999/xlink">
    <!-- Generator: Sketch 48.2 (47327) - http://www.bohemiancoding.com/sketch -->
    <title>Page 1</title>
    <desc>Created with Sketch.</desc>
    <defs>
        <polygon id="path-1" points="0 0.376936364 66.7970294 0.376936364 66.7970294 9.02452727 0 9.02452727"></polygon>
    </defs>
    <g id="bee-v3/06-media" stroke="none" stroke-width="1" fill="none" fill-rule="evenodd" transform="translate(-522.000000, -575.000000)">
        <g id="Page-1" transform="translate(522.000000, 575.000000)">
            <path d="M32.9996098,0 L17.8723939,9.20421761 L17,9.73560641 L17,27.2651762 L22.537126,30.6342908 L22.537126,26.4238758 L20.6058426,25.2476205 L20.6058426,21.1319007 L24.0985393,23.2566733 L24.0985393,26.603875 L24.0985393,26.6046576 L24.0985393,31.5843733 L27.7028213,33.7772325 L32.9996098,37 L49,27.2651762 L49,9.73560641 L32.9996098,0 Z M20.6058426,16.9214857 L20.6058426,11.7523795 L32.9996098,4.21041499 L45.3933771,11.7523795 L45.3933771,25.2476205 L32.9996098,32.789585 L27.7028213,29.5676002 L27.7028213,25.4510978 L32.9996098,28.6730826 L41.9006803,23.2566733 L41.9006803,13.7448919 L32.9996098,8.32769999 L24.0985393,13.7448919 L24.0985393,19.0470409 L20.6058426,16.9214857 Z M27.7028213,21.2399002 L27.7028213,15.7600998 L32.9996098,12.5373324 L38.295618,15.7600998 L38.295618,21.2399002 L32.9996098,24.4626676 L27.7028213,21.2399002 Z" id="Fill-1" fill="#010202"></path>
            <g id="Group-7" transform="translate(0.000000, 43.000000)">
                <g id="Group-4">
                    <mask id="mask-2" fill="white">
                        <use xlink:href="#path-1"></use>
                    </mask>
                    <g id="Clip-3"></g>
                    <path d="M61.5174294,8.20775455 L61.5174294,1.19293636 C61.5174294,1.00825455 61.5568412,0.869936364 61.6356647,0.7803 C61.7160647,0.690663636 61.8611,0.645845455 62.0691941,0.645845455 L62.6848059,0.645845455 C63.0347824,0.645845455 63.2097706,0.813527273 63.2097706,1.1458 L63.2097706,7.56175455 C63.5116647,7.56175455 63.9113,7.55557273 64.4078882,7.54398182 C64.9044765,7.53393636 65.3332765,7.52466364 65.6990176,7.51616364 C66.0623941,7.50920909 66.2555118,7.50534545 66.2752176,7.50534545 C66.6228294,7.50534545 66.7970294,7.68616364 66.7970294,8.04625455 L66.7970294,8.17916364 C66.7970294,8.28966364 66.7891471,8.38316364 66.7718059,8.45502727 C66.7536765,8.52920909 66.7024412,8.59798182 66.6149471,8.6598 C66.5274529,8.72393636 66.3997588,8.75561818 66.2326529,8.75561818 L62.0691941,8.75561818 C61.9580529,8.75561818 61.8666176,8.74557273 61.7988294,8.72625455 C61.7310412,8.70848182 61.6679824,8.65593636 61.6065,8.57016364 C61.5465941,8.48439091 61.5174294,8.36384545 61.5174294,8.20775455 Z M52.4881941,5.98616364 L55.1697706,5.98616364 C54.3594647,3.71125455 53.9125353,2.41848182 53.8305588,2.1063 C53.7525235,2.3868 53.3063824,3.68034545 52.4881941,5.98616364 Z M50.0541235,8.44189091 C50.0541235,8.38702727 50.0706765,8.31361818 50.0998412,8.2178 L52.6269235,1.18134545 C52.6884059,1.00439091 52.7719588,0.869936364 52.8767941,0.7803 C52.9824176,0.690663636 53.1495235,0.645845455 53.3781118,0.645845455 L54.4540529,0.645845455 C54.5975118,0.645845455 54.7165353,0.6613 54.8119118,0.690663636 C54.9072882,0.721572727 54.9869,0.786481818 55.0507471,0.883072727 C55.1138059,0.979663636 55.1540059,1.04689091 55.1697706,1.08243636 C55.1855353,1.11875455 55.2170647,1.20607273 55.2627824,1.34748182 L57.7299588,8.24098182 C57.7622765,8.3368 57.7780412,8.40325455 57.7780412,8.44189091 C57.7780412,8.64975455 57.6290647,8.75561818 57.3350529,8.75561818 L56.7068294,8.75561818 C56.6358882,8.75561818 56.5744059,8.7533 56.5160765,8.74943636 C56.4609,8.74557273 56.4073,8.73011818 56.3537,8.70461818 C56.3024647,8.6768 56.2599,8.65439091 56.2283706,8.63275455 C56.1992059,8.61111818 56.1629471,8.56861818 56.1211706,8.50448182 C56.0817588,8.43957273 56.0494412,8.38470909 56.0257941,8.34066364 C56.0021471,8.29739091 55.9682529,8.22011818 55.9241118,8.10652727 C55.8791824,7.99602727 55.8429235,7.89866364 55.8153353,7.81675455 C55.7885353,7.73484545 55.7459706,7.61043636 55.6844882,7.44275455 C55.6245824,7.27507273 55.5709824,7.12361818 55.5244765,6.99148182 L52.1263941,6.99148182 C52.0727941,7.13057273 52.0144647,7.29207273 51.9529824,7.47598182 C51.8938647,7.65911818 51.8473588,7.79357273 51.8181941,7.87857273 C51.7858765,7.96511818 51.7480412,8.06325455 51.7054765,8.1753 C51.6589706,8.28811818 51.6211353,8.36770909 51.5896059,8.41716364 C51.5596529,8.46352727 51.5218176,8.5153 51.4768882,8.57634545 C51.4327471,8.63507273 51.3870294,8.67139091 51.3397353,8.68684545 C51.2940176,8.70307273 51.2380529,8.71620909 51.1749941,8.73243636 C51.1111471,8.74711818 51.0354765,8.75561818 50.9503471,8.75561818 L50.5065706,8.75561818 C50.2046765,8.75561818 50.0541235,8.64975455 50.0541235,8.44189091 Z M39.0558765,8.44420909 C39.0377471,8.36152727 39.0306529,8.3113 39.0306529,8.29352727 L39.0306529,8.12275455 L39.0306529,1.19293636 C39.0306529,0.828981818 39.2190412,0.645845455 39.5950294,0.645845455 L40.1980294,0.645845455 C40.5472176,0.645845455 40.7222059,0.821254545 40.7222059,1.17207273 L40.7222059,3.98789091 L44.6200294,3.98789091 L44.6200294,1.16048182 C44.6200294,0.817390909 44.7950176,0.645845455 45.1449941,0.645845455 L45.7606059,0.645845455 C45.8883,0.645845455 45.9931353,0.663618182 46.0766882,0.696072727 C46.1602412,0.731618182 46.2177824,0.786481818 46.2453706,0.859890909 C46.2753235,0.934072727 46.2934529,0.990481818 46.3005471,1.03143636 C46.3092176,1.07084545 46.3131588,1.12493636 46.3131588,1.19293636 L46.3131588,8.12275455 L46.3131588,8.16061818 C46.3131588,8.24948182 46.3092176,8.31748182 46.3005471,8.36770909 C46.2934529,8.41716364 46.2753235,8.47743636 46.2453706,8.54620909 C46.2177824,8.61652727 46.1633941,8.66984545 46.0885118,8.70461818 C46.0128412,8.73784545 45.9135235,8.75561818 45.7881941,8.75561818 L45.1781,8.75561818 C44.8076294,8.75561818 44.6200294,8.5833 44.6200294,8.24098182 L44.6200294,5.0983 L40.7222059,5.0983 L40.7222059,8.24098182 C40.7222059,8.5833 40.5401235,8.75561818 40.1767471,8.75561818 L39.5705941,8.75561818 C39.4594529,8.75561818 39.3656529,8.73784545 39.2947118,8.70461818 C39.2229824,8.66984545 39.1693824,8.63893636 39.1347,8.60957273 C39.1000176,8.58175455 39.0732176,8.52534545 39.0558765,8.44420909 Z M32.5111588,9.02452727 C29.5970529,9.02452727 28.1411824,7.58261818 28.1411824,4.70034545 C28.1411824,1.81807273 29.6057235,0.376936364 32.5348059,0.376936364 C33.1795824,0.376936364 33.8842647,0.490527273 34.6512176,0.716163636 C34.7860059,0.760981818 34.8774412,0.809663636 34.9239471,0.857572727 C34.9468059,0.904709091 34.9594176,0.942572727 34.9594176,0.973481818 C34.9594176,1.00439091 34.9010882,1.33898182 34.7844294,1.97725455 C34.7387118,2.20366364 34.6788059,2.3188 34.6047118,2.32266364 C34.5660882,2.32266364 34.4880529,2.28402727 34.3729706,2.20366364 C34.2555235,2.12639091 34.1286176,2.03907273 33.9914647,1.93939091 C33.8543118,1.83970909 33.6517353,1.75239091 33.3837353,1.67434545 C33.1181,1.5963 32.8288176,1.55766364 32.5237706,1.55766364 C30.7297471,1.55766364 29.8343118,2.60161818 29.8343118,4.68875455 C29.8343118,5.14852727 29.8753,5.55961818 29.9588529,5.91739091 C30.0424059,6.27825455 30.1811353,6.60743636 30.3742529,6.90493636 C30.5689471,7.20320909 30.8511353,7.43502727 31.2223941,7.59807273 C31.5920765,7.76189091 32.0421588,7.8438 32.5750059,7.8438 C32.9620294,7.8438 33.3064882,7.80516364 33.6044412,7.72711818 C33.9047588,7.64907273 34.1183706,7.5633 34.2476412,7.4698 C34.3784882,7.3763 34.5006647,7.29052727 34.6110176,7.21325455 C34.7245235,7.13443636 34.8159588,7.09657273 34.8853235,7.09657273 C34.9010882,7.09657273 34.9152765,7.09734545 34.9255235,7.10198182 C34.9373471,7.10584545 34.9491706,7.11357273 34.9617824,7.12516364 C34.9728176,7.13443636 34.9807,7.14911818 34.9854294,7.16225455 C34.9893706,7.17616364 34.9948882,7.19393636 35.0043471,7.21711818 C35.0145941,7.23798182 35.0209,7.25961818 35.0248412,7.27970909 C35.0295706,7.29593636 35.0319353,7.32220909 35.0358765,7.35311818 C35.0406059,7.38248182 35.0445471,7.41184545 35.0484882,7.43502727 C35.0524294,7.45975455 35.0563706,7.49298182 35.0611,7.53625455 C35.0642529,7.57720909 35.0658294,7.61043636 35.0658294,7.6313 C35.0745,7.72711818 35.0823824,7.81289091 35.0886882,7.8863 C35.0957824,7.96125455 35.1020882,8.01148182 35.1060294,8.03620909 C35.1099706,8.06325455 35.1123353,8.08798182 35.1123353,8.10420909 L35.1123353,8.16293636 C35.1123353,8.20002727 35.1083941,8.23170909 35.0997235,8.25489091 C35.0926294,8.27652727 35.0760765,8.30125455 35.0484882,8.3283 C35.0209,8.3538 35.0027706,8.37389091 34.9933118,8.38161818 C34.9830647,8.39089091 34.9554765,8.40866364 34.9097588,8.4303 L34.8285706,8.47743636 C34.4383941,8.69302727 34.0844765,8.83907273 33.7636647,8.91325455 C33.4397,8.98743636 33.0227235,9.02452727 32.5111588,9.02452727 Z M22.4966294,8.22011818 L22.4966294,1.19293636 C22.4966294,0.828981818 22.6637353,0.645845455 22.9979471,0.645845455 L23.6427235,0.645845455 C24.0068882,0.645845455 24.1897588,0.821254545 24.1897588,1.17207273 L24.1897588,8.19616364 C24.1897588,8.34452727 24.1779353,8.44575455 24.1542882,8.4983 C24.1401,8.53770909 24.1164529,8.5748 24.0841353,8.60957273 C24.0541824,8.64589091 24.0265941,8.67139091 24.0005824,8.68684545 C23.9745706,8.70307273 23.9430412,8.71389091 23.9052059,8.72625455 C23.8650059,8.73784545 23.8358412,8.74325455 23.8177118,8.74325455 C23.7972176,8.74325455 23.7680529,8.74557273 23.7270647,8.74943636 C23.6868647,8.7533 23.6632176,8.75561818 23.6553353,8.75561818 L23.0491824,8.75561818 C22.8749824,8.75561818 22.7394059,8.71852727 22.6424529,8.64357273 C22.5447118,8.57016364 22.4966294,8.42798182 22.4966294,8.22011818 Z M13.6345,4.27998182 L15.1360882,4.27998182 C15.7422412,4.27998182 16.1931118,4.19420909 16.4910647,4.02266364 C16.7866529,3.85111818 16.9356294,3.50107273 16.9356294,2.97175455 C16.9356294,2.44166364 16.7890176,2.08852727 16.4973706,1.91311818 C16.2033588,1.73848182 15.7532765,1.65116364 15.1479118,1.65116364 L13.6463235,1.65116364 L13.6345,2.04370909 L13.6345,4.27998182 Z M11.9768412,8.20775455 L11.9768412,1.18134545 C11.9768412,0.824345455 12.1620765,0.645845455 12.5301824,0.645845455 L15.4206412,0.645845455 C16.4823941,0.6613 17.2714176,0.869936364 17.7821941,1.27252727 C18.2827235,1.66816364 18.5333824,2.22761818 18.5333824,2.94548182 C18.5333824,4.02111818 17.9177706,4.71039091 16.6857588,5.01639091 C16.6621118,5.02411818 16.6416176,5.02798182 16.6282176,5.02798182 L18.5822529,8.25489091 C18.6287588,8.35070909 18.6563471,8.42411818 18.6642294,8.47743636 C18.6405824,8.66211818 18.5081588,8.75561818 18.2630176,8.75561818 L17.5819824,8.75561818 C17.4148765,8.75561818 17.2950647,8.73398182 17.2241235,8.68916364 C17.1523941,8.64589091 17.0806647,8.56011818 17.0113,8.43184545 C15.7895353,6.36557273 15.1400294,5.26520909 15.0659353,5.13307273 L13.6345,5.13307273 L13.6345,8.2433 C13.6345,8.30357273 13.6305588,8.3538 13.6218882,8.39475455 C13.6147941,8.43416364 13.5966647,8.48593636 13.5706529,8.55239091 C13.5430647,8.61884545 13.4847353,8.66984545 13.3996059,8.70461818 C13.3129,8.73784545 13.2033353,8.75561818 13.0756412,8.75561818 L12.4994412,8.75561818 C12.1526176,8.75561818 11.9768412,8.57248182 11.9768412,8.20775455 Z M1.69273529,4.74207273 C1.69273529,4.93602727 1.69431176,5.10370909 1.69825294,5.24589091 C1.70219412,5.38652727 1.72032353,5.58357273 1.75027647,5.83239091 C1.78180588,6.08352727 1.82515882,6.30143636 1.88112353,6.48611818 C1.93866471,6.67157273 2.02379412,6.87170909 2.1373,7.08652727 C2.25238235,7.30057273 2.38953529,7.47598182 2.54797059,7.61352727 C2.70798235,7.7503 2.91134706,7.86775455 3.16279412,7.96125455 C3.41266471,8.05475455 3.69879412,8.10111818 4.01724118,8.10111818 C4.64704118,8.10111818 5.15466471,7.91025455 5.54168824,7.52852727 C5.72534706,7.34770909 5.87195882,7.13289091 5.98546471,6.88175455 C6.09818235,6.63216364 6.17621765,6.35243636 6.21799412,6.04257273 C6.26134706,5.73270909 6.28814706,5.47539091 6.29918235,5.27139091 C6.31100588,5.06739091 6.31731176,4.80775455 6.31731176,4.49402727 L6.31731176,4.41443636 C6.31731176,4.22743636 6.31573529,4.06593636 6.31100588,3.93148182 C6.30706471,3.79857273 6.28972353,3.61234545 6.25898235,3.37202727 C6.22745294,3.13557273 6.1841,2.93234545 6.12813529,2.76852727 C6.07059412,2.60316364 5.98546471,2.42234545 5.87195882,2.22375455 C5.75687647,2.02516364 5.61972353,1.86134545 5.46128824,1.73693636 C5.30206471,1.60943636 5.09791176,1.5028 4.84646471,1.41702727 C4.59659412,1.33202727 4.31440588,1.28875455 4.00462941,1.28875455 C3.36142941,1.28875455 2.84119412,1.4773 2.44313529,1.85516364 C2.21533529,2.07384545 2.04034706,2.36748182 1.91974706,2.73375455 C1.79914706,3.10002727 1.73214706,3.40757273 1.71638235,3.65639091 C1.69982941,3.90598182 1.69273529,4.23516364 1.69273529,4.64857273 L1.69273529,4.74207273 Z M-0.000394117647,4.76911818 C-0.000394117647,1.84202727 1.33172353,0.376936364 3.99280588,0.376936364 C6.67122941,0.376936364 8.00965294,1.84202727 8.00965294,4.76911818 C8.00965294,7.59807273 6.68305294,9.01216364 4.02827647,9.01216364 L4.01724118,9.01216364 L4.00462941,9.01216364 C1.33408824,9.01216364 -0.000394117647,7.59807273 -0.000394117647,4.76911818 Z" id="Fill-2" fill="#010202" mask="url(#mask-2)"></path>
                </g>
                <path d="M54.4987459,16.62175 C54.4987459,16.5985682 54.5208165,16.4733864 54.5649576,16.2462045 C54.5791459,16.1557955 54.6043694,16.11175 54.6390518,16.11175 C54.6563929,16.11175 54.69344,16.1326136 54.7486165,16.1751136 C54.8045812,16.2160682 54.8660635,16.2624318 54.9338518,16.31575 C55.00164,16.3682955 55.1041106,16.4154318 55.2412635,16.4571591 C55.3799929,16.4988864 55.5329106,16.51975 55.69844,16.51975 C56.0492047,16.51975 56.2234047,16.3729318 56.2234047,16.07775 C56.2234047,15.89925 56.1343341,15.7686591 55.9561929,15.6852045 C55.9238753,15.6705227 55.8899812,15.6589318 55.8560871,15.6512045 C55.8229812,15.6427045 55.7583459,15.6280227 55.6613929,15.6056136 C55.5636518,15.5816591 55.4611812,15.5577045 55.3547694,15.5322045 C55.1592871,15.4842955 54.9795694,15.3822955 54.8164047,15.2262045 C54.65324,15.0693409 54.5720518,14.8668864 54.5720518,14.6188409 C54.5720518,14.5122045 54.5846635,14.4109773 54.6114635,14.31825 C54.6374753,14.22475 54.6847694,14.1266136 54.7557106,14.0246136 C54.8266518,13.9210682 54.9417341,13.8383864 55.1001694,13.7773409 C55.2586047,13.7162955 55.4540871,13.6853864 55.6874047,13.6853864 C55.8411106,13.6853864 55.99324,13.7047045 56.1430047,13.7417955 C56.2927694,13.7788864 56.4078518,13.8152045 56.4858871,13.8530682 C56.5639224,13.8901591 56.6056988,13.9195227 56.6120047,13.9396136 C56.6151576,13.9457955 56.6175224,13.9573864 56.6183106,13.9720682 C56.6183106,14.0215227 56.5915106,14.1783864 56.5379106,14.4442045 C56.5260871,14.4782045 56.5111106,14.4936591 56.4921929,14.4921136 C56.4685459,14.4921136 56.4378047,14.4743409 56.3991812,14.4380227 C56.3605576,14.4024773 56.3179929,14.3638409 56.2699106,14.3221136 C56.2226165,14.2803864 56.1422165,14.24175 56.0294988,14.2062045 C55.9175694,14.1698864 55.7859341,14.1521136 55.6353812,14.1521136 C55.4485694,14.1521136 55.3177224,14.19075 55.2444165,14.2664773 C55.1718988,14.3429773 55.13564,14.4318409 55.13564,14.5338409 C55.13564,14.6111136 55.1545576,14.6775682 55.1947576,14.7316591 C55.2341694,14.78575 55.2909224,14.8290227 55.3673812,14.8599318 C55.44384,14.8916136 55.5171459,14.9155682 55.5880871,14.9317955 C55.6590282,14.9487955 55.7425812,14.9688864 55.8387459,14.9920682 C55.9349106,15.0144773 56.0105812,15.03225 56.0641812,15.0453864 C56.2588753,15.1079773 56.4283459,15.2238864 56.5718047,15.3915682 C56.7152635,15.5600227 56.7862047,15.7671136 56.7862047,16.0105227 C56.7862047,16.1418864 56.7696518,16.2624318 56.7357576,16.3737045 C56.7026518,16.4834318 56.6466871,16.58775 56.5670753,16.6866591 C56.4874635,16.7847955 56.3731694,16.8620682 56.2202518,16.9169318 C56.0673341,16.9717955 55.8844635,16.9996136 55.67164,16.9996136 C55.4887694,16.9996136 55.3035341,16.9764318 55.1182988,16.9292955 C54.9314871,16.8821591 54.7864518,16.8319318 54.6831929,16.7809318 C54.5807224,16.7283864 54.5208165,16.6889773 54.5082047,16.6611591 C54.5018988,16.6379773 54.4987459,16.6248409 54.4987459,16.62175 Z M48.9637576,15.1837045 L49.5391694,15.1837045 C49.7716988,15.1837045 49.9451106,15.15125 50.0594047,15.0847955 C50.1736988,15.0191136 50.2304518,14.8846591 50.2304518,14.6806591 C50.2304518,14.4782045 50.1736988,14.3429773 50.0617694,14.27575 C49.9490518,14.2085227 49.7764282,14.1745227 49.5438988,14.1745227 L48.9669106,14.1745227 L48.9637576,14.3252045 L48.9637576,15.1837045 Z M48.3268635,16.6912955 L48.3268635,13.9944773 C48.3268635,13.8577045 48.3978047,13.7889318 48.5388988,13.7889318 L49.6487341,13.7889318 C50.0562518,13.7951136 50.3589341,13.8747045 50.5552047,14.0300227 C50.7467459,14.1814773 50.8429106,14.3955227 50.8429106,14.6721591 C50.8429106,15.0840227 50.6072282,15.3490682 50.1342871,15.4665227 C50.1248282,15.4688409 50.1169459,15.4711591 50.1122165,15.4711591 L50.8626165,16.7090682 C50.8791694,16.7453864 50.8902047,16.7739773 50.8941459,16.7948409 C50.8846871,16.8643864 50.8334518,16.9007045 50.7388635,16.9007045 L50.4779576,16.9007045 C50.4133224,16.9007045 50.3683929,16.8929773 50.3415929,16.8752045 C50.3132165,16.85975 50.2856282,16.8265227 50.2588282,16.7770682 C49.7898282,15.98425 49.5407459,15.5615682 49.5131576,15.5113409 L48.9637576,15.5113409 L48.9637576,16.7044318 C48.9637576,16.7283864 48.9613929,16.7469318 48.95824,16.7631591 C48.9558753,16.7778409 48.9487812,16.7979318 48.9385341,16.8234318 C48.9282871,16.8489318 48.9054282,16.86825 48.8731106,16.8821591 C48.8392165,16.8945227 48.79744,16.9007045 48.7485694,16.9007045 L48.5278635,16.9007045 C48.3938635,16.9007045 48.3268635,16.8311591 48.3268635,16.6912955 Z M42.2196165,16.6912955 L42.2196165,14.01225 C42.2196165,13.9326591 42.2369576,13.8770227 42.27164,13.8468864 C42.3071106,13.81675 42.3599224,13.8028409 42.4308635,13.8028409 L44.2516871,13.8028409 C44.3123812,13.8028409 44.3588871,13.8136591 44.3912047,13.8376136 C44.4227341,13.8623409 44.4408635,13.8855227 44.4471694,13.9079318 C44.4534753,13.9318864 44.4566282,13.9635682 44.4566282,14.0014318 L44.4566282,14.0732955 C44.4566282,14.2031136 44.3927812,14.2687955 44.2642988,14.2687955 C44.2240988,14.2687955 44.1720753,14.2680227 44.10744,14.2664773 C44.0435929,14.2649318 43.8993459,14.2626136 43.6746988,14.2595227 C43.4484753,14.2564318 43.1804753,14.2541136 42.8691224,14.2517955 L42.8691224,15.0847955 L44.0782753,15.0847955 C44.1153224,15.0847955 44.1444871,15.0863409 44.1657694,15.0894318 C44.1862635,15.0925227 44.2091224,15.0994773 44.2351341,15.1110682 C44.2611459,15.1234318 44.2808518,15.1442955 44.29504,15.1759773 C44.3076518,15.2076591 44.3147459,15.2486136 44.3147459,15.3003864 C44.3147459,15.4410227 44.2461694,15.5113409 44.1098047,15.5113409 L42.8691224,15.5113409 L42.8691224,16.4208409 L44.3336635,16.4046136 C44.4613576,16.4069318 44.5252047,16.4757045 44.5252047,16.6093864 L44.5252047,16.7036591 C44.5252047,16.8350227 44.45584,16.9007045 44.3178988,16.9007045 L42.4308635,16.9007045 C42.3670165,16.9007045 42.3181459,16.8875682 42.28504,16.8612955 C42.2511459,16.8334773 42.2322282,16.8079773 42.2274988,16.7855682 C42.2219812,16.7616136 42.2196165,16.7299318 42.2196165,16.6912955 Z M35.4147812,16.6959318 L35.4147812,13.9906136 C35.4147812,13.8561591 35.4857224,13.7889318 35.6268165,13.7889318 L36.0469459,13.7889318 C36.1446871,13.7889318 36.2172047,13.8067045 36.2613459,13.84225 C36.3078518,13.8785682 36.3519929,13.93575 36.3945576,14.0168864 L37.6470635,16.3713864 L37.6470635,13.9944773 C37.6470635,13.9558409 37.6494282,13.9241591 37.6541576,13.9002045 C37.6588871,13.8770227 37.6778047,13.8522955 37.7101224,13.8267955 C37.7440165,13.8020682 37.7928871,13.7889318 37.8567341,13.7889318 L38.0088635,13.7889318 C38.1428635,13.7889318 38.2098635,13.8561591 38.2098635,13.9906136 L38.2098635,16.6997955 C38.2098635,16.8334773 38.1389224,16.9007045 37.9978282,16.9007045 L37.5824282,16.9007045 C37.4838988,16.9007045 37.4113812,16.8821591 37.3656635,16.8450682 C37.3175812,16.8072045 37.2726518,16.7507955 37.2300871,16.67275 L35.9775812,14.3167045 L35.9775812,16.6959318 C35.9775812,16.8319318 35.9074282,16.9007045 35.7671224,16.9007045 L35.6157812,16.9007045 C35.4817812,16.9007045 35.4147812,16.8319318 35.4147812,16.6959318 Z M28.6525106,14.0671136 L28.6525106,14.0300227 C28.6525106,13.9504318 28.6682753,13.8940227 28.7021694,13.8631136 C28.7352753,13.8314318 28.7936047,13.8152045 28.8755812,13.8152045 L31.4160635,13.8152045 C31.5035576,13.8152045 31.5626753,13.8322045 31.5934165,13.8654318 C31.6233694,13.8986591 31.6391341,13.9535227 31.6391341,14.0300227 L31.6391341,14.0671136 C31.6391341,14.1358864 31.6265224,14.1876591 31.6005106,14.2201136 C31.5744988,14.2525682 31.5476988,14.2711136 31.5216871,14.27575 C31.4933106,14.2796136 31.4531106,14.2819318 31.3971459,14.2819318 C31.3309341,14.2819318 31.17644,14.2796136 30.93524,14.27575 C30.69404,14.2711136 30.5395459,14.2687955 30.4733341,14.2687955 L30.4733341,16.6866591 C30.4733341,16.76625 30.4575694,16.8226591 30.4268282,16.8543409 C30.3976635,16.8860227 30.3409106,16.9007045 30.2549929,16.9007045 L30.0405929,16.9007045 C29.9562518,16.9007045 29.8987106,16.8860227 29.8687576,16.8543409 C29.8388047,16.8226591 29.82304,16.76625 29.82304,16.6866591 L29.82304,14.2687955 C29.3374871,14.2780682 29.0277106,14.2819318 28.8937106,14.2819318 C28.8503576,14.2819318 28.8188282,14.2803864 28.7991224,14.2780682 C28.7802047,14.2749773 28.7565576,14.26725 28.7289694,14.2548864 C28.7013812,14.2425227 28.6816753,14.2208864 28.6690635,14.19075 C28.6580282,14.1590682 28.6525106,14.1188864 28.6525106,14.0671136 Z M23.1388047,15.1837045 L23.7150047,15.1837045 C23.9475341,15.1837045 24.1209459,15.15125 24.23524,15.0847955 C24.3487459,15.0191136 24.4054988,14.8846591 24.4054988,14.6806591 C24.4054988,14.4782045 24.3495341,14.3429773 24.2368165,14.27575 C24.1248871,14.2085227 23.9522635,14.1745227 23.7197341,14.1745227 L23.1435341,14.1745227 L23.1388047,14.3252045 L23.1388047,15.1837045 Z M22.5026988,16.6912955 L22.5026988,13.9944773 C22.5026988,13.8577045 22.57364,13.7889318 22.7155224,13.7889318 L23.8245694,13.7889318 C24.2328753,13.7951136 24.5347694,13.8747045 24.7302518,14.0300227 C24.9233694,14.1814773 25.0195341,14.3955227 25.0195341,14.6721591 C25.0195341,15.0840227 24.7830635,15.3490682 24.3101224,15.4665227 C24.3006635,15.4688409 24.2935694,15.4711591 24.2880518,15.4711591 L25.0384518,16.7090682 C25.0550047,16.7453864 25.06604,16.7739773 25.0691929,16.7948409 C25.0605224,16.8643864 25.0092871,16.9007045 24.9154871,16.9007045 L24.6545812,16.9007045 C24.5899459,16.9007045 24.5442282,16.8929773 24.51664,16.8752045 C24.4890518,16.85975 24.4622518,16.8265227 24.4346635,16.7770682 C23.9664518,15.98425 23.7165812,15.5615682 23.6889929,15.5113409 L23.1388047,15.5113409 L23.1388047,16.7044318 C23.1388047,16.7283864 23.1372282,16.7469318 23.1340753,16.7631591 C23.1309224,16.7778409 23.1246165,16.7979318 23.1151576,16.8234318 C23.1041224,16.8489318 23.0820518,16.86825 23.0489459,16.8821591 C23.01584,16.8945227 22.9732753,16.9007045 22.9244047,16.9007045 L22.7036988,16.9007045 C22.5704871,16.9007045 22.5026988,16.8311591 22.5026988,16.6912955 Z M16.6878871,15.8382045 L17.7173224,15.8382045 C17.4059694,14.9650227 17.2349224,14.4689318 17.2041812,14.3491591 C17.17344,14.4565682 17.0023929,14.9534318 16.6878871,15.8382045 Z M15.7546165,16.7809318 C15.7546165,16.7600682 15.7601341,16.7314773 15.7719576,16.6951591 L16.7414871,13.9944773 C16.7651341,13.9264773 16.7974518,13.8747045 16.8376518,13.8399318 C16.8770635,13.8051591 16.9424871,13.7889318 17.0299812,13.7889318 L17.4422282,13.7889318 C17.4981929,13.7889318 17.5431224,13.7951136 17.5801694,13.8051591 C17.6172165,13.8182955 17.6471694,13.84225 17.6716047,13.8801136 C17.6968282,13.9164318 17.7110165,13.9427045 17.7173224,13.9566136 C17.7236282,13.96975 17.7354518,14.00375 17.7535812,14.0578409 L18.7002518,16.7036591 C18.7128635,16.7399773 18.7183812,16.76625 18.7183812,16.7809318 C18.7183812,16.8612955 18.66084,16.9007045 18.5489106,16.9007045 L18.3077106,16.9007045 C18.2801224,16.9007045 18.2564753,16.8999318 18.2344047,16.8983864 C18.2131224,16.8968409 18.19184,16.8922045 18.1721341,16.8821591 C18.1524282,16.8713409 18.1358753,16.8628409 18.1240518,16.8543409 C18.1122282,16.8458409 18.09804,16.8296136 18.0830635,16.8041136 C18.0672988,16.7801591 18.0554753,16.7592955 18.0460165,16.7415227 C18.0365576,16.7260682 18.0239459,16.6959318 18.0066047,16.6518864 C17.9900518,16.6093864 17.9758635,16.5722955 17.9648282,16.5413864 C17.9553694,16.5089318 17.9380282,16.4617955 17.9151694,16.3968864 C17.8923106,16.33275 17.8710282,16.2747955 17.8544753,16.2237955 L16.5491576,16.2237955 C16.5286635,16.2778864 16.5065929,16.3397045 16.4829459,16.4100227 C16.4600871,16.4803409 16.4427459,16.5321136 16.4309224,16.5653409 C16.4183106,16.5977955 16.4049106,16.6364318 16.3875694,16.6781591 C16.3702282,16.7214318 16.3552518,16.7523409 16.3434282,16.7708864 C16.3316047,16.7894318 16.3182047,16.80875 16.3000753,16.8319318 C16.2835224,16.8551136 16.2653929,16.8690227 16.2472635,16.8752045 C16.2299224,16.8813864 16.20864,16.8860227 16.1842047,16.8929773 C16.1589812,16.8976136 16.1306047,16.9007045 16.0974988,16.9007045 L15.92724,16.9007045 C15.8121576,16.9007045 15.7546165,16.8612955 15.7546165,16.7809318 Z M10.6468518,15.3452045 L11.2600988,15.3452045 C11.3814871,15.3452045 11.4871106,15.3305227 11.5738165,15.3019318 C11.6605224,15.2741136 11.7267341,15.2416591 11.7716635,15.2061136 C11.8165929,15.1697955 11.8504871,15.1203409 11.8717694,15.0562045 C11.8946282,14.9920682 11.90724,14.93875 11.9103929,14.8993409 C11.9135459,14.8583864 11.9151224,14.8042955 11.9151224,14.7362955 C11.9119694,14.6118864 11.8922635,14.5122045 11.8575812,14.4326136 C11.8221106,14.35225 11.7692988,14.2950682 11.6983576,14.2610682 C11.62584,14.2262955 11.5541106,14.2031136 11.4808047,14.19075 C11.4082871,14.1807045 11.3144871,14.1745227 11.2017694,14.1745227 L10.6523694,14.1745227 L10.6468518,14.3414318 L10.6468518,15.3452045 Z M10.0115341,16.6959318 L10.0115341,14.0168864 C10.0115341,13.9705227 10.0131106,13.93575 10.0194165,13.9110227 C10.0241459,13.8870682 10.0438518,13.8600227 10.0777459,13.8314318 C10.1108518,13.8036136 10.1597224,13.7889318 10.2235694,13.7889318 L11.1749694,13.7889318 C11.3018753,13.7889318 11.4004047,13.7904773 11.4689812,13.7927955 C11.5375576,13.7966591 11.6282047,13.8043864 11.7409224,13.8198409 C11.8528518,13.8345227 11.9513812,13.8631136 12.0372988,13.9040682 C12.1232165,13.9473409 12.2012518,14.0006591 12.2714047,14.0663409 C12.4424518,14.2317045 12.5275812,14.4612045 12.5275812,14.7525227 C12.5275812,14.8807955 12.5094518,14.9959318 12.4755576,15.0979318 C12.4400871,15.2007045 12.3983106,15.2857045 12.34944,15.3498409 C12.2997812,15.4155227 12.2343576,15.4719318 12.1523812,15.5182955 C12.0711929,15.5646591 11.9955224,15.5994318 11.9285224,15.6210682 C11.8607341,15.6434773 11.7771812,15.66125 11.6786518,15.6728409 C11.5793341,15.6844318 11.5028753,15.6913864 11.4500635,15.6929318 C11.39804,15.6944773 11.3270988,15.69525 11.2411812,15.69525 L10.6618282,15.69525 L10.6618282,16.6951591 C10.6618282,16.8319318 10.5924635,16.9007045 10.4553106,16.9007045 L10.2235694,16.9007045 C10.1825812,16.9007045 10.1502635,16.8976136 10.1242518,16.8929773 C10.0990282,16.8860227 10.0730165,16.8674773 10.0477929,16.83425 C10.0233576,16.8017955 10.0115341,16.7554318 10.0115341,16.6959318 Z" id="Fill-5" fill="#010202"></path>
            </g>
        </g>
    </g>
</svg>