<?xml version="1.0" encoding="UTF-8"?>
<svg width="18px" height="17px" viewBox="0 0 18 17" version="1.1" xmlns="http://www.w3.org/2000/svg" xmlns:xlink="http://www.w3.org/1999/xlink">
    <!-- Generator: Sketch 48.2 (47327) - http://www.bohemiancoding.com/sketch -->
    <title>reddit</title>
    <desc>Created with Sketch.</desc>
    <defs></defs>
    <g id="bee-v3/01-hero" stroke="none" stroke-width="1" fill="none" fill-rule="evenodd" transform="translate(-828.000000, -647.000000)">
        <g id="hero-content" fill="#FFC107" fill-rule="nonzero">
            <g id="social-icons" transform="translate(595.000000, 646.000000)">
                <path d="M250.999699,9.50963974 C250.960316,8.44514208 250.067642,7.61391397 249.001029,7.65005433 C248.528437,7.66648176 248.078818,7.86032547 247.737502,8.18558864 C246.234397,7.16051682 244.468741,6.59869861 242.653856,6.55927278 L243.510429,2.43598709 L246.336135,3.03066017 C246.414901,3.75675271 247.064714,4.28243056 247.790012,4.20357888 C248.515309,4.12472721 249.040411,3.47420086 248.961646,2.74810832 C248.882881,2.02201578 248.233067,1.49633793 247.507769,1.5751896 C247.09097,1.61790093 246.716834,1.86102694 246.510075,2.22243046 L243.274133,1.5751896 C243.054247,1.5259073 242.83436,1.66389774 242.785132,1.88731083 C242.785132,1.89059632 242.785132,1.89059632 242.785132,1.8938818 L241.810411,6.4804211 C239.972554,6.50999048 238.183924,7.07509417 236.661128,8.10673696 C235.886602,7.37735894 234.66574,7.41349929 233.937161,8.19215962 C233.208581,8.96753445 233.244682,10.1897355 234.02249,10.9191135 C234.173457,11.0603894 234.347397,11.1819524 234.541028,11.2673751 C234.527901,11.4612188 234.527901,11.6550625 234.541028,11.8489062 C234.541028,14.8091296 237.987011,17.2173913 242.237057,17.2173913 C246.487102,17.2173913 249.933085,14.8124151 249.933085,11.8489062 C249.946213,11.6550625 249.946213,11.4612188 249.933085,11.2673751 C250.596026,10.9355409 251.012826,10.2521597 250.999699,9.50963974 Z M237.796662,10.8336908 C237.796662,10.1043128 238.390683,9.50963974 239.119263,9.50963974 C239.847842,9.50963974 240.441864,10.1043128 240.441864,10.8336908 C240.441864,11.5630689 239.847842,12.1577419 239.119263,12.1577419 C238.387401,12.151171 237.796662,11.5630689 237.796662,10.8336908 Z M245.466435,14.467439 C244.527815,15.1738186 243.379154,15.5352222 242.204238,15.4859399 C241.029322,15.5352222 239.880661,15.1738186 238.942041,14.467439 C238.817329,14.3163066 238.840302,14.0896081 238.991269,13.9647596 C239.122544,13.8563385 239.309612,13.8563385 239.44417,13.9647596 C240.238387,14.5462907 241.206544,14.8419845 242.19111,14.7959877 C243.175677,14.8485555 244.147116,14.5660036 244.951178,13.9910435 C245.095581,13.8497675 245.331877,13.853053 245.472999,13.9976144 C245.61412,14.1421758 245.610838,14.3787309 245.466435,14.5200068 L245.466435,14.467439 Z M245.230139,12.2037388 C244.50156,12.2037388 243.907538,11.6090657 243.907538,10.8796877 C243.907538,10.1503096 244.50156,9.55563655 245.230139,9.55563655 C245.958718,9.55563655 246.55274,10.1503096 246.55274,10.8796877 C246.582277,11.6090657 246.01451,12.2234517 245.285931,12.2530211 C245.262958,12.2530211 245.243266,12.2530211 245.220293,12.2530211 L245.230139,12.2037388 Z" id="reddit"></path>
            </g>
        </g>
    </g>
</svg>