<?xml version="1.0" encoding="utf-8"?>
<!-- Generator: Adobe Illustrator 19.0.0, SVG Export Plug-In . SVG Version: 6.00 Build 0)  -->
<svg version="1.1" id="图层_1" xmlns="http://www.w3.org/2000/svg" xmlns:xlink="http://www.w3.org/1999/xlink" x="0px" y="0px"
	 viewBox="0 0 480.4 131.1" style="enable-background:new 0 0 480.4 131.1;" xml:space="preserve">
<style type="text/css">
	.st0{fill:#FBF1DC;}
	.st1{fill-rule:evenodd;clip-rule:evenodd;fill:#F5BB1D;}
	.st2{fill:none;stroke:#FFFFFF;stroke-width:0.709;stroke-miterlimit:10;}
	.st3{fill:#040000;}
	.st4{font-family:'MicrosoftYaHeiUI-Bold';}
	.st5{font-size:7.9752px;}
	.st6{font-size:9px;}
</style>
<g id="XMLID_44_">
	<path id="XMLID_1_" class="st0" d="M474.7,131.1H5.9c-3.1,0-5.7-2.6-5.7-5.7V5.7C0.2,2.6,2.7,0,5.9,0h468.9c3.1,0,5.7,2.6,5.7,5.7
		v119.7C480.4,128.5,477.9,131.1,474.7,131.1z"/>
	<path id="XMLID_53_" class="st1" d="M475.3,20.1H5.3c-2.8,0-5.1-2.3-5.1-5.1V5.1C0.2,2.3,2.5,0,5.3,0h470c2.8,0,5.1,2.3,5.1,5.1
		v9.8C480.4,17.7,478.1,20.1,475.3,20.1"/>
	<path id="XMLID_52_" class="st1" d="M475.1,84.2H5.1c-2.8,0-5.1-2.3-5.1-5.1v-9.8c0-2.8,2.3-5.1,5.1-5.1h470c2.8,0,5.1,2.3,5.1,5.1
		v9.8C480.2,81.9,477.9,84.2,475.1,84.2"/>
	<line id="XMLID_51_" class="st2" x1="281.4" y1="0" x2="281.4" y2="131.1"/>
	<line id="XMLID_50_" class="st2" x1="209.8" y1="0" x2="209.8" y2="131.1"/>
	<line id="XMLID_49_" class="st2" x1="139.8" y1="0" x2="139.8" y2="131.1"/>
	<line id="XMLID_48_" class="st2" x1="69.2" y1="0" x2="69.2" y2="131.1"/>
	<line id="XMLID_47_" class="st2" x1="411.7" y1="0" x2="411.7" y2="131.1"/>
	<line id="XMLID_46_" class="st2" x1="347.1" y1="0" x2="347.1" y2="131.1"/>
	<text id="XMLID_43_" transform="matrix(1 0 0 1 26.5682 40.2529)" class="st3 st4 st5">USD</text>
	<text id="XMLID_42_" transform="matrix(1 0 0 1 20.5945 48.5547)" class="st3 st4 st5"> $0.150</text>
	<text id="XMLID_41_" transform="matrix(1 0 0 1 17.9969 12.4434)" class="st3 st4 st6">WEEK 1</text>
	<text id="XMLID_40_" transform="matrix(1 0 0 1 95.4573 40.2529)" class="st3 st4 st5">USD</text>
	<text id="XMLID_39_" transform="matrix(1 0 0 1 89.4842 48.5547)" class="st3 st4 st5"> $0.165</text>
	<text id="XMLID_38_" transform="matrix(1 0 0 1 86.886 12.4424)" class="st3 st4 st6">WEEK 2</text>
	<text id="XMLID_37_" transform="matrix(1 0 0 1 167.1077 40.2529)" class="st3 st4 st5">USD</text>
	<text id="XMLID_36_" transform="matrix(1 0 0 1 161.1346 48.5547)" class="st3 st4 st5"> $0.180</text>
	<text id="XMLID_35_" transform="matrix(1 0 0 1 157.1961 12.4424)" class="st3 st4 st6">WEEK 3 </text>
	<text id="XMLID_34_" transform="matrix(1 0 0 1 235.0862 40.2529)" class="st3 st4 st5">USD</text>
	<text id="XMLID_33_" transform="matrix(1 0 0 1 229.1131 48.5547)" class="st3 st4 st5"> $0.195</text>
	<text id="XMLID_32_" transform="matrix(1 0 0 1 226.5145 12.4434)" class="st3 st4 st6">WEEK 4</text>
	<text id="XMLID_31_" transform="matrix(1 0 0 1 307.0906 40.2529)" class="st3 st4 st5">USD</text>
	<text id="XMLID_30_" transform="matrix(1 0 0 1 301.118 48.5547)" class="st3 st4 st5"> $0.210</text>
	<text id="XMLID_29_" transform="matrix(1 0 0 1 298.5203 12.4434)" class="st3 st4 st6">WEEK 5</text>
	<text id="XMLID_28_" transform="matrix(1 0 0 1 371.7498 40.2529)" class="st3 st4 st5">USD</text>
	<text id="XMLID_27_" transform="matrix(1 0 0 1 365.7762 48.5547)" class="st3 st4 st5"> $0.225</text>
	<text id="XMLID_26_" transform="matrix(1 0 0 1 363.1785 12.4434)" class="st3 st4 st6">WEEK 6</text>
	<text id="XMLID_25_" transform="matrix(1 0 0 1 438.3074 39.2529)" class="st3 st4 st5">USD</text>
	<text id="XMLID_24_" transform="matrix(1 0 0 1 432.3348 47.5547)" class="st3 st4 st5"> $0.240</text>
	<text id="XMLID_23_" transform="matrix(1 0 0 1 429.7371 12.4443)" class="st3 st4 st6">WEEK 7</text>
	<text id="XMLID_22_" transform="matrix(1 0 0 1 25.4529 104.293)" class="st3 st4 st5">USD</text>
	<text id="XMLID_21_" transform="matrix(1 0 0 1 19.4793 112.5947)" class="st3 st4 st5"> $0.255</text>
	<text id="XMLID_20_" transform="matrix(1 0 0 1 16.8817 77.4834)" class="st3 st4 st6">WEEK 8</text>
	<text id="XMLID_19_" transform="matrix(1 0 0 1 97.1033 104.293)" class="st3 st4 st5">USD</text>
	<text id="XMLID_18_" transform="matrix(1 0 0 1 89.9417 112.5947)" class="st3 st4 st5"> $ 0.270</text>
	<text id="XMLID_17_" transform="matrix(1 0 0 1 88.532 77.4834)" class="st3 st4 st6">WEEK 9</text>
	<text id="XMLID_16_" transform="matrix(1 0 0 1 165.0818 104.293)" class="st3 st4 st5">USD</text>
	<text id="XMLID_15_" transform="matrix(1 0 0 1 159.1082 112.5947)" class="st3 st4 st5"> $0.285</text>
	<text id="XMLID_14_" transform="matrix(1 0 0 1 153.7352 77.4844)" class="st3 st4 st6">WEEK 10</text>
	<text id="XMLID_13_" transform="matrix(1 0 0 1 237.0867 104.293)" class="st3 st4 st5">USD</text>
	<text id="XMLID_12_" transform="matrix(1 0 0 1 231.1131 112.5947)" class="st3 st4 st5"> $0.300</text>
	<text id="XMLID_11_" transform="matrix(1 0 0 1 225.7401 77.4844)" class="st3 st4 st6">WEEK 11</text>
	<text id="XMLID_10_" transform="matrix(1 0 0 1 294.4012 77.4844)" class="st3 st4 st6">WEEK 12</text>
	<text id="XMLID_9_" transform="matrix(1 0 0 1 305.7459 104.293)" class="st3 st4 st5">USD</text>
	<text id="XMLID_8_" transform="matrix(1 0 0 1 299.7723 112.5947)" class="st3 st4 st5"> $0.315</text>
	<text id="XMLID_7_" transform="matrix(1 0 0 1 369.7791 105.29)" class="st3 st4 st5">USD</text>
	<text id="XMLID_6_" transform="matrix(1 0 0 1 363.8055 113.5918)" class="st3 st4 st5"> $0.330</text>
	<text id="XMLID_5_" transform="matrix(1 0 0 1 358.4324 77.4844)" class="st3 st4 st6">WEEK 13</text>
	<text id="XMLID_4_" transform="matrix(1 0 0 1 437.1883 104.293)" class="st3 st4 st5">USD</text>
	<text id="XMLID_3_" transform="matrix(1 0 0 1 431.2147 112.5947)" class="st3 st4 st5"> $0.345</text>
	<text id="XMLID_2_" transform="matrix(1 0 0 1 425.8416 77.4844)" class="st3 st4 st6">WEEK 14</text>
</g>
</svg>
