<?xml version="1.0" encoding="utf-8"?>
<!-- Generator: Adobe Illustrator 19.0.0, SVG Export Plug-In . SVG Version: 6.00 Build 0)  -->
<svg version="1.1" id="图层_1" xmlns="http://www.w3.org/2000/svg" xmlns:xlink="http://www.w3.org/1999/xlink" x="0px" y="0px"
	 viewBox="-284 50.7 26.6 741.2" style="enable-background:new -284 50.7 26.6 741.2;" xml:space="preserve">
<style type="text/css">
	.st0{opacity:0.4;fill:none;stroke:#263238;enable-background:new    ;}
	.st1{fill:#FFFFFF;stroke:#263238;}
</style>
<title>Group 3</title>
<desc>Created with Sketch.</desc>
<g>
	<polyline id="Page-1_3_" class="st0" points="-266,481.3 -283.2,511.6 -266,541.9 -283.2,572.2 -266,602.5 -283.2,632.8 
		-266,663.1 -283.2,693.5 -266,723.8 -283.2,754.1 -266,784.4 	"/>
	<polyline id="Page-1_2_" class="st0" points="-265.8,58.8 -283.1,89.1 -265.8,119.4 -283.1,149.7 -265.8,180 -283.1,210.3 
		-265.8,240.7 -283.1,271 -265.8,301.3 -283.1,331.6 -265.8,361.9 -283.1,392.2 -265.8,422.5 -283.1,452.8 -265.8,483.1 	"/>
	<polygon id="Polygon-Copy-190" class="st1" points="-274.1,241.3 -270.1,248.2 -262.1,248.2 -258.1,241.3 -262.1,234.4 
		-270.1,234.4 	"/>
	<polygon id="Polygon-Copy-190_2_" class="st1" points="-273.8,301.3 -269.8,308.2 -261.8,308.2 -257.8,301.3 -261.8,294.4 
		-269.8,294.4 	"/>
	<polygon id="Polygon-Copy-191" class="st1" points="-274.1,362.3 -270.1,369.2 -262.1,369.2 -258.1,362.3 -262.1,355.4 
		-270.1,355.4 	"/>
	<polygon id="Polygon-Copy-191_1_" class="st1" points="-274.1,422.2 -270.1,429.1 -262.1,429.1 -258.1,422.2 -262.1,415.3 
		-270.1,415.3 	"/>
	<polygon id="Polygon-Copy-192" class="st1" points="-274.1,481.3 -270.1,488.2 -262.1,488.2 -258.1,481.3 -262.1,474.4 
		-270.1,474.4 	"/>
	<polygon id="Polygon-Copy-189" class="st1" points="-274.1,120.3 -270.1,127.2 -262.1,127.2 -258.1,120.3 -262.1,113.4 
		-270.1,113.4 	"/>
	<polygon id="Polygon-Copy-189_6_" class="st1" points="-274.1,179.4 -270.1,186.3 -262.1,186.3 -258.1,179.4 -262.1,172.5 
		-270.1,172.5 	"/>
	<polygon id="Polygon-Copy-189_3_" class="st1" points="-274.5,58 -270.5,64.9 -262.5,64.9 -258.5,58 -262.5,51.1 -270.5,51.1 	"/>
	<polygon id="Polygon-Copy-190_3_" class="st1" points="-274.2,724.4 -270.2,731.3 -262.2,731.3 -258.2,724.4 -262.2,717.5 
		-270.2,717.5 	"/>
	<polygon id="Polygon-Copy-190_1_" class="st1" points="-274,784.4 -270,791.3 -262,791.3 -258,784.4 -262,777.5 -270,777.5 	"/>
	<polygon id="Polygon-Copy-189_4_" class="st1" points="-274.2,603.4 -270.2,610.3 -262.2,610.3 -258.2,603.4 -262.2,596.5 
		-270.2,596.5 	"/>
	<polygon id="Polygon-Copy-189_2_" class="st1" points="-274.2,662.5 -270.2,669.4 -262.2,669.4 -258.2,662.5 -262.2,655.6 
		-270.2,655.6 	"/>
	<polygon id="Polygon-Copy-189_1_" class="st1" points="-274.6,541.1 -270.6,548 -262.6,548 -258.6,541.1 -262.6,534.2 
		-270.6,534.2 	"/>
</g>
</svg>
