<?xml version="1.0" encoding="UTF-8"?>
<svg width="27px" height="611px" viewBox="0 0 27 611" version="1.1" xmlns="http://www.w3.org/2000/svg" xmlns:xlink="http://www.w3.org/1999/xlink">
    <!-- Generator: Sketch 48.2 (47327) - http://www.bohemiancoding.com/sketch -->
    <title>Group 3</title>
    <desc>Created with Sketch.</desc>
    <defs></defs>
    <g id="bee-v3/08-roadmap" stroke="none" stroke-width="1" fill="none" fill-rule="evenodd" transform="translate(-642.000000, -139.000000)">
        <g id="Group-3" transform="translate(643.000000, 140.000000)" stroke="#263238">
            <polyline id="Page-1" opacity="0.4" points="17.2782984 3.78703609 0 34.0974463 17.2782984 64.4078565 0 94.7198534 17.2782984 125.030264 0 155.340674 17.2782984 185.651084 0 215.961494 17.2782984 246.273491 0 276.583901 17.2782984 306.894311 0 337.204722 17.2782984 367.515132 0 397.827129 17.2782984 428.137539 0 458.447949 17.2782984 488.758359 0 519.068769 17.2782984 549.37918 0 579.68959 17.2782984 610"></polyline>
            <polygon id="Polygon-Copy-190" fill="#FFC107" points="9 246.899083 13 253.798165 21 253.798165 25 246.899083 21 240 13 240"></polygon>
            <polygon id="Polygon-Copy-191" fill="#FFC107" points="9 367.899083 13 374.798165 21 374.798165 25 367.899083 21 361 13 361"></polygon>
            <polygon id="Polygon-Copy-192" fill="#FFC107" points="9 486.899083 13 493.798165 21 493.798165 25 486.899083 21 480 13 480"></polygon>
            <polygon id="Polygon-Copy-189" fill="#FFC107" points="9 125.899083 13 132.798165 21 132.798165 25 125.899083 21 119 13 119"></polygon>
            <polygon id="Polygon-Copy-189" fill="#FFC107" points="9 6.89908257 13 13.7981651 21 13.7981651 25 6.89908257 21 2.09646275e-15 13 0"></polygon>
        </g>
    </g>
</svg>