<?xml version="1.0" encoding="UTF-8"?>
<svg width="520px" height="202px" viewBox="0 0 520 202" version="1.1" xmlns="http://www.w3.org/2000/svg" xmlns:xlink="http://www.w3.org/1999/xlink">
    <!-- Generator: Sketch 48.2 (47327) - http://www.bohemiancoding.com/sketch -->
    <title>Group 43</title>
    <desc>Created with Sketch.</desc>
    <defs></defs>
    <g id="bee-v3/07-token" stroke="none" stroke-width="1" fill="none" fill-rule="evenodd" transform="translate(-505.000000, -370.000000)">
        <g id="Group-7" transform="translate(458.000000, 371.000000)">
            <g id="Group-43" transform="translate(47.000000, 0.000000)">
                <g id="Group-41" transform="translate(139.000000, 0.000000)">
                    <g id="Page-1">
                        <g id="Group-10" transform="translate(0.000000, 85.000000)">
                            <polygon id="Fill-2" fill="#FFA000" points="8.5290764 30 25.5432915 30 34 15.0201554 25.6268592 0 8.51098442 0 0 15.0201554"></polygon>
                            <polygon id="Stroke-3" stroke="#ECEFF1" stroke-width="0.72" points="8.5290764 30 25.5432915 30 34 15.0201554 25.6268592 0 8.51098442 0 0 15.0201554"></polygon>
                        </g>
                        <g id="Group-13" transform="translate(29.000000, 102.000000)">
                            <polygon id="Fill-4" fill="#FFA000" points="8.5290764 30 25.5432915 30 34 15.0197178 25.6268592 0 8.51098442 0 0 15.0197178"></polygon>
                            <polygon id="Stroke-5" stroke="#ECEFF1" stroke-width="0.72" points="8.5290764 30 25.5432915 30 34 15.0197178 25.6268592 0 8.51098442 0 0 15.0197178"></polygon>
                        </g>
                        <g id="Group-9" transform="translate(0.000000, 51.000000)">
                            <polygon id="Fill-6" fill="#FFA000" points="8.5290764 30 25.5432915 30 34 15.0201554 25.6259977 0 8.51098442 0 0 15.0201554"></polygon>
                            <polygon id="Stroke-7" stroke="#ECEFF1" stroke-width="0.72" points="8.5290764 30 25.5432915 30 34 15.0201554 25.6259977 0 8.51098442 0 0 15.0201554"></polygon>
                        </g>
                        <g id="Group-14" transform="translate(29.000000, 68.000000)">
                            <polygon id="Fill-8" fill="#FFECB3" points="8.5290764 30 25.5432915 30 34 15.0201554 25.6268592 0 8.51098442 0 0 15.0201554"></polygon>
                            <polygon id="Stroke-9" stroke="#ECEFF1" stroke-width="0.72" points="8.5290764 30 25.5432915 30 34 15.0201554 25.6268592 0 8.51098442 0 0 15.0201554"></polygon>
                        </g>
                        <g id="Group-18" transform="translate(58.000000, 85.000000)">
                            <polygon id="Fill-10" fill="#FFECB3" points="8.5290764 30 25.5432915 30 34 15.0201554 25.6268592 0 8.51098442 0 0 15.0201554"></polygon>
                            <polygon id="Stroke-11" stroke="#ECEFF1" stroke-width="0.72" points="8.5290764 30 25.5432915 30 34 15.0201554 25.6268592 0 8.51098442 0 0 15.0201554"></polygon>
                        </g>
                        <g id="Group-17" transform="translate(58.000000, 51.000000)">
                            <polygon id="Fill-12" fill="#FFECB3" points="8.5290764 30 25.5432915 30 34 15.0201554 25.6268592 0 8.51098442 0 0 15.0201554"></polygon>
                            <polygon id="Stroke-13" stroke="#ECEFF1" stroke-width="0.72" points="8.5290764 30 25.5432915 30 34 15.0201554 25.6268592 0 8.51098442 0 0 15.0201554"></polygon>
                        </g>
                        <g id="Group-15" transform="translate(29.000000, 34.000000)">
                            <polygon id="Fill-14" fill="#FFECB3" points="8.5290764 30 25.5432915 30 34 15.0201554 25.6259977 0 8.51098442 0 0 15.0201554"></polygon>
                            <polygon id="Stroke-15" stroke="#ECEFF1" stroke-width="0.72" points="8.5290764 30 25.5432915 30 34 15.0201554 25.6259977 0 8.51098442 0 0 15.0201554"></polygon>
                        </g>
                        <g id="Group-23" transform="translate(87.000000, 102.000000)">
                            <polygon id="Fill-16" fill="#FFD54F" points="8.52972179 30 25.5435058 30 34 15.0201554 25.6262099 0 8.51163026 0 0 15.0201554"></polygon>
                            <polygon id="Stroke-17" stroke="#ECEFF1" stroke-width="0.72" points="8.52972179 30 25.5435058 30 34 15.0201554 25.6262099 0 8.51163026 0 0 15.0201554"></polygon>
                        </g>
                        <g id="Group-30" transform="translate(116.000000, 119.000000)">
                            <polygon id="Fill-18" fill="#FFD54F" points="8.5290764 30 25.5432915 30 34 15.0201554 25.6268592 0 8.51098442 0 0 15.0201554"></polygon>
                            <polygon id="Stroke-19" stroke="#ECEFF1" stroke-width="0.72" points="8.5290764 30 25.5432915 30 34 15.0201554 25.6268592 0 8.51098442 0 0 15.0201554"></polygon>
                        </g>
                        <g id="Group-24" transform="translate(87.000000, 68.000000)">
                            <polygon id="Fill-20" fill="#FFECB3" points="8.5290764 30 25.5432915 30 34 15.0201554 25.6259977 0 8.51098442 0 0 15.0201554"></polygon>
                            <polygon id="Stroke-21" stroke="#ECEFF1" stroke-width="0.72" points="8.5290764 30 25.5432915 30 34 15.0201554 25.6259977 0 8.51098442 0 0 15.0201554"></polygon>
                        </g>
                        <g id="Group-16" transform="translate(58.000000, 17.000000)">
                            <polygon id="Fill-22" fill="#FFECB3" points="8.5290764 30 25.5432915 30 34 15.0205942 25.6259977 0 8.51098442 0 0 15.0205942"></polygon>
                            <polygon id="Stroke-23" stroke="#ECEFF1" stroke-width="0.72" points="8.5290764 30 25.5432915 30 34 15.0205942 25.6259977 0 8.51098442 0 0 15.0205942"></polygon>
                        </g>
                        <g id="Group-26" transform="translate(87.000000, 0.000000)">
                            <polygon id="Fill-24" fill="#FFECB3" points="8.51163026 0 0 15.0205942 8.52972179 30 25.5426443 30 34 15.0205942 25.6270714 0"></polygon>
                            <polygon id="Stroke-25" stroke="#ECEFF1" stroke-width="0.72" points="8.5290764 30 25.5432915 30 34 15.0197178 25.6268592 0 8.51098442 0 0 15.0197178"></polygon>
                        </g>
                        <g id="Group-12" transform="translate(29.000000, 136.000000)">
                            <polygon id="Fill-27" fill="#FFD54F" points="8.5290764 30 25.5432915 30 34 15.0201554 25.6268592 0 8.51098442 0 0 15.0201554"></polygon>
                            <polygon id="Stroke-28" stroke="#ECEFF1" stroke-width="0.72" points="8.5290764 30 25.5432915 30 34 15.0201554 25.6268592 0 8.51098442 0 0 15.0201554"></polygon>
                        </g>
                        <g id="Group-20" transform="translate(58.000000, 153.000000)">
                            <polygon id="Fill-29" fill="#FFD54F" points="8.52972179 30 25.5435058 30 34 15.0197178 25.6262099 0 8.51163026 0 0 15.0197178"></polygon>
                            <polygon id="Stroke-30" stroke="#ECEFF1" stroke-width="0.72" points="8.52972179 30 25.5435058 30 34 15.0197178 25.6262099 0 8.51163026 0 0 15.0197178"></polygon>
                        </g>
                        <g id="Group-21" transform="translate(87.000000, 170.000000)">
                            <polygon id="Fill-31" fill="#FFD54F" points="8.51163026 0 0 15.0205942 8.52972179 30 25.5435058 30 34 15.0205942 25.6270714 0"></polygon>
                            <polygon id="Stroke-32" stroke="#ECEFF1" stroke-width="0.72" points="8.5290764 30 25.544153 30 34 15.0197178 25.6268592 0 8.51098442 0 0 15.0197178"></polygon>
                        </g>
                        <g id="Group-22" transform="translate(87.000000, 136.000000)">
                            <polygon id="Fill-34" fill="#FFD54F" points="8.5290764 30 25.544153 30 34 15.0197178 25.6268592 0 8.51098442 0 0 15.0197178"></polygon>
                            <polygon id="Stroke-35" stroke="#ECEFF1" stroke-width="0.72" points="8.5290764 30 25.544153 30 34 15.0197178 25.6268592 0 8.51098442 0 0 15.0197178"></polygon>
                        </g>
                        <g id="Group-19" transform="translate(58.000000, 119.000000)">
                            <polygon id="Fill-36" fill="#FFD54F" points="8.52972179 30 25.5435058 30 34 15.0201554 25.6262099 0 8.51163026 0 0 15.0201554"></polygon>
                            <polygon id="Stroke-37" stroke="#ECEFF1" stroke-width="0.72" points="8.52972179 30 25.5435058 30 34 15.0201554 25.6262099 0 8.51163026 0 0 15.0201554"></polygon>
                        </g>
                        <g id="Group-11" transform="translate(0.000000, 119.000000)">
                            <polygon id="Fill-38" fill="#FFA000" points="8.5290764 30 25.5432915 30 34 15.0197178 25.6268592 0 8.51098442 0 0 15.0197178"></polygon>
                            <polygon id="Stroke-39" stroke="#ECEFF1" stroke-width="0.72" points="8.5290764 30 25.5432915 30 34 15.0197178 25.6268592 0 8.51098442 0 0 15.0197178"></polygon>
                        </g>
                        <g id="Group-31" transform="translate(116.000000, 153.000000)">
                            <polygon id="Fill-40" fill="#FFD54F" points="8.5290764 30 25.5432915 30 34 15.0201554 25.6259977 0 8.51098442 0 0 15.0201554"></polygon>
                            <polygon id="Stroke-41" stroke="#ECEFF1" stroke-width="0.72" points="8.5290764 30 25.5432915 30 34 15.0201554 25.6259977 0 8.51098442 0 0 15.0201554"></polygon>
                        </g>
                        <g id="Group-32" transform="translate(145.000000, 136.000000)">
                            <polygon id="Fill-42" fill="#FFD54F" points="8.5290764 30 25.5432915 30 34 15.0197178 25.6268592 0 8.51098442 0 0 15.0197178"></polygon>
                            <polygon id="Stroke-43" stroke="#ECEFF1" stroke-width="0.72" points="8.5290764 30 25.5432915 30 34 15.0197178 25.6268592 0 8.51098442 0 0 15.0197178"></polygon>
                        </g>
                        <g id="Group-40" transform="translate(174.000000, 119.000000)">
                            <polygon id="Fill-44" fill="#FFC107" points="8.5290764 30 25.5432915 30 34 15.0205942 25.6268592 0 8.51098442 0 0 15.0205942"></polygon>
                            <polygon id="Stroke-45" stroke="#ECEFF1" stroke-width="0.72" points="8.5290764 30 25.5432915 30 34 15.0205942 25.6268592 0 8.51098442 0 0 15.0205942"></polygon>
                        </g>
                        <g id="Group-29" transform="translate(116.000000, 85.000000)">
                            <polygon id="Fill-46" fill="#FFC107" points="8.5290764 30 25.5432915 30 34 15.0201554 25.6268592 0 8.51098442 0 0 15.0201554"></polygon>
                            <polygon id="Stroke-47" stroke="#ECEFF1" stroke-width="0.72" points="8.5290764 30 25.5432915 30 34 15.0201554 25.6268592 0 8.51098442 0 0 15.0201554"></polygon>
                        </g>
                        <g id="Group-33" transform="translate(145.000000, 102.000000)">
                            <polygon id="Fill-48" fill="#FFC107" points="8.5290764 30 25.5432915 30 34 15.0201554 25.6268592 0 8.51098442 0 0 15.0201554"></polygon>
                            <polygon id="Stroke-49" stroke="#ECEFF1" stroke-width="0.72" points="8.5290764 30 25.5432915 30 34 15.0201554 25.6268592 0 8.51098442 0 0 15.0201554"></polygon>
                        </g>
                        <g id="Group-34" transform="translate(145.000000, 68.000000)">
                            <polygon id="Fill-50" fill="#FFC107" points="8.5290764 30 25.5432915 30 34 15.0201554 25.6268592 0 8.51098442 0 0 15.0201554"></polygon>
                            <polygon id="Stroke-51" stroke="#ECEFF1" stroke-width="0.72" points="8.5290764 30 25.5432915 30 34 15.0201554 25.6268592 0 8.51098442 0 0 15.0201554"></polygon>
                        </g>
                        <g id="Group-28" transform="translate(116.000000, 51.000000)">
                            <polygon id="Fill-52" fill="#FFC107" points="8.5290764 30 25.5432915 30 34 15.0197178 25.6268592 0 8.51098442 0 0 15.0197178"></polygon>
                            <polygon id="Stroke-53" stroke="#ECEFF1" stroke-width="0.72" points="8.5290764 30 25.5432915 30 34 15.0197178 25.6268592 0 8.51098442 0 0 15.0197178"></polygon>
                        </g>
                        <g id="Group-27" transform="translate(116.000000, 17.000000)">
                            <polygon id="Fill-54" fill="#FFC107" points="8.5290764 30 25.5432915 30 34 15.0205942 25.6268592 0 8.51098442 0 0 15.0205942"></polygon>
                            <polygon id="Stroke-55" stroke="#ECEFF1" stroke-width="0.72" points="8.5290764 30 25.5432915 30 34 15.0205942 25.6268592 0 8.51098442 0 0 15.0205942"></polygon>
                        </g>
                        <g id="Group-37" transform="translate(145.000000, 34.000000)">
                            <polygon id="Fill-56" fill="#FFC107" points="8.52972179 30 25.5435058 30 34 15.0201554 25.6262099 0 8.51163026 0 0 15.0201554"></polygon>
                            <polygon id="Stroke-57" stroke="#ECEFF1" stroke-width="0.72" points="8.52972179 30 25.5435058 30 34 15.0201554 25.6262099 0 8.51163026 0 0 15.0201554"></polygon>
                        </g>
                        <g id="Group-38" transform="translate(174.000000, 51.000000)">
                            <polygon id="Fill-58" fill="#FFC107" points="8.5290764 30 25.5432915 30 34 15.0201554 25.6268592 0 8.51098442 0 0 15.0201554"></polygon>
                            <polygon id="Stroke-59" stroke="#ECEFF1" stroke-width="0.72" points="8.5290764 30 25.5432915 30 34 15.0201554 25.6268592 0 8.51098442 0 0 15.0201554"></polygon>
                        </g>
                        <g id="Group-39" transform="translate(174.000000, 85.000000)">
                            <polygon id="Fill-60" fill="#FFC107" points="8.5290764 30 25.5432915 30 34 15.0197178 25.6259977 0 8.51098442 0 0 15.0197178"></polygon>
                            <polygon id="Stroke-61" stroke="#ECEFF1" stroke-width="0.72" points="8.5290764 30 25.5432915 30 34 15.0197178 25.6259977 0 8.51098442 0 0 15.0197178"></polygon>
                        </g>
                        <g id="Group-25" transform="translate(87.000000, 34.000000)">
                            <polygon id="Fill-62" fill="#FFECB3" points="8.5290764 30 25.5432915 30 34 15.0201554 25.6268592 0 8.51098442 0 0 15.0201554"></polygon>
                            <polygon id="Stroke-63" stroke="#ECEFF1" stroke-width="0.72" points="8.5290764 30 25.5432915 30 34 15.0201554 25.6268592 0 8.51098442 0 0 15.0201554"></polygon>
                        </g>
                    </g>
                </g>
                <g id="Group-3" transform="translate(0.000000, 23.000000)">
                    <path d="M2.508,2.5 L151.513423,2.5" id="Line" stroke="#FFC107" stroke-linecap="square"></path>
                    <circle id="Oval-5" fill="#FFC107" cx="2.5" cy="2.5" r="2.5"></circle>
                </g>
                <g id="Group-3-Copy-3" transform="translate(415.500000, 183.500000) scale(-1, 1) translate(-415.500000, -183.500000) translate(312.000000, 181.000000)">
                    <path d="M2.5,2.5 L206.509804,2.5" id="Line" stroke="#FFC107" stroke-linecap="square"></path>
                    <circle id="Oval-5" fill="#FFC107" cx="2.5" cy="2.5" r="2.5"></circle>
                </g>
                <g id="Group-3-Copy" transform="translate(0.000000, 117.000000)">
                    <path d="M2.46634615,2.5 L113.504503,2.5" id="Line" stroke="#FFC107" stroke-linecap="square"></path>
                    <circle id="Oval-5" fill="#FFC107" cx="2.5" cy="2.5" r="2.5"></circle>
                </g>
                <g id="Group-4" transform="translate(377.000000, 13.000000)">
                    <g id="Group-3-Copy-2" transform="translate(77.000000, 35.500000) scale(-1, 1) translate(-77.000000, -35.500000) translate(11.000000, 33.000000)">
                        <path d="M2.5,2.5 L131.5,2.5" id="Line" stroke="#FFC107" stroke-linecap="square"></path>
                        <circle id="Oval-5" fill="#FFC107" cx="2.5" cy="2.5" r="2.5"></circle>
                    </g>
                    <g id="Group-2" stroke="#FFC107" stroke-linecap="square">
                        <path d="M0.0964912281,125.5 L10.9876113,125.5" id="Line"></path>
                        <path d="M0.0964912281,0.5 L10.9876113,0.5" id="Line-Copy"></path>
                        <path d="M11.4269006,0.583333333 L11.4269006,125.416667" id="Line-Copy-2"></path>
                    </g>
                </g>
            </g>
        </g>
    </g>
</svg>