<?xml version="1.0" encoding="utf-8"?>
<!-- Generator: Adobe Illustrator 19.0.0, SVG Export Plug-In . SVG Version: 6.00 Build 0)  -->
<svg version="1.1" id="图层_1" xmlns="http://www.w3.org/2000/svg" xmlns:xlink="http://www.w3.org/1999/xlink" x="0px" y="0px"
	 viewBox="-37 319.9 520 202" style="enable-background:new -37 319.9 520 202;" xml:space="preserve">
<style type="text/css">
	.st0{fill:#FFA000;}
	.st1{fill:none;stroke:#ECEFF1;stroke-width:0.72;}
	.st2{fill:#FFECB3;}
	.st3{fill:#FFC107;}
	.st4{fill:#A3A3A3;}
	.st5{fill:#FFD54F;}
	.st6{fill:none;stroke:#FFC107;stroke-linecap:square;}
</style>
<title>Group 43</title>
<desc>Created with Sketch.</desc>
<g id="Group-10" transform="translate(0.000000, 85.000000)">
	<polygon id="Fill-2" class="st0" points="110.5,350.9 127.5,350.9 136,335.9 127.6,320.9 110.5,320.9 102,335.9 	"/>
	<polygon id="Stroke-3" class="st1" points="110.5,350.9 127.5,350.9 136,335.9 127.6,320.9 110.5,320.9 102,335.9 	"/>
</g>
<g id="Group-13" transform="translate(29.000000, 102.000000)">
	<polygon id="Fill-4" class="st0" points="110.5,350.9 127.5,350.9 136,335.9 127.6,320.9 110.5,320.9 102,335.9 	"/>
	<polygon id="Stroke-5" class="st1" points="110.5,350.9 127.5,350.9 136,335.9 127.6,320.9 110.5,320.9 102,335.9 	"/>
</g>
<g id="Group-9" transform="translate(0.000000, 51.000000)">
	<polygon id="Fill-6" class="st0" points="110.5,350.9 127.5,350.9 136,335.9 127.6,320.9 110.5,320.9 102,335.9 	"/>
	<polygon id="Stroke-7" class="st1" points="110.5,350.9 127.5,350.9 136,335.9 127.6,320.9 110.5,320.9 102,335.9 	"/>
</g>
<g id="Group-14" transform="translate(29.000000, 68.000000)">
	<polygon id="Fill-8" class="st0" points="110.5,350.9 127.5,350.9 136,335.9 127.6,320.9 110.5,320.9 102,335.9 	"/>
	<polygon id="Stroke-9" class="st1" points="110.5,350.9 127.5,350.9 136,335.9 127.6,320.9 110.5,320.9 102,335.9 	"/>
</g>
<g id="Group-18" transform="translate(58.000000, 85.000000)">
	<polygon id="Fill-10" class="st0" points="110.5,350.9 127.5,350.9 136,335.9 127.6,320.9 110.5,320.9 102,335.9 	"/>
	<polygon id="Stroke-11" class="st1" points="110.5,350.9 127.5,350.9 136,335.9 127.6,320.9 110.5,320.9 102,335.9 	"/>
</g>
<g id="Group-17" transform="translate(58.000000, 51.000000)">
	<polygon id="Fill-12" class="st2" points="110.5,350.9 127.5,350.9 136,335.9 127.6,320.9 110.5,320.9 102,335.9 	"/>
	<polygon id="Stroke-13" class="st1" points="110.5,350.9 127.5,350.9 136,335.9 127.6,320.9 110.5,320.9 102,335.9 	"/>
</g>
<g id="Group-15" transform="translate(29.000000, 34.000000)">
	<polygon id="Fill-14" class="st2" points="110.5,350.9 127.5,350.9 136,335.9 127.6,320.9 110.5,320.9 102,335.9 	"/>
	<polygon id="Stroke-15" class="st1" points="110.5,350.9 127.5,350.9 136,335.9 127.6,320.9 110.5,320.9 102,335.9 	"/>
</g>
<g id="Group-23" transform="translate(87.000000, 102.000000)">
	<polygon id="Fill-16" class="st3" points="110.5,350.9 127.5,350.9 136,335.9 127.6,320.9 110.5,320.9 102,335.9 	"/>
	<polygon id="Stroke-17" class="st3" points="110.5,350.9 127.5,350.9 136,335.9 127.6,320.9 110.5,320.9 102,335.9 	"/>
</g>
<g id="Group-30" transform="translate(116.000000, 119.000000)">
	<polygon id="Fill-18" class="st3" points="110.5,350.9 127.5,350.9 136,335.9 127.6,320.9 110.5,320.9 102,335.9 	"/>
	<polygon id="Stroke-19" class="st3" points="110.5,350.9 127.5,350.9 136,335.9 127.6,320.9 110.5,320.9 102,335.9 	"/>
</g>
<g id="Group-24" transform="translate(87.000000, 68.000000)">
	<polygon id="Fill-20" class="st2" points="110.5,350.9 127.5,350.9 136,335.9 127.6,320.9 110.5,320.9 102,335.9 	"/>
	<polygon id="Stroke-21" class="st1" points="110.5,350.9 127.5,350.9 136,335.9 127.6,320.9 110.5,320.9 102,335.9 	"/>
</g>
<g id="Group-16" transform="translate(58.000000, 17.000000)">
	<polygon id="Fill-22" class="st2" points="110.5,350.9 127.5,350.9 136,335.9 127.6,320.9 110.5,320.9 102,335.9 	"/>
	<polygon id="Stroke-23" class="st1" points="110.5,350.9 127.5,350.9 136,335.9 127.6,320.9 110.5,320.9 102,335.9 	"/>
</g>
<g id="Group-26" transform="translate(87.000000, 0.000000)">
	<polygon id="Fill-24" class="st2" points="110.5,320.9 102,335.9 110.5,350.9 127.5,350.9 136,335.9 127.6,320.9 	"/>
	<polygon id="Stroke-25" class="st1" points="110.5,350.9 127.5,350.9 136,335.9 127.6,320.9 110.5,320.9 102,335.9 	"/>
</g>
<g id="Group-12" transform="translate(29.000000, 136.000000)">
	<g id="Fill-27">
		<polygon class="st4" points="110.5,350.9 127.5,350.9 136,335.9 127.6,320.9 110.5,320.9 102,335.9 		"/>
	</g>
	<g id="Stroke-28">
		<polygon class="st4" points="110.5,350.9 127.5,350.9 136,335.9 127.6,320.9 110.5,320.9 102,335.9 		"/>
		<path class="st4" d="M127.8,351.3h-17.4l-8.7-15.3l8.7-15.4h17.5l8.6,15.4L127.8,351.3z M110.7,350.5h16.6l8.3-14.6l-8.2-14.7
			h-16.7l-8.3,14.7L110.7,350.5z"/>
	</g>
</g>
<g id="Group-20" transform="translate(58.000000, 153.000000)">
	<g id="Fill-29">
		<polygon class="st4" points="110.5,350.9 127.5,350.9 136,335.9 127.6,320.9 110.5,320.9 102,335.9 		"/>
	</g>
	<g id="Stroke-30">
		<polygon class="st4" points="110.5,350.9 127.5,350.9 136,335.9 127.6,320.9 110.5,320.9 102,335.9 		"/>
		<path class="st4" d="M127.8,351.3h-17.4l-8.7-15.3l8.7-15.4h17.5l8.6,15.4L127.8,351.3z M110.7,350.5h16.6l8.3-14.6l-8.2-14.7
			h-16.7l-8.3,14.7L110.7,350.5z"/>
	</g>
</g>
<g id="Group-21" transform="translate(87.000000, 170.000000)">
	<g id="Fill-31">
		<polygon class="st4" points="110.5,320.9 102,335.9 110.5,350.9 127.5,350.9 136,335.9 127.6,320.9 		"/>
	</g>
	<g id="Stroke-32">
		<polygon class="st4" points="110.5,350.9 127.5,350.9 136,335.9 127.6,320.9 110.5,320.9 102,335.9 		"/>
		<path class="st4" d="M127.8,351.3h-17.4l-8.7-15.3l8.7-15.4h17.5l8.6,15.4L127.8,351.3z M110.7,350.5h16.6l8.3-14.6l-8.2-14.7
			h-16.7l-8.3,14.7L110.7,350.5z"/>
	</g>
</g>
<g id="Group-22" transform="translate(87.000000, 136.000000)">
	<polygon id="Fill-34" class="st5" points="110.5,350.9 127.5,350.9 136,335.9 127.6,320.9 110.5,320.9 102,335.9 	"/>
	<polygon id="Stroke-35" class="st1" points="110.5,350.9 127.5,350.9 136,335.9 127.6,320.9 110.5,320.9 102,335.9 	"/>
</g>
<g id="Group-19" transform="translate(58.000000, 119.000000)">
	<g id="Fill-36">
		<polygon class="st5" points="110.5,350.9 127.5,350.9 136,335.9 127.6,320.9 110.5,320.9 102,335.9 		"/>
	</g>
	<g id="Stroke-37">
		<polygon class="st5" points="110.5,350.9 127.5,350.9 136,335.9 127.6,320.9 110.5,320.9 102,335.9 		"/>
		<path class="st5" d="M127.8,351.3h-17.4l-8.7-15.3l8.7-15.4h17.5l8.6,15.4L127.8,351.3z M110.7,350.5h16.6l8.3-14.6l-8.2-14.7
			h-16.7l-8.3,14.7L110.7,350.5z"/>
	</g>
</g>
<g id="Group-11" transform="translate(0.000000, 119.000000)">
	<polygon id="Fill-38" class="st0" points="110.5,350.9 127.5,350.9 136,335.9 127.6,320.9 110.5,320.9 102,335.9 	"/>
	<polygon id="Stroke-39" class="st1" points="110.5,350.9 127.5,350.9 136,335.9 127.6,320.9 110.5,320.9 102,335.9 	"/>
</g>
<g id="Group-31" transform="translate(116.000000, 153.000000)">
	<polygon id="Fill-40" class="st5" points="110.5,350.9 127.5,350.9 136,335.9 127.6,320.9 110.5,320.9 102,335.9 	"/>
	<polygon id="Stroke-41" class="st1" points="110.5,350.9 127.5,350.9 136,335.9 127.6,320.9 110.5,320.9 102,335.9 	"/>
</g>
<g id="Group-32" transform="translate(145.000000, 136.000000)">
	<polygon id="Fill-42" class="st3" points="110.5,350.9 127.5,350.9 136,335.9 127.6,320.9 110.5,320.9 102,335.9 	"/>
	<polygon id="Stroke-43" class="st3" points="110.5,350.9 127.5,350.9 136,335.9 127.6,320.9 110.5,320.9 102,335.9 	"/>
</g>
<g id="Group-40" transform="translate(174.000000, 119.000000)">
	<polygon id="Fill-44" class="st3" points="110.5,350.9 127.5,350.9 136,335.9 127.6,320.9 110.5,320.9 102,335.9 	"/>
	<polygon id="Stroke-45" class="st1" points="110.5,350.9 127.5,350.9 136,335.9 127.6,320.9 110.5,320.9 102,335.9 	"/>
</g>
<g id="Group-29" transform="translate(116.000000, 85.000000)">
	<polygon id="Fill-46" class="st3" points="110.5,350.9 127.5,350.9 136,335.9 127.6,320.9 110.5,320.9 102,335.9 	"/>
	<polygon id="Stroke-47" class="st1" points="110.5,350.9 127.5,350.9 136,335.9 127.6,320.9 110.5,320.9 102,335.9 	"/>
</g>
<g id="Group-33" transform="translate(145.000000, 102.000000)">
	<polygon id="Fill-48" class="st3" points="110.5,350.9 127.5,350.9 136,335.9 127.6,320.9 110.5,320.9 102,335.9 	"/>
	<polygon id="Stroke-49" class="st1" points="110.5,350.9 127.5,350.9 136,335.9 127.6,320.9 110.5,320.9 102,335.9 	"/>
</g>
<g id="Group-34" transform="translate(145.000000, 68.000000)">
	<polygon id="Fill-50" class="st3" points="110.5,350.9 127.5,350.9 136,335.9 127.6,320.9 110.5,320.9 102,335.9 	"/>
	<polygon id="Stroke-51" class="st1" points="110.5,350.9 127.5,350.9 136,335.9 127.6,320.9 110.5,320.9 102,335.9 	"/>
</g>
<g id="Group-28" transform="translate(116.000000, 51.000000)">
	<polygon id="Fill-52" class="st3" points="110.5,350.9 127.5,350.9 136,335.9 127.6,320.9 110.5,320.9 102,335.9 	"/>
	<polygon id="Stroke-53" class="st1" points="110.5,350.9 127.5,350.9 136,335.9 127.6,320.9 110.5,320.9 102,335.9 	"/>
</g>
<g id="Group-27" transform="translate(116.000000, 17.000000)">
	<polygon id="Fill-54" class="st3" points="110.5,350.9 127.5,350.9 136,335.9 127.6,320.9 110.5,320.9 102,335.9 	"/>
	<polygon id="Stroke-55" class="st1" points="110.5,350.9 127.5,350.9 136,335.9 127.6,320.9 110.5,320.9 102,335.9 	"/>
</g>
<g id="Group-37" transform="translate(145.000000, 34.000000)">
	<polygon id="Fill-56" class="st3" points="110.5,350.9 127.5,350.9 136,335.9 127.6,320.9 110.5,320.9 102,335.9 	"/>
	<polygon id="Stroke-57" class="st1" points="110.5,350.9 127.5,350.9 136,335.9 127.6,320.9 110.5,320.9 102,335.9 	"/>
</g>
<g id="Group-38" transform="translate(174.000000, 51.000000)">
	<polygon id="Fill-58" class="st3" points="110.5,350.9 127.5,350.9 136,335.9 127.6,320.9 110.5,320.9 102,335.9 	"/>
	<polygon id="Stroke-59" class="st1" points="110.5,350.9 127.5,350.9 136,335.9 127.6,320.9 110.5,320.9 102,335.9 	"/>
</g>
<g id="Group-39" transform="translate(174.000000, 85.000000)">
	<polygon id="Fill-60" class="st3" points="110.5,350.9 127.5,350.9 136,335.9 127.6,320.9 110.5,320.9 102,335.9 	"/>
	<polygon id="Stroke-61" class="st1" points="110.5,350.9 127.5,350.9 136,335.9 127.6,320.9 110.5,320.9 102,335.9 	"/>
</g>
<g id="Group-25" transform="translate(87.000000, 34.000000)">
	<polygon id="Fill-62" class="st2" points="110.5,350.9 127.5,350.9 136,335.9 127.6,320.9 110.5,320.9 102,335.9 	"/>
	<polygon id="Stroke-63" class="st1" points="110.5,350.9 127.5,350.9 136,335.9 127.6,320.9 110.5,320.9 102,335.9 	"/>
</g>
<g id="Group-3" transform="translate(0.000000, 23.000000)">
	<path id="Line" class="st6" d="M-34.5,323.4h149"/>
	<circle id="Oval-5" class="st3" cx="-34.5" cy="323.4" r="2.5"/>
</g>
<g id="Group-3-Copy-3" transform="translate(415.500000, 183.500000) scale(-1, 1) translate(-415.500000, -183.500000) translate(312.000000, 181.000000)">
	<path id="Line_1_" class="st6" d="M39,318.9h218"/>
	<circle id="Oval-5_1_" class="st3" cx="39" cy="318.9" r="2.5"/>
</g>
<g id="Group-3-Copy" transform="translate(0.000000, 117.000000)">
	<path id="Line_2_" class="st6" d="M-34.5,323.4h111"/>
	<circle id="Oval-5_2_" class="st3" cx="-34.5" cy="323.4" r="2.5"/>
</g>
<g id="Group-3-Copy_1_" transform="translate(0.000000, 117.000000)">
	<path id="Line_5_" class="st6" d="M-33.9,382.4h174"/>
	<circle id="Oval-5_4_" class="st3" cx="-33.9" cy="382.4" r="2.5"/>
</g>
<g id="Group-4" transform="translate(377.000000, 13.000000)">
	
		<g id="Group-3-Copy-2" transform="translate(77.000000, 35.500000) scale(-1, 1) translate(-77.000000, -35.500000) translate(11.000000, 33.000000)">
		<path id="Line_3_" class="st6" d="M39.5,323.4h129"/>
		<circle id="Oval-5_3_" class="st3" cx="39.5" cy="323.4" r="2.5"/>
	</g>
	<g id="Group-2">
		<path id="Line_4_" class="st6" d="M-36.9,446.4H-26"/>
		<path id="Line-Copy" class="st6" d="M-36.9,321.4H-26"/>
		<path id="Line-Copy-2" class="st6" d="M-25.6,321.5v124.8"/>
	</g>
</g>
</svg>
