<?xml version="1.0" encoding="utf-8"?>
<!-- Generator: Adobe Illustrator 19.1.0, SVG Export Plug-In . SVG Version: 6.00 Build 0)  -->
<svg version="1.1" id="Layer_1" xmlns="http://www.w3.org/2000/svg" xmlns:xlink="http://www.w3.org/1999/xlink" x="0px" y="0px"
	 viewBox="-630 367 178 167" style="enable-background:new -630 367 178 167;" xml:space="preserve">
<style type="text/css">
	.st0{fill:#FFA000;}
	.st1{fill:none;stroke:#ECEFF1;stroke-width:0.72;}
	.st2{fill:#FFECB3;}
	.st3{fill:#FFD54F;}
	.st4{fill:#FFC107;}
</style>
<title>Page 1</title>
<desc>Created with Sketch.</desc>
<g id="bee-v3_x2F_07-token" transform="translate(-898.000000, -465.000000)">
	<g id="Group-9" transform="translate(736.000000, 465.000000)">
		<g id="Group-5">
			<g id="Page-1" transform="translate(163.000000, 0.000000)">
				<polygon id="Fill-2" class="st0" points="-622.9,462.4 -608.7,462.4 -601.6,450.1 -608.6,437.8 -622.9,437.8 -630,450.1 				"/>
				<polygon id="Stroke-3" class="st1" points="-622.9,462.4 -608.7,462.4 -601.6,450.1 -608.6,437.8 -622.9,437.8 -630,450.1 				
					"/>
				<polygon id="Fill-4" class="st0" points="-598,476.4 -583.8,476.4 -576.8,464.1 -583.8,451.7 -598.1,451.7 -605.2,464.1 				"/>
				<polygon id="Stroke-5" class="st1" points="-598,476.4 -583.8,476.4 -576.8,464.1 -583.8,451.7 -598.1,451.7 -605.2,464.1 				
					"/>
				<polygon id="Fill-6" class="st0" points="-622.4,434.2 -608.2,434.2 -601.2,421.9 -608.2,409.6 -622.5,409.6 -629.6,421.9 				
					"/>
				<polygon id="Stroke-7" class="st1" points="-622.4,434.2 -608.2,434.2 -601.2,421.9 -608.2,409.6 -622.5,409.6 -629.6,421.9 
									"/>
				<polygon id="Fill-8" class="st2" points="-598,448.3 -583.8,448.3 -576.8,436 -583.8,423.7 -598.1,423.7 -605.2,436 				"/>
				<polygon id="Stroke-9" class="st1" points="-598,448.3 -583.8,448.3 -576.8,436 -583.8,423.7 -598.1,423.7 -605.2,436 				"/>
				<polygon id="Fill-10" class="st2" points="-573.6,462.4 -559.4,462.4 -552.3,450.1 -559.3,437.8 -573.6,437.8 -580.7,450.1 				
					"/>
				<polygon id="Stroke-11" class="st1" points="-573.6,462.4 -559.4,462.4 -552.3,450.1 -559.3,437.8 -573.6,437.8 -580.7,450.1 
									"/>
				<polygon id="Fill-12" class="st2" points="-573.6,434.2 -559.4,434.2 -552.3,421.9 -559.3,409.6 -573.6,409.6 -580.7,421.9 				
					"/>
				<polygon id="Stroke-13" class="st1" points="-573.6,434.2 -559.4,434.2 -552.3,421.9 -559.3,409.6 -573.6,409.6 -580.7,421.9 
									"/>
				<polygon id="Fill-14" class="st2" points="-598.4,420 -584.2,420 -577.2,407.7 -584.1,395.4 -598.4,395.4 -605.5,407.7 				"/>
				<polygon id="Stroke-15" class="st1" points="-598.4,420 -584.2,420 -577.2,407.7 -584.1,395.4 -598.4,395.4 -605.5,407.7 				
					"/>
				<polygon id="Fill-16" class="st3" points="-549,476.7 -534.8,476.7 -527.8,464.4 -534.8,452 -549,452 -556.1,464.4 				"/>
				<polygon id="Stroke-17" class="st1" points="-549,476.7 -534.8,476.7 -527.8,464.4 -534.8,452 -549,452 -556.1,464.4 				"/>
				<polygon id="Fill-18" class="st3" points="-524.6,490.6 -510.4,490.6 -503.4,478.3 -510.4,465.9 -524.6,465.9 -531.7,478.3 				
					"/>
				<polygon id="Stroke-19" class="st1" points="-524.6,490.6 -510.4,490.6 -503.4,478.3 -510.4,465.9 -524.6,465.9 -531.7,478.3 
									"/>
				<polygon id="Fill-20" class="st2" points="-549,448.8 -534.8,448.8 -527.8,436.5 -534.8,424.2 -549.1,424.2 -556.2,436.5 				
					"/>
				<polygon id="Stroke-21" class="st1" points="-549,448.8 -534.8,448.8 -527.8,436.5 -534.8,424.2 -549.1,424.2 -556.2,436.5 				
					"/>
				<polygon id="Fill-22" class="st2" points="-573.9,406.1 -559.7,406.1 -552.6,393.8 -559.6,381.5 -573.9,381.5 -581,393.8 				
					"/>
				<polygon id="Stroke-23" class="st1" points="-573.9,406.1 -559.7,406.1 -552.6,393.8 -559.6,381.5 -573.9,381.5 -581,393.8 				
					"/>
				<polygon id="Fill-24" class="st2" points="-549.1,367.4 -556.2,379.7 -549.1,392 -534.9,392 -527.8,379.7 -534.8,367.4 				"/>
				<polygon id="Stroke-25" class="st1" points="-549.1,392 -534.9,392 -527.8,379.7 -534.8,367.4 -549.1,367.4 -556.2,379.7 				
					"/>
				<polygon id="Fill-27" class="st3" points="-598.1,504.8 -583.9,504.8 -576.9,492.5 -583.8,480.1 -598.1,480.1 -605.2,492.5 				
					"/>
				<polygon id="Stroke-28" class="st1" points="-598.1,504.8 -583.9,504.8 -576.9,492.5 -583.8,480.1 -598.1,480.1 -605.2,492.5 
									"/>
				<polygon id="Fill-29" class="st3" points="-573.7,519.3 -559.5,519.3 -552.5,507 -559.4,494.6 -573.7,494.6 -580.8,507 				"/>
				<polygon id="Stroke-30" class="st1" points="-573.7,519.3 -559.5,519.3 -552.5,507 -559.4,494.6 -573.7,494.6 -580.8,507 				
					"/>
				<polygon id="Fill-31" class="st3" points="-549.3,508.7 -556.4,521.1 -549.3,533.4 -535.1,533.4 -528,521.1 -535,508.7 				"/>
				<polygon id="Stroke-32" class="st1" points="-549.3,533.4 -535.1,533.4 -528,521.1 -535,508.7 -549.3,508.7 -556.4,521.1 				
					"/>
				<polygon id="Fill-34" class="st3" points="-549.3,505.2 -535.1,505.2 -528,492.9 -535,480.5 -549.3,480.5 -556.4,492.9 				"/>
				<polygon id="Stroke-35" class="st1" points="-549.3,505.2 -535.1,505.2 -528,492.9 -535,480.5 -549.3,480.5 -556.4,492.9 				
					"/>
				<polygon id="Fill-36" class="st3" points="-573.7,490.6 -559.5,490.6 -552.5,478.3 -559.4,465.9 -573.7,465.9 -580.8,478.3 				
					"/>
				<polygon id="Stroke-37" class="st1" points="-573.7,490.6 -559.5,490.6 -552.5,478.3 -559.4,465.9 -573.7,465.9 -580.8,478.3 
									"/>
				<polygon id="Fill-38" class="st0" points="-622.4,490.1 -608.3,490.1 -601.2,477.8 -608.2,465.4 -622.5,465.4 -629.6,477.8 				
					"/>
				<polygon id="Stroke-39" class="st1" points="-622.4,490.1 -608.3,490.1 -601.2,477.8 -608.2,465.4 -622.5,465.4 -629.6,477.8 
									"/>
				<polygon id="Fill-40" class="st3" points="-524.4,518.7 -510.2,518.7 -503.2,506.4 -510.1,494.1 -524.4,494.1 -531.5,506.4 				
					"/>
				<polygon id="Stroke-41" class="st1" points="-524.4,518.7 -510.2,518.7 -503.2,506.4 -510.1,494.1 -524.4,494.1 -531.5,506.4 
									"/>
				<polygon id="Fill-42" class="st3" points="-500,505.2 -485.8,505.2 -478.8,492.9 -485.7,480.5 -500,480.5 -507.1,492.9 				"/>
				<polygon id="Stroke-43" class="st1" points="-500,505.2 -485.8,505.2 -478.8,492.9 -485.7,480.5 -500,480.5 -507.1,492.9 				
					"/>
				<polygon id="Fill-44" class="st4" points="-475.6,490.8 -461.4,490.8 -454.4,478.5 -461.4,466.1 -475.7,466.1 -482.8,478.5 				
					"/>
				<polygon id="Stroke-45" class="st1" points="-475.6,490.8 -461.4,490.8 -454.4,478.5 -461.4,466.1 -475.7,466.1 -482.8,478.5 
									"/>
				<polygon id="Fill-46" class="st4" points="-524.6,462.9 -510.4,462.9 -503.4,450.6 -510.4,438.3 -524.6,438.3 -531.7,450.6 				
					"/>
				<polygon id="Stroke-47" class="st1" points="-524.6,462.9 -510.4,462.9 -503.4,450.6 -510.4,438.3 -524.6,438.3 -531.7,450.6 
									"/>
				<polygon id="Fill-48" class="st4" points="-500.2,477 -486,477 -478.9,464.7 -485.9,452.4 -500.2,452.4 -507.3,464.7 				"/>
				<polygon id="Stroke-49" class="st1" points="-500.2,477 -486,477 -478.9,464.7 -485.9,452.4 -500.2,452.4 -507.3,464.7 				"/>
				<polygon id="Fill-50" class="st4" points="-500.2,448.8 -486,448.8 -478.9,436.5 -485.9,424.2 -500.2,424.2 -507.3,436.5 				
					"/>
				<polygon id="Stroke-51" class="st1" points="-500.2,448.8 -486,448.8 -478.9,436.5 -485.9,424.2 -500.2,424.2 -507.3,436.5 				
					"/>
				<polygon id="Fill-52" class="st4" points="-524.6,434.3 -510.4,434.3 -503.4,422 -510.4,409.6 -524.6,409.6 -531.7,422 				"/>
				<polygon id="Stroke-53" class="st1" points="-524.6,434.3 -510.4,434.3 -503.4,422 -510.4,409.6 -524.6,409.6 -531.7,422 				
					"/>
				<polygon id="Fill-54" class="st4" points="-524.6,406.1 -510.4,406.1 -503.4,393.8 -510.4,381.5 -524.6,381.5 -531.7,393.8 				
					"/>
				<polygon id="Stroke-55" class="st1" points="-524.6,406.1 -510.4,406.1 -503.4,393.8 -510.4,381.5 -524.6,381.5 -531.7,393.8 
									"/>
				<polygon id="Fill-56" class="st4" points="-500.3,420 -486.1,420 -479,407.7 -486,395.4 -500.3,395.4 -507.4,407.7 				"/>
				<polygon id="Stroke-57" class="st1" points="-500.3,420 -486.1,420 -479,407.7 -486,395.4 -500.3,395.4 -507.4,407.7 				"/>
				<polygon id="Fill-58" class="st4" points="-475.4,434 -461.3,434 -454.2,421.7 -461.2,409.3 -475.5,409.3 -482.6,421.7 				"/>
				<polygon id="Stroke-59" class="st1" points="-475.4,434 -461.3,434 -454.2,421.7 -461.2,409.3 -475.5,409.3 -482.6,421.7 				
					"/>
				<polygon id="Fill-60" class="st4" points="-475.2,462.6 -461,462.6 -454,450.3 -461,437.9 -475.2,437.9 -482.3,450.3 				"/>
				<polygon id="Stroke-61" class="st1" points="-475.2,462.6 -461,462.6 -454,450.3 -461,437.9 -475.2,437.9 -482.3,450.3 				"/>
				<polygon id="Fill-62" class="st2" points="-549.1,420 -534.9,420 -527.8,407.7 -534.8,395.4 -549.1,395.4 -556.2,407.7 				"/>
				<polygon id="Stroke-63" class="st1" points="-549.1,420 -534.9,420 -527.8,407.7 -534.8,395.4 -549.1,395.4 -556.2,407.7 				
					"/>
			</g>
		</g>
	</g>
</g>
</svg>
