<?xml version="1.0" encoding="UTF-8"?>
<svg width="18px" height="14px" viewBox="0 0 18 14" version="1.1" xmlns="http://www.w3.org/2000/svg" xmlns:xlink="http://www.w3.org/1999/xlink">
    <!-- Generator: Sketch 48.2 (47327) - http://www.bohemiancoding.com/sketch -->
    <title>twitter</title>
    <desc>Created with Sketch.</desc>
    <defs></defs>
    <g id="bee-v3/01-hero" stroke="none" stroke-width="1" fill="none" fill-rule="evenodd" transform="translate(-639.000000, -648.000000)">
        <g id="hero-content" fill="#FFC107">
            <g id="social-icons" transform="translate(595.000000, 646.000000)">
                <path d="M59.8324248,5.66189073 C59.8387197,5.80615845 59.8429164,5.95042616 59.8429164,6.09674022 C59.8429164,10.5342513 56.3785768,15.6521739 50.0437245,15.6521739 C48.0985744,15.6521739 46.2887665,15.0965898 44.7643312,14.1440136 C45.0339664,14.1747088 45.3077982,14.1900565 45.5858266,14.1900565 C47.1994409,14.1900565 48.684008,13.6539126 49.8632683,12.7524952 C48.3556196,12.7258927 47.0840328,11.7548994 46.6454823,10.4206788 C46.8563643,10.4595595 47.0714429,10.480023 47.2938656,10.480023 C47.6075657,10.480023 47.9118232,10.439096 48.2013925,10.3623579 C46.6255482,10.0543821 45.4389437,8.69662854 45.4389437,7.06977988 L45.4389437,7.02680652 C45.9026742,7.27850764 46.4346003,7.42993757 46.9990506,7.44733155 C46.0747371,6.84468133 45.4662219,5.8163902 45.4662219,4.65201676 C45.4662219,4.03606526 45.6361865,3.45899441 45.9330999,2.96275441 C47.6316965,4.99478047 50.1696242,6.33207053 53.0317436,6.47224554 C52.9729904,6.22668347 52.9425647,5.96986649 52.9425647,5.70691045 C52.9425647,3.85189371 54.4848358,2.34782609 56.385921,2.34782609 C57.377381,2.34782609 58.2723179,2.75607301 58.899718,3.40885883 C59.6844926,3.25845206 60.4220549,2.97912522 61.0872249,2.59441132 C60.8301797,3.37816357 60.2835653,4.03606526 59.5732813,4.45249758 C60.2699262,4.37064356 60.9329978,4.19056472 61.5509554,3.92351598 C61.0893232,4.59676529 60.5049389,5.18816059 59.8324248,5.66189073" id="twitter"></path>
            </g>
        </g>
    </g>
</svg>