<?xml version="1.0" standalone="no"?><!DOCTYPE svg PUBLIC "-//W3C//DTD SVG 1.1//EN" "http://www.w3.org/Graphics/SVG/1.1/DTD/svg11.dtd"><svg t="1527146201738" class="icon" style="" viewBox="0 0 1024 1024" version="1.1" xmlns="http://www.w3.org/2000/svg" p-id="15721" xmlns:xlink="http://www.w3.org/1999/xlink" width="500" height="500"><defs><style type="text/css"></style></defs><path d="M511.69792 1023.39456C229.08672 1023.39456 0 794.30912 0 511.69792S229.08672 0 511.69792 0s511.69792 229.08672 511.69792 511.69792S794.30912 1023.39456 511.69792 1023.39456zM883.83744 290.74432c0-19.26656-15.6288-34.89536-34.89664-34.89536L174.45248 255.84896c-19.26656 0-34.89664 15.6288-34.89664 34.89536l0 104.66048 744.2816 0L883.83744 290.74432zM139.55584 465.16992l0 267.48032c0 19.26528 15.63008 34.89664 34.89664 34.89664l674.48832 0c19.26784 0 34.89664-15.63136 34.89664-34.89664L883.83744 465.16992 139.55584 465.16992zM209.32096 593.09312l348.90496 0 0 34.89664L209.32096 627.98976 209.32096 593.09312zM348.8768 697.75488 209.32096 697.75488 209.32096 662.8864 348.8768 662.8864 348.8768 697.75488z" p-id="15722" fill="#ffffff"></path></svg>